g AirConditionersMesh
v -2 0 1
v -2 1 1
v 2 1 1
v 2 0 1
v -2 1 1
v -2 1 -1
v 2 1 -1
v 2 1 1
v -2 1 -1
v -2 0 -1
v 2 0 -1
v 2 1 -1
v 2 0 1
v 2 1 1
v 2 1 -1
v 2 0 -1
v -2 0 -1
v -2 1 -1
v -2 1 1
v -2 0 1
v 1.720707 1 -0.2341719
v 1.720707 1.225316 -0.2341719
v 1.61307 1.225316 -0.4454214
v 1.61307 1 -0.4454214
v 1.445422 1.225316 -0.6130698
v 1.445422 1 -0.6130698
v 1.234172 1.225316 -0.7207068
v 1.234172 1 -0.7207068
v 1 1.225316 -0.757796
v 1 1 -0.757796
v 0.7658283 1.225316 -0.7207068
v 0.7658283 1 -0.7207068
v 0.5545787 1.225316 -0.6130699
v 0.5545787 1 -0.6130699
v 0.3869303 1.225316 -0.4454212
v 0.3869303 1 -0.4454212
v 0.2792933 1.225316 -0.2341718
v 0.2792933 1 -0.2341718
v 0.2422042 1.225316 1.850654E-16
v 0.2422042 1 1.850654E-16
v 0.2792933 1.225316 0.2341718
v 0.2792933 1 0.2341718
v 0.3869303 1.225316 0.4454212
v 0.3869303 1 0.4454212
v 0.5545788 1.225316 0.6130698
v 0.5545788 1 0.6130698
v 0.7658281 1.225316 0.7207065
v 0.7658281 1 0.7207065
v 1 1.225316 0.7577958
v 1 1 0.7577958
v 1.234172 1.225316 0.7207065
v 1.234172 1 0.7207065
v 1.445421 1.225316 0.6130697
v 1.445421 1 0.6130697
v 1.61307 1.225316 0.4454211
v 1.61307 1 0.4454211
v 1.720707 1.225316 0.2341717
v 1.720707 1 0.2341717
v 1.757796 1.225316 -5.428141E-08
v 1.757796 1 -5.428141E-08
v 1.720707 1.225316 -0.2341719
v 1.720707 1 -0.2341719
v -0.2792931 1 -0.2341719
v -0.2792931 1.225316 -0.2341719
v -0.38693 1.225316 -0.4454214
v -0.38693 1 -0.4454214
v -0.5545786 1.225316 -0.6130701
v -0.5545786 1 -0.6130701
v -0.765828 1.225316 -0.7207068
v -0.765828 1 -0.7207068
v -1 1.225316 -0.757796
v -1 1 -0.757796
v -1.234172 1.225316 -0.7207068
v -1.234172 1 -0.7207068
v -1.445421 1.225316 -0.6130699
v -1.445421 1 -0.6130699
v -1.61307 1.225316 -0.4454212
v -1.61307 1 -0.4454212
v -1.720707 1.225316 -0.2341718
v -1.720707 1 -0.2341718
v -1.757796 1.225316 1.850654E-16
v -1.757796 1 1.850654E-16
v -1.720707 1.225316 0.2341718
v -1.720707 1 0.2341718
v -1.61307 1.225316 0.4454212
v -1.61307 1 0.4454212
v -1.445421 1.225316 0.6130698
v -1.445421 1 0.6130698
v -1.234172 1.225316 0.7207065
v -1.234172 1 0.7207065
v -1 1.225316 0.7577958
v -1 1 0.7577958
v -0.7658284 1.225316 0.7207065
v -0.7658284 1 0.7207065
v -0.5545789 1.225316 0.6130697
v -0.5545789 1 0.6130697
v -0.3869305 1.225316 0.4454211
v -0.3869305 1 0.4454211
v -0.2792935 1.225316 0.2341717
v -0.2792935 1 0.2341717
v -0.2422044 1.225316 -5.290538E-08
v -0.2422044 1 -5.290538E-08
v -0.2792931 1.225316 -0.2341719
v -0.2792931 1 -0.2341719
v 1.720707 1.225316 -0.2341719
v 1 1.225316 0
v 1.61307 1.225316 -0.4454214
v 1.757796 1.225316 -5.428141E-08
v 1.445422 1.225316 -0.6130698
v 1.720707 1.225316 0.2341717
v 1.234172 1.225316 -0.7207068
v 1.61307 1.225316 0.4454211
v 1 1.225316 -0.757796
v 1.445421 1.225316 0.6130697
v 0.7658283 1.225316 -0.7207068
v 1.234172 1.225316 0.7207065
v 0.5545787 1.225316 -0.6130699
v 1 1.225316 0.7577958
v 0.3869303 1.225316 -0.4454212
v 0.7658281 1.225316 0.7207065
v 0.2792933 1.225316 -0.2341718
v 0.5545788 1.225316 0.6130698
v 0.2422042 1.225316 1.850654E-16
v 0.3869303 1.225316 0.4454212
v 0.2792933 1.225316 0.2341718
v -0.2792931 1.225316 -0.2341719
v -1 1.225316 0
v -0.38693 1.225316 -0.4454214
v -0.2422044 1.225316 -5.290538E-08
v -0.5545786 1.225316 -0.6130701
v -0.2792935 1.225316 0.2341717
v -0.765828 1.225316 -0.7207068
v -0.3869305 1.225316 0.4454211
v -1 1.225316 -0.757796
v -0.5545789 1.225316 0.6130697
v -1.234172 1.225316 -0.7207068
v -0.7658284 1.225316 0.7207065
v -1.445421 1.225316 -0.6130699
v -1 1.225316 0.7577958
v -1.61307 1.225316 -0.4454212
v -1.234172 1.225316 0.7207065
v -1.720707 1.225316 -0.2341718
v -1.445421 1.225316 0.6130698
v -1.757796 1.225316 1.850654E-16
v -1.61307 1.225316 0.4454212
v -1.720707 1.225316 0.2341718
vt 0.375 0
vt 0.375 0.25
vt 0.625 0.25
vt 0.625 0
vt 0.375 0.25
vt 0.375 0.5
vt 0.625 0.5
vt 0.625 0.25
vt 0.375 0.5
vt 0.375 0.75
vt 0.625 0.75
vt 0.625 0.5
vt 0.625 0
vt 0.625 0.25
vt 0.875 0.25
vt 0.875 0
vt 0.125 0
vt 0.125 0.25
vt 0.375 0.25
vt 0.375 0
vt 0.375 0.3125
vt 0.375 0.6884398
vt 0.3875 0.6884398
vt 0.3875 0.3125
vt 0.4 0.6884398
vt 0.4 0.3125
vt 0.4125 0.6884398
vt 0.4125 0.3125
vt 0.425 0.6884398
vt 0.425 0.3125
vt 0.4374999 0.6884398
vt 0.4374999 0.3125
vt 0.4499999 0.6884398
vt 0.4499999 0.3125
vt 0.4624999 0.6884398
vt 0.4624999 0.3125
vt 0.4749999 0.6884398
vt 0.4749999 0.3125
vt 0.4874999 0.6884398
vt 0.4874999 0.3125
vt 0.4999999 0.6884398
vt 0.4999999 0.3125
vt 0.5124999 0.6884398
vt 0.5124999 0.3125
vt 0.5249999 0.6884398
vt 0.5249999 0.3125
vt 0.5374998 0.6884398
vt 0.5374998 0.3125
vt 0.5499998 0.6884398
vt 0.5499998 0.3125
vt 0.5624998 0.6884398
vt 0.5624998 0.3125
vt 0.5749998 0.6884398
vt 0.5749998 0.3125
vt 0.5874998 0.6884398
vt 0.5874998 0.3125
vt 0.5999998 0.6884398
vt 0.5999998 0.3125
vt 0.6124998 0.6884398
vt 0.6124998 0.3125
vt 0.6249998 0.6884398
vt 0.6249998 0.3125
vt 0.375 0.3125
vt 0.375 0.6884398
vt 0.3875 0.6884398
vt 0.3875 0.3125
vt 0.4 0.6884398
vt 0.4 0.3125
vt 0.4125 0.6884398
vt 0.4125 0.3125
vt 0.425 0.6884398
vt 0.425 0.3125
vt 0.4374999 0.6884398
vt 0.4374999 0.3125
vt 0.4499999 0.6884398
vt 0.4499999 0.3125
vt 0.4624999 0.6884398
vt 0.4624999 0.3125
vt 0.4749999 0.6884398
vt 0.4749999 0.3125
vt 0.4874999 0.6884398
vt 0.4874999 0.3125
vt 0.4999999 0.6884398
vt 0.4999999 0.3125
vt 0.5124999 0.6884398
vt 0.5124999 0.3125
vt 0.5249999 0.6884398
vt 0.5249999 0.3125
vt 0.5374998 0.6884398
vt 0.5374998 0.3125
vt 0.5499998 0.6884398
vt 0.5499998 0.3125
vt 0.5624998 0.6884398
vt 0.5624998 0.3125
vt 0.5749998 0.6884398
vt 0.5749998 0.3125
vt 0.5874998 0.6884398
vt 0.5874998 0.3125
vt 0.5999998 0.6884398
vt 0.5999998 0.3125
vt 0.6124998 0.6884398
vt 0.6124998 0.3125
vt 0.6249998 0.6884398
vt 0.6249998 0.3125
vt 0.6486026 0.8920339
vt 0.5 0.8375
vt 0.6264089 0.9355915
vt 0.65625 0.84375
vt 0.5918415 0.9701589
vt 0.6486027 0.7954661
vt 0.5482839 0.9923526
vt 0.626409 0.7519085
vt 0.5 1
vt 0.5918415 0.717341
vt 0.4517161 0.9923526
vt 0.5482839 0.6951473
vt 0.4081585 0.9701589
vt 0.5 0.6874999
vt 0.3735911 0.9355915
vt 0.4517161 0.6951473
vt 0.3513974 0.8920339
vt 0.4081585 0.7173411
vt 0.34375 0.84375
vt 0.3735911 0.7519085
vt 0.3513974 0.7954661
vt 0.6486026 0.8920339
vt 0.5 0.8375
vt 0.6264089 0.9355915
vt 0.65625 0.84375
vt 0.5918415 0.9701589
vt 0.6486027 0.7954661
vt 0.5482839 0.9923526
vt 0.626409 0.7519085
vt 0.5 1
vt 0.5918415 0.717341
vt 0.4517161 0.9923526
vt 0.5482839 0.6951473
vt 0.4081585 0.9701589
vt 0.5 0.6874999
vt 0.3735911 0.9355915
vt 0.4517161 0.6951473
vt 0.3513974 0.8920339
vt 0.4081585 0.7173411
vt 0.34375 0.84375
vt 0.3735911 0.7519085
vt 0.3513974 0.7954661
vn 0 0 1
vn 0 0 1
vn 0 0 1
vn 0 0 1
vn 0 1 0
vn 0 1 0
vn 0 1 0
vn 0 1 0
vn 0 0 -1
vn 0 0 -1
vn 0 0 -1
vn 0 0 -1
vn 1 0 0
vn 1 0 0
vn 1 0 0
vn 1 0 0
vn -1 0 0
vn -1 0 0
vn -1 0 0
vn -1 0 0
vn 0.9510568 0 -0.309016
vn 0.9510568 0 -0.309016
vn 0.809017 0 -0.5877852
vn 0.809017 0 -0.5877852
vn 0.5877852 0 -0.809017
vn 0.5877852 0 -0.809017
vn 0.309017 0 -0.9510565
vn 0.309017 0 -0.9510565
vn 0 0 -1
vn 0 0 -1
vn -0.3090171 0 -0.9510565
vn -0.3090171 0 -0.9510565
vn -0.5877854 0 -0.809017
vn -0.5877854 0 -0.809017
vn -0.8090172 0 -0.5877849
vn -0.8090172 0 -0.5877849
vn -0.9510565 0 -0.3090169
vn -0.9510565 0 -0.3090169
vn -1 0 0
vn -1 0 0
vn -0.9510565 0 0.3090171
vn -0.9510565 0 0.3090171
vn -0.8090171 0 0.5877852
vn -0.8090171 0 0.5877852
vn -0.5877853 0 0.809017
vn -0.5877853 0 0.809017
vn -0.3090166 0 0.9510567
vn -0.3090166 0 0.9510567
vn 0 0 1
vn 0 0 1
vn 0.3090167 0 0.9510565
vn 0.3090167 0 0.9510565
vn 0.5877853 0 0.8090169
vn 0.5877853 0 0.8090169
vn 0.8090173 0 0.5877849
vn 0.8090173 0 0.5877849
vn 0.9510565 0 0.3090171
vn 0.9510565 0 0.3090171
vn 1 0 0
vn 1 0 0
vn 0.9510568 0 -0.309016
vn 0.9510568 0 -0.309016
vn 0.9510569 0 -0.309016
vn 0.9510569 0 -0.309016
vn 0.8090171 0 -0.587785
vn 0.8090171 0 -0.587785
vn 0.5877852 0 -0.8090171
vn 0.5877852 0 -0.8090171
vn 0.3090166 0 -0.9510565
vn 0.3090166 0 -0.9510565
vn 0 0 -1
vn 0 0 -1
vn -0.309017 0 -0.9510565
vn -0.309017 0 -0.9510565
vn -0.5877856 0 -0.8090168
vn -0.5877856 0 -0.8090168
vn -0.8090172 0 -0.5877849
vn -0.8090172 0 -0.5877849
vn -0.9510565 0 -0.3090168
vn -0.9510565 0 -0.3090168
vn -1 0 0
vn -1 0 0
vn -0.9510565 0 0.3090169
vn -0.9510565 0 0.3090169
vn -0.8090172 0 0.587785
vn -0.8090172 0 0.587785
vn -0.5877852 0 0.809017
vn -0.5877852 0 0.809017
vn -0.3090165 0 0.9510567
vn -0.3090165 0 0.9510567
vn 0 0 1
vn 0 0 1
vn 0.3090168 0 0.9510565
vn 0.3090168 0 0.9510565
vn 0.5877851 0 0.8090171
vn 0.5877851 0 0.8090171
vn 0.8090171 0 0.5877851
vn 0.8090171 0 0.5877851
vn 0.9510565 0 0.3090171
vn 0.9510565 0 0.3090171
vn 1 0 0
vn 1 0 0
vn 0.9510569 0 -0.309016
vn 0.9510569 0 -0.309016
vn 0 1 0
vn 0 1 0
vn 0 1 0
vn 0 1 0
vn 0 1 0
vn 0 1 0
vn 0 1 0
vn 0 1 0
vn 0 1 0
vn 0 1 0
vn 0 1 0
vn 0 1 0
vn 0 1 0
vn 0 1 0
vn 0 1 0
vn 0 1 0
vn 0 1 0
vn 0 1 0
vn 0 1 0
vn 0 1 0
vn 0 1 0
vn 0 1 0
vn 0 1 0
vn 0 1 0
vn 0 1 0
vn 0 1 0
vn 0 1 0
vn 0 1 0
vn 0 1 0
vn 0 1 0
vn 0 1 0
vn 0 1 0
vn 0 1 0
vn 0 1 0
vn 0 1 0
vn 0 1 0
vn 0 1 0
vn 0 1 0
vn 0 1 0
vn 0 1 0
vn 0 1 0
vn 0 1 0
g AirConditionersMesh_0
f 3/3/3 2/2/2 1/1/1
f 4/4/4 3/3/3 1/1/1
f 7/7/7 6/6/6 5/5/5
f 8/8/8 7/7/7 5/5/5
f 11/11/11 10/10/10 9/9/9
f 12/12/12 11/11/11 9/9/9
f 15/15/15 14/14/14 13/13/13
f 16/16/16 15/15/15 13/13/13
f 19/19/19 18/18/18 17/17/17
f 20/20/20 19/19/19 17/17/17
f 23/23/23 22/22/22 21/21/21
f 24/24/24 23/23/23 21/21/21
f 25/25/25 23/23/23 24/24/24
f 26/26/26 25/25/25 24/24/24
f 27/27/27 25/25/25 26/26/26
f 28/28/28 27/27/27 26/26/26
f 29/29/29 27/27/27 28/28/28
f 30/30/30 29/29/29 28/28/28
f 31/31/31 29/29/29 30/30/30
f 32/32/32 31/31/31 30/30/30
f 33/33/33 31/31/31 32/32/32
f 34/34/34 33/33/33 32/32/32
f 35/35/35 33/33/33 34/34/34
f 36/36/36 35/35/35 34/34/34
f 37/37/37 35/35/35 36/36/36
f 38/38/38 37/37/37 36/36/36
f 39/39/39 37/37/37 38/38/38
f 40/40/40 39/39/39 38/38/38
f 41/41/41 39/39/39 40/40/40
f 42/42/42 41/41/41 40/40/40
f 43/43/43 41/41/41 42/42/42
f 44/44/44 43/43/43 42/42/42
f 45/45/45 43/43/43 44/44/44
f 46/46/46 45/45/45 44/44/44
f 47/47/47 45/45/45 46/46/46
f 48/48/48 47/47/47 46/46/46
f 49/49/49 47/47/47 48/48/48
f 50/50/50 49/49/49 48/48/48
f 51/51/51 49/49/49 50/50/50
f 52/52/52 51/51/51 50/50/50
f 53/53/53 51/51/51 52/52/52
f 54/54/54 53/53/53 52/52/52
f 55/55/55 53/53/53 54/54/54
f 56/56/56 55/55/55 54/54/54
f 57/57/57 55/55/55 56/56/56
f 58/58/58 57/57/57 56/56/56
f 59/59/59 57/57/57 58/58/58
f 60/60/60 59/59/59 58/58/58
f 61/61/61 59/59/59 60/60/60
f 62/62/62 61/61/61 60/60/60
f 65/65/65 64/64/64 63/63/63
f 66/66/66 65/65/65 63/63/63
f 67/67/67 65/65/65 66/66/66
f 68/68/68 67/67/67 66/66/66
f 69/69/69 67/67/67 68/68/68
f 70/70/70 69/69/69 68/68/68
f 71/71/71 69/69/69 70/70/70
f 72/72/72 71/71/71 70/70/70
f 73/73/73 71/71/71 72/72/72
f 74/74/74 73/73/73 72/72/72
f 75/75/75 73/73/73 74/74/74
f 76/76/76 75/75/75 74/74/74
f 77/77/77 75/75/75 76/76/76
f 78/78/78 77/77/77 76/76/76
f 79/79/79 77/77/77 78/78/78
f 80/80/80 79/79/79 78/78/78
f 81/81/81 79/79/79 80/80/80
f 82/82/82 81/81/81 80/80/80
f 83/83/83 81/81/81 82/82/82
f 84/84/84 83/83/83 82/82/82
f 85/85/85 83/83/83 84/84/84
f 86/86/86 85/85/85 84/84/84
f 87/87/87 85/85/85 86/86/86
f 88/88/88 87/87/87 86/86/86
f 89/89/89 87/87/87 88/88/88
f 90/90/90 89/89/89 88/88/88
f 91/91/91 89/89/89 90/90/90
f 92/92/92 91/91/91 90/90/90
f 93/93/93 91/91/91 92/92/92
f 94/94/94 93/93/93 92/92/92
f 95/95/95 93/93/93 94/94/94
f 96/96/96 95/95/95 94/94/94
f 97/97/97 95/95/95 96/96/96
f 98/98/98 97/97/97 96/96/96
f 99/99/99 97/97/97 98/98/98
f 100/100/100 99/99/99 98/98/98
f 101/101/101 99/99/99 100/100/100
f 102/102/102 101/101/101 100/100/100
f 103/103/103 101/101/101 102/102/102
f 104/104/104 103/103/103 102/102/102
f 107/107/107 106/106/106 105/105/105
f 105/105/105 106/106/106 108/108/108
f 109/109/109 106/106/106 107/107/107
f 108/108/108 106/106/106 110/110/110
f 111/111/111 106/106/106 109/109/109
f 110/110/110 106/106/106 112/112/112
f 113/113/113 106/106/106 111/111/111
f 112/112/112 106/106/106 114/114/114
f 115/115/115 106/106/106 113/113/113
f 114/114/114 106/106/106 116/116/116
f 117/117/117 106/106/106 115/115/115
f 116/116/116 106/106/106 118/118/118
f 119/119/119 106/106/106 117/117/117
f 118/118/118 106/106/106 120/120/120
f 121/121/121 106/106/106 119/119/119
f 120/120/120 106/106/106 122/122/122
f 123/123/123 106/106/106 121/121/121
f 122/122/122 106/106/106 124/124/124
f 125/125/125 106/106/106 123/123/123
f 124/124/124 106/106/106 125/125/125
f 128/128/128 127/127/127 126/126/126
f 126/126/126 127/127/127 129/129/129
f 130/130/130 127/127/127 128/128/128
f 129/129/129 127/127/127 131/131/131
f 132/132/132 127/127/127 130/130/130
f 131/131/131 127/127/127 133/133/133
f 134/134/134 127/127/127 132/132/132
f 133/133/133 127/127/127 135/135/135
f 136/136/136 127/127/127 134/134/134
f 135/135/135 127/127/127 137/137/137
f 138/138/138 127/127/127 136/136/136
f 137/137/137 127/127/127 139/139/139
f 140/140/140 127/127/127 138/138/138
f 139/139/139 127/127/127 141/141/141
f 142/142/142 127/127/127 140/140/140
f 141/141/141 127/127/127 143/143/143
f 144/144/144 127/127/127 142/142/142
f 143/143/143 127/127/127 145/145/145
f 146/146/146 127/127/127 144/144/144
f 145/145/145 127/127/127 146/146/146
