g BoxMesh
v -0.1368286 0.1416917 0.1670543
v -0.1368286 0.1693157 0.1670543
v 0.1373893 0.1693157 0.1665935
v 0.1373893 0.1416917 0.1665935
v -0.1368286 0.1693157 0.1670543
v -0.1373893 0.1693157 -0.1665935
v 0.1368285 0.1693157 -0.1670543
v 0.1373893 0.1693157 0.1665935
v -0.1373893 0.1693157 -0.1665935
v -0.1373893 0.1416917 -0.1665935
v 0.1368285 0.1416917 -0.1670543
v 0.1368285 0.1693157 -0.1670543
v -0.1300362 0 -0.1576763
v -0.1295055 0 0.158113
v 0.1300361 0 0.1576768
v 0.1295055 0 -0.1581125
v 0.1373893 0.1416917 0.1665935
v 0.1373893 0.1693157 0.1665935
v 0.1368285 0.1693157 -0.1670543
v 0.1368285 0.1416917 -0.1670543
v -0.1373893 0.1416917 -0.1665935
v -0.1373893 0.1693157 -0.1665935
v -0.1368286 0.1693157 0.1670543
v -0.1368286 0.1416917 0.1670543
v -0.1300362 0 -0.1576763
v -0.1300362 0.1416917 -0.1576763
v -0.1295055 0.1416917 0.158113
v -0.1295055 0 0.158113
v 0.1300361 0 0.1576768
v 0.1300361 0.1416917 0.1576768
v 0.1295055 0.1416917 -0.1581125
v 0.1295055 0 -0.1581125
v 0.1373893 0.1416917 0.1665935
v 0.1300361 0.1416917 0.1576768
v -0.1295055 0.1416917 0.158113
v -0.1368286 0.1416917 0.1670543
v -0.1373893 0.1416917 -0.1665935
v -0.1300362 0.1416917 -0.1576763
v 0.1295055 0.1416917 -0.1581125
v 0.1368285 0.1416917 -0.1670543
v 0.1368285 0.1416917 -0.1670543
v 0.1295055 0.1416917 -0.1581125
v 0.1300361 0.1416917 0.1576768
v 0.1373893 0.1416917 0.1665935
v -0.1368286 0.1416917 0.1670543
v -0.1295055 0.1416917 0.158113
v -0.1300362 0.1416917 -0.1576763
v -0.1373893 0.1416917 -0.1665935
v -0.1295055 0.1416917 0.158113
v 0.1300361 0.1416917 0.1576768
v 0.1300361 0 0.1576768
v -0.1295055 0 0.158113
v -0.1300362 0 -0.1576763
v 0.1295055 0 -0.1581125
v 0.1295055 0.1416917 -0.1581125
v -0.1300362 0.1416917 -0.1576763
vt 0.2603685 0.1821882
vt 0.2603475 0.1821882
vt 0.2603894 0.1821882
vt 0.2604035 0.1821882
vt 0.2922415 0.1821882
vt 0.292245 0.1821882
vt 0.2922573 0.1821882
vt 0.2922554 0.1821882
vt 0.2603399 0.1821882
vt 0.2603621 0.1821882
vt 0.2603972 0.1821882
vt 0.2603818 0.1821882
vt 0.1349829 0.1821882
vt 0.1349838 0.1821882
vt 0.1349957 0.1821882
vt 0.1349945 0.1821882
vt 0.22729 0.1821882
vt 0.22729 0.1821882
vt 0.22729 0.1821882
vt 0.22729 0.1821882
vt 0.2272898 0.1821882
vt 0.2272898 0.1821882
vt 0.2272898 0.1821882
vt 0.2272898 0.1821882
vt 0.1678506 0.1821882
vt 0.1678506 0.1821882
vt 0.1678506 0.1821882
vt 0.1678506 0.1821882
vt 0.1678508 0.1821882
vt 0.1678508 0.1821882
vt 0.1678508 0.1821882
vt 0.1678508 0.1821882
vt 0.2604035 0.1821882
vt 0.2594476 0.1821882
vt 0.2606035 0.1821882
vt 0.2603685 0.1821882
vt 0.2603621 0.1821882
vt 0.2592735 0.1821882
vt 0.2607232 0.1821882
vt 0.2603972 0.1821882
vt 0.22729 0.1821882
vt 0.22729 0.1821882
vt 0.22729 0.1821882
vt 0.22729 0.1821882
vt 0.2272898 0.1821882
vt 0.2272898 0.1821882
vt 0.2272898 0.1821882
vt 0.2272898 0.1821882
vt 0.2006455 0.1821882
vt 0.2006574 0.1821882
vt 0.2006612 0.1821882
vt 0.2006501 0.1821882
vt 0.2006127 0.1821882
vt 0.2006212 0.1821882
vt 0.2006281 0.1821882
vt 0.2006223 0.1821882
vn -0.1461471 0 0.9892629
vn -0.1461471 0 0.9892629
vn -0.1461471 0 0.9892629
vn -0.1461471 0 0.9892629
vn 0 1 0
vn 0 1 0
vn 0 1 0
vn 0 1 0
vn 0.1461471 0 -0.9892629
vn 0.1461471 0 -0.9892629
vn 0.1461471 0 -0.9892629
vn 0.1461471 0 -0.9892629
vn 0 -1 0
vn 0 -1 0
vn 0 -1 0
vn 0 -1 0
vn 0.9892629 0 0.1461471
vn 0.9892629 0 0.1461471
vn 0.9892629 0 0.1461471
vn 0.9892629 0 0.1461471
vn -0.9892629 0 -0.1461471
vn -0.9892629 0 -0.1461471
vn -0.9892629 0 -0.1461471
vn -0.9892629 0 -0.1461471
vn -0.9892629 0 -0.1461471
vn -0.9892629 0 -0.1461471
vn -0.9892629 0 -0.1461471
vn -0.9892629 0 -0.1461471
vn 0.9892629 0 0.1461471
vn 0.9892629 0 0.1461471
vn 0.9892629 0 0.1461471
vn 0.9892629 0 0.1461471
vn 0 -1 0
vn 0 -1 0
vn 0 -1 0
vn 0 -1 0
vn 0 -1 0
vn 0 -1 0
vn 0 -1 0
vn 0 -1 0
vn 0 -1 0
vn 0 -1 0
vn 0 -1 0
vn 0 -1 0
vn 0 -1 0
vn 0 -1 0
vn 0 -1 0
vn 0 -1 0
vn -0.1461471 0 0.9892629
vn -0.1461471 0 0.9892629
vn -0.1461471 0 0.9892629
vn -0.1461471 0 0.9892629
vn 0.1461471 0 -0.9892629
vn 0.1461471 0 -0.9892629
vn 0.1461471 0 -0.9892629
vn 0.1461471 0 -0.9892629
g BoxMesh_0
f 3/3/3 2/2/2 1/1/1
f 4/4/4 3/3/3 1/1/1
f 7/7/7 6/6/6 5/5/5
f 8/8/8 7/7/7 5/5/5
f 11/11/11 10/10/10 9/9/9
f 12/12/12 11/11/11 9/9/9
f 15/15/15 14/14/14 13/13/13
f 16/16/16 15/15/15 13/13/13
f 19/19/19 18/18/18 17/17/17
f 20/20/20 19/19/19 17/17/17
f 23/23/23 22/22/22 21/21/21
f 24/24/24 23/23/23 21/21/21
f 27/27/27 26/26/26 25/25/25
f 28/28/28 27/27/27 25/25/25
f 31/31/31 30/30/30 29/29/29
f 32/32/32 31/31/31 29/29/29
f 35/35/35 34/34/34 33/33/33
f 36/36/36 35/35/35 33/33/33
f 39/39/39 38/38/38 37/37/37
f 40/40/40 39/39/39 37/37/37
f 43/43/43 42/42/42 41/41/41
f 44/44/44 43/43/43 41/41/41
f 47/47/47 46/46/46 45/45/45
f 48/48/48 47/47/47 45/45/45
f 51/51/51 50/50/50 49/49/49
f 52/52/52 51/51/51 49/49/49
f 55/55/55 54/54/54 53/53/53
f 56/56/56 55/55/55 53/53/53
