g BuildingPart02
v -3 -25 5
v 2.99999 -25 5
v 2.99999 -25 1.913045
v -3 -25 1.913045
v 2.99999 -25 -1.913045
v -3 -25 -1.913045
v 2.99999 -25 -5
v -3 -25 -5
v -1.42 -13.69805 -4.490622
v 1.419991 -13.69805 -4.490622
v 1.419991 -9.705169 -4.490622
v -1.42 -9.705169 -4.490622
v -1.42 -7.514952 -4.490622
v 1.419991 -7.514952 -4.490622
v 1.419991 -3.750997 -4.490622
v -1.42 -3.750997 -4.490622
v -3 0 -5
v 3 0 -5
v 3 0 5
v -3 0 5
v -1.42 -3.750997 4.490622
v 1.419991 -3.750997 4.490622
v 1.419991 -7.514952 4.490621
v -1.42 -7.514952 4.490621
v -1.42 -9.705169 4.490621
v 1.419991 -9.705169 4.490621
v 1.419991 -13.69805 4.490622
v -1.42 -13.69805 4.490622
v -1.72 -13.99805 -5
v -1.42 -13.69805 -4.490622
v -1.42 -9.705169 -4.490622
v -1.72 -9.405169 -5
v -1.72 -9.405169 -5
v -1.42 -9.705169 -4.490622
v 1.419991 -9.705169 -4.490622
v 1.719991 -9.405169 -5
v 1.719991 -9.405169 -5
v 1.419991 -9.705169 -4.490622
v 1.419991 -13.69805 -4.490622
v 1.719991 -13.99805 -5
v 1.719991 -13.99805 -5
v 1.419991 -13.69805 -4.490622
v -1.42 -13.69805 -4.490622
v -1.72 -13.99805 -5
v -1.72 -7.814952 -5
v -1.42 -7.514952 -4.490622
v -1.42 -3.750997 -4.490622
v -1.72 -3.450997 -5
v -1.72 -3.450997 -5
v -1.42 -3.750997 -4.490622
v 1.419991 -3.750997 -4.490622
v 1.719991 -3.450997 -5
v 1.719991 -3.450997 -5
v 1.419991 -3.750997 -4.490622
v 1.419991 -7.514952 -4.490622
v 1.719991 -7.814952 -5
v 1.719991 -7.814952 -5
v 1.419991 -7.514952 -4.490622
v -1.42 -7.514952 -4.490622
v -1.72 -7.814952 -5
v -1.72 -3.450997 5
v -1.42 -3.750997 4.490622
v -1.42 -7.514952 4.490621
v -1.72 -7.814952 5
v -1.72 -7.814952 5
v -1.42 -7.514952 4.490621
v 1.419991 -7.514952 4.490621
v 1.719991 -7.814952 5
v 1.719991 -7.814952 5
v 1.419991 -7.514952 4.490621
v 1.419991 -3.750997 4.490622
v 1.719991 -3.450997 5
v 1.719991 -3.450997 5
v 1.419991 -3.750997 4.490622
v -1.42 -3.750997 4.490622
v -1.72 -3.450997 5
v -1.72 -9.405169 5
v -1.42 -9.705169 4.490621
v -1.42 -13.69805 4.490622
v -1.72 -13.99805 5
v -1.72 -13.99805 5
v -1.42 -13.69805 4.490622
v 1.419991 -13.69805 4.490622
v 1.719991 -13.99805 5
v 1.719991 -13.99805 5
v 1.419991 -13.69805 4.490622
v 1.419991 -9.705169 4.490621
v 1.719991 -9.405169 5
v 1.719991 -9.405169 5
v 1.419991 -9.705169 4.490621
v -1.42 -9.705169 4.490621
v -1.72 -9.405169 5
v 2.99999 -25 -5
v 2.99999 -25 5
v 2.99999 -8.61006 5
v 2.99999 -8.61006 -5
v 3 -1.908142 5
v 3 -1.908142 -5
v 3 -0.6263058 -5
v 3 -0.6263058 5
v 3 0 -5
v 3 -0.5163659 -5.730025
v 3 -0.6263057 -5.380025
v 3 0 5
v 3 -0.6263057 5.380025
v 3 -0.5163659 5.730025
v -3 -8.61006 -5
v -3 -25 5
v -3 -25 -5
v -3 -8.61006 5
v -3 -1.908142 -5
v -3 -1.908142 5
v -3 -0.6263057 5
v -3 -0.6263057 -5
v -3 0 5
v -3 -0.6263057 5.380025
v -3 -0.5163659 5.730025
v -3 0 -5
v -3 -0.5163659 -5.730025
v -3 -0.6263057 -5.380025
v -3 -25 -5
v -1.72 -13.99805 -5
v -1.72 -9.405169 -5
v 2.99999 -25 -5
v 1.719991 -13.99805 -5
v -3 -8.61006 -5
v 2.99999 -8.61006 -5
v 1.719991 -9.405169 -5
v -1.72 -7.814952 -5
v 1.719991 -7.814952 -5
v -1.72 -3.450997 -5
v 3 -1.908142 -5
v -3 -1.908142 -5
v 1.719991 -3.450997 -5
v -3 -1.908142 5
v -1.72 -3.450997 5
v -1.72 -7.814952 5
v 3 -1.908142 5
v 1.719991 -3.450997 5
v -3 -8.61006 5
v 2.99999 -8.61006 5
v 1.719991 -7.814952 5
v -1.72 -9.405169 5
v 1.719991 -9.405169 5
v -1.72 -13.99805 5
v 2.99999 -25 5
v -3 -25 5
v 1.719991 -13.99805 5
v 3 -1.908142 -5.29389
v -3 -1.908142 -5.29389
v -3 -1.908142 -5
v 3 -1.908142 -5
v -3 -1.908142 -5.29389
v 3 -1.908142 -5.29389
v 3 -0.6263057 -5.380025
v -3 -0.6263057 -5.380025
v 3 -0.5163659 -5.730025
v -3 -0.5163659 -5.730025
v -3 -0.6263057 -5.380025
v 3 -0.6263057 -5.380025
v 3 0.4872388 -5.800024
v -3 0.4872388 -5.800024
v -3 -0.5163659 -5.730025
v 3 -0.5163659 -5.730025
v 3 0.4872388 -5
v -3 0.4872388 -5
v -3 0.4872388 -5.800024
v 3 0.4872388 -5.800024
v -3 0.4872388 -5
v 3 0.4872388 -5
v 3 0 -5
v -3 0 -5
v 3 0.4872388 5
v -3 0.4872388 5
v -3 0 5
v 3 0 5
v 3 0.4872388 5.800024
v -3 0.4872388 5.800024
v -3 0.4872388 5
v 3 0.4872388 5
v -3 0.4872388 5.800024
v 3 0.4872388 5.800024
v 3 -0.5163659 5.730025
v -3 -0.5163659 5.730025
v -3 -0.5163659 5.730025
v 3 -0.5163659 5.730025
v 3 -0.6263057 5.380025
v -3 -0.6263057 5.380025
v -3 -0.6263057 5.380025
v 3 -0.6263057 5.380025
v 3 -1.908142 5.29389
v -3 -1.908142 5.29389
v -3 -1.908142 5.29389
v 3 -1.908142 5.29389
v 3 -1.908142 5
v -3 -1.908142 5
v 3 0.4872388 -5
v 3 0.4872388 -5.800024
v 3 0.4872388 5.800024
v 3 0.4872388 5
v -3 0.4872388 -5.800024
v -3 0.4872388 -5
v -3 0.4872388 5
v -3 0.4872388 5.800024
v 3 -1.908142 5.29389
v 3 -1.908142 -5.29389
v -3 -1.908142 -5.29389
v -3 -1.908142 5.29389
vt 0.4583333 1
vt 0.5416666 1
vt 0.5416666 0.9167329
vt 0.4583333 0.9167329
vt 0.5416666 0.8332671
vt 0.4583333 0.8332671
vt 0.5416666 0.7449355
vt 0.4583333 0.7449355
vt 0.4583333 0.7449355
vt 0.5416666 0.7449355
vt 0.5416666 0.6854026
vt 0.4583333 0.6854026
vt 0.4583333 0.6854026
vt 0.5416666 0.6854026
vt 0.5416666 0.5684115
vt 0.4583333 0.5684115
vt 0.4583333 0.5
vt 0.5416666 0.5
vt 0.5416666 0.25
vt 0.4583333 0.25
vt 0.4583333 0.1815885
vt 0.5416666 0.1815885
vt 0.5416666 0.0645974
vt 0.4583333 0.0645974
vt 0.4583333 0.0645974
vt 0.5416666 0.0645974
vt 0.5416666 0.005064476
vt 0.4583333 0.005064476
vt 0.4583333 0.7449355
vt 0.4583333 0.7449355
vt 0.4583333 0.6854026
vt 0.4583333 0.6854026
vt 0.4583333 0.6854026
vt 0.4583333 0.6854026
vt 0.5416666 0.6854026
vt 0.5416666 0.6854026
vt 0.5416666 0.6854026
vt 0.5416666 0.6854026
vt 0.5416666 0.7449355
vt 0.5416666 0.7449355
vt 0.5416666 0.7449355
vt 0.5416666 0.7449355
vt 0.4583333 0.7449355
vt 0.4583333 0.7449355
vt 0.4583333 0.6854026
vt 0.4583333 0.6854026
vt 0.4583333 0.5684115
vt 0.4583333 0.5684115
vt 0.4583333 0.5684115
vt 0.4583333 0.5684115
vt 0.5416666 0.5684115
vt 0.5416666 0.5684115
vt 0.5416666 0.5684115
vt 0.5416666 0.5684115
vt 0.5416666 0.6854026
vt 0.5416666 0.6854026
vt 0.5416666 0.6854026
vt 0.5416666 0.6854026
vt 0.4583333 0.6854026
vt 0.4583333 0.6854026
vt 0.4583333 0.1815885
vt 0.4583333 0.1815885
vt 0.4583333 0.0645974
vt 0.4583333 0.0645974
vt 0.4583333 0.0645974
vt 0.4583333 0.0645974
vt 0.5416666 0.0645974
vt 0.5416666 0.0645974
vt 0.5416666 0.0645974
vt 0.5416666 0.0645974
vt 0.5416666 0.1815885
vt 0.5416666 0.1815885
vt 0.5416666 0.1815885
vt 0.5416666 0.1815885
vt 0.4583333 0.1815885
vt 0.4583333 0.1815885
vt 0.4583333 0.0645974
vt 0.4583333 0.0645974
vt 0.4583333 0.005064476
vt 0.4583333 0.005064476
vt 0.4583333 0.005064476
vt 0.4583333 0.005064476
vt 0.5416666 0.005064476
vt 0.5416666 0.005064476
vt 0.5416666 0.005064476
vt 0.5416666 0.005064476
vt 0.5416666 0.0645974
vt 0.5416666 0.0645974
vt 0.5416666 0.0645974
vt 0.5416666 0.0645974
vt 0.4583333 0.0645974
vt 0.4583333 0.0645974
vt 0.5416666 0.7449355
vt 0.5416666 0.005064476
vt 0.5416666 0.0645974
vt 0.5416666 0.6854026
vt 0.5416666 0.1815885
vt 0.5416666 0.5684115
vt 0.5416666 0.5227118
vt 0.5416666 0.2272882
vt 0.5416666 0.5
vt 0.5416666 0.5
vt 0.5416666 0.5
vt 0.5416666 0.25
vt 0.5416666 0.25
vt 0.5416666 0.25
vt 0.4583333 0.6854026
vt 0.4583333 0.005064476
vt 0.4583333 0.7449355
vt 0.4583333 0.0645974
vt 0.4583333 0.5684115
vt 0.4583333 0.1815885
vt 0.4583333 0.2297425
vt 0.4583333 0.5202575
vt 0.4583333 0.25
vt 0.4583333 0.25
vt 0.4583333 0.25
vt 0.4583333 0.5
vt 0.4583333 0.5
vt 0.4583333 0.5
vt 0.4583333 0.7449355
vt 0.4583333 0.7449355
vt 0.4583333 0.6854026
vt 0.5416666 0.7449355
vt 0.5416666 0.7449355
vt 0.4583333 0.6854026
vt 0.5416666 0.6854026
vt 0.5416666 0.6854026
vt 0.4583333 0.6854026
vt 0.5416666 0.6854026
vt 0.4583333 0.5684115
vt 0.5416666 0.5684115
vt 0.4583333 0.5684115
vt 0.5416666 0.5684115
vt 0.4583333 0.1815885
vt 0.4583333 0.1815885
vt 0.4583333 0.0645974
vt 0.5416666 0.1815885
vt 0.5416666 0.1815885
vt 0.4583333 0.0645974
vt 0.5416666 0.0645974
vt 0.5416666 0.0645974
vt 0.4583333 0.0645974
vt 0.5416666 0.0645974
vt 0.4583333 0.005064476
vt 0.5416666 0.005064476
vt 0.4583333 0.005064476
vt 0.5416666 0.005064476
vt 0.5416666 0.5320938
vt 0.4583333 0.5320938
vt 0.4583333 0.5684115
vt 0.5416666 0.5684115
vt 0.4583333 0.5320938
vt 0.5416666 0.5320938
vt 0.5416666 0.5
vt 0.4583333 0.5
vt 0.5416666 0.5
vt 0.4583333 0.5
vt 0.4583333 0.5
vt 0.5416666 0.5
vt 0.5416666 0.5
vt 0.4583333 0.5
vt 0.4583333 0.5
vt 0.5416666 0.5
vt 0.5416666 0.5
vt 0.4583333 0.5
vt 0.4583333 0.5
vt 0.5416666 0.5
vt 0.4583333 0.5
vt 0.5416666 0.5
vt 0.5416666 0.5
vt 0.4583333 0.5
vt 0.5416666 0.25
vt 0.4583333 0.25
vt 0.4583333 0.25
vt 0.5416666 0.25
vt 0.5416666 0.25
vt 0.4583333 0.25
vt 0.4583333 0.25
vt 0.5416666 0.25
vt 0.4583333 0.25
vt 0.5416666 0.25
vt 0.5416666 0.25
vt 0.4583333 0.25
vt 0.4583333 0.25
vt 0.5416666 0.25
vt 0.5416666 0.25
vt 0.4583333 0.25
vt 0.4583333 0.25
vt 0.5416666 0.25
vt 0.5416666 0.2179062
vt 0.4583333 0.2179062
vt 0.4583333 0.2179062
vt 0.5416666 0.2179062
vt 0.5416666 0.1815885
vt 0.4583333 0.1815885
vt 0.5416666 0.5
vt 0.5416666 0.5
vt 0.5416666 0.25
vt 0.5416666 0.25
vt 0.4583333 0.5
vt 0.4583333 0.5
vt 0.4583333 0.25
vt 0.4583333 0.25
vt 0.5416666 0.2179062
vt 0.5416666 0.5320938
vt 0.4583333 0.5320938
vt 0.4583333 0.2179062
vn 0 -1 0
vn 0 -1 0
vn 0 -1 0
vn 0 -1 0
vn 0 -1 0
vn 0 -1 0
vn 0 -1 0
vn 0 -1 0
vn 0 0 -1
vn 0 0 -1
vn 0 0 -1
vn 0 0 -1
vn 0 0 -1
vn 0 0 -1
vn 0 0 -1
vn 0 0 -1
vn 0 1 0
vn 0 1 0
vn 0 1 0
vn 0 1 0
vn 0 0 1
vn 0 0 1
vn 0 0 1
vn 0 0 1
vn 0 0 1
vn 0 0 1
vn 0 0 1
vn 0 0 1
vn 0.8616638 0 -0.5074796
vn 0.8616638 0 -0.5074795
vn 0.8616638 0 -0.5074795
vn 0.8616638 0 -0.5074796
vn 0 -0.8616638 -0.5074795
vn 0 -0.8616639 -0.5074794
vn 0 -0.8616639 -0.5074794
vn 0 -0.8616638 -0.5074795
vn -0.8616637 0 -0.5074797
vn -0.8616637 0 -0.5074797
vn -0.8616638 0 -0.5074797
vn -0.8616638 0 -0.5074797
vn 0 0.8616635 -0.50748
vn 0 0.8616634 -0.5074801
vn 0 0.8616634 -0.5074801
vn 0 0.8616635 -0.50748
vn 0.8616638 0 -0.5074795
vn 0.8616638 0 -0.5074795
vn 0.8616638 0 -0.5074795
vn 0.8616638 0 -0.5074795
vn 0 -0.8616638 -0.5074795
vn 0 -0.8616638 -0.5074795
vn 0 -0.8616638 -0.5074795
vn 0 -0.8616638 -0.5074795
vn -0.8616639 0 -0.5074793
vn -0.8616639 0 -0.5074793
vn -0.8616639 0 -0.5074793
vn -0.8616639 0 -0.5074793
vn 0 0.8616639 -0.5074793
vn 0 0.8616639 -0.5074793
vn 0 0.8616639 -0.5074793
vn 0 0.8616639 -0.5074793
vn 0.8616639 0 0.5074793
vn 0.8616639 0 0.5074793
vn 0.8616639 0 0.5074793
vn 0.8616639 0 0.5074793
vn 0 0.8616639 0.5074793
vn 0 0.8616639 0.5074793
vn 0 0.8616639 0.5074793
vn 0 0.8616639 0.5074793
vn -0.8616638 0 0.5074795
vn -0.8616639 0 0.5074794
vn -0.8616639 0 0.5074794
vn -0.8616638 0 0.5074794
vn 0 -0.8616638 0.5074795
vn 0 -0.8616638 0.5074795
vn 0 -0.8616638 0.5074795
vn 0 -0.8616638 0.5074795
vn 0.8616638 0 0.5074796
vn 0.8616638 0 0.5074795
vn 0.8616638 0 0.5074795
vn 0.8616638 0 0.5074796
vn 0 0.8616635 0.50748
vn 0 0.8616634 0.5074801
vn 0 0.8616634 0.5074801
vn 0 0.8616635 0.50748
vn -0.8616638 0 0.5074796
vn -0.8616638 0 0.5074795
vn -0.8616638 0 0.5074795
vn -0.8616638 0 0.5074796
vn 0 -0.8616638 0.5074795
vn 0 -0.8616639 0.5074794
vn 0 -0.8616639 0.5074794
vn 0 -0.8616638 0.5074795
vn 1 0 0
vn 1 0 0
vn 1 0 0
vn 1 0 0
vn 1 0 0
vn 1 0 0
vn 1 0 0
vn 1 0 0
vn 1 0 0
vn 1 0 0
vn 1 0 0
vn 1 0 0
vn 1 0 0
vn 1 0 0
vn -1 0 0
vn -1 0 0
vn -1 0 0
vn -1 0 0
vn -1 0 0
vn -1 0 0
vn -1 0 0
vn -1 0 0
vn -1 0 0
vn -1 0 0
vn -1 0 0
vn -1 0 0
vn -1 0 0
vn -1 0 0
vn 0 0 -1
vn 0 0 -1
vn 0 0 -1
vn 0 0 -1
vn 0 0 -1
vn 0 0 -1
vn 0 0 -1
vn 0 0 -1
vn 0 0 -1
vn 0 0 -1
vn 0 0 -1
vn 0 0 -1
vn 0 0 -1
vn 0 0 -1
vn 0 0 1
vn 0 0 1
vn 0 0 1
vn 0 0 1
vn 0 0 1
vn 0 0 1
vn 0 0 1
vn 0 0 1
vn 0 0 1
vn 0 0 1
vn 0 0 1
vn 0 0 1
vn 0 0 1
vn 0 0 1
vn 0 -1 0
vn 0 -1 0
vn 0 -1 0
vn 0 -1 0
vn 0 -0.06704531 -0.9977499
vn 0 -0.06704531 -0.9977499
vn 0 -0.06704531 -0.9977499
vn 0 -0.06704531 -0.9977499
vn 0 -0.9540407 -0.2996773
vn 0 -0.9540407 -0.2996773
vn 0 -0.9540407 -0.2996773
vn 0 -0.9540407 -0.2996773
vn 0 -0.06957829 -0.9975765
vn 0 -0.06957829 -0.9975765
vn 0 -0.06957829 -0.9975765
vn 0 -0.06957829 -0.9975765
vn 0 1 0
vn 0 1 0
vn 0 1 0
vn 0 1 0
vn 0 0 1
vn 0 0 1
vn 0 0 1
vn 0 0 1
vn 0 0 -1
vn 0 0 -1
vn 0 0 -1
vn 0 0 -1
vn 0 1 0
vn 0 1 0
vn 0 1 0
vn 0 1 0
vn 0 -0.06957829 0.9975765
vn 0 -0.06957829 0.9975765
vn 0 -0.06957829 0.9975765
vn 0 -0.06957829 0.9975765
vn 0 -0.9540407 0.2996773
vn 0 -0.9540407 0.2996773
vn 0 -0.9540407 0.2996773
vn 0 -0.9540407 0.2996773
vn 0 -0.06704531 0.9977499
vn 0 -0.06704531 0.9977499
vn 0 -0.06704531 0.9977499
vn 0 -0.06704531 0.9977499
vn 0 -1 0
vn 0 -1 0
vn 0 -1 0
vn 0 -1 0
vn 1 0 0
vn 1 0 0
vn 1 0 0
vn 1 0 0
vn -1 0 0
vn -1 0 0
vn -1 0 0
vn -1 0 0
vn 1 0 0
vn 1 0 0
vn -1 0 0
vn -1 0 0
g BuildingPart02_0
f 3/3/3 2/2/2 1/1/1
f 4/4/4 3/3/3 1/1/1
f 5/5/5 3/3/3 4/4/4
f 6/6/6 5/5/5 4/4/4
f 7/7/7 5/5/5 6/6/6
f 8/8/8 7/7/7 6/6/6
f 11/11/11 10/10/10 9/9/9
f 12/12/12 11/11/11 9/9/9
f 15/15/15 14/14/14 13/13/13
f 16/16/16 15/15/15 13/13/13
f 19/19/19 18/18/18 17/17/17
f 20/20/20 19/19/19 17/17/17
f 23/23/23 22/22/22 21/21/21
f 24/24/24 23/23/23 21/21/21
f 27/27/27 26/26/26 25/25/25
f 28/28/28 27/27/27 25/25/25
f 31/31/31 30/30/30 29/29/29
f 32/32/32 31/31/31 29/29/29
f 35/35/35 34/34/34 33/33/33
f 36/36/36 35/35/35 33/33/33
f 39/39/39 38/38/38 37/37/37
f 40/40/40 39/39/39 37/37/37
f 43/43/43 42/42/42 41/41/41
f 44/44/44 43/43/43 41/41/41
f 47/47/47 46/46/46 45/45/45
f 48/48/48 47/47/47 45/45/45
f 51/51/51 50/50/50 49/49/49
f 52/52/52 51/51/51 49/49/49
f 55/55/55 54/54/54 53/53/53
f 56/56/56 55/55/55 53/53/53
f 59/59/59 58/58/58 57/57/57
f 60/60/60 59/59/59 57/57/57
f 63/63/63 62/62/62 61/61/61
f 64/64/64 63/63/63 61/61/61
f 67/67/67 66/66/66 65/65/65
f 68/68/68 67/67/67 65/65/65
f 71/71/71 70/70/70 69/69/69
f 72/72/72 71/71/71 69/69/69
f 75/75/75 74/74/74 73/73/73
f 76/76/76 75/75/75 73/73/73
f 79/79/79 78/78/78 77/77/77
f 80/80/80 79/79/79 77/77/77
f 83/83/83 82/82/82 81/81/81
f 84/84/84 83/83/83 81/81/81
f 87/87/87 86/86/86 85/85/85
f 88/88/88 87/87/87 85/85/85
f 91/91/91 90/90/90 89/89/89
f 92/92/92 91/91/91 89/89/89
f 95/95/95 94/94/94 93/93/93
f 96/96/96 95/95/95 93/93/93
f 97/97/97 95/95/95 96/96/96
f 98/98/98 97/97/97 96/96/96
f 97/97/97 98/98/98 99/99/99
f 100/100/100 97/97/97 99/99/99
f 100/100/100 99/99/99 101/101/101
f 101/101/101 99/99/99 102/102/102
f 99/99/99 103/103/103 102/102/102
f 104/104/104 100/100/100 101/101/101
f 100/100/100 104/104/104 105/105/105
f 104/104/104 106/106/106 105/105/105
f 109/109/109 108/108/108 107/107/107
f 108/108/108 110/110/110 107/107/107
f 107/107/107 110/110/110 111/111/111
f 110/110/110 112/112/112 111/111/111
f 111/111/111 112/112/112 113/113/113
f 114/114/114 111/111/111 113/113/113
f 114/114/114 113/113/113 115/115/115
f 115/115/115 113/113/113 116/116/116
f 117/117/117 115/115/115 116/116/116
f 118/118/118 114/114/114 115/115/115
f 114/114/114 118/118/118 119/119/119
f 120/120/120 114/114/114 119/119/119
f 123/123/123 122/122/122 121/121/121
f 121/121/121 122/122/122 124/124/124
f 122/122/122 125/125/125 124/124/124
f 126/126/126 123/123/123 121/121/121
f 124/124/124 125/125/125 127/127/127
f 128/128/128 123/123/123 126/126/126
f 125/125/125 128/128/128 127/127/127
f 127/127/127 128/128/128 126/126/126
f 126/126/126 129/129/129 127/127/127
f 129/129/129 130/130/130 127/127/127
f 131/131/131 129/129/129 126/126/126
f 127/127/127 130/130/130 132/132/132
f 133/133/133 131/131/131 126/126/126
f 130/130/130 134/134/134 132/132/132
f 134/134/134 131/131/131 133/133/133
f 132/132/132 134/134/134 133/133/133
f 137/137/137 136/136/136 135/135/135
f 135/135/135 136/136/136 138/138/138
f 136/136/136 139/139/139 138/138/138
f 140/140/140 137/137/137 135/135/135
f 138/138/138 139/139/139 141/141/141
f 142/142/142 137/137/137 140/140/140
f 139/139/139 142/142/142 141/141/141
f 141/141/141 142/142/142 140/140/140
f 140/140/140 143/143/143 141/141/141
f 143/143/143 144/144/144 141/141/141
f 145/145/145 143/143/143 140/140/140
f 141/141/141 144/144/144 146/146/146
f 147/147/147 145/145/145 140/140/140
f 144/144/144 148/148/148 146/146/146
f 148/148/148 145/145/145 147/147/147
f 146/146/146 148/148/148 147/147/147
g BuildingPart02_1
f 151/151/151 150/150/150 149/149/149
f 152/152/152 151/151/151 149/149/149
f 155/155/155 154/154/154 153/153/153
f 156/156/156 155/155/155 153/153/153
f 159/159/159 158/158/158 157/157/157
f 160/160/160 159/159/159 157/157/157
f 163/163/163 162/162/162 161/161/161
f 164/164/164 163/163/163 161/161/161
f 167/167/167 166/166/166 165/165/165
f 168/168/168 167/167/167 165/165/165
f 171/171/171 170/170/170 169/169/169
f 172/172/172 171/171/171 169/169/169
f 175/175/175 174/174/174 173/173/173
f 176/176/176 175/175/175 173/173/173
f 179/179/179 178/178/178 177/177/177
f 180/180/180 179/179/179 177/177/177
f 183/183/183 182/182/182 181/181/181
f 184/184/184 183/183/183 181/181/181
f 187/187/187 186/186/186 185/185/185
f 188/188/188 187/187/187 185/185/185
f 191/191/191 190/190/190 189/189/189
f 192/192/192 191/191/191 189/189/189
f 195/195/195 194/194/194 193/193/193
f 196/196/196 195/195/195 193/193/193
f 197/197/197 101/101/101 102/102/102
f 198/198/198 197/197/197 102/102/102
f 199/199/199 106/106/106 104/104/104
f 200/200/200 199/199/199 104/104/104
f 118/118/118 202/202/202 201/201/201
f 119/119/119 118/118/118 201/201/201
f 117/117/117 204/204/204 203/203/203
f 115/115/115 117/117/117 203/203/203
f 97/97/97 100/100/100 105/105/105
f 205/205/205 97/97/97 105/105/105
f 99/99/99 98/98/98 206/206/206
f 103/103/103 99/99/99 206/206/206
f 111/111/111 114/114/114 120/120/120
f 207/207/207 111/111/111 120/120/120
f 113/113/113 112/112/112 208/208/208
f 116/116/116 113/113/113 208/208/208
