g BuildingTurnPart
v -5 0 5
v -5 -8.167948E-08 -5.501345
v 5 -8.167948E-08 -5.501345
v 5 0 5
v 5 -25 -5.501345
v 5 -8.167948E-08 -5.501345
v -5 -8.167948E-08 -5.501345
v -5 -25 -5.501345
v 5 -1.908142 5
v 5 -25 5
v -5 -25 5
v -5 -1.908142 5
v -5 -8.167948E-08 -5.501345
v -5 0 5
v -5 -25 5
v -5 -25 -5.501345
v 5 -25 -5.501345
v 5 -25 5
v 5 -1.908142 5
v 5 -1.908142 -5.501345
v -5 -1.908142 5.29389
v -5 -0.6263058 5.380025
v 5.380025 -0.6263058 5.380025
v 5.29389 -1.908142 5.29389
v -5 -0.5163659 5.730025
v -5 -0.6263058 5.380025
v -5 0 5
v -5 0.4872388 5.800024
v -5 0.4872388 5
v -5 -1.908142 5
v -5 -1.908142 5.29389
v 5.29389 -1.908142 5.29389
v 5 -1.908142 5
v 5 0.4872388 5
v 5.800024 0.4872388 5.800024
v -5 0.4872388 5.800024
v -5 0.4872388 5
v 5 0 5
v 5 0.4872388 5
v -5 0.4872388 5
v -5 0 5
v -5 -0.5163659 5.730025
v -5 0.4872388 5.800024
v 5.800024 0.4872388 5.800024
v 5.730025 -0.5163659 5.730025
v -5 -0.6263058 5.380025
v -5 -0.5163659 5.730025
v 5.730025 -0.5163659 5.730025
v 5.380025 -0.6263058 5.380025
v 5.730025 -0.516366 -5.501345
v 5.800024 0.4872389 -5.501345
v 5 0.4872387 -5.501345
v 5.380025 -0.6263058 -5.501345
v 5 -8.167948E-08 -5.501345
v 5.29389 -1.908142 -5.501344
v 5 -1.908142 -5.501345
v -5 -0.6263058 5.380025
v -5 -1.908142 5.29389
v -5 -1.908142 5
v -5 0 5
v 5.29389 -1.908142 5.29389
v 5.380025 -0.6263058 5.380025
v 5.380025 -0.6263058 -5.501345
v 5.29389 -1.908142 -5.501344
v 5 -1.908142 5
v 5.29389 -1.908142 5.29389
v 5.29389 -1.908142 -5.501344
v 5 -1.908142 -5.501345
v 5 0.4872387 -5.501345
v 5.800024 0.4872389 -5.501345
v 5.800024 0.4872388 5.800024
v 5 0.4872388 5
v 5 -8.167948E-08 -5.501345
v 5 0.4872387 -5.501345
v 5 0.4872388 5
v 5 0 5
v 5.730025 -0.5163659 5.730025
v 5.800024 0.4872388 5.800024
v 5.800024 0.4872389 -5.501345
v 5.730025 -0.516366 -5.501345
v 5.380025 -0.6263058 5.380025
v 5.730025 -0.5163659 5.730025
v 5.730025 -0.516366 -5.501345
v 5.380025 -0.6263058 -5.501345
vt 0.375 0.25
vt 0.125 0.25
vt 0.125 0.25
vt 0.375 0.25
vt 0 0
vt 0.125 0.25
vt 0.125 0.25
vt 0 0
vt 0.625 0.2179063
vt 0.625 0
vt 0.375 0
vt 0.375 0.2179063
vt 0.125 0.25
vt 0.375 0.25
vt 0 0
vt 0 0
vt 0.625 0
vt 0.375 0
vt 0.375 0.2179063
vt 0.625 0.2179063
vt 0.375 0.2179063
vt 0.375 0.25
vt 0.625 0.25
vt 0.625 0.2179063
vt 0.375 0.25
vt 0.375 0.25
vt 0.375 0.25
vt 0.375 0.25
vt 0.375 0.25
vt 0.375 0.2179063
vt 0.375 0.2179063
vt 0.625 0.2179063
vt 0.625 0.2179063
vt 0.625 0.25
vt 0.625 0.25
vt 0.375 0.25
vt 0.375 0.25
vt 0.625 0.25
vt 0.625 0.25
vt 0.375 0.25
vt 0.375 0.25
vt 0.375 0.25
vt 0.375 0.25
vt 0.625 0.25
vt 0.625 0.25
vt 0.375 0.25
vt 0.375 0.25
vt 0.625 0.25
vt 0.625 0.25
vt 0.625 0.25
vt 0.625 0.25
vt 0.625 0.25
vt 0.625 0.25
vt 0.625 0.25
vt 0.625 0.2179063
vt 0.625 0.2179063
vt 0.375 0.25
vt 0.375 0.2179063
vt 0.375 0.2179063
vt 0 0
vt 0.375 0.2179063
vt 0.375 0.25
vt 0.625 0.25
vt 0.625 0.2179063
vt 0.375 0.2179063
vt 0.375 0.2179063
vt 0.625 0.2179063
vt 0.625 0.2179063
vt 0.625 0.25
vt 0.625 0.25
vt 0.375 0.25
vt 0.375 0.25
vt 0.625 0.25
vt 0.625 0.25
vt 0.375 0.25
vt 0.375 0.25
vt 0.375 0.25
vt 0.375 0.25
vt 0.625 0.25
vt 0.625 0.25
vt 0.375 0.25
vt 0.375 0.25
vt 0.625 0.25
vt 0.625 0.25
vn 0 1 0
vn 0 1 0
vn 0 1 0
vn 0 1 0
vn 0 0 -1
vn 0 0 -1
vn 0 0 -1
vn 0 0 -1
vn 0 0 1
vn 0 0 1
vn 0 0 1
vn 0 0 1
vn -1 0 0
vn -1 0 0
vn -1 0 0
vn -1 0 0
vn 1 0 0
vn 1 0 0
vn 1 0 0
vn 1 0 0
vn 0 -0.06704532 0.9977499
vn 0 -0.06704532 0.9977499
vn 0 -0.06704532 0.9977499
vn 0 -0.06704532 0.9977499
vn -1 0 0
vn -1 0 0
vn -1 0 0
vn -1 0 0
vn -1 0 0
vn 0 -1 0
vn 0 -1 0
vn 0 -1 0
vn 0 -1 0
vn 0 1 0
vn 0 1 0
vn 0 1 0
vn 0 1 0
vn 0 0 -1
vn 0 0 -1
vn 0 0 -1
vn 0 0 -1
vn 0 -0.06957829 0.9975765
vn 0 -0.06957829 0.9975765
vn 0 -0.06957829 0.9975765
vn 0 -0.06957829 0.9975765
vn 0 -0.9540406 0.2996774
vn 0 -0.9540406 0.2996774
vn 0 -0.9540406 0.2996774
vn 0 -0.9540406 0.2996774
vn 0 0 -1
vn 0 0 -1
vn 0 0 -1
vn 0 0 -1
vn 0 0 -1
vn 0 0 -1
vn 0 0 -1
vn -1 0 0
vn -1 0 0
vn -1 0 0
vn -1 0 0
vn 0.9977499 -0.06704554 0
vn 0.9977499 -0.06704554 0
vn 0.9977499 -0.06704554 0
vn 0.9977499 -0.06704554 0
vn 0 -1 0
vn 0 -1 0
vn 0 -1 0
vn 0 -1 0
vn 0 1 0
vn 0 1 0
vn 0 1 0
vn 0 1 0
vn -1 0 0
vn -1 0 0
vn -1 0 0
vn -1 0 0
vn 0.9975765 -0.0695786 0
vn 0.9975765 -0.0695786 0
vn 0.9975765 -0.0695786 0
vn 0.9975765 -0.0695786 0
vn 0.2996776 -0.9540405 0
vn 0.2996776 -0.9540405 0
vn 0.2996776 -0.9540405 0
vn 0.2996776 -0.9540405 0
g BuildingTurnPart_0
f 3/3/3 2/2/2 1/1/1
f 4/4/4 3/3/3 1/1/1
f 7/7/7 6/6/6 5/5/5
f 8/8/8 7/7/7 5/5/5
f 11/11/11 10/10/10 9/9/9
f 12/12/12 11/11/11 9/9/9
f 15/15/15 14/14/14 13/13/13
f 16/16/16 15/15/15 13/13/13
f 19/19/19 18/18/18 17/17/17
f 20/20/20 19/19/19 17/17/17
g BuildingTurnPart_1
f 23/23/23 22/22/22 21/21/21
f 24/24/24 23/23/23 21/21/21
f 27/27/27 26/26/26 25/25/25
f 25/25/25 28/28/28 27/27/27
f 28/28/28 29/29/29 27/27/27
f 32/32/32 31/31/31 30/30/30
f 33/33/33 32/32/32 30/30/30
f 36/36/36 35/35/35 34/34/34
f 37/37/37 36/36/36 34/34/34
f 40/40/40 39/39/39 38/38/38
f 41/41/41 40/40/40 38/38/38
f 44/44/44 43/43/43 42/42/42
f 45/45/45 44/44/44 42/42/42
f 48/48/48 47/47/47 46/46/46
f 49/49/49 48/48/48 46/46/46
f 52/52/52 51/51/51 50/50/50
f 50/50/50 53/53/53 52/52/52
f 53/53/53 54/54/54 52/52/52
f 53/53/53 55/55/55 54/54/54
f 55/55/55 56/56/56 54/54/54
f 59/59/59 58/58/58 57/57/57
f 60/60/60 59/59/59 57/57/57
f 63/63/63 62/62/62 61/61/61
f 64/64/64 63/63/63 61/61/61
f 67/67/67 66/66/66 65/65/65
f 68/68/68 67/67/67 65/65/65
f 71/71/71 70/70/70 69/69/69
f 72/72/72 71/71/71 69/69/69
f 75/75/75 74/74/74 73/73/73
f 76/76/76 75/75/75 73/73/73
f 79/79/79 78/78/78 77/77/77
f 80/80/80 79/79/79 77/77/77
f 83/83/83 82/82/82 81/81/81
f 84/84/84 83/83/83 81/81/81
