g Bullet
v -1.931163E-12 -0.001320967 0.0003001693
v 0.0002122517 -0.001320967 0.0002122518
v -8.374841E-11 -0.001397087 -9.021667E-12
v 0.0002122517 -0.001320967 0.0002122518
v 0.0003001692 -0.001320967 7.612292E-11
v -8.374841E-11 -0.001397087 -9.021667E-12
v 0.0003001692 -0.001320967 7.612292E-11
v 0.0002122517 -0.001320967 -0.0002122516
v -8.374841E-11 -0.001397087 -9.021667E-12
v 0.0002122517 -0.001320967 -0.0002122516
v 9.757015E-12 -0.001320967 -0.0003001692
v -8.374841E-11 -0.001397087 -9.021667E-12
v 9.757015E-12 -0.001320967 -0.0003001692
v -0.0002122517 -0.001320967 -0.0002122516
v -8.374841E-11 -0.001397087 -9.021667E-12
v -0.0002122517 -0.001320967 -0.0002122516
v -0.0003001692 -0.001320967 8.781111E-11
v -8.374841E-11 -0.001397087 -9.021667E-12
v -0.0003001692 -0.001320967 8.781111E-11
v -0.0002122517 -0.001320967 0.0002122518
v -8.374841E-11 -0.001397087 -9.021667E-12
v -0.0002122517 -0.001320967 0.0002122518
v -1.931163E-12 -0.001320967 0.0003001693
v -8.374841E-11 -0.001397087 -9.021667E-12
v 0 -0.0003970872 0.0007843804
v 0.0005546406 -0.0003970872 0.0005546407
v 0.0005124211 -0.0007797707 0.0005124212
v -3.69957E-11 -0.0007797707 0.0007246728
v -1.361934E-11 -0.001104194 0.0005546405
v 0.0003921901 -0.001104194 0.0003921902
v 0.0002122517 -0.001320967 0.0002122518
v -1.931163E-12 -0.001320967 0.0003001693
v -3.69957E-11 -0.0007797707 0.0007246728
v 0.0005124211 -0.0007797707 0.0005124212
v 0.0003921901 -0.001104194 0.0003921902
v -1.361934E-11 -0.001104194 0.0005546405
v 0.0005124211 -0.0007797707 0.0005124212
v 0.0007246728 -0.0007797707 1.114675E-10
v 0.0005546405 -0.001104194 9.728654E-11
v 0.0003921901 -0.001104194 0.0003921902
v 0.0005546406 -0.0003970872 0.0005546407
v 0.0007843802 -0.0003970872 1.048188E-10
v 0.0007246728 -0.0007797707 1.114675E-10
v 0.0005124211 -0.0007797707 0.0005124212
v 0.0003921901 -0.001104194 0.0003921902
v 0.0005546405 -0.001104194 9.728654E-11
v 0.0003001692 -0.001320967 7.612292E-11
v 0.0002122517 -0.001320967 0.0002122518
v 0.0007843802 -0.0003970872 1.048188E-10
v 0.0005546405 -0.0003970872 -0.0005546404
v 0.0005124211 -0.0007797707 -0.0005124209
v 0.0007246728 -0.0007797707 1.114675E-10
v 0.0005546405 -0.001104194 9.728654E-11
v 0.00039219 -0.001104194 -0.0003921899
v 0.0002122517 -0.001320967 -0.0002122516
v 0.0003001692 -0.001320967 7.612292E-11
v 0.0007246728 -0.0007797707 1.114675E-10
v 0.0005124211 -0.0007797707 -0.0005124209
v 0.00039219 -0.001104194 -0.0003921899
v 0.0005546405 -0.001104194 9.728654E-11
v 0.0005546405 -0.0003970872 -0.0005546404
v 9.757015E-12 -0.0003970871 -0.0007843801
v 3.313337E-11 -0.0007797707 -0.0007246726
v 0.0005124211 -0.0007797707 -0.0005124209
v 0.00039219 -0.001104194 -0.0003921899
v 9.757015E-12 -0.001104194 -0.0005546404
v 9.757015E-12 -0.001320967 -0.0003001692
v 0.0002122517 -0.001320967 -0.0002122516
v 0.0005124211 -0.0007797707 -0.0005124209
v 3.313337E-11 -0.0007797707 -0.0007246726
v 9.757015E-12 -0.001104194 -0.0005546404
v 0.00039219 -0.001104194 -0.0003921899
v 3.313337E-11 -0.0007797707 -0.0007246726
v -0.000512421 -0.0007797707 -0.0005124209
v -0.00039219 -0.001104194 -0.0003921899
v 9.757015E-12 -0.001104194 -0.0005546404
v 9.757015E-12 -0.0003970871 -0.0007843801
v -0.0005546405 -0.0003970872 -0.0005546404
v -0.000512421 -0.0007797707 -0.0005124209
v 3.313337E-11 -0.0007797707 -0.0007246726
v 9.757015E-12 -0.001104194 -0.0005546404
v -0.00039219 -0.001104194 -0.0003921899
v -0.0002122517 -0.001320967 -0.0002122516
v 9.757015E-12 -0.001320967 -0.0003001692
v -0.000512421 -0.0007797707 -0.0005124209
v -0.0007246727 -0.0007797707 6.471482E-11
v -0.0005546405 -0.001104194 9.728654E-11
v -0.00039219 -0.001104194 -0.0003921899
v -0.0005546405 -0.0003970872 -0.0005546404
v -0.0007843801 -0.0003970872 1.281952E-10
v -0.0007246727 -0.0007797707 6.471482E-11
v -0.000512421 -0.0007797707 -0.0005124209
v -0.00039219 -0.001104194 -0.0003921899
v -0.0005546405 -0.001104194 9.728654E-11
v -0.0003001692 -0.001320967 8.781111E-11
v -0.0002122517 -0.001320967 -0.0002122516
v -0.0005546405 0.0008650352 -0.0005546403
v 9.757015E-12 0.0008650352 -0.00078438
v 0.0005546405 0.0008650352 -0.0005546404
v 0.0007843802 0.0008650352 1.721172E-10
v -0.0007843801 0.0008650352 1.954935E-10
v 0.0005546406 0.0008650352 0.0005546408
v -0.0005546405 0.0008650352 0.0005546407
v 0 0.0008650352 0.0007843804
v -0.0007843801 -0.0003970872 1.281952E-10
v -0.0007843801 0.0008650352 1.954935E-10
v -0.0005546405 0.0008650352 0.0005546407
v -0.0005546405 -0.0003970872 0.0005546406
v 0.0005546405 -0.0003970872 -0.0005546404
v 0.0005546405 0.0008650352 -0.0005546404
v 9.757015E-12 0.0008650352 -0.00078438
v 9.757015E-12 -0.0003970871 -0.0007843801
v -0.0007843801 -0.0003970872 1.281952E-10
v -0.0005546405 -0.0003970872 0.0005546406
v -0.000512421 -0.0007797707 0.0005124211
v -0.0007246727 -0.0007797707 6.471482E-11
v -0.0005546405 -0.001104194 9.728654E-11
v -0.00039219 -0.001104194 0.0003921901
v -0.0002122517 -0.001320967 0.0002122518
v -0.0003001692 -0.001320967 8.781111E-11
v 0.0007843802 -0.0003970872 1.048188E-10
v 0.0007843802 0.0008650352 1.721172E-10
v 0.0005546405 0.0008650352 -0.0005546404
v 0.0005546405 -0.0003970872 -0.0005546404
v 0.0005546406 -0.0003970872 0.0005546407
v 0.0005546406 0.0008650352 0.0005546408
v 0.0007843802 0.0008650352 1.721172E-10
v 0.0007843802 -0.0003970872 1.048188E-10
v -0.0007246727 -0.0007797707 6.471482E-11
v -0.000512421 -0.0007797707 0.0005124211
v -0.00039219 -0.001104194 0.0003921901
v -0.0005546405 -0.001104194 9.728654E-11
v -0.0005546405 -0.0003970872 0.0005546406
v 0 -0.0003970872 0.0007843804
v -3.69957E-11 -0.0007797707 0.0007246728
v -0.000512421 -0.0007797707 0.0005124211
v -0.00039219 -0.001104194 0.0003921901
v -1.361934E-11 -0.001104194 0.0005546405
v -1.931163E-12 -0.001320967 0.0003001693
v -0.0002122517 -0.001320967 0.0002122518
v 0 -0.0003970872 0.0007843804
v 0 0.0008650352 0.0007843804
v 0.0005546406 0.0008650352 0.0005546408
v 0.0005546406 -0.0003970872 0.0005546407
v -0.0005546405 -0.0003970872 0.0005546406
v -0.0005546405 0.0008650352 0.0005546407
v 0 0.0008650352 0.0007843804
v 0 -0.0003970872 0.0007843804
v -0.000512421 -0.0007797707 0.0005124211
v -3.69957E-11 -0.0007797707 0.0007246728
v -1.361934E-11 -0.001104194 0.0005546405
v -0.00039219 -0.001104194 0.0003921901
v 9.757015E-12 -0.0003970871 -0.0007843801
v 9.757015E-12 0.0008650352 -0.00078438
v -0.0005546405 0.0008650352 -0.0005546403
v -0.0005546405 -0.0003970872 -0.0005546404
v -0.0005546405 -0.0003970872 -0.0005546404
v -0.0005546405 0.0008650352 -0.0005546403
v -0.0007843801 0.0008650352 1.954935E-10
v -0.0007843801 -0.0003970872 1.281952E-10
vt 0.75 0.875
vt 0.6250001 0.875
vt 0.6875001 1
vt 0.6250001 0.875
vt 0.5000001 0.875
vt 0.5625001 1
vt 0.5000001 0.875
vt 0.3750001 0.8750001
vt 0.4375001 1
vt 0.3750001 0.8750001
vt 0.25 0.8750001
vt 0.3125 1
vt 0.25 0.8750001
vt 0.125 0.8750001
vt 0.1875 1
vt 0.125 0.8750001
vt 0 0.875
vt 0.06249994 1
vt 1 0.875
vt 0.8749999 0.875
vt 0.9374999 1
vt 0.8749999 0.875
vt 0.75 0.875
vt 0.8125 1
vt 0.75 0.5
vt 0.625 0.5
vt 0.625 0.6250001
vt 0.75 0.6250001
vt 0.75 0.7500001
vt 0.625 0.7500001
vt 0.6250001 0.875
vt 0.75 0.875
vt 0.75 0.6250001
vt 0.625 0.6250001
vt 0.625 0.7500001
vt 0.75 0.7500001
vt 0.625 0.6250001
vt 0.5 0.6250001
vt 0.5000001 0.7500001
vt 0.625 0.7500001
vt 0.625 0.5
vt 0.5 0.5
vt 0.5 0.6250001
vt 0.625 0.6250001
vt 0.625 0.7500001
vt 0.5000001 0.7500001
vt 0.5000001 0.875
vt 0.6250001 0.875
vt 0.5 0.5
vt 0.375 0.5
vt 0.375 0.6250001
vt 0.5 0.6250001
vt 0.5000001 0.7500001
vt 0.375 0.7500001
vt 0.3750001 0.8750001
vt 0.5000001 0.875
vt 0.5 0.6250001
vt 0.375 0.6250001
vt 0.375 0.7500001
vt 0.5000001 0.7500001
vt 0.375 0.5
vt 0.25 0.5
vt 0.25 0.6250001
vt 0.375 0.6250001
vt 0.375 0.7500001
vt 0.25 0.7500001
vt 0.25 0.8750001
vt 0.3750001 0.8750001
vt 0.375 0.6250001
vt 0.25 0.6250001
vt 0.25 0.7500001
vt 0.375 0.7500001
vt 0.25 0.6250001
vt 0.125 0.6250001
vt 0.125 0.7500001
vt 0.25 0.7500001
vt 0.25 0.5
vt 0.125 0.5
vt 0.125 0.6250001
vt 0.25 0.6250001
vt 0.25 0.7500001
vt 0.125 0.7500001
vt 0.125 0.8750001
vt 0.25 0.8750001
vt 0.125 0.6250001
vt 0 0.6250001
vt 0 0.7500001
vt 0.125 0.7500001
vt 0.125 0.5
vt 0 0.5
vt 0 0.6250001
vt 0.125 0.6250001
vt 0.125 0.7500001
vt 0 0.7500001
vt 0 0.875
vt 0.125 0.8750001
vt 0.125 0.5
vt 0.25 0.5
vt 0.375 0.5
vt 0.5 0.5
vt 0 0.5
vt 0.625 0.5
vt 0.8749999 0.5
vt 0.75 0.5
vt 1 0.5
vt 1 0.5
vt 0.8749999 0.5
vt 0.8749999 0.5
vt 0.375 0.5
vt 0.375 0.5
vt 0.25 0.5
vt 0.25 0.5
vt 1 0.5
vt 0.8749999 0.5
vt 0.875 0.6250001
vt 1 0.6250001
vt 1 0.7500001
vt 0.8749999 0.7500001
vt 0.8749999 0.875
vt 1 0.875
vt 0.5 0.5
vt 0.5 0.5
vt 0.375 0.5
vt 0.375 0.5
vt 0.625 0.5
vt 0.625 0.5
vt 0.5 0.5
vt 0.5 0.5
vt 1 0.6250001
vt 0.875 0.6250001
vt 0.8749999 0.7500001
vt 1 0.7500001
vt 0.8749999 0.5
vt 0.75 0.5
vt 0.75 0.6250001
vt 0.875 0.6250001
vt 0.8749999 0.7500001
vt 0.75 0.7500001
vt 0.75 0.875
vt 0.8749999 0.875
vt 0.75 0.5
vt 0.75 0.5
vt 0.625 0.5
vt 0.625 0.5
vt 0.8749999 0.5
vt 0.8749999 0.5
vt 0.75 0.5
vt 0.75 0.5
vt 0.875 0.6250001
vt 0.75 0.6250001
vt 0.75 0.7500001
vt 0.8749999 0.7500001
vt 0.25 0.5
vt 0.25 0.5
vt 0.125 0.5
vt 0.125 0.5
vt 0.125 0.5
vt 0.125 0.5
vt 0 0.5
vt 0 0.5
vn 0.1012944 -0.9643322 0.2445463
vn 0.1012944 -0.9643322 0.2445463
vn 0.1012944 -0.9643322 0.2445463
vn 0.2445463 -0.9643322 0.1012941
vn 0.2445463 -0.9643322 0.1012941
vn 0.2445463 -0.9643322 0.1012941
vn 0.2445464 -0.9643322 -0.1012942
vn 0.2445464 -0.9643322 -0.1012942
vn 0.2445464 -0.9643322 -0.1012942
vn 0.1012944 -0.964332 -0.2445468
vn 0.1012944 -0.964332 -0.2445468
vn 0.1012944 -0.964332 -0.2445468
vn -0.1012945 -0.9643322 -0.2445465
vn -0.1012945 -0.9643322 -0.2445465
vn -0.1012945 -0.9643322 -0.2445465
vn -0.2445464 -0.964332 -0.1012956
vn -0.2445464 -0.964332 -0.1012956
vn -0.2445464 -0.964332 -0.1012956
vn -0.2445464 -0.964332 0.1012949
vn -0.2445464 -0.964332 0.1012949
vn -0.2445464 -0.964332 0.1012949
vn -0.1012944 -0.964332 0.2445469
vn -0.1012944 -0.964332 0.2445469
vn -0.1012944 -0.964332 0.2445469
vn 0.3787684 -0.142672 0.9144284
vn 0.3787684 -0.142672 0.9144284
vn 0.3787684 -0.142672 0.9144284
vn 0.3787684 -0.142672 0.9144284
vn 0.2594093 -0.7351825 0.6262696
vn 0.2594093 -0.7351825 0.6262696
vn 0.2594093 -0.7351825 0.6262696
vn 0.2594093 -0.7351825 0.6262696
vn 0.3444302 -0.4358088 0.8315278
vn 0.3444302 -0.4358088 0.8315278
vn 0.3444302 -0.4358088 0.8315278
vn 0.3444302 -0.4358088 0.8315278
vn 0.8315278 -0.435809 0.3444302
vn 0.8315278 -0.435809 0.3444302
vn 0.8315278 -0.435809 0.3444302
vn 0.8315278 -0.435809 0.3444302
vn 0.9144284 -0.1426717 0.3787686
vn 0.9144284 -0.1426717 0.3787686
vn 0.9144284 -0.1426717 0.3787686
vn 0.9144284 -0.1426717 0.3787686
vn 0.6262696 -0.7351823 0.2594095
vn 0.6262696 -0.7351823 0.2594095
vn 0.6262696 -0.7351823 0.2594095
vn 0.6262696 -0.7351823 0.2594095
vn 0.9144284 -0.1426717 -0.3787687
vn 0.9144284 -0.1426717 -0.3787687
vn 0.9144284 -0.1426717 -0.3787687
vn 0.9144284 -0.1426717 -0.3787687
vn 0.6262696 -0.7351824 -0.2594093
vn 0.6262696 -0.7351824 -0.2594093
vn 0.6262696 -0.7351824 -0.2594093
vn 0.6262696 -0.7351824 -0.2594093
vn 0.8315278 -0.4358088 -0.3444302
vn 0.8315278 -0.4358088 -0.3444302
vn 0.8315278 -0.4358088 -0.3444302
vn 0.8315278 -0.4358088 -0.3444302
vn 0.3787686 -0.1426719 -0.9144284
vn 0.3787686 -0.1426719 -0.9144284
vn 0.3787686 -0.1426719 -0.9144284
vn 0.3787686 -0.1426719 -0.9144284
vn 0.2594094 -0.7351826 -0.6262695
vn 0.2594094 -0.7351826 -0.6262695
vn 0.2594094 -0.7351826 -0.6262695
vn 0.2594094 -0.7351826 -0.6262695
vn 0.3444301 -0.4358086 -0.8315281
vn 0.3444301 -0.4358086 -0.8315281
vn 0.3444301 -0.4358086 -0.8315281
vn 0.3444301 -0.4358086 -0.8315281
vn -0.3444302 -0.4358086 -0.8315279
vn -0.3444302 -0.4358086 -0.8315279
vn -0.3444302 -0.4358086 -0.8315279
vn -0.3444302 -0.4358086 -0.8315279
vn -0.3787687 -0.1426718 -0.9144284
vn -0.3787687 -0.1426718 -0.9144284
vn -0.3787687 -0.1426718 -0.9144284
vn -0.3787687 -0.1426718 -0.9144284
vn -0.2594093 -0.7351823 -0.6262696
vn -0.2594093 -0.7351823 -0.6262696
vn -0.2594093 -0.7351823 -0.6262696
vn -0.2594093 -0.7351823 -0.6262696
vn -0.8315279 -0.4358087 -0.3444303
vn -0.8315279 -0.4358087 -0.3444303
vn -0.8315279 -0.4358087 -0.3444303
vn -0.8315279 -0.4358087 -0.3444303
vn -0.9144284 -0.1426716 -0.3787687
vn -0.9144284 -0.1426716 -0.3787687
vn -0.9144284 -0.1426716 -0.3787687
vn -0.9144284 -0.1426716 -0.3787687
vn -0.6262696 -0.7351823 -0.2594095
vn -0.6262696 -0.7351823 -0.2594095
vn -0.6262696 -0.7351823 -0.2594095
vn -0.6262696 -0.7351823 -0.2594095
vn 0 1 0
vn 0 1 0
vn 0 1 0
vn 0 1 0
vn 0 1 0
vn 0 1 0
vn 0 1 0
vn 0 1 0
vn -0.9238795 0 0.3826834
vn -0.9238795 0 0.3826834
vn -0.9238795 0 0.3826834
vn -0.9238795 0 0.3826834
vn 0.3826833 0 -0.9238795
vn 0.3826833 0 -0.9238795
vn 0.3826833 0 -0.9238795
vn 0.3826833 0 -0.9238795
vn -0.9144284 -0.1426718 0.3787686
vn -0.9144284 -0.1426718 0.3787686
vn -0.9144284 -0.1426718 0.3787686
vn -0.9144284 -0.1426718 0.3787686
vn -0.6262696 -0.7351823 0.2594093
vn -0.6262696 -0.7351823 0.2594093
vn -0.6262696 -0.7351823 0.2594093
vn -0.6262696 -0.7351823 0.2594093
vn 0.9238795 0 -0.3826835
vn 0.9238795 0 -0.3826835
vn 0.9238795 0 -0.3826835
vn 0.9238795 0 -0.3826835
vn 0.9238795 0 0.3826833
vn 0.9238795 0 0.3826833
vn 0.9238795 0 0.3826833
vn 0.9238795 0 0.3826833
vn -0.8315279 -0.4358087 0.3444302
vn -0.8315279 -0.4358087 0.3444302
vn -0.8315279 -0.4358087 0.3444302
vn -0.8315279 -0.4358087 0.3444302
vn -0.3787687 -0.1426719 0.9144282
vn -0.3787687 -0.1426719 0.9144282
vn -0.3787687 -0.1426719 0.9144282
vn -0.3787687 -0.1426719 0.9144282
vn -0.2594094 -0.7351825 0.6262695
vn -0.2594094 -0.7351825 0.6262695
vn -0.2594094 -0.7351825 0.6262695
vn -0.2594094 -0.7351825 0.6262695
vn 0.3826834 0 0.9238795
vn 0.3826834 0 0.9238795
vn 0.3826834 0 0.9238795
vn 0.3826834 0 0.9238795
vn -0.3826835 0 0.9238794
vn -0.3826835 0 0.9238794
vn -0.3826835 0 0.9238794
vn -0.3826835 0 0.9238794
vn -0.3444303 -0.4358087 0.8315279
vn -0.3444303 -0.4358087 0.8315279
vn -0.3444303 -0.4358087 0.8315279
vn -0.3444303 -0.4358087 0.8315279
vn -0.3826834 0 -0.9238795
vn -0.3826834 0 -0.9238795
vn -0.3826834 0 -0.9238795
vn -0.3826834 0 -0.9238795
vn -0.9238795 0 -0.3826833
vn -0.9238795 0 -0.3826833
vn -0.9238795 0 -0.3826833
vn -0.9238795 0 -0.3826833
g Bullet_0
f 3/3/3 2/2/2 1/1/1
f 6/6/6 5/5/5 4/4/4
f 9/9/9 8/8/8 7/7/7
f 12/12/12 11/11/11 10/10/10
f 15/15/15 14/14/14 13/13/13
f 18/18/18 17/17/17 16/16/16
f 21/21/21 20/20/20 19/19/19
f 24/24/24 23/23/23 22/22/22
f 27/27/27 26/26/26 25/25/25
f 28/28/28 27/27/27 25/25/25
f 31/31/31 30/30/30 29/29/29
f 32/32/32 31/31/31 29/29/29
f 35/35/35 34/34/34 33/33/33
f 36/36/36 35/35/35 33/33/33
f 39/39/39 38/38/38 37/37/37
f 40/40/40 39/39/39 37/37/37
f 43/43/43 42/42/42 41/41/41
f 44/44/44 43/43/43 41/41/41
f 47/47/47 46/46/46 45/45/45
f 48/48/48 47/47/47 45/45/45
f 51/51/51 50/50/50 49/49/49
f 52/52/52 51/51/51 49/49/49
f 55/55/55 54/54/54 53/53/53
f 56/56/56 55/55/55 53/53/53
f 59/59/59 58/58/58 57/57/57
f 60/60/60 59/59/59 57/57/57
f 63/63/63 62/62/62 61/61/61
f 64/64/64 63/63/63 61/61/61
f 67/67/67 66/66/66 65/65/65
f 68/68/68 67/67/67 65/65/65
f 71/71/71 70/70/70 69/69/69
f 72/72/72 71/71/71 69/69/69
f 75/75/75 74/74/74 73/73/73
f 76/76/76 75/75/75 73/73/73
f 79/79/79 78/78/78 77/77/77
f 80/80/80 79/79/79 77/77/77
f 83/83/83 82/82/82 81/81/81
f 84/84/84 83/83/83 81/81/81
f 87/87/87 86/86/86 85/85/85
f 88/88/88 87/87/87 85/85/85
f 91/91/91 90/90/90 89/89/89
f 92/92/92 91/91/91 89/89/89
f 95/95/95 94/94/94 93/93/93
f 96/96/96 95/95/95 93/93/93
f 99/99/99 98/98/98 97/97/97
f 97/97/97 100/100/100 99/99/99
f 97/97/97 101/101/101 100/100/100
f 101/101/101 102/102/102 100/100/100
f 101/101/101 103/103/103 102/102/102
f 103/103/103 104/104/104 102/102/102
f 107/107/107 106/106/106 105/105/105
f 108/108/108 107/107/107 105/105/105
f 111/111/111 110/110/110 109/109/109
f 112/112/112 111/111/111 109/109/109
f 115/115/115 114/114/114 113/113/113
f 116/116/116 115/115/115 113/113/113
f 119/119/119 118/118/118 117/117/117
f 120/120/120 119/119/119 117/117/117
f 123/123/123 122/122/122 121/121/121
f 124/124/124 123/123/123 121/121/121
f 127/127/127 126/126/126 125/125/125
f 128/128/128 127/127/127 125/125/125
f 131/131/131 130/130/130 129/129/129
f 132/132/132 131/131/131 129/129/129
f 135/135/135 134/134/134 133/133/133
f 136/136/136 135/135/135 133/133/133
f 139/139/139 138/138/138 137/137/137
f 140/140/140 139/139/139 137/137/137
f 143/143/143 142/142/142 141/141/141
f 144/144/144 143/143/143 141/141/141
f 147/147/147 146/146/146 145/145/145
f 148/148/148 147/147/147 145/145/145
f 151/151/151 150/150/150 149/149/149
f 152/152/152 151/151/151 149/149/149
f 155/155/155 154/154/154 153/153/153
f 156/156/156 155/155/155 153/153/153
f 159/159/159 158/158/158 157/157/157
f 160/160/160 159/159/159 157/157/157
