g ChairPieceMesh06
v 0.4062217 -0.2252756 -0.08847745
v 0.2875807 -0.1803759 -0.09324642
v 0.1324024 -0.1275159 -0.07968546
v 0.4438943 -0.2533863 -0.04021512
v 0.09790888 -0.1155325 -0.07745884
v -0.01838986 -0.0751009 -0.07004739
v -0.1648111 -0.02357996 -0.06279914
v -0.2699816 0.01361918 -0.05824415
v -0.3069919 0.02662516 -0.0563554
v -0.4106531 0.0582149 -0.03473775
v 0.4016488 -0.2541592 0.01464556
v -0.4438943 0.05537891 0.01594742
v 0.2835367 -0.2182422 0.0395347
v -0.4089077 0.02862787 0.06294389
v 0.2319787 -0.2003242 0.04284103
v 0.1305962 -0.1651335 0.04948862
v -0.01838987 -0.1132934 0.05883224
v -0.163534 -0.06259239 0.06726833
v -0.3049487 -0.01282299 0.07423468
v -0.1858716 -0.0547508 0.06843574
v -0.2971823 0.1427705 -0.03471075
v -0.3069919 0.02662516 -0.0563554
v -0.2699816 0.01361918 -0.05824415
v -0.4106531 0.0582149 -0.03473775
v -0.1632402 0.01361907 -0.05674551
v -0.1648111 -0.02357996 -0.06279914
v -0.01838986 -0.0751009 -0.07004739
v -0.01838986 0.01361918 -0.05606763
v 0.09790888 -0.1155325 -0.07745884
v -0.4017293 0.1362772 -0.01979999
v -0.4365783 0.1167965 0.02711897
v -0.4438943 0.05537891 0.01594742
v -0.4017293 0.09731603 0.07458462
v -0.4089077 0.02862787 0.06294389
v -0.2971823 0.09082258 0.09113546
v -0.3049487 -0.01282299 0.07423468
v -0.1858716 -0.0547508 0.06843574
v -0.1632402 -0.0547508 0.06862797
v -0.163534 -0.06259239 0.06726833
v -0.01838987 -0.0547508 0.06903787
v -0.01838987 -0.1132934 0.05883224
v -0.1577861 0.0908227 0.09195544
v 0.1264605 -0.0547508 0.06862785
v 0.1305962 -0.1651335 0.04948862
v 0.2319787 -0.2003242 0.04284103
v -0.01838985 0.09082258 0.09222879
v -0.1536956 0.2044435 0.09317817
v -0.2890011 0.2044435 0.09297313
v -0.3673524 0.1805038 0.07592274
v -0.3908212 0.2198185 0.0458581
v -0.2862741 0.254159 0.05210443
v -0.152332 0.2541592 0.05210443
v -0.01838985 0.2044435 0.09324642
v 0.1210064 0.0908227 0.09195544
v 0.2713109 -0.05475092 0.06739779
v 0.2822191 -0.2003242 0.04256697
v 0.2835367 -0.2182422 0.0395347
v 0.3949475 -0.1897253 0.02566551
v 0.4016488 -0.2541592 0.01464556
v 0.3799487 -0.04620457 0.05026181
v 0.2604027 0.09082258 0.09113546
v 0.1169159 0.2044435 0.09317823
v -0.01838985 0.254159 0.05210443
v 0.4325236 -0.1579283 -0.02285187
v 0.4438943 -0.2533863 -0.04021512
v 0.4161613 -0.02056599 0.002133533
v 0.3949475 -0.1261314 -0.0697511
v 0.4062217 -0.2252756 -0.08847745
v -0.1536956 0.2351934 -0.0005053133
v 0.3799487 0.005072832 -0.04490681
v 0.2822191 -0.1155325 -0.08179782
v 0.2875807 -0.1803759 -0.09324642
v -0.2890012 0.2351935 -0.0007102638
v -0.3673524 0.2057145 0.006319836
v -0.1577861 0.1427708 -0.03389074
v -0.01838985 0.2351935 -0.0004369766
v -0.01838985 0.1427705 -0.03361742
v 0.1155524 0.2541592 0.05210449
v 0.1169159 0.2351933 -0.0005053133
v 0.1210064 0.1427708 -0.03389074
v 0.2522216 0.2044435 0.09297313
v 0.1264605 0.01361907 -0.05674554
v 0.2494946 0.254159 0.05210449
v 0.36495 0.09731603 0.07458462
v 0.1319146 -0.1155325 -0.07776313
v 0.1324024 -0.1275159 -0.07968546
v 0.2713109 0.01361918 -0.05877917
v 0.2604027 0.1427705 -0.03471075
v 0.36495 0.1362772 -0.01979996
v 0.399799 0.1167965 0.02711903
v 0.2522216 0.2351935 -0.0007102638
v 0.330573 0.2057145 0.006319836
v 0.3540418 0.2198185 0.04585804
v 0.330573 0.1805038 0.0759228
vt 0.625 0.25
vt 0.5833333 0.25
vt 0.5416666 0.25
vt 0.625 0.125
vt 0.5322397 0.25
vt 0.4999999 0.25
vt 0.4583333 0.25
vt 0.4276288 0.25
vt 0.4166666 0.25
vt 0.375 0.25
vt 0.625 0
vt 0.375 0.125
vt 0.5833333 0
vt 0.375 0
vt 0.5694059 0
vt 0.5416666 0
vt 0.4999999 0
vt 0.4583333 0
vt 0.4166666 0
vt 0.4518233 0
vt 0.4166666 0.25
vt 0.4166666 0.25
vt 0.4276288 0.25
vt 0.375 0.25
vt 0.4583333 0.25
vt 0.4583333 0.25
vt 0.4999999 0.25
vt 0.4999999 0.25
vt 0.5322397 0.25
vt 0.375 0.25
vt 0.375 0.125
vt 0.375 0.125
vt 0.375 0
vt 0.375 0
vt 0.4166666 0
vt 0.4166666 0
vt 0.4518233 0
vt 0.4583333 0
vt 0.4583333 0
vt 0.4999999 0
vt 0.4999999 0
vt 0.4583333 0
vt 0.5416666 0
vt 0.5416666 0
vt 0.5694059 0
vt 0.4999999 0
vt 0.4583333 0
vt 0.4166666 0
vt 0.375 0
vt 0.375 0.125
vt 0.4166666 0.125
vt 0.4583333 0.125
vt 0.4999999 0
vt 0.5416666 0
vt 0.5833333 0
vt 0.5833333 0
vt 0.5833333 0
vt 0.625 0
vt 0.625 0
vt 0.625 0
vt 0.5833333 0
vt 0.5416666 0
vt 0.4999999 0.125
vt 0.625 0.125
vt 0.625 0.125
vt 0.625 0.125
vt 0.625 0.25
vt 0.625 0.25
vt 0.4583333 0.25
vt 0.625 0.25
vt 0.5833333 0.25
vt 0.5833333 0.25
vt 0.4166666 0.25
vt 0.375 0.25
vt 0.4583333 0.25
vt 0.4999999 0.25
vt 0.4999999 0.25
vt 0.5416666 0.125
vt 0.5416666 0.25
vt 0.5416666 0.25
vt 0.5833333 0
vt 0.5416666 0.25
vt 0.5833333 0.125
vt 0.625 0
vt 0.5416666 0.25
vt 0.5416666 0.25
vt 0.5833333 0.25
vt 0.5833333 0.25
vt 0.625 0.25
vt 0.625 0.125
vt 0.5833333 0.25
vt 0.625 0.25
vt 0.625 0.125
vt 0.625 0
vn -0.3315536 -0.9045538 -0.2680568
vn -0.3315536 -0.9045538 -0.2680568
vn -0.3315536 -0.9045538 -0.2680568
vn -0.3315536 -0.9045538 -0.2680568
vn -0.3315536 -0.9045538 -0.2680568
vn -0.3315536 -0.9045538 -0.2680568
vn -0.3315536 -0.9045538 -0.2680568
vn -0.3315537 -0.9045538 -0.2680568
vn -0.3315536 -0.9045538 -0.2680568
vn -0.3315536 -0.9045538 -0.2680568
vn -0.3315536 -0.9045538 -0.2680568
vn -0.3315536 -0.9045538 -0.2680568
vn -0.3315536 -0.9045538 -0.2680568
vn -0.3315536 -0.9045538 -0.2680568
vn -0.3315537 -0.9045538 -0.2680568
vn -0.3315536 -0.9045538 -0.2680568
vn -0.3315536 -0.9045538 -0.2680568
vn -0.3315536 -0.9045538 -0.2680568
vn -0.3315536 -0.9045538 -0.2680568
vn -0.3315536 -0.9045538 -0.2680568
vn -0.05437585 0.259333 -0.9642559
vn -0.03623142 0.1840372 -0.9822513
vn 0.009878105 0.1778271 -0.9840121
vn -0.3437297 0.2099431 -0.9152999
vn 0.006699039 0.1712037 -0.9852129
vn 0.006572282 0.1574347 -0.9875075
vn -0.003345211 0.1579951 -0.9874342
vn -0.0009190874 0.1665796 -0.9860276
vn -0.006479454 0.1583255 -0.9873657
vn -0.4128554 0.3217049 -0.8520894
vn -0.9563331 0.271274 0.1087993
vn -0.9926253 0.1066174 0.0576864
vn -0.4085995 -0.005037536 0.9126999
vn -0.3397806 -0.1213316 0.9326456
vn -0.06434704 -0.08448493 0.9943449
vn -0.0485456 -0.1563148 0.9865136
vn -0.00694288 -0.1590355 0.9872485
vn -0.004364229 -0.159876 0.9871274
vn -0.002808163 -0.1716068 0.9851615
vn 0.000306872 -0.1617016 0.9868397
vn 0.001464354 -0.1711979 0.9852356
vn -0.0036061 -0.09368127 0.9955958
vn 0.004980835 -0.1634209 0.9865438
vn 0.005739635 -0.1695658 0.9855021
vn 0.00697261 -0.1689721 0.9855962
vn 0 -0.09484403 0.9954921
vn -0.001822746 0.233073 0.9724576
vn -0.08457626 0.2446885 0.965906
vn -0.3680735 0.2243247 0.9023306
vn -0.6735393 0.6982896 0.242356
vn -0.1269694 0.9424749 0.3092246
vn -0.0001571984 0.9501268 0.3118636
vn 0 0.2345311 0.9721086
vn 0.003772362 -0.09600374 0.9953739
vn 0.07655714 -0.1583 0.9844186
vn 0.08848099 -0.1604558 0.9830692
vn 0.1519542 -0.1517909 0.9766624
vn 0.4486998 -0.1050525 0.8874866
vn 0.6028851 -0.07127463 0.794638
vn 0.4238103 -0.1085887 0.8992182
vn 0.07239095 -0.09449776 0.9928895
vn 0.001822738 0.2330727 0.9724576
vn 0 0.9501271 0.3118634
vn 0.9918385 0.1026054 0.0756864
vn 0.9931378 0.1090539 0.0422429
vn 0.9921492 0.1041263 0.06926515
vn 0.4384377 0.2108455 -0.8736799
vn 0.5430102 0.212238 -0.8124623
vn 0.001689688 0.6083186 -0.793691
vn 0.4238954 0.2117264 -0.8806161
vn 0.05233052 0.1800817 -0.9822587
vn 0.07896943 0.1858251 -0.9794043
vn -0.08720941 0.6218238 -0.7782865
vn -0.3922028 0.5804647 -0.7136089
vn 0.004747677 0.2458906 -0.9692858
vn 0 0.6071607 -0.794579
vn 0 0.2433492 -0.9699387
vn 0.0001572407 0.9501271 0.3118626
vn -0.001689685 0.608319 -0.7936908
vn -0.004782378 0.2456486 -0.9693471
vn 0.08457617 0.2446883 0.965906
vn -0.01010699 0.1692051 -0.985529
vn 0.1269691 0.9424751 0.3092241
vn 0.431224 -0.03323016 0.9016328
vn -0.01581089 0.1637999 -0.9863668
vn -0.02704681 0.1691322 -0.9852222
vn 0.05096588 0.1824378 -0.9818956
vn 0.05952147 0.2552613 -0.9650382
vn 0.4323522 0.2993968 -0.8505488
vn 0.9726338 0.2170421 0.08292258
vn 0.0872091 0.6218243 -0.7782859
vn 0.3922021 0.5804648 -0.7136091
vn 0.6735389 0.6982897 0.2423569
vn 0.3680729 0.2243248 0.9023308
g ChairPieceMesh06_0
f 3/3/3 2/2/2 1/1/1
f 1/1/1 4/4/4 3/3/3
f 4/4/4 5/5/5 3/3/3
f 4/4/4 6/6/6 5/5/5
f 4/4/4 7/7/7 6/6/6
f 4/4/4 8/8/8 7/7/7
f 4/4/4 9/9/9 8/8/8
f 4/4/4 10/10/10 9/9/9
f 4/4/4 11/11/11 10/10/10
f 11/11/11 12/12/12 10/10/10
f 11/11/11 13/13/13 12/12/12
f 13/13/13 14/14/14 12/12/12
f 13/13/13 15/15/15 14/14/14
f 15/15/15 16/16/16 14/14/14
f 16/16/16 17/17/17 14/14/14
f 17/17/17 18/18/18 14/14/14
f 18/18/18 19/19/19 14/14/14
f 18/18/18 20/20/20 19/19/19
f 23/23/23 22/22/22 21/21/21
f 22/22/22 24/24/24 21/21/21
f 25/25/25 23/23/23 21/21/21
f 23/23/23 25/25/25 26/26/26
f 27/27/27 26/26/26 25/25/25
f 28/28/28 27/27/27 25/25/25
f 29/29/29 27/27/27 28/28/28
f 24/24/24 30/30/30 21/21/21
f 31/31/31 30/30/30 24/24/24
f 32/32/32 31/31/31 24/24/24
f 33/33/33 31/31/31 32/32/32
f 34/34/34 33/33/33 32/32/32
f 35/35/35 33/33/33 34/34/34
f 36/36/36 35/35/35 34/34/34
f 35/35/35 36/36/36 37/37/37
f 35/35/35 37/37/37 38/38/38
f 39/39/39 38/38/38 37/37/37
f 38/38/38 39/39/39 40/40/40
f 39/39/39 41/41/41 40/40/40
f 38/38/38 42/42/42 35/35/35
f 38/38/38 40/40/40 42/42/42
f 40/40/40 41/41/41 43/43/43
f 41/41/41 44/44/44 43/43/43
f 43/43/43 44/44/44 45/45/45
f 40/40/40 46/46/46 42/42/42
f 40/40/40 43/43/43 46/46/46
f 42/42/42 47/47/47 35/35/35
f 42/42/42 46/46/46 47/47/47
f 35/35/35 48/48/48 33/33/33
f 47/47/47 48/48/48 35/35/35
f 48/48/48 49/49/49 33/33/33
f 33/33/33 49/49/49 31/31/31
f 49/49/49 50/50/50 31/31/31
f 31/31/31 50/50/50 30/30/30
f 48/48/48 51/51/51 49/49/49
f 51/51/51 50/50/50 49/49/49
f 47/47/47 52/52/52 48/48/48
f 52/52/52 51/51/51 48/48/48
f 46/46/46 53/53/53 47/47/47
f 47/47/47 53/53/53 52/52/52
f 43/43/43 54/54/54 46/46/46
f 46/46/46 54/54/54 53/53/53
f 43/43/43 55/55/55 54/54/54
f 55/55/55 43/43/43 45/45/45
f 45/45/45 56/56/56 55/55/55
f 45/45/45 57/57/57 56/56/56
f 56/56/56 57/57/57 58/58/58
f 57/57/57 59/59/59 58/58/58
f 55/55/55 56/56/56 60/60/60
f 56/56/56 58/58/58 60/60/60
f 55/55/55 61/61/61 54/54/54
f 55/55/55 60/60/60 61/61/61
f 54/54/54 62/62/62 53/53/53
f 54/54/54 61/61/61 62/62/62
f 53/53/53 63/63/63 52/52/52
f 53/53/53 62/62/62 63/63/63
f 64/64/64 58/58/58 59/59/59
f 65/65/65 64/64/64 59/59/59
f 66/66/66 60/60/60 58/58/58
f 64/64/64 66/66/66 58/58/58
f 67/67/67 64/64/64 65/65/65
f 68/68/68 67/67/67 65/65/65
f 52/52/52 63/63/63 69/69/69
f 52/52/52 69/69/69 51/51/51
f 70/70/70 66/66/66 64/64/64
f 67/67/67 70/70/70 64/64/64
f 71/71/71 67/67/67 68/68/68
f 72/72/72 71/71/71 68/68/68
f 69/69/69 73/73/73 51/51/51
f 51/51/51 73/73/73 50/50/50
f 73/73/73 74/74/74 50/50/50
f 50/50/50 74/74/74 30/30/30
f 30/30/30 74/74/74 73/73/73
f 21/21/21 30/30/30 73/73/73
f 21/21/21 73/73/73 69/69/69
f 75/75/75 21/21/21 69/69/69
f 21/21/21 75/75/75 25/25/25
f 75/75/75 69/69/69 76/76/76
f 63/63/63 76/76/76 69/69/69
f 25/25/25 75/75/75 77/77/77
f 77/77/77 75/75/75 76/76/76
f 28/28/28 25/25/25 77/77/77
f 63/63/63 78/78/78 76/76/76
f 62/62/62 78/78/78 63/63/63
f 77/77/77 76/76/76 79/79/79
f 78/78/78 79/79/79 76/76/76
f 28/28/28 77/77/77 80/80/80
f 80/80/80 77/77/77 79/79/79
f 62/62/62 81/81/81 78/78/78
f 61/61/61 81/81/81 62/62/62
f 82/82/82 28/28/28 80/80/80
f 29/29/29 28/28/28 82/82/82
f 78/78/78 83/83/83 79/79/79
f 81/81/81 83/83/83 78/78/78
f 61/61/61 84/84/84 81/81/81
f 60/60/60 84/84/84 61/61/61
f 82/82/82 85/85/85 29/29/29
f 29/29/29 85/85/85 86/86/86
f 86/86/86 85/85/85 72/72/72
f 85/85/85 71/71/71 72/72/72
f 85/85/85 82/82/82 71/71/71
f 82/82/82 87/87/87 71/71/71
f 82/82/82 80/80/80 87/87/87
f 71/71/71 87/87/87 67/67/67
f 87/87/87 70/70/70 67/67/67
f 80/80/80 88/88/88 87/87/87
f 87/87/87 88/88/88 70/70/70
f 80/80/80 79/79/79 88/88/88
f 88/88/88 89/89/89 70/70/70
f 70/70/70 89/89/89 66/66/66
f 66/66/66 90/90/90 60/60/60
f 89/89/89 90/90/90 66/66/66
f 90/90/90 84/84/84 60/60/60
f 79/79/79 91/91/91 88/88/88
f 88/88/88 91/91/91 89/89/89
f 83/83/83 91/91/91 79/79/79
f 89/89/89 92/92/92 90/90/90
f 91/91/91 92/92/92 89/89/89
f 92/92/92 93/93/93 90/90/90
f 93/93/93 92/92/92 91/91/91
f 90/90/90 93/93/93 84/84/84
f 83/83/83 93/93/93 91/91/91
f 93/93/93 94/94/94 84/84/84
f 94/94/94 93/93/93 83/83/83
f 84/84/84 94/94/94 81/81/81
f 81/81/81 94/94/94 83/83/83
