g ChairPieceMesh08
v 0.1361406 0.2066759 -0.03526746
v 0.2040158 0.1662443 -0.04224564
v 0.2092957 0.1812433 -0.03992946
v 0.1361406 0.1662443 -0.04163833
v 0.1567384 0.0316419 -0.06279264
v 0.0008069612 0.1662443 -0.04284923
v 0.06677119 0.2310847 -0.03183348
v -0.01961793 0.03224313 -0.06447916
v -0.01478773 0.1509155 -0.04544215
v -0.1338589 0.03376752 -0.06875567
v 0.1361406 0.03155029 -0.0625356
v 0.1361406 -0.02642429 -0.07211597
v 0.1047813 -0.1136897 -0.08704264
v 0.01114235 -0.11208 -0.08828746
v 0.09177928 -0.1401268 -0.09950088
v -0.02455182 -0.09775198 -0.08645223
v -0.1806888 -0.03262645 -0.08243097
v -0.178942 -0.0106138 -0.07844551
v -0.1960909 -0.02743119 -0.08002456
v 0.1361406 0.2066759 -0.03526746
v 0.2092957 0.1812433 -0.03992946
v 0.2501763 0.1288043 0.08646046
v 0.06677119 0.2310847 -0.03183348
v 0.03482444 0.2038746 0.09950088
v 0.1361406 0.1684834 0.09361218
v 0.2331173 0.08145261 0.07826386
v 0.1361406 0.1684834 0.09361218
v 0.2501763 0.1288043 0.08646046
v 0.1361406 0.08145261 0.07844023
v 0.1789029 -0.06947309 0.05249719
v 0.03482444 0.2038746 0.09950088
v 0.1361406 -0.06966329 0.05251594
v 0.1361406 -0.191214 0.03390814
v -0.01961793 -0.06897044 0.05244766
v 0.1221125 -0.2310847 0.02776755
v -0.02317541 -0.1734116 0.03629611
v -0.1785421 -0.1115537 0.04511549
v -0.01416383 0.08145261 0.07816689
v -0.01127521 0.1585522 0.0915352
v -0.08968955 0.08145261 0.07775484
v -0.1753763 -0.06689203 0.05224262
v -0.2501763 -0.07667363 0.03878222
v -0.1702951 0.002209187 0.06393658
v -0.2329206 -0.05963606 0.04413371
v 0.2092957 0.1812433 -0.03992946
v 0.2040158 0.1662443 -0.04224564
v 0.2501763 0.1288043 0.08646046
v 0.1567384 0.0316419 -0.06279264
v 0.2331173 0.08145261 0.07826386
v 0.1789029 -0.06947309 0.05249719
v 0.1361406 -0.02642429 -0.07211597
v 0.1047813 -0.1136897 -0.08704264
v 0.1361406 -0.191214 0.03390814
v 0.1119907 -0.2007334 -0.01470019
v 0.09177928 -0.1401268 -0.09950088
v 0.1221125 -0.2310847 0.02776755
v -0.2501763 -0.07667363 0.03878222
v -0.1960909 -0.02743119 -0.08002456
v -0.178942 -0.0106138 -0.07844551
v -0.1338589 0.03376752 -0.06875567
v -0.01478773 0.1509155 -0.04544215
v 0.0008069612 0.1662443 -0.04284923
v 0.06677119 0.2310847 -0.03183348
v 0.03482444 0.2038746 0.09950088
v -0.2329206 -0.05963606 0.04413371
v -0.08968955 0.08145261 0.07775484
v -0.01127521 0.1585522 0.0915352
v -0.1702951 0.002209187 0.06393658
v 0.1119907 -0.2007334 -0.01470019
v 0.09177928 -0.1401268 -0.09950088
v 0.01114235 -0.11208 -0.08828746
v -0.02455182 -0.09775198 -0.08645223
v -0.1806888 -0.03262645 -0.08243097
v -0.1960909 -0.02743119 -0.08002456
v -0.2501763 -0.07667363 0.03878222
v 0.1221125 -0.2310847 0.02776755
v -0.02317541 -0.1734116 0.03629611
v -0.1785421 -0.1115537 0.04511549
vt 0.4999999 0.25
vt 0.518816 0.25
vt 0.5202796 0.25
vt 0.4999999 0.25
vt 0.50551 0.25
vt 0.4624834 0.25
vt 0.4802597 0.25
vt 0.4583333 0.25
vt 0.4583333 0.25
vt 0.4277729 0.25
vt 0.4999999 0.25
vt 0.4999999 0.25
vt 0.4918948 0.25
vt 0.4676932 0.25
vt 0.4886651 0.25
vt 0.4583333 0.25
vt 0.4166666 0.25
vt 0.4166666 0.25
vt 0.4111938 0.25
vt 0.4999999 0.25
vt 0.5202796 0.25
vt 0.5318921 0
vt 0.4802597 0.25
vt 0.470915 0
vt 0.4999999 0
vt 0.5268834 0
vt 0.4999999 0
vt 0.5318921 0
vt 0.4999999 0
vt 0.5114392 0
vt 0.470915 0
vt 0.4999999 0
vt 0.4999999 0
vt 0.4583333 0
vt 0.4963742 0
vt 0.4583333 0
vt 0.4166667 0
vt 0.4583333 0
vt 0.4583333 0
vt 0.4373964 0
vt 0.4166666 0
vt 0.3906841 0
vt 0.4166666 0
vt 0.3961419 0
vt 0.5202796 0.25
vt 0.518816 0.25
vt 0.5318921 0
vt 0.50551 0.25
vt 0.5268834 0
vt 0.5114392 0
vt 0.4999999 0.25
vt 0.4918948 0.25
vt 0.4999999 0
vt 0.4939127 0.070043
vt 0.4886651 0.25
vt 0.4963742 0
vt 0.3906841 0
vt 0.4111938 0.25
vt 0.4166666 0.25
vt 0.4277729 0.25
vt 0.4583333 0.25
vt 0.4624834 0.25
vt 0.4802597 0.25
vt 0.470915 0
vt 0.3961419 0
vt 0.4373964 0
vt 0.4583333 0
vt 0.4166666 0
vt 0.4939127 0.070043
vt 0.4886651 0.25
vt 0.4676932 0.25
vt 0.4583333 0.25
vt 0.4166666 0.25
vt 0.4111938 0.25
vt 0.3906841 0
vt 0.4963742 0
vt 0.4583333 0
vt 0.4166667 0
vn 0.005047999 0.1575719 -0.9874946
vn -0.009481377 0.1544147 -0.9879606
vn -0.008837845 0.155645 -0.9877735
vn 0.00571798 0.1557021 -0.9877875
vn -0.01000807 0.154346 -0.9879661
vn 0.01073115 0.1558118 -0.9877285
vn 0.008116384 0.1579935 -0.9874068
vn 0.0223463 0.1616655 -0.9865926
vn 0.01360204 0.1557162 -0.9877082
vn 0.04173585 0.1663677 -0.9851801
vn 0.009640793 0.1594769 -0.9871546
vn 0.01431459 0.1646341 -0.9862509
vn 0.01460748 0.1743809 -0.98457
vn 0.01444914 0.1666947 -0.9859027
vn 0.01926397 0.4184302 -0.9080446
vn 0.02281097 0.1656338 -0.9859234
vn 0.04106829 0.1680271 -0.9849265
vn 0.04169178 0.1679425 -0.9849148
vn -0.09070805 0.1843864 -0.9786592
vn 0.3315533 0.9045539 0.2680571
vn 0.3315533 0.9045538 0.2680571
vn 0.3315533 0.9045539 0.2680571
vn 0.3315533 0.9045538 0.2680571
vn 0.3315533 0.9045539 0.2680571
vn 0.3315533 0.9045539 0.2680571
vn 0.00178477 -0.170309 0.9853892
vn -0.001174312 -0.171266 0.9852241
vn 0.001951747 -0.1715649 0.9851709
vn -0.0006351562 -0.1698291 0.9854733
vn 0.001537899 -0.1665615 0.9860298
vn -0.002128285 -0.1711745 0.9852385
vn -0.000884411 -0.1618077 0.9868219
vn -0.001677818 -0.1519075 0.9883932
vn -0.002728805 -0.1614627 0.986875
vn -0.001718592 -0.1519161 0.9883919
vn -0.002393269 -0.1524772 0.988304
vn -0.02094747 -0.1533268 0.9879535
vn -0.002728886 -0.1690873 0.9855973
vn -0.002310599 -0.1711447 0.9852432
vn -0.004348971 -0.1677518 0.9858197
vn -0.02263813 -0.1610092 0.9866932
vn -0.1567317 -0.1456885 0.9768367
vn -0.008691879 -0.1672621 0.9858742
vn -0.1567626 -0.1477801 0.9765176
vn 0.8855201 -0.2513836 -0.390718
vn 0.8855194 -0.2513844 -0.3907189
vn 0.8855196 -0.2513846 -0.3907183
vn 0.8855194 -0.2513847 -0.3907185
vn 0.8855199 -0.2513848 -0.3907174
vn 0.8855194 -0.2513847 -0.3907185
vn 0.8855194 -0.2513848 -0.3907185
vn 0.8855195 -0.2513846 -0.3907184
vn 0.8855194 -0.2513846 -0.3907189
vn 0.8855198 -0.2513846 -0.390718
vn 0.8855198 -0.2513846 -0.3907179
vn 0.8855195 -0.2513839 -0.3907188
vn -0.6989728 0.7148119 -0.0219277
vn -0.6989729 0.714812 -0.0219277
vn -0.6989728 0.7148119 -0.0219277
vn -0.6989728 0.7148119 -0.02192769
vn -0.6989728 0.714812 -0.0219277
vn -0.6989729 0.714812 -0.0219277
vn -0.6989728 0.7148119 -0.02192769
vn -0.6989729 0.714812 -0.02192769
vn -0.6989729 0.714812 -0.0219277
vn -0.6989728 0.714812 -0.02192769
vn -0.6989728 0.7148119 -0.02192769
vn -0.6989729 0.714812 -0.0219277
vn -0.3464137 -0.8003004 -0.4894046
vn -0.3464137 -0.8003004 -0.4894046
vn -0.3464137 -0.8003004 -0.4894046
vn -0.3464137 -0.8003004 -0.4894047
vn -0.3464137 -0.8003004 -0.4894046
vn -0.3464137 -0.8003004 -0.4894046
vn -0.3464137 -0.8003004 -0.4894046
vn -0.3464137 -0.8003004 -0.4894046
vn -0.3464137 -0.8003004 -0.4894046
vn -0.3464137 -0.8003004 -0.4894046
g ChairPieceMesh08_0
f 3/3/3 2/2/2 1/1/1
f 2/2/2 4/4/4 1/1/1
f 2/2/2 5/5/5 4/4/4
f 1/1/1 4/4/4 6/6/6
f 7/7/7 1/1/1 6/6/6
f 8/8/8 6/6/6 4/4/4
f 8/8/8 9/9/9 6/6/6
f 9/9/9 8/8/8 10/10/10
f 5/5/5 11/11/11 4/4/4
f 4/4/4 11/11/11 8/8/8
f 5/5/5 12/12/12 11/11/11
f 8/8/8 11/11/11 12/12/12
f 12/12/12 13/13/13 8/8/8
f 13/13/13 14/14/14 8/8/8
f 14/14/14 13/13/13 15/15/15
f 14/14/14 16/16/16 8/8/8
f 10/10/10 8/8/8 16/16/16
f 16/16/16 17/17/17 10/10/10
f 17/17/17 18/18/18 10/10/10
f 19/19/19 18/18/18 17/17/17
f 22/22/22 21/21/21 20/20/20
f 20/20/20 23/23/23 22/22/22
f 23/23/23 24/24/24 22/22/22
f 24/24/24 25/25/25 22/22/22
f 28/28/28 27/27/27 26/26/26
f 27/27/27 29/29/29 26/26/26
f 26/26/26 29/29/29 30/30/30
f 29/29/29 27/27/27 31/31/31
f 29/29/29 32/32/32 30/30/30
f 30/30/30 32/32/32 33/33/33
f 33/33/33 32/32/32 34/34/34
f 34/34/34 32/32/32 29/29/29
f 34/34/34 35/35/35 33/33/33
f 34/34/34 36/36/36 35/35/35
f 36/36/36 34/34/34 37/37/37
f 31/31/31 38/38/38 29/29/29
f 38/38/38 34/34/34 29/29/29
f 31/31/31 39/39/39 38/38/38
f 40/40/40 38/38/38 39/39/39
f 34/34/34 38/38/38 40/40/40
f 34/34/34 41/41/41 37/37/37
f 40/40/40 41/41/41 34/34/34
f 37/37/37 41/41/41 42/42/42
f 40/40/40 43/43/43 41/41/41
f 41/41/41 44/44/44 42/42/42
f 44/44/44 41/41/41 43/43/43
f 47/47/47 46/46/46 45/45/45
f 47/47/47 48/48/48 46/46/46
f 49/49/49 48/48/48 47/47/47
f 50/50/50 48/48/48 49/49/49
f 50/50/50 51/51/51 48/48/48
f 50/50/50 52/52/52 51/51/51
f 53/53/53 52/52/52 50/50/50
f 53/53/53 54/54/54 52/52/52
f 54/54/54 55/55/55 52/52/52
f 56/56/56 54/54/54 53/53/53
f 59/59/59 58/58/58 57/57/57
f 57/57/57 60/60/60 59/59/59
f 57/57/57 61/61/61 60/60/60
f 57/57/57 62/62/62 61/61/61
f 57/57/57 63/63/63 62/62/62
f 57/57/57 64/64/64 63/63/63
f 57/57/57 65/65/65 64/64/64
f 65/65/65 66/66/66 64/64/64
f 66/66/66 67/67/67 64/64/64
f 65/65/65 68/68/68 66/66/66
f 71/71/71 70/70/70 69/69/69
f 69/69/69 72/72/72 71/71/71
f 69/69/69 73/73/73 72/72/72
f 69/69/69 74/74/74 73/73/73
f 69/69/69 75/75/75 74/74/74
f 69/69/69 76/76/76 75/75/75
f 76/76/76 77/77/77 75/75/75
f 77/77/77 78/78/78 75/75/75
