g ChairPieceMesh01
v 0.1316822 0.177071 -0.03223678
v 0.1427698 0.08511844 -0.04706681
v 0.208734 0.1499589 -0.03605106
v 0.127799 0.08511844 -0.04720077
v 0.1271751 0.06978968 -0.04965973
v -0.02250533 0.08511844 -0.05123547
v 0.02651171 0.2142701 -0.0276818
v 0.008103888 -0.0473583 -0.07297325
v -0.01159715 0.2142701 -0.02821681
v -0.01049863 0.2272761 -0.02579305
v -0.1141598 0.2588659 -0.004175395
v -0.1202348 0.2057238 -0.01434445
v -0.147401 0.2560299 0.04650977
v -0.03341349 -0.04680428 -0.07452741
v -0.03697919 -0.09173962 -0.08266309
v -0.1564473 0.180085 0.03269589
v -0.1124143 0.2292788 0.09350625
v -0.1352335 0.07451954 -0.03918874
v -0.1502323 -0.05737755 -0.06410146
v -0.13629 -0.1891304 -0.09180745
v -0.1202348 0.1544464 0.08082423
v -0.008455385 0.187828 0.104797
v -0.1728096 0.04272261 0.007710487
v -0.1352335 0.01092568 0.05622786
v -0.01159715 0.1459 0.09796014
v 0.1106217 0.1459002 0.0989981
v -0.165231 -0.1906601 -0.0894132
v -0.1686464 -0.2211682 -0.104797
v -0.1891718 -0.09463981 -0.01727495
v -0.2055341 -0.2320021 -0.04226038
v -0.208734 -0.2588659 -0.05584115
v -0.1948311 -0.2444529 -0.02916923
v -0.1578009 -0.2067599 0.01918617
v -0.1502322 -0.1332878 0.03156337
v -0.09095775 -0.1407619 0.03991613
v -0.02833228 -0.07891664 0.059719
v -0.02250533 0.0003267825 0.07312933
v 0.05227328 0.0003267825 0.07353726
v 0.1306876 0.07742634 0.08731762
v 0.1329593 0.1380586 0.09783068
v 0.1767873 0.1227488 0.0952833
v 0.1316822 0.177071 -0.03223678
v 0.208734 0.1499589 -0.03605106
v 0.1767873 0.1227488 0.0952833
v 0.02651171 0.2142701 -0.0276818
v -0.01049863 0.2272761 -0.02579305
v -0.1141598 0.2588659 -0.004175395
v -0.147401 0.2560299 0.04650977
v -0.1124143 0.2292788 0.09350625
v -0.008455385 0.187828 0.104797
v 0.1329593 0.1380586 0.09783068
v 0.1106217 0.1459002 0.0989981
v -0.13629 -0.1891304 -0.09180745
v -0.1686464 -0.2211682 -0.104797
v -0.208734 -0.2588659 -0.05584115
v -0.03697919 -0.09173962 -0.08266309
v 0.008103888 -0.0473583 -0.07297325
v 0.1271751 0.06978968 -0.04965973
v -0.1948311 -0.2444529 -0.02916923
v 0.1427698 0.08511844 -0.04706681
v 0.208734 0.1499589 -0.03605106
v 0.1767873 0.1227488 0.0952833
v -0.1578009 -0.2067599 0.01918617
v -0.09095775 -0.1407619 0.03991613
v 0.05227328 0.0003267825 0.07353726
v -0.02833228 -0.07891664 0.059719
v 0.1306876 0.07742634 0.08731762
vt 0.4583333 0.25
vt 0.4624834 0.25
vt 0.4802597 0.25
vt 0.4583333 0.25
vt 0.4583333 0.25
vt 0.4166666 0.25
vt 0.4276288 0.25
vt 0.4277729 0.25
vt 0.4166666 0.25
vt 0.4166666 0.25
vt 0.375 0.25
vt 0.375 0.25
vt 0.375 0.125
vt 0.4166666 0.25
vt 0.4166666 0.25
vt 0.375 0.125
vt 0.375 0
vt 0.375 0.25
vt 0.375 0.25
vt 0.3849733 0.25
vt 0.375 0
vt 0.4166666 0
vt 0.375 0.125
vt 0.375 0
vt 0.4166666 0
vt 0.4518233 0
vt 0.375 0.25
vt 0.375 0.25
vt 0.375 0.125
vt 0.375 0.125
vt 0.375 0.125
vt 0.375 0.09180469
vt 0.375 0
vt 0.375 0
vt 0.3961419 0
vt 0.4166666 0
vt 0.4166666 0
vt 0.4373964 0
vt 0.4583333 0
vt 0.4583333 0
vt 0.470915 0
vt 0.4583333 0.25
vt 0.4802597 0.25
vt 0.470915 0
vt 0.4276288 0.25
vt 0.4166666 0.25
vt 0.375 0.25
vt 0.375 0.125
vt 0.375 0
vt 0.4166666 0
vt 0.4583333 0
vt 0.4518233 0
vt 0.3849733 0.25
vt 0.375 0.25
vt 0.375 0.125
vt 0.4166666 0.25
vt 0.4277729 0.25
vt 0.4583333 0.25
vt 0.375 0.09180469
vt 0.4624834 0.25
vt 0.4802597 0.25
vt 0.470915 0
vt 0.375 0
vt 0.3961419 0
vt 0.4373964 0
vt 0.4166666 0
vt 0.4583333 0
vn 0.01915492 0.1665222 -0.9858516
vn 0.007708874 0.1601026 -0.9870703
vn 0.007698369 0.1601219 -0.9870673
vn 0.02279511 0.1667247 -0.9857399
vn 0.029773 0.16764 -0.9853985
vn -0.04768785 0.1794741 -0.9826062
vn 0.02099898 0.167583 -0.9856344
vn 0.03004088 0.1678329 -0.9853576
vn -0.05369161 0.1808454 -0.9820449
vn -0.1331646 0.1991004 -0.9708894
vn -0.5781768 0.2154588 -0.7869492
vn -0.4262103 0.2112308 -0.8796172
vn -0.9923686 0.1054742 0.06387268
vn -0.06138608 0.1834626 -0.9811081
vn -0.09688718 0.1922764 -0.9765463
vn -0.9929789 0.1080209 0.04821353
vn -0.5283722 -0.08645043 0.8446
vn -0.410531 0.2094514 -0.8874652
vn -0.4274631 0.2111413 -0.8790305
vn -0.1000024 0.1963319 -0.9754246
vn -0.4419824 -0.1058459 0.890757
vn -0.1310202 -0.1506484 0.9798667
vn -0.9915876 0.1016354 0.08015204
vn -0.4286701 -0.1089463 0.8968682
vn -0.08703883 -0.159683 0.9833238
vn -0.007091884 -0.1687256 0.9856376
vn -0.5490979 0.2311646 -0.8031528
vn -0.8065805 0.3378328 -0.4850741
vn -0.9925299 0.1051766 0.0618246
vn -0.9841115 0.1115294 0.1381508
vn -0.8691254 0.2992171 -0.393815
vn -0.788311 -0.02321009 0.614839
vn -0.7544885 -0.03024779 0.6556158
vn -0.5110626 -0.09182481 0.8546246
vn -0.1586526 -0.1515191 0.9756389
vn -0.1505393 -0.1525983 0.9767556
vn -0.1000501 -0.1589504 0.9822041
vn -0.006984489 -0.1687468 0.9856347
vn -0.006965335 -0.1689101 0.9856068
vn -0.006849794 -0.1689566 0.9855996
vn -0.002377809 -0.1707543 0.9853108
vn 0.3315538 0.9045538 0.2680572
vn 0.3315538 0.9045538 0.2680572
vn 0.3315538 0.9045538 0.2680572
vn 0.3315538 0.9045538 0.2680573
vn 0.3315538 0.9045538 0.2680573
vn 0.3315538 0.9045538 0.2680573
vn 0.3315538 0.9045538 0.2680573
vn 0.3315538 0.9045538 0.2680573
vn 0.3315537 0.9045538 0.2680573
vn 0.3315538 0.9045538 0.2680573
vn 0.3315538 0.9045538 0.2680573
vn 0.6989729 -0.7148119 0.02192722
vn 0.6989728 -0.714812 0.02192723
vn 0.6989729 -0.714812 0.02192723
vn 0.6989728 -0.714812 0.02192723
vn 0.6989729 -0.714812 0.02192723
vn 0.6989729 -0.714812 0.02192723
vn 0.6989729 -0.714812 0.02192723
vn 0.6989729 -0.7148119 0.02192723
vn 0.6989728 -0.714812 0.02192723
vn 0.6989728 -0.714812 0.02192723
vn 0.6989729 -0.714812 0.02192723
vn 0.6989728 -0.714812 0.02192723
vn 0.6989729 -0.714812 0.02192723
vn 0.6989729 -0.714812 0.02192723
vn 0.6989729 -0.714812 0.02192723
g ChairPieceMesh01_0
f 3/3/3 2/2/2 1/1/1
f 2/2/2 4/4/4 1/1/1
f 2/2/2 5/5/5 4/4/4
f 6/6/6 4/4/4 5/5/5
f 7/7/7 1/1/1 4/4/4
f 4/4/4 6/6/6 7/7/7
f 5/5/5 8/8/8 6/6/6
f 6/6/6 9/9/9 7/7/7
f 7/7/7 9/9/9 10/10/10
f 10/10/10 9/9/9 11/11/11
f 9/9/9 12/12/12 11/11/11
f 9/9/9 6/6/6 12/12/12
f 13/13/13 11/11/11 12/12/12
f 8/8/8 14/14/14 6/6/6
f 8/8/8 15/15/15 14/14/14
f 16/16/16 13/13/13 12/12/12
f 17/17/17 13/13/13 16/16/16
f 6/6/6 18/18/18 12/12/12
f 6/6/6 14/14/14 18/18/18
f 16/16/16 12/12/12 18/18/18
f 19/19/19 14/14/14 15/15/15
f 14/14/14 19/19/19 18/18/18
f 15/15/15 20/20/20 19/19/19
f 21/21/21 17/17/17 16/16/16
f 22/22/22 17/17/17 21/21/21
f 23/23/23 16/16/16 18/18/18
f 23/23/23 18/18/18 19/19/19
f 21/21/21 16/16/16 23/23/23
f 24/24/24 21/21/21 23/23/23
f 25/25/25 22/22/22 21/21/21
f 25/25/25 21/21/21 24/24/24
f 26/26/26 22/22/22 25/25/25
f 20/20/20 27/27/27 19/19/19
f 20/20/20 28/28/28 27/27/27
f 29/29/29 23/23/23 19/19/19
f 29/29/29 19/19/19 27/27/27
f 24/24/24 23/23/23 29/29/29
f 30/30/30 27/27/27 28/28/28
f 30/30/30 29/29/29 27/27/27
f 31/31/31 30/30/30 28/28/28
f 32/32/32 30/30/30 31/31/31
f 30/30/30 32/32/32 33/33/33
f 33/33/33 29/29/29 30/30/30
f 33/33/33 34/34/34 29/29/29
f 34/34/34 24/24/24 29/29/29
f 35/35/35 34/34/34 33/33/33
f 24/24/24 34/34/34 35/35/35
f 24/24/24 35/35/35 36/36/36
f 36/36/36 37/37/37 24/24/24
f 37/37/37 25/25/25 24/24/24
f 38/38/38 37/37/37 36/36/36
f 25/25/25 37/37/37 38/38/38
f 26/26/26 25/25/25 38/38/38
f 26/26/26 38/38/38 39/39/39
f 39/39/39 40/40/40 26/26/26
f 41/41/41 40/40/40 39/39/39
f 44/44/44 43/43/43 42/42/42
f 42/42/42 45/45/45 44/44/44
f 45/45/45 46/46/46 44/44/44
f 46/46/46 47/47/47 44/44/44
f 47/47/47 48/48/48 44/44/44
f 48/48/48 49/49/49 44/44/44
f 49/49/49 50/50/50 44/44/44
f 50/50/50 51/51/51 44/44/44
f 50/50/50 52/52/52 51/51/51
f 55/55/55 54/54/54 53/53/53
f 53/53/53 56/56/56 55/55/55
f 56/56/56 57/57/57 55/55/55
f 57/57/57 58/58/58 55/55/55
f 58/58/58 59/59/59 55/55/55
f 58/58/58 60/60/60 59/59/59
f 60/60/60 61/61/61 59/59/59
f 61/61/61 62/62/62 59/59/59
f 62/62/62 63/63/63 59/59/59
f 62/62/62 64/64/64 63/63/63
f 62/62/62 65/65/65 64/64/64
f 65/65/65 66/66/66 64/64/64
f 62/62/62 67/67/67 65/65/65
