g ChairPieceMesh05
v -0.01906259 0.06341365 -0.0166135
v 0.00157414 0.06409994 0.007202193
v 0.09317086 0.06714597 0.1129088
v 0.1278504 -0.06575799 0.1959309
v 0.07885085 -0.06738749 0.1959309
v 0.114782 -0.0661926 0.2373969
v 0.1476042 -0.06510112 0.1332521
v -0.01906259 -0.07064363 0.08293443
v -0.01906259 -0.07064363 0.05148828
v -0.04519296 -0.06977466 0.05148828
v -0.1652183 -0.0657832 -0.09295429
v 0.1476042 -0.06510109 0.05148828
v 0.1726177 -0.06260559 0.05148828
v 0.2168062 -0.05819711 -0.09295432
v -0.01906259 -0.07064363 -0.09295432
v -0.1857293 -0.06078747 -0.1208411
v 0.1476042 -0.06510109 -0.09295432
v 0.2425649 -0.03887013 -0.2012862
v -0.1857293 -0.04834393 -0.2012863
v -0.2425649 -0.04267368 -0.2012863
v 0.1476042 -0.04834393 -0.2012862
v 0.2314639 0.01029381 -0.2373969
v -0.01906259 -0.05388644 -0.2012863
v 0.1476042 0.001927525 -0.2373969
v 0.1999621 0.05742249 -0.206822
v -0.1857293 0.001927525 -0.2373969
v -0.2415912 0.007500619 -0.2373969
v -0.01906259 -0.003614992 -0.2373969
v 0.1476042 0.05219904 -0.206822
v 0.1645186 0.07064363 -0.1150974
v -0.1857293 0.05219904 -0.206822
v -0.1873892 0.05236462 -0.206822
v -0.1857293 0.05253354 -0.2049907
v -0.01906259 0.04665646 -0.2068221
v 0.1476042 0.06895617 -0.1150974
v 0.1476042 0.06895617 -0.05980794
v -0.01906259 0.06341365 -0.1150974
v -0.1008983 0.06613514 -0.1150974
v -0.01906259 0.06341365 -0.0166135
v 0.1264853 0.06825384 0.007202193
v 0.00157414 0.06409994 0.007202193
v 0.09317086 0.06714597 0.1129088
v 0.1278504 -0.06575799 0.1959309
v 0.114782 -0.0661926 0.2373969
v 0.09317086 0.06714597 0.1129088
v 0.1476042 -0.06510112 0.1332521
v 0.1726177 -0.06260559 0.05148828
v 0.2168062 -0.05819711 -0.09295432
v 0.2425649 -0.03887013 -0.2012862
v 0.2314639 0.01029381 -0.2373969
v 0.1999621 0.05742249 -0.206822
v 0.1264853 0.06825384 0.007202193
v 0.1476042 0.06895617 -0.05980794
v 0.1645186 0.07064363 -0.1150974
v 0.07885085 -0.06738749 0.1959309
v -0.01906259 -0.07064363 0.08293443
v -0.04519296 -0.06977466 0.05148828
v -0.1652183 -0.0657832 -0.09295429
v 0.114782 -0.0661926 0.2373969
v 0.09317086 0.06714597 0.1129088
v -0.1857293 -0.06078747 -0.1208411
v -0.2425649 -0.04267368 -0.2012863
v -0.2415912 0.007500619 -0.2373969
v -0.1873892 0.05236462 -0.206822
v -0.1857293 0.05253354 -0.2049907
v -0.01906259 0.06341365 -0.0166135
v -0.1008983 0.06613514 -0.1150974
vt 0.4999999 0.4247805
vt 0.5051591 0.4166666
vt 0.5280584 0.380653
vt 0.5367281 0.8750001
vt 0.5244783 0.8750001
vt 0.533461 0.8869616
vt 0.5416666 0.8569194
vt 0.4999999 0.8424045
vt 0.4999999 0.8333334
vt 0.4934673 0.8333334
vt 0.463461 0.7916667
vt 0.5416666 0.8333334
vt 0.54792 0.8333334
vt 0.5589671 0.7916666
vt 0.4999999 0.7916667
vt 0.4583333 0.7809409
vt 0.5416666 0.7916667
vt 0.5654068 0.75
vt 0.4583333 0.75
vt 0.4441243 0.75
vt 0.5416666 0.75
vt 0.5626315 0.625
vt 0.4999999 0.75
vt 0.5416666 0.625
vt 0.5547561 0.5
vt 0.4583333 0.625
vt 0.4443678 0.625
vt 0.4999999 0.625
vt 0.5416666 0.5
vt 0.5458952 0.4583333
vt 0.4583333 0.5
vt 0.4579183 0.5
vt 0.4583332 0.4991681
vt 0.4999999 0.5
vt 0.5416666 0.4583333
vt 0.5416666 0.4394966
vt 0.4999999 0.4583333
vt 0.479541 0.4583333
vt 0.4999999 0.4247805
vt 0.5363869 0.4166666
vt 0.5051591 0.4166666
vt 0.5280584 0.380653
vt 0.5367281 0.8750001
vt 0.533461 0.8869616
vt 0.5280584 0.380653
vt 0.5416666 0.8569194
vt 0.54792 0.8333334
vt 0.5589671 0.7916666
vt 0.5654068 0.75
vt 0.5626315 0.625
vt 0.5547561 0.5
vt 0.5363869 0.4166666
vt 0.5416666 0.4394966
vt 0.5458952 0.4583333
vt 0.5244783 0.8750001
vt 0.4999999 0.8424045
vt 0.4934673 0.8333334
vt 0.463461 0.7916667
vt 0.533461 0.8869616
vt 0.5280584 0.380653
vt 0.4583333 0.7809409
vt 0.4441243 0.75
vt 0.4443678 0.625
vt 0.4579183 0.5
vt 0.4583332 0.4991681
vt 0.4999999 0.4247805
vt 0.479541 0.4583333
vn -0.6873555 0.4330177 0.5831277
vn -0.6873556 0.4330177 0.5831277
vn -0.6873556 0.4330177 0.5831277
vn 0.03323679 -0.9994475 0
vn 0.03323678 -0.9994475 0
vn 0.03323709 -0.9994475 0
vn 0.03363283 -0.9994342 0
vn 0.03280466 -0.9994618 0
vn 0.01766641 -0.999844 0
vn -0.03323682 -0.9994475 0
vn -0.03299656 -0.9922234 -0.120016
vn 0.04366192 -0.9990464 0
vn 0.09927282 -0.9950603 0
vn 0.09877788 -0.9901009 -0.0997148
vn 0.005470589 -0.9970735 -0.07625311
vn -0.03482243 -0.9876478 -0.1527724
vn 0.05101984 -0.9961158 -0.07176536
vn 0.08851423 -0.8872234 -0.4527692
vn -0.03854754 -0.8903052 -0.4537299
vn -0.07380889 -0.7398294 -0.6687337
vn 0.05009665 -0.9042336 -0.4240896
vn 0.02541737 -0.254773 -0.9666668
vn 0.0001813844 -0.9080996 -0.4187543
vn 0.006700058 -0.08668412 -0.9962133
vn -0.07254273 0.7271308 -0.6826553
vn -0.007290339 -0.09592976 -0.9953614
vn -0.03831164 -0.3840277 -0.9225264
vn 0 -0.06661134 -0.997779
vn -0.04046774 0.8596959 -0.5092008
vn -0.0979377 0.9816858 -0.1634051
vn 0.03042022 0.8267763 -0.5617078
vn 0.05179529 0.5191558 -0.8531088
vn 0.03269894 0.9831924 -0.1796205
vn -0.002934686 0.8604574 -0.509514
vn -0.03945719 0.9953852 -0.08747242
vn -0.03340431 0.9994419 0
vn -0.01264505 0.9951987 -0.09705586
vn 0.0328135 0.9867166 -0.1591025
vn -0.02952101 0.9995641 0
vn -0.03323666 0.9994475 0
vn -0.03323666 0.9994475 0
vn -0.03323652 0.9994475 0
vn 0.8721231 0.4018972 0.2790698
vn 0.8721231 0.4018972 0.2790699
vn 0.8721231 0.4018972 0.2790699
vn 0.8721231 0.4018972 0.2790699
vn 0.8721231 0.4018972 0.2790698
vn 0.8721231 0.4018972 0.2790699
vn 0.8721231 0.4018972 0.2790699
vn 0.8721231 0.4018972 0.2790699
vn 0.8721231 0.4018972 0.2790699
vn 0.8721231 0.4018972 0.2790698
vn 0.8721231 0.4018972 0.2790699
vn 0.8721231 0.4018972 0.2790699
vn -0.6873556 0.4330177 0.5831277
vn -0.6873555 0.4330177 0.5831277
vn -0.6873556 0.4330177 0.5831277
vn -0.6873556 0.4330178 0.5831277
vn -0.6873555 0.4330177 0.5831277
vn -0.6873556 0.4330177 0.5831277
vn -0.6873556 0.4330178 0.5831277
vn -0.6873555 0.4330178 0.5831278
vn -0.6873555 0.4330177 0.5831277
vn -0.6873555 0.4330177 0.5831277
vn -0.6873556 0.4330178 0.5831277
vn -0.6873555 0.4330177 0.5831277
vn -0.6873555 0.4330177 0.5831277
g ChairPieceMesh05_0
f 3/3/3 2/2/2 1/1/1
f 6/6/6 5/5/5 4/4/4
f 7/7/7 4/4/4 5/5/5
f 7/7/7 5/5/5 8/8/8
f 7/7/7 8/8/8 9/9/9
f 10/10/10 9/9/9 8/8/8
f 10/10/10 11/11/11 9/9/9
f 9/9/9 12/12/12 7/7/7
f 7/7/7 12/12/12 13/13/13
f 13/13/13 12/12/12 14/14/14
f 11/11/11 15/15/15 9/9/9
f 9/9/9 15/15/15 12/12/12
f 15/15/15 11/11/11 16/16/16
f 12/12/12 17/17/17 14/14/14
f 15/15/15 17/17/17 12/12/12
f 14/14/14 17/17/17 18/18/18
f 15/15/15 16/16/16 19/19/19
f 20/20/20 19/19/19 16/16/16
f 17/17/17 21/21/21 18/18/18
f 22/22/22 18/18/18 21/21/21
f 15/15/15 23/23/23 17/17/17
f 23/23/23 21/21/21 17/17/17
f 19/19/19 23/23/23 15/15/15
f 24/24/24 22/22/22 21/21/21
f 24/24/24 21/21/21 23/23/23
f 25/25/25 22/22/22 24/24/24
f 26/26/26 19/19/19 20/20/20
f 27/27/27 26/26/26 20/20/20
f 28/28/28 23/23/23 19/19/19
f 28/28/28 24/24/24 23/23/23
f 26/26/26 28/28/28 19/19/19
f 29/29/29 25/25/25 24/24/24
f 29/29/29 24/24/24 28/28/28
f 30/30/30 25/25/25 29/29/29
f 31/31/31 26/26/26 27/27/27
f 32/32/32 31/31/31 27/27/27
f 33/33/33 31/31/31 32/32/32
f 34/34/34 28/28/28 26/26/26
f 34/34/34 29/29/29 28/28/28
f 31/31/31 34/34/34 26/26/26
f 35/35/35 30/30/30 29/29/29
f 35/35/35 29/29/29 34/34/34
f 36/36/36 30/30/30 35/35/35
f 31/31/31 33/33/33 37/37/37
f 37/37/37 34/34/34 31/31/31
f 37/37/37 35/35/35 34/34/34
f 33/33/33 38/38/38 37/37/37
f 39/39/39 37/37/37 38/38/38
f 35/35/35 37/37/37 39/39/39
f 39/39/39 36/36/36 35/35/35
f 39/39/39 40/40/40 36/36/36
f 39/39/39 41/41/41 40/40/40
f 42/42/42 40/40/40 41/41/41
f 45/45/45 44/44/44 43/43/43
f 43/43/43 46/46/46 45/45/45
f 46/46/46 47/47/47 45/45/45
f 47/47/47 48/48/48 45/45/45
f 48/48/48 49/49/49 45/45/45
f 49/49/49 50/50/50 45/45/45
f 50/50/50 51/51/51 45/45/45
f 51/51/51 52/52/52 45/45/45
f 51/51/51 53/53/53 52/52/52
f 51/51/51 54/54/54 53/53/53
f 57/57/57 56/56/56 55/55/55
f 55/55/55 58/58/58 57/57/57
f 55/55/55 59/59/59 58/58/58
f 59/59/59 60/60/60 58/58/58
f 60/60/60 61/61/61 58/58/58
f 60/60/60 62/62/62 61/61/61
f 60/60/60 63/63/63 62/62/62
f 60/60/60 64/64/64 63/63/63
f 60/60/60 65/65/65 64/64/64
f 60/60/60 66/66/66 65/65/65
f 65/65/65 66/66/66 67/67/67
