g ColumnPieceMesh05
v 0.002084208 0.015 0.00323992
v 0.005 0.015 0.0039079
v 0.005 -0.015 0.001696905
v 0.002084208 0.015 0.00323992
v -0.0002989569 -0.002029946 0.001438856
v -0.001166258 0.015 -0.0007897898
v 0.005 0.015 0.0039079
v 0.005 0.015 -0.005
v 0.005 -0.015 -0.005
v 0.005 -0.015 0.001696905
v -0.001010826 -0.015 -0.005
v 0.005 -0.015 -0.005
v 0.005 0.015 -0.005
v -0.001876433 0.015 -0.005
v -7.740199E-05 -0.015 0.0005337211
v 0.005 -0.015 0.001696905
v 0.005 -0.015 -0.005
v -0.001010826 -0.015 -0.005
v -0.001166258 0.015 -0.0007897898
v -0.001876433 0.015 -0.005
v 0.005 0.015 -0.005
v 0.005 0.015 0.0039079
v 0.002084208 0.015 0.00323992
v -0.0002989569 -0.002029946 0.001438856
v -7.740199E-05 -0.015 0.0005337211
v -0.001010826 -0.015 -0.005
v -0.001876433 0.015 -0.005
v -0.001166258 0.015 -0.0007897898
v 0.005 -0.015 0.001696905
v -7.740199E-05 -0.015 0.0005337211
v 0.002084208 0.015 0.00323992
v -0.0002989569 -0.002029946 0.001438856
vt 0.5274449 0.2693417
vt 0.625 0.2773025
vt 0.7075774 0
vt 0.5521052 0.294002
vt 0.4951622 0.3612072
vt 0.4708436 0.3947448
vt 0.6523025 0.25
vt 0.875 0.25
vt 0.875 0
vt 0.7075774 0
vt 0.4747294 0.75
vt 0.625 0.75
vt 0.625 0.5
vt 0.4530892 0.5
vt 0.4980649 0.888343
vt 0.625 0.9174227
vt 0.625 0.75
vt 0.4747294 0.75
vt 0.4708436 0.3947448
vt 0.4530892 0.5
vt 0.625 0.5
vt 0.625 0.2773025
vt 0.5521052 0.294002
vt 0.5156014 0.3816465
vt 0.5387145 0.4367327
vt 0.4747294 0.75
vt 0.4530892 0.5
vt 0.4708436 0.3947448
vt 0.7075774 0
vt 0.5387145 0.4367327
vt 0.5274449 0.2693417
vt 0.4951622 0.3612072
vn -0.2227315 -0.07165416 0.972243
vn -0.2227315 -0.07165416 0.972243
vn -0.2227315 -0.07165416 0.972243
vn -0.7776443 0.04248432 0.6272675
vn -0.7776443 0.04248431 0.6272675
vn -0.7776443 0.04248432 0.6272676
vn 1 0 0
vn 1 0 0
vn 1 0 0
vn 1 0 0
vn 0 0 -1
vn 0 0 -1
vn 0 0 -1
vn 0 0 -1
vn 0 -1 0
vn 0 -1 0
vn 0 -1 0
vn 0 -1 0
vn 0 1 0
vn 0 1 0
vn 0 1 0
vn 0 1 0
vn 0 1 0
vn -0.9856713 -0.02844014 0.1662623
vn -0.9856713 -0.02844014 0.1662622
vn -0.9856713 -0.02844014 0.1662623
vn -0.9856713 -0.02844014 0.1662622
vn -0.9856713 -0.02844014 0.1662623
vn -0.2227315 -0.07165416 0.972243
vn -0.2227315 -0.07165416 0.972243
vn -0.2227315 -0.07165416 0.972243
vn -0.2227315 -0.07165416 0.972243
g ColumnPieceMesh05_0
f 3/3/3 2/2/2 1/1/1
f 6/6/6 5/5/5 4/4/4
f 9/9/9 8/8/8 7/7/7
f 10/10/10 9/9/9 7/7/7
f 13/13/13 12/12/12 11/11/11
f 14/14/14 13/13/13 11/11/11
f 17/17/17 16/16/16 15/15/15
f 18/18/18 17/17/17 15/15/15
f 21/21/21 20/20/20 19/19/19
f 19/19/19 22/22/22 21/21/21
f 19/19/19 23/23/23 22/22/22
f 26/26/26 25/25/25 24/24/24
f 24/24/24 27/27/27 26/26/26
f 24/24/24 28/28/28 27/27/27
f 31/31/31 30/30/30 29/29/29
f 31/31/31 32/32/32 30/30/30
