g ColumnPieceMesh07
v -0.000589863 0.015 0.002627316
v 0.002084208 0.015 0.00323992
v -0.0002989569 -0.002029946 0.001438856
v 0.002084208 0.015 0.00323992
v -0.000589863 0.015 0.002627316
v -0.001166258 0.015 -0.0007897898
v -0.001166258 0.015 -0.0007897898
v -0.000589863 0.015 0.002627316
v -0.0002989569 -0.002029946 0.001438856
v 0.002084208 0.015 0.00323992
v -0.001166258 0.015 -0.0007897898
v -0.0002989569 -0.002029946 0.001438856
vt 0.4379771 0.2620408
vt 0.5274449 0.2693417
vt 0.4951622 0.3612072
vt 0.5521052 0.294002
vt 0.4852535 0.3093171
vt 0.4708436 0.3947448
vt 0.4708436 0.3947448
vt 0.4852535 0.3093171
vt 0.5156014 0.3816465
vt 0.5274449 0.2693417
vt 0.4708436 0.3947448
vt 0.5156014 0.3816465
vn -0.2227315 -0.07165415 0.972243
vn -0.2227315 -0.07165415 0.972243
vn -0.2227315 -0.07165416 0.972243
vn 0 1 0
vn 0 1 0
vn 0 1 0
vn -0.9856713 -0.02844014 0.1662623
vn -0.9856713 -0.02844014 0.1662623
vn -0.9856713 -0.02844014 0.1662623
vn 0.7776443 -0.04248431 -0.6272675
vn 0.7776443 -0.04248432 -0.6272676
vn 0.7776443 -0.04248431 -0.6272675
g ColumnPieceMesh07_0
f 3/3/3 2/2/2 1/1/1
f 6/6/6 5/5/5 4/4/4
f 9/9/9 8/8/8 7/7/7
f 12/12/12 11/11/11 10/10/10
