g ColumnPieceMesh01
v -0.005 -0.005799527 0.005
v -0.005 0.01089447 0.005
v 0.001168583 0.0006422484 0.005
v -0.005 0.003145922 0.0007433525
v -0.005 -0.004267012 0.0001970207
v -0.001894152 -0.001319944 0.001125739
v -0.005 -0.005799527 0.005
v 0.001168583 0.0006422484 0.005
v -0.001894152 -0.001319944 0.001125739
v -0.005 -0.004267012 0.0001970207
v -0.005 0.01089447 0.005
v -0.005 -0.005799527 0.005
v -0.005 -0.004267012 0.0001970207
v -0.005 0.003145922 0.0007433525
v -0.005 0.01089447 0.005
v -0.005 0.003145922 0.0007433525
v -0.001894152 -0.001319944 0.001125739
v 0.001168583 0.0006422484 0.005
vt 0.375 0.07667061
vt 0.375 0.2157873
vt 0.5292146 0.1303521
vt 0.3197402 0.2023725
vt 0.2851836 0.1196997
vt 0.3964413 0.2277339
vt 0.375 0.07667061
vt 0.5292146 0.1303521
vt 0.4048008 0.1348609
vt 0.2851836 0.1196997
vt 0.375 0.2157873
vt 0.375 0.07667061
vt 0.2549255 0.08944157
vt 0.2685838 0.151216
vt 0.375 0.2157873
vt 0.2685838 0.151216
vt 0.3964413 0.2277339
vt 0.5292146 0.1303521
vn 0 0 1
vn 0 0 1
vn 0 0 1
vn 0.2227315 0.07165414 -0.972243
vn 0.2227315 0.07165414 -0.972243
vn 0.2227315 0.07165414 -0.972243
vn 0.7052865 -0.6753756 -0.2154962
vn 0.7052865 -0.6753756 -0.2154962
vn 0.7052865 -0.6753756 -0.2154962
vn 0.7052865 -0.6753756 -0.2154962
vn -1 0 0
vn -1 0 0
vn -1 0 0
vn -1 0 0
vn 0.6248007 0.3759317 -0.684324
vn 0.6248008 0.3759317 -0.684324
vn 0.6248008 0.3759318 -0.684324
vn 0.6248008 0.3759318 -0.6843239
g ColumnPieceMesh01_0
f 3/3/3 2/2/2 1/1/1
f 6/6/6 5/5/5 4/4/4
f 9/9/9 8/8/8 7/7/7
f 10/10/10 9/9/9 7/7/7
f 13/13/13 12/12/12 11/11/11
f 14/14/14 13/13/13 11/11/11
f 17/17/17 16/16/16 15/15/15
f 18/18/18 17/17/17 15/15/15
