g MoneyMesh
v -0.008089117 -0.0002438866 0.01752137
v -0.007163771 0.0002453493 0.01844672
v -0.007163771 -0.0002453493 0.01844672
v -0.008089117 0.0002438866 0.01752137
v -0.008427817 -0.0002418884 0.01625732
v -0.008427817 0.0002418884 0.01625732
v -0.008427817 0.000226088 0.006261818
v -0.008427817 -0.000226088 0.006261817
v -0.008427817 0.000226088 -0.006261799
v -0.008427817 -0.000226088 -0.006261799
v -0.008427817 0.0002418884 -0.01625732
v -0.008427817 -0.0002418884 -0.01625732
v -0.008089117 -0.0002438866 -0.01752137
v -0.008089117 0.0002438866 -0.01752137
v -0.007163771 -0.0002453493 0.01844672
v -0.007163771 0.0002453493 0.01844672
v -0.005899725 0.0002458847 0.01878542
v -0.005899725 -0.0002458847 0.01878542
v 0.005899725 -0.0002458847 0.01878542
v 0.005899725 0.0002458847 0.01878542
v 0.007163771 0.0002453493 0.01844672
v 0.007163771 -0.0002453493 0.01844672
v 0.007163771 -0.0002453493 0.01844672
v 0.007163771 0.0002453493 0.01844672
v 0.008089117 0.0002438866 0.01752137
v 0.008089117 -0.0002438866 0.01752137
v 0.008427817 0.0002418884 0.01625732
v 0.008427817 -0.0002418884 0.01625732
v 0.008427817 -0.000226088 0.006261817
v 0.008427817 0.000226088 0.006261818
v 0.008427817 -0.000226088 -0.006261799
v 0.008427817 0.000226088 -0.006261799
v 0.008427817 -0.0002418884 -0.01625732
v 0.008427817 0.0002418884 -0.01625732
v 0.008089117 0.0002438866 -0.01752137
v 0.008089117 -0.0002438866 -0.01752137
v -0.008089117 0.0002438866 -0.01752137
v -0.008089117 -0.0002438866 -0.01752137
v -0.007163771 -0.0002453493 -0.01844672
v -0.007163771 0.0002453493 -0.01844672
v -0.007163771 0.0002453493 -0.01844672
v -0.007163771 -0.0002453493 -0.01844672
v -0.005899725 -0.0002458847 -0.01878542
v -0.005899725 0.0002458847 -0.01878542
v 0.005899725 0.0002458847 -0.01878542
v 0.005899725 -0.0002458847 -0.01878542
v 0.007163771 -0.0002453493 -0.01844672
v 0.007163771 0.0002453493 -0.01844672
v 0.007163771 0.0002453493 -0.01844672
v 0.007163771 -0.0002453493 -0.01844672
v 0.008089117 -0.0002438866 -0.01752137
v 0.008089117 0.0002438866 -0.01752137
v -0.005899725 0.0002458847 -0.01878542
v 0.005899725 0.0002458847 -0.01878542
v 0.007163771 0.0002453493 -0.01844672
v -0.007163771 0.0002453493 -0.01844672
v 0.007163771 0.0002453493 -0.01844672
v 0.008089117 0.0002438866 -0.01752137
v -0.007163771 0.0002453493 -0.01844672
v -0.008089117 0.0002438866 -0.01752137
v 0.008427817 0.0002418884 -0.01625732
v -0.008427817 0.0002418884 -0.01625732
v -0.008427817 0.000226088 -0.006261799
v 0.008427817 0.000226088 -0.006261799
v -0.002180728 0.0002260879 -0.005220268
v 0.002149286 0.0002260879 -0.005233292
v -0.005233301 0.0002260879 -0.002149277
v 0.005220277 0.0002260879 -0.002180719
v -0.005220277 0.0002260879 0.002180737
v 0.008427817 0.000226088 0.006261818
v -0.008427817 0.000226088 0.006261818
v 0.005233301 0.0002260879 0.002149295
v -0.002149286 0.0002260879 0.00523331
v 0.002180729 0.0002260879 0.005220286
v 0.008427817 0.0002418884 0.01625732
v -0.008427817 0.0002418884 0.01625732
v 0.008089117 0.0002438866 0.01752137
v -0.008089117 0.0002438866 0.01752137
v 0.007163771 0.0002453493 0.01844672
v -0.007163771 0.0002453493 0.01844672
v 0.007163771 0.0002453493 0.01844672
v 0.005899725 0.0002458847 0.01878542
v -0.005899725 0.0002458847 0.01878542
v -0.007163771 0.0002453493 0.01844672
v 0.007163771 -0.0002453493 -0.01844672
v 0.005899725 -0.0002458847 -0.01878542
v -0.005899725 -0.0002458847 -0.01878542
v -0.007163771 -0.0002453493 -0.01844672
v 0.007163771 -0.0002453493 -0.01844672
v -0.007163771 -0.0002453493 -0.01844672
v -0.008089117 -0.0002438866 -0.01752137
v 0.008089117 -0.0002438866 -0.01752137
v -0.008427817 -0.0002418884 -0.01625732
v 0.008427817 -0.0002418884 -0.01625732
v -0.008427817 -0.000226088 -0.006261799
v 0.008427817 -0.000226088 -0.006261799
v 0.002119794 -0.0002260879 -0.005245307
v -0.002210078 -0.0002260879 -0.00520791
v 0.005207919 -0.0002260879 -0.002210069
v -0.005245316 -0.0002260879 -0.002119785
v 0.005245316 -0.0002260879 0.002119803
v -0.008427817 -0.000226088 0.006261817
v 0.008427817 -0.000226088 0.006261817
v -0.00520792 -0.0002260879 0.002210087
v 0.002210078 -0.0002260879 0.005207928
v -0.002119794 -0.0002260879 0.005245325
v 0.008427817 -0.0002418884 0.01625732
v -0.008427817 -0.0002418884 0.01625732
v -0.008089117 -0.0002438866 0.01752137
v 0.008089117 -0.0002438866 0.01752137
v -0.007163771 -0.0002453493 0.01844672
v 0.007163771 -0.0002453493 0.01844672
v -0.005899725 -0.0002458847 0.01878542
v 0.005899725 -0.0002458847 0.01878542
v 0.005207919 -0.000277511 -0.002210069
v 0.002119794 -0.000277511 -0.005245307
v -0.002210078 -0.000277511 -0.00520791
v -0.005245316 -0.000277511 -0.002119785
v 0.005245316 -0.000277511 0.002119803
v -0.00520792 -0.000277511 0.002210087
v 0.002210078 -0.000277511 0.005207928
v -0.002119794 -0.000277511 0.005245325
v -0.002180728 0.000277511 -0.005220268
v 0.002149286 0.000277511 -0.005233292
v 0.005220277 0.000277511 -0.002180719
v -0.005233301 0.000277511 -0.002149277
v 0.005233301 0.000277511 0.002149295
v -0.005220277 0.000277511 0.002180737
v 0.002180729 0.000277511 0.005220286
v -0.002149286 0.000277511 0.00523331
v 0.005207919 -0.0002260879 -0.002210069
v 0.005207919 -0.000277511 -0.002210069
v 0.005245316 -0.000277511 0.002119803
v 0.005245316 -0.0002260879 0.002119803
v 0.005245316 -0.0002260879 0.002119803
v 0.005245316 -0.000277511 0.002119803
v 0.002210078 -0.000277511 0.005207928
v 0.002210078 -0.0002260879 0.005207928
v 0.002210078 -0.0002260879 0.005207928
v 0.002210078 -0.000277511 0.005207928
v -0.002119794 -0.000277511 0.005245325
v -0.002119794 -0.0002260879 0.005245325
v -0.002119794 -0.0002260879 0.005245325
v -0.002119794 -0.000277511 0.005245325
v -0.00520792 -0.000277511 0.002210087
v -0.00520792 -0.0002260879 0.002210087
v -0.00520792 -0.0002260879 0.002210087
v -0.00520792 -0.000277511 0.002210087
v -0.005245316 -0.000277511 -0.002119785
v -0.005245316 -0.0002260879 -0.002119785
v -0.005245316 -0.0002260879 -0.002119785
v -0.005245316 -0.000277511 -0.002119785
v -0.002210078 -0.000277511 -0.00520791
v -0.002210078 -0.0002260879 -0.00520791
v -0.002210078 -0.0002260879 -0.00520791
v -0.002210078 -0.000277511 -0.00520791
v 0.002119794 -0.000277511 -0.005245307
v 0.002119794 -0.0002260879 -0.005245307
v 0.002119794 -0.0002260879 -0.005245307
v 0.002119794 -0.000277511 -0.005245307
v 0.005207919 -0.000277511 -0.002210069
v 0.005207919 -0.0002260879 -0.002210069
v -0.005233301 0.0002260879 -0.002149277
v -0.005233301 0.000277511 -0.002149277
v -0.005220277 0.000277511 0.002180737
v -0.005220277 0.0002260879 0.002180737
v -0.005220277 0.0002260879 0.002180737
v -0.005220277 0.000277511 0.002180737
v -0.002149286 0.000277511 0.00523331
v -0.002149286 0.0002260879 0.00523331
v -0.002149286 0.0002260879 0.00523331
v -0.002149286 0.000277511 0.00523331
v 0.002180729 0.000277511 0.005220286
v 0.002180729 0.0002260879 0.005220286
v 0.002180729 0.0002260879 0.005220286
v 0.002180729 0.000277511 0.005220286
v 0.005233301 0.000277511 0.002149295
v 0.005233301 0.0002260879 0.002149295
v 0.005233301 0.0002260879 0.002149295
v 0.005233301 0.000277511 0.002149295
v 0.005220277 0.000277511 -0.002180719
v 0.005220277 0.0002260879 -0.002180719
v 0.005220277 0.0002260879 -0.002180719
v 0.005220277 0.000277511 -0.002180719
v 0.002149286 0.000277511 -0.005233292
v 0.002149286 0.0002260879 -0.005233292
v 0.002149286 0.0002260879 -0.005233292
v 0.002149286 0.000277511 -0.005233292
v -0.002180728 0.000277511 -0.005220268
v -0.002180728 0.0002260879 -0.005220268
v -0.002180728 0.0002260879 -0.005220268
v -0.002180728 0.000277511 -0.005220268
v -0.005233301 0.000277511 -0.002149277
v -0.005233301 0.0002260879 -0.002149277
vt 0.3762852 -2.555712E-09
vt 0.3924941 0.2479798
vt 0.3943914 -8.728649E-09
vt 0.375 0.25
vt 0.3581778 3.61765E-09
vt 0.3581778 0.25
vt 0.2916667 0.25
vt 0.2916667 0
vt 0.2083334 0.25
vt 0.2083334 0
vt 0.1418222 0.25
vt 0.1418222 -3.72529E-09
vt 0.125 0
vt 0.125 0.25
vt 0.3943914 -8.728649E-09
vt 0.3924941 0.2479798
vt 0.4124962 0.25
vt 0.4124963 -1.490116E-08
vt 0.5875038 -3.72529E-09
vt 0.5875037 0.25
vt 0.6072771 0.248079
vt 0.6125007 -1.241821E-09
vt 0.6125007 -1.241821E-09
vt 0.6072771 0.248079
vt 0.625 0.25
vt 0.6271609 8.691972E-09
vt 0.6418222 0.25
vt 0.6418222 1.862645E-08
vt 0.7083333 0
vt 0.7083333 0.25
vt 0.7916666 0
vt 0.7916666 0.25
vt 0.8581778 6.029401E-09
vt 0.8581778 0.25
vt 0.875 0.25
vt 0.875 0
vt 0.375 0.5
vt 0.375 0.75
vt 0.3924776 0.7480097
vt 0.3923505 0.5037026
vt 0.3923505 0.5037026
vt 0.3924776 0.7480097
vt 0.4124962 0.75
vt 0.4124963 0.5
vt 0.5875038 0.5
vt 0.5875037 0.75
vt 0.6072291 0.7481331
vt 0.6062596 0.5070418
vt 0.6062596 0.5070418
vt 0.6072291 0.7481331
vt 0.625 0.75
vt 0.625 0.5
vt 0.4124963 0.5
vt 0.5875038 0.5
vt 0.6062596 0.5070418
vt 0.3923505 0.5037026
vt 0.6062596 0.5070418
vt 0.625 0.5
vt 0.3923505 0.5037026
vt 0.375 0.5
vt 0.625 0.4831778
vt 0.375 0.4831778
vt 0.375 0.4166666
vt 0.625 0.4166666
vt 0.4138614 0.4166666
vt 0.5861387 0.4166666
vt 0.375 0.3958354
vt 0.625 0.3958354
vt 0.375 0.3541645
vt 0.625 0.3333333
vt 0.375 0.3333333
vt 0.625 0.3541645
vt 0.4138614 0.3333333
vt 0.5861386 0.3333333
vt 0.625 0.2668222
vt 0.375 0.2668222
vt 0.625 0.25
vt 0.375 0.25
vt 0.6072771 0.248079
vt 0.3924941 0.2479798
vt 0.6072771 0.248079
vt 0.5875037 0.25
vt 0.4124962 0.25
vt 0.3924941 0.2479798
vt 0.6072291 0.7481331
vt 0.5875037 0.75
vt 0.4124962 0.75
vt 0.3924776 0.7480097
vt 0.6072291 0.7481331
vt 0.3924776 0.7480097
vt 0.375 0.75
vt 0.625 0.75
vt 0.375 0.7668222
vt 0.625 0.7668222
vt 0.375 0.8333334
vt 0.625 0.8333334
vt 0.5861386 0.8333334
vt 0.4138614 0.8333334
vt 0.625 0.8541647
vt 0.375 0.8541647
vt 0.625 0.8958355
vt 0.375 0.9166667
vt 0.625 0.9166667
vt 0.375 0.8958355
vt 0.5861387 0.9166667
vt 0.4138614 0.9166667
vt 0.625 0.9831778
vt 0.375 0.9831778
vt 0.3874996 0.9887856
vt 0.6125004 0.9887856
vt 0.3999983 0.994393
vt 0.6000016 0.994393
vt 0.4124962 1
vt 0.5875037 1
vt 0.625 0.8541647
vt 0.5861386 0.8333334
vt 0.4138614 0.8333334
vt 0.375 0.8541647
vt 0.625 0.8958355
vt 0.375 0.8958355
vt 0.5861387 0.9166667
vt 0.4138614 0.9166667
vt 0.4138614 0.4166666
vt 0.5861387 0.4166666
vt 0.625 0.3958354
vt 0.375 0.3958354
vt 0.625 0.3541645
vt 0.375 0.3541645
vt 0.5861386 0.3333333
vt 0.4138614 0.3333333
vt 0.625 0.8541647
vt 0.625 0.8541647
vt 0.625 0.8958355
vt 0.625 0.8958355
vt 0.625 0.8958355
vt 0.625 0.8958355
vt 0.5861387 0.9166667
vt 0.5861387 0.9166667
vt 0.5861387 0.9166667
vt 0.5861387 0.9166667
vt 0.4138614 0.9166667
vt 0.4138614 0.9166667
vt 0.4138614 0.9166667
vt 0.4138614 0.9166667
vt 0.375 0.8958355
vt 0.375 0.8958355
vt 0.375 0.8958355
vt 0.375 0.8958355
vt 0.375 0.8541647
vt 0.375 0.8541647
vt 0.375 0.8541647
vt 0.375 0.8541647
vt 0.4138614 0.8333334
vt 0.4138614 0.8333334
vt 0.4138614 0.8333334
vt 0.4138614 0.8333334
vt 0.5861386 0.8333334
vt 0.5861386 0.8333334
vt 0.5861386 0.8333334
vt 0.5861386 0.8333334
vt 0.625 0.8541647
vt 0.625 0.8541647
vt 0.375 0.3958354
vt 0.375 0.3958354
vt 0.375 0.3541645
vt 0.375 0.3541645
vt 0.375 0.3541645
vt 0.375 0.3541645
vt 0.4138614 0.3333333
vt 0.4138614 0.3333333
vt 0.4138614 0.3333333
vt 0.4138614 0.3333333
vt 0.5861386 0.3333333
vt 0.5861386 0.3333333
vt 0.5861386 0.3333333
vt 0.5861386 0.3333333
vt 0.625 0.3541645
vt 0.625 0.3541645
vt 0.625 0.3541645
vt 0.625 0.3541645
vt 0.625 0.3958354
vt 0.625 0.3958354
vt 0.625 0.3958354
vt 0.625 0.3958354
vt 0.5861387 0.4166666
vt 0.5861387 0.4166666
vt 0.5861387 0.4166666
vt 0.5861387 0.4166666
vt 0.4138614 0.4166666
vt 0.4138614 0.4166666
vt 0.4138614 0.4166666
vt 0.4138614 0.4166666
vt 0.375 0.3958354
vt 0.375 0.3958354
vn -0.8654364 0 0.5010188
vn -0.7071068 0 0.7071068
vn -0.7071068 0 0.7071068
vn -0.8654364 0 0.5010188
vn -0.9995153 -1.125575E-06 0.03113182
vn -0.9995153 -1.125575E-06 0.03113182
vn -1 -1.27424E-06 0
vn -1 -1.274241E-06 0
vn -1 0 0
vn -1 0 0
vn -0.9995153 0 -0.03113177
vn -0.9995153 0 -0.03113177
vn -0.8654364 0 -0.5010188
vn -0.8654364 0 -0.5010188
vn -0.2588191 0 0.9659258
vn -0.2588191 0 0.9659258
vn -0.02588697 0 0.9996649
vn -0.02588697 0 0.9996649
vn 0.02588697 0 0.9996649
vn 0.02588697 0 0.9996649
vn 0.2588191 0 0.9659258
vn 0.2588191 0 0.9659258
vn 0.7071068 0 0.7071068
vn 0.7071068 0 0.7071068
vn 0.8654364 0 0.5010188
vn 0.8654364 0 0.5010188
vn 0.9995153 -1.125575E-06 0.03113182
vn 0.9995153 -1.125575E-06 0.03113182
vn 1 -1.274241E-06 0
vn 1 -1.27424E-06 0
vn 1 0 0
vn 1 0 0
vn 0.9995153 0 -0.03113177
vn 0.9995153 0 -0.03113177
vn 0.8654364 0 -0.5010188
vn 0.8654364 0 -0.5010188
vn -0.8654364 0 -0.5010188
vn -0.8654364 0 -0.5010188
vn -0.7071068 0 -0.7071068
vn -0.7071068 0 -0.7071068
vn -0.2588191 0 -0.9659258
vn -0.2588191 0 -0.9659258
vn -0.02588697 0 -0.9996649
vn -0.02588697 0 -0.9996649
vn 0.02588697 0 -0.9996649
vn 0.02588697 0 -0.9996649
vn 0.2588191 0 -0.9659258
vn 0.2588191 0 -0.9659258
vn 0.7071068 0 -0.7071068
vn 0.7071068 0 -0.7071068
vn 0.8654364 0 -0.5010188
vn 0.8654364 0 -0.5010188
vn 0 0.9999988 0.001580673
vn 0 0.9999988 0.001580673
vn 0 0.9999988 0.001580714
vn 0 0.9999988 0.001580786
vn 0 0.9999988 0.001580714
vn 0 0.9999988 0.00158076
vn 0 0.9999988 0.001580786
vn 0 0.9999988 0.001580774
vn 0 0.9999988 0.001580751
vn 0 0.9999988 0.001580751
vn 0 0.999999 0.001429713
vn 0 0.999999 0.001429343
vn 0 1 0
vn 0 1 0
vn 0 1 0
vn 0 1 0
vn 0 1 0
vn 0 0.999999 -0.001429715
vn 0 0.999999 -0.001429345
vn 0 1 0
vn 0 1 0
vn 0 1 0
vn 0 0.9999988 -0.001580755
vn 0 0.9999988 -0.001580754
vn 0 0.9999988 -0.001580784
vn 0 0.9999988 -0.001580748
vn 0 0.9999988 -0.001580792
vn 0 0.9999988 -0.001580709
vn 0 0.9999988 -0.001580792
vn 0 0.9999988 -0.001580684
vn 0 0.9999988 -0.001580684
vn 0 0.9999988 -0.001580709
vn 0 -0.9999988 0.001580792
vn 0 -0.9999988 0.001580684
vn 0 -0.9999988 0.001580684
vn 0 -0.9999988 0.001580709
vn 0 -0.9999988 0.001580792
vn 0 -0.9999988 0.001580709
vn 0 -0.9999988 0.001580748
vn 0 -0.9999988 0.001580784
vn 0 -0.9999988 0.001580751
vn 0 -0.9999988 0.001580752
vn 0 -0.999999 0.001430055
vn 0 -0.999999 0.001428992
vn 0 -1 0
vn 0 -1 0
vn 0 -1 0
vn 0 -1 0
vn 0 -1 0
vn 0 -0.999999 -0.001428995
vn 0 -0.999999 -0.001430058
vn 0 -1 0
vn 0 -1 0
vn 0 -1 0
vn 0 -0.9999988 -0.001580754
vn 0 -0.9999988 -0.001580754
vn 0 -0.9999988 -0.001580774
vn 0 -0.9999988 -0.00158076
vn 0 -0.9999988 -0.001580786
vn 0 -0.9999988 -0.001580714
vn 0 -0.9999988 -0.001580673
vn 0 -0.9999988 -0.001580673
vn 0 -1 0
vn 0 -1 0
vn 0 -1 0
vn 0 -1 0
vn 0 -1 0
vn 0 -1 0
vn 0 -1 0
vn 0 -1 0
vn 0 1 0
vn 0 1 0
vn 0 1 0
vn 0 1 0
vn 0 1 0
vn 0 1 0
vn 0 1 0
vn 0 1 0
vn 0.9999627 0 -0.008636685
vn 0.9999627 0 -0.008636685
vn 0.9999627 0 -0.008636685
vn 0.9999627 0 -0.008636685
vn 0.7131875 0 0.7009733
vn 0.7131875 0 0.7009733
vn 0.7131875 0 0.7009733
vn 0.7131875 0 0.7009733
vn 0.008636637 0 0.9999627
vn 0.008636637 0 0.9999627
vn 0.008636637 0 0.9999627
vn 0.008636637 0 0.9999627
vn -0.7009733 0 0.7131874
vn -0.7009733 0 0.7131874
vn -0.7009733 0 0.7131874
vn -0.7009733 0 0.7131874
vn -0.9999627 0 0.008636547
vn -0.9999627 0 0.008636547
vn -0.9999627 0 0.008636547
vn -0.9999627 0 0.008636547
vn -0.7131874 0 -0.7009733
vn -0.7131874 0 -0.7009733
vn -0.7131874 0 -0.7009733
vn -0.7131874 0 -0.7009733
vn -0.008636532 0 -0.9999627
vn -0.008636532 0 -0.9999627
vn -0.008636532 0 -0.9999627
vn -0.008636532 0 -0.9999627
vn 0.7009733 0 -0.7131875
vn 0.7009733 0 -0.7131875
vn 0.7009733 0 -0.7131875
vn 0.7009733 0 -0.7131875
vn -0.9999955 0 0.003007739
vn -0.9999955 0 0.003007739
vn -0.9999955 0 0.003007739
vn -0.9999955 0 0.003007739
vn -0.7049766 0 0.7092306
vn -0.7049766 0 0.7092306
vn -0.7049766 0 0.7092306
vn -0.7049766 0 0.7092306
vn 0.003007739 0 0.9999955
vn 0.003007739 0 0.9999955
vn 0.003007739 0 0.9999955
vn 0.003007739 0 0.9999955
vn 0.7092304 0 0.7049767
vn 0.7092304 0 0.7049767
vn 0.7092304 0 0.7049767
vn 0.7092304 0 0.7049767
vn 0.9999955 0 -0.003007739
vn 0.9999955 0 -0.003007739
vn 0.9999955 0 -0.003007739
vn 0.9999955 0 -0.003007739
vn 0.7049766 0 -0.7092305
vn 0.7049766 0 -0.7092305
vn 0.7049766 0 -0.7092305
vn 0.7049766 0 -0.7092305
vn -0.003007741 0 -0.9999955
vn -0.003007741 0 -0.9999955
vn -0.003007741 0 -0.9999955
vn -0.003007741 0 -0.9999955
vn -0.7092305 0 -0.7049766
vn -0.7092305 0 -0.7049766
vn -0.7092305 0 -0.7049766
vn -0.7092305 0 -0.7049766
g MoneyMesh_0
f 3/3/3 2/2/2 1/1/1
f 2/2/2 4/4/4 1/1/1
f 1/1/1 4/4/4 5/5/5
f 4/4/4 6/6/6 5/5/5
f 5/5/5 6/6/6 7/7/7
f 8/8/8 5/5/5 7/7/7
f 7/7/7 9/9/9 8/8/8
f 9/9/9 10/10/10 8/8/8
f 10/10/10 9/9/9 11/11/11
f 12/12/12 10/10/10 11/11/11
f 13/13/13 12/12/12 11/11/11
f 14/14/14 13/13/13 11/11/11
f 17/17/17 16/16/16 15/15/15
f 18/18/18 17/17/17 15/15/15
f 18/18/18 19/19/19 17/17/17
f 19/19/19 20/20/20 17/17/17
f 21/21/21 20/20/20 19/19/19
f 22/22/22 21/21/21 19/19/19
f 25/25/25 24/24/24 23/23/23
f 26/26/26 25/25/25 23/23/23
f 27/27/27 25/25/25 26/26/26
f 28/28/28 27/27/27 26/26/26
f 28/28/28 29/29/29 27/27/27
f 29/29/29 30/30/30 27/27/27
f 29/29/29 31/31/31 30/30/30
f 31/31/31 32/32/32 30/30/30
f 31/31/31 33/33/33 32/32/32
f 33/33/33 34/34/34 32/32/32
f 34/34/34 33/33/33 35/35/35
f 33/33/33 36/36/36 35/35/35
f 39/39/39 38/38/38 37/37/37
f 40/40/40 39/39/39 37/37/37
f 43/43/43 42/42/42 41/41/41
f 44/44/44 43/43/43 41/41/41
f 44/44/44 45/45/45 43/43/43
f 45/45/45 46/46/46 43/43/43
f 47/47/47 46/46/46 45/45/45
f 48/48/48 47/47/47 45/45/45
f 51/51/51 50/50/50 49/49/49
f 52/52/52 51/51/51 49/49/49
f 55/55/55 54/54/54 53/53/53
f 56/56/56 55/55/55 53/53/53
f 59/59/59 58/58/58 57/57/57
f 59/59/59 60/60/60 58/58/58
f 60/60/60 61/61/61 58/58/58
f 60/60/60 62/62/62 61/61/61
f 62/62/62 63/63/63 61/61/61
f 63/63/63 64/64/64 61/61/61
f 63/63/63 65/65/65 64/64/64
f 65/65/65 66/66/66 64/64/64
f 63/63/63 67/67/67 65/65/65
f 64/64/64 66/66/66 68/68/68
f 69/69/69 67/67/67 63/63/63
f 64/64/64 68/68/68 70/70/70
f 71/71/71 69/69/69 63/63/63
f 68/68/68 72/72/72 70/70/70
f 71/71/71 73/73/73 69/69/69
f 70/70/70 72/72/72 74/74/74
f 74/74/74 73/73/73 71/71/71
f 70/70/70 74/74/74 71/71/71
f 70/70/70 71/71/71 75/75/75
f 71/71/71 76/76/76 75/75/75
f 76/76/76 77/77/77 75/75/75
f 76/76/76 78/78/78 77/77/77
f 78/78/78 79/79/79 77/77/77
f 78/78/78 80/80/80 79/79/79
f 83/83/83 82/82/82 81/81/81
f 84/84/84 83/83/83 81/81/81
f 87/87/87 86/86/86 85/85/85
f 88/88/88 87/87/87 85/85/85
f 91/91/91 90/90/90 89/89/89
f 91/91/91 89/89/89 92/92/92
f 93/93/93 91/91/91 92/92/92
f 93/93/93 92/92/92 94/94/94
f 95/95/95 93/93/93 94/94/94
f 96/96/96 95/95/95 94/94/94
f 96/96/96 97/97/97 95/95/95
f 97/97/97 98/98/98 95/95/95
f 96/96/96 99/99/99 97/97/97
f 95/95/95 98/98/98 100/100/100
f 101/101/101 99/99/99 96/96/96
f 95/95/95 100/100/100 102/102/102
f 103/103/103 101/101/101 96/96/96
f 100/100/100 104/104/104 102/102/102
f 103/103/103 105/105/105 101/101/101
f 106/106/106 105/105/105 103/103/103
f 102/102/102 104/104/104 106/106/106
f 102/102/102 106/106/106 103/103/103
f 102/102/102 103/103/103 107/107/107
f 108/108/108 102/102/102 107/107/107
f 109/109/109 108/108/108 107/107/107
f 109/109/109 107/107/107 110/110/110
f 111/111/111 109/109/109 110/110/110
f 111/111/111 110/110/110 112/112/112
f 111/111/111 112/112/112 113/113/113
f 112/112/112 114/114/114 113/113/113
f 117/117/117 116/116/116 115/115/115
f 115/115/115 118/118/118 117/117/117
f 115/115/115 119/119/119 118/118/118
f 119/119/119 120/120/120 118/118/118
f 119/119/119 121/121/121 120/120/120
f 121/121/121 122/122/122 120/120/120
f 125/125/125 124/124/124 123/123/123
f 123/123/123 126/126/126 125/125/125
f 126/126/126 127/127/127 125/125/125
f 126/126/126 128/128/128 127/127/127
f 128/128/128 129/129/129 127/127/127
f 128/128/128 130/130/130 129/129/129
f 133/133/133 132/132/132 131/131/131
f 134/134/134 133/133/133 131/131/131
f 137/137/137 136/136/136 135/135/135
f 138/138/138 137/137/137 135/135/135
f 141/141/141 140/140/140 139/139/139
f 142/142/142 141/141/141 139/139/139
f 145/145/145 144/144/144 143/143/143
f 146/146/146 145/145/145 143/143/143
f 149/149/149 148/148/148 147/147/147
f 150/150/150 149/149/149 147/147/147
f 153/153/153 152/152/152 151/151/151
f 154/154/154 153/153/153 151/151/151
f 157/157/157 156/156/156 155/155/155
f 158/158/158 157/157/157 155/155/155
f 161/161/161 160/160/160 159/159/159
f 162/162/162 161/161/161 159/159/159
f 165/165/165 164/164/164 163/163/163
f 166/166/166 165/165/165 163/163/163
f 169/169/169 168/168/168 167/167/167
f 170/170/170 169/169/169 167/167/167
f 173/173/173 172/172/172 171/171/171
f 174/174/174 173/173/173 171/171/171
f 177/177/177 176/176/176 175/175/175
f 178/178/178 177/177/177 175/175/175
f 181/181/181 180/180/180 179/179/179
f 182/182/182 181/181/181 179/179/179
f 185/185/185 184/184/184 183/183/183
f 186/186/186 185/185/185 183/183/183
f 189/189/189 188/188/188 187/187/187
f 190/190/190 189/189/189 187/187/187
f 193/193/193 192/192/192 191/191/191
f 194/194/194 193/193/193 191/191/191
