g NailMesh
v -2.50685E-10 -0.004205742 0.04452186
v -4.565426E-10 -4.629839E-10 0.06124275
v 0.002973945 -0.0029739 0.04452186
v -0.002973947 -0.0029739 0.04452186
v -4.565426E-10 -4.629839E-10 0.06124275
v -2.50685E-10 -0.004205742 0.04452186
v -0.004205796 3.768399E-08 0.04452186
v -4.565426E-10 -4.629839E-10 0.06124275
v -0.002973947 -0.0029739 0.04452186
v -0.002973947 0.002973975 0.04452186
v -4.565426E-10 -4.629839E-10 0.06124275
v -0.004205796 3.768399E-08 0.04452186
v -2.50685E-10 0.004205817 0.04452186
v -4.565426E-10 -4.629839E-10 0.06124275
v -0.002973947 0.002973975 0.04452186
v 0.002973945 0.002973975 0.04452186
v -4.565426E-10 -4.629839E-10 0.06124275
v -2.50685E-10 0.004205817 0.04452186
v 0.004205796 3.768399E-08 0.04452186
v -4.565426E-10 -4.629839E-10 0.06124275
v 0.002973945 0.002973975 0.04452186
v 0.002973945 -0.0029739 0.04452186
v -4.565426E-10 -4.629839E-10 0.06124275
v 0.004205796 3.768399E-08 0.04452186
v 0.01098501 -0.01098501 -0.05801437
v 0.01098501 -0.01098502 -0.06124275
v -9.259677E-10 -0.01553516 -0.06124275
v -9.259677E-10 -0.01553516 -0.05801437
v -9.259677E-10 -0.01553516 -0.05801437
v -9.259677E-10 -0.01553516 -0.06124275
v -0.01098502 -0.01098502 -0.06124275
v -0.01098502 -0.01098501 -0.05801437
v -0.01098502 -0.01098501 -0.05801437
v -0.01098502 -0.01098502 -0.06124275
v -0.01553516 -4.629839E-10 -0.06124275
v -0.01553516 -4.629839E-10 -0.05801437
v -0.01553516 -4.629839E-10 -0.05801437
v -0.01553516 -4.629839E-10 -0.06124275
v -0.01098502 0.01098501 -0.06124275
v -0.01098502 0.01098502 -0.05801437
v -0.01098502 0.01098502 -0.05801437
v -0.01098502 0.01098501 -0.06124275
v -9.259677E-10 0.01553516 -0.06124275
v -9.259677E-10 0.01553516 -0.05801437
v -9.259677E-10 0.01553516 -0.05801437
v -9.259677E-10 0.01553516 -0.06124275
v 0.01098501 0.01098502 -0.06124275
v 0.01098501 0.01098502 -0.05801437
v 0.01098501 0.01098502 -0.05801437
v 0.01098501 0.01098502 -0.06124275
v 0.01553516 -4.629839E-10 -0.06124275
v 0.01553516 -4.629839E-10 -0.05801437
v 0.01553516 -4.629839E-10 -0.05801437
v 0.01553516 -4.629839E-10 -0.06124275
v 0.01098501 -0.01098502 -0.06124275
v 0.01098501 -0.01098501 -0.05801437
v -9.259677E-10 -0.01553516 -0.05801437
v -2.50685E-10 -0.004205797 -0.0539214
v 0.002973945 -0.002973946 -0.0539214
v 0.01098501 -0.01098501 -0.05801437
v -0.01098502 -0.01098501 -0.05801437
v -0.002973947 -0.002973946 -0.0539214
v -2.50685E-10 -0.004205797 -0.0539214
v -9.259677E-10 -0.01553516 -0.05801437
v -0.01553516 -4.629839E-10 -0.05801437
v -0.004205796 -4.629839E-10 -0.0539214
v -0.002973947 -0.002973946 -0.0539214
v -0.01098502 -0.01098501 -0.05801437
v -0.01098502 0.01098502 -0.05801437
v -0.002973947 0.002973947 -0.0539214
v -0.004205796 -4.629839E-10 -0.0539214
v -0.01553516 -4.629839E-10 -0.05801437
v -9.259677E-10 0.01553516 -0.05801437
v -2.50685E-10 0.004205796 -0.0539214
v -0.002973947 0.002973947 -0.0539214
v -0.01098502 0.01098502 -0.05801437
v 0.01098501 0.01098502 -0.05801437
v 0.002973945 0.002973947 -0.0539214
v -2.50685E-10 0.004205796 -0.0539214
v -9.259677E-10 0.01553516 -0.05801437
v 0.01553516 -4.629839E-10 -0.05801437
v 0.004205796 -4.629839E-10 -0.0539214
v 0.002973945 0.002973947 -0.0539214
v 0.01098501 0.01098502 -0.05801437
v 0.01098501 -0.01098501 -0.05801437
v 0.002973945 -0.002973946 -0.0539214
v 0.004205796 -4.629839E-10 -0.0539214
v 0.01553516 -4.629839E-10 -0.05801437
v -2.50685E-10 -0.004205797 -0.0539214
v -2.50685E-10 -0.004205742 0.04452186
v 0.002973945 -0.0029739 0.04452186
v 0.002973945 -0.002973946 -0.0539214
v -0.002973947 -0.002973946 -0.0539214
v -0.002973947 -0.0029739 0.04452186
v -2.50685E-10 -0.004205742 0.04452186
v -2.50685E-10 -0.004205797 -0.0539214
v -0.004205796 -4.629839E-10 -0.0539214
v -0.004205796 3.768399E-08 0.04452186
v -0.002973947 -0.0029739 0.04452186
v -0.002973947 -0.002973946 -0.0539214
v -0.002973947 0.002973947 -0.0539214
v -0.002973947 0.002973975 0.04452186
v -0.004205796 3.768399E-08 0.04452186
v -0.004205796 -4.629839E-10 -0.0539214
v -2.50685E-10 0.004205796 -0.0539214
v -2.50685E-10 0.004205817 0.04452186
v -0.002973947 0.002973975 0.04452186
v -0.002973947 0.002973947 -0.0539214
v 0.002973945 0.002973947 -0.0539214
v 0.002973945 0.002973975 0.04452186
v -2.50685E-10 0.004205817 0.04452186
v -2.50685E-10 0.004205796 -0.0539214
v 0.004205796 -4.629839E-10 -0.0539214
v 0.004205796 3.768399E-08 0.04452186
v 0.002973945 0.002973975 0.04452186
v 0.002973945 0.002973947 -0.0539214
v 0.002973945 -0.002973946 -0.0539214
v 0.002973945 -0.0029739 0.04452186
v 0.004205796 3.768399E-08 0.04452186
v 0.004205796 -4.629839E-10 -0.0539214
v 0.01098501 -0.01098502 -0.06124275
v -9.259677E-10 -4.629839E-10 -0.06124275
v -9.259677E-10 -0.01553516 -0.06124275
v 0.01553516 -4.629839E-10 -0.06124275
v -0.01098502 -0.01098502 -0.06124275
v 0.01098501 0.01098502 -0.06124275
v -0.01553516 -4.629839E-10 -0.06124275
v -9.259677E-10 0.01553516 -0.06124275
v -0.01098502 0.01098501 -0.06124275
vt 0.5 1.490116E-08
vt 0.5 0.1555556
vt 0.6104854 0.04576458
vt 0.3895146 0.04576458
vt 0.5 0.1555556
vt 0.5 1.490116E-08
vt 0.34375 0.15625
vt 0.5 0.1555556
vt 0.3895146 0.04576458
vt 0.3895146 0.2667354
vt 0.5 0.1555556
vt 0.34375 0.15625
vt 0.5 0.3125
vt 0.5 0.1555556
vt 0.3895146 0.2667354
vt 0.6104854 0.2667354
vt 0.5 0.1555556
vt 0.5 0.3125
vt 0.65625 0.15625
vt 0.5 0.1555556
vt 0.6104854 0.2667354
vt 0.6104854 0.04576458
vt 0.5 0.1555556
vt 0.65625 0.15625
vt 0.375 0.3125
vt 0.375 0.6884398
vt 0.40625 0.6884398
vt 0.40625 0.3125
vt 0.40625 0.3125
vt 0.40625 0.6884398
vt 0.4375 0.6884398
vt 0.4375 0.3125
vt 0.4375 0.3125
vt 0.4375 0.6884398
vt 0.46875 0.6884398
vt 0.46875 0.3125
vt 0.46875 0.3125
vt 0.46875 0.6884398
vt 0.5 0.6884398
vt 0.5 0.3125
vt 0.5 0.3125
vt 0.5 0.6884398
vt 0.53125 0.6884398
vt 0.53125 0.3125
vt 0.53125 0.3125
vt 0.53125 0.6884398
vt 0.5625 0.6884398
vt 0.5625 0.3125
vt 0.5625 0.3125
vt 0.5625 0.6884398
vt 0.59375 0.6884398
vt 0.59375 0.3125
vt 0.59375 0.3125
vt 0.59375 0.6884398
vt 0.625 0.6884398
vt 0.625 0.3125
vt 0.5 1.490116E-08
vt 0.5 1.490116E-08
vt 0.6104854 0.04576458
vt 0.6104854 0.04576458
vt 0.3895146 0.04576458
vt 0.3895146 0.04576458
vt 0.5 1.490116E-08
vt 0.5 1.490116E-08
vt 0.34375 0.15625
vt 0.34375 0.15625
vt 0.3895146 0.04576458
vt 0.3895146 0.04576458
vt 0.3895146 0.2667354
vt 0.3895146 0.2667354
vt 0.34375 0.15625
vt 0.34375 0.15625
vt 0.5 0.3125
vt 0.5 0.3125
vt 0.3895146 0.2667354
vt 0.3895146 0.2667354
vt 0.6104854 0.2667354
vt 0.6104854 0.2667354
vt 0.5 0.3125
vt 0.5 0.3125
vt 0.65625 0.15625
vt 0.65625 0.15625
vt 0.6104854 0.2667354
vt 0.6104854 0.2667354
vt 0.6104854 0.04576458
vt 0.6104854 0.04576458
vt 0.65625 0.15625
vt 0.65625 0.15625
vt 0.5 1.490116E-08
vt 0.5 1.490116E-08
vt 0.6104854 0.04576458
vt 0.6104854 0.04576458
vt 0.3895146 0.04576458
vt 0.3895146 0.04576458
vt 0.5 1.490116E-08
vt 0.5 1.490116E-08
vt 0.34375 0.15625
vt 0.34375 0.15625
vt 0.3895146 0.04576458
vt 0.3895146 0.04576458
vt 0.3895146 0.2667354
vt 0.3895146 0.2667354
vt 0.34375 0.15625
vt 0.34375 0.15625
vt 0.5 0.3125
vt 0.5 0.3125
vt 0.3895146 0.2667354
vt 0.3895146 0.2667354
vt 0.6104854 0.2667354
vt 0.6104854 0.2667354
vt 0.5 0.3125
vt 0.5 0.3125
vt 0.65625 0.15625
vt 0.65625 0.15625
vt 0.6104854 0.2667354
vt 0.6104854 0.2667354
vt 0.6104854 0.04576458
vt 0.6104854 0.04576458
vt 0.65625 0.15625
vt 0.65625 0.15625
vt 0.6104854 0.9542354
vt 0.5 0.8375
vt 0.5 1
vt 0.65625 0.84375
vt 0.3895146 0.9542354
vt 0.6104854 0.7332646
vt 0.34375 0.84375
vt 0.5 0.6875
vt 0.3895146 0.7332646
vn 0.3727506 -0.8999017 0.2263489
vn 0.3727507 -0.8999017 0.2263489
vn 0.3727506 -0.8999017 0.2263489
vn -0.3727497 -0.899902 0.226349
vn -0.3727497 -0.899902 0.226349
vn -0.3727497 -0.899902 0.226349
vn -0.8999007 -0.3727521 0.2263506
vn -0.8999007 -0.3727521 0.2263506
vn -0.8999007 -0.3727522 0.2263506
vn -0.8999003 0.372752 0.2263522
vn -0.8999003 0.372752 0.2263521
vn -0.8999003 0.372752 0.2263522
vn -0.3727502 0.899901 0.2263528
vn -0.3727501 0.899901 0.2263528
vn -0.3727502 0.899901 0.2263528
vn 0.3727495 0.8999012 0.2263529
vn 0.3727495 0.8999012 0.2263529
vn 0.3727496 0.8999012 0.2263529
vn 0.8999001 0.3727525 0.2263521
vn 0.8999001 0.3727526 0.2263521
vn 0.8999001 0.3727525 0.2263521
vn 0.8999005 -0.3727527 0.2263506
vn 0.8999005 -0.3727527 0.2263506
vn 0.8999005 -0.3727527 0.2263506
vn 0.3826834 -0.9238795 0
vn 0.3826834 -0.9238795 0
vn 0.3826835 -0.9238795 0
vn 0.3826835 -0.9238795 0
vn -0.3826835 -0.9238795 0
vn -0.3826835 -0.9238795 0
vn -0.3826834 -0.9238795 0
vn -0.3826834 -0.9238795 0
vn -0.9238795 -0.3826835 0
vn -0.9238795 -0.3826835 0
vn -0.9238795 -0.3826835 0
vn -0.9238795 -0.3826835 0
vn -0.9238795 0.3826835 0
vn -0.9238795 0.3826835 0
vn -0.9238795 0.3826835 0
vn -0.9238795 0.3826835 0
vn -0.3826835 0.9238795 0
vn -0.3826835 0.9238795 0
vn -0.3826835 0.9238795 0
vn -0.3826835 0.9238795 0
vn 0.3826834 0.9238795 0
vn 0.3826834 0.9238795 0
vn 0.3826834 0.9238795 0
vn 0.3826834 0.9238795 0
vn 0.9238795 0.3826835 0
vn 0.9238795 0.3826835 0
vn 0.9238795 0.3826835 0
vn 0.9238795 0.3826835 0
vn 0.9238794 -0.3826836 0
vn 0.9238794 -0.3826836 0
vn 0.9238794 -0.3826836 0
vn 0.9238794 -0.3826835 0
vn 0.1393671 -0.3364618 0.9313272
vn 0.1393671 -0.3364618 0.9313272
vn 0.1393671 -0.3364618 0.9313272
vn 0.1393671 -0.3364618 0.9313272
vn -0.139367 -0.3364617 0.9313273
vn -0.139367 -0.3364617 0.9313272
vn -0.139367 -0.3364617 0.9313272
vn -0.139367 -0.3364617 0.9313273
vn -0.3364618 -0.1393671 0.9313272
vn -0.3364618 -0.1393671 0.9313272
vn -0.3364618 -0.1393671 0.9313272
vn -0.3364618 -0.1393671 0.9313272
vn -0.3364618 0.139367 0.9313272
vn -0.3364618 0.139367 0.9313272
vn -0.3364618 0.1393671 0.9313272
vn -0.3364618 0.1393671 0.9313272
vn -0.139367 0.3364618 0.9313272
vn -0.1393671 0.3364618 0.9313272
vn -0.1393671 0.3364618 0.9313272
vn -0.1393671 0.3364618 0.9313272
vn 0.1393671 0.3364619 0.9313272
vn 0.1393671 0.3364619 0.9313272
vn 0.1393671 0.3364619 0.9313272
vn 0.1393671 0.3364619 0.9313272
vn 0.3364617 0.1393671 0.9313272
vn 0.3364618 0.1393671 0.9313272
vn 0.3364618 0.1393671 0.9313272
vn 0.3364617 0.1393671 0.9313272
vn 0.3364618 -0.1393671 0.9313272
vn 0.3364618 -0.1393671 0.9313272
vn 0.3364618 -0.1393671 0.9313272
vn 0.3364618 -0.1393671 0.9313272
vn 0.3826829 -0.9238797 4.702367E-07
vn 0.3826829 -0.9238797 4.702366E-07
vn 0.3826829 -0.9238797 4.702367E-07
vn 0.382683 -0.9238797 4.702367E-07
vn -0.3826828 -0.9238798 4.702365E-07
vn -0.3826828 -0.9238798 4.702365E-07
vn -0.3826828 -0.9238798 4.702365E-07
vn -0.3826829 -0.9238798 4.702365E-07
vn -0.9238793 -0.3826841 1.622318E-07
vn -0.9238793 -0.3826841 1.622318E-07
vn -0.9238793 -0.3826841 1.622318E-07
vn -0.9238793 -0.3826841 1.622318E-07
vn -0.9238794 0.3826839 -1.29903E-07
vn -0.9238793 0.3826839 -1.29903E-07
vn -0.9238793 0.3826839 -1.29903E-07
vn -0.9238793 0.3826839 -1.29903E-07
vn -0.3826825 0.9238799 -2.351183E-07
vn -0.3826825 0.9238799 -2.351183E-07
vn -0.3826824 0.9238799 -2.351183E-07
vn -0.3826824 0.9238799 -2.351183E-07
vn 0.3826826 0.9238799 -2.351184E-07
vn 0.3826826 0.9238799 -2.351184E-07
vn 0.3826826 0.9238799 -2.351184E-07
vn 0.3826826 0.9238798 -2.351183E-07
vn 0.9238791 0.3826844 -1.299029E-07
vn 0.9238791 0.3826843 -1.299029E-07
vn 0.9238791 0.3826844 -1.299029E-07
vn 0.9238791 0.3826844 -1.299029E-07
vn 0.9238791 -0.3826846 1.622318E-07
vn 0.9238791 -0.3826845 1.622318E-07
vn 0.9238791 -0.3826846 1.622318E-07
vn 0.9238791 -0.3826845 1.622318E-07
vn 0 0 -1
vn 0 0 -1
vn 0 0 -1
vn 0 0 -1
vn 0 0 -1
vn 0 0 -1
vn 0 0 -1
vn 0 0 -1
vn 0 0 -1
g NailMesh_0
f 3/3/3 2/2/2 1/1/1
f 6/6/6 5/5/5 4/4/4
f 9/9/9 8/8/8 7/7/7
f 12/12/12 11/11/11 10/10/10
f 15/15/15 14/14/14 13/13/13
f 18/18/18 17/17/17 16/16/16
f 21/21/21 20/20/20 19/19/19
f 24/24/24 23/23/23 22/22/22
f 27/27/27 26/26/26 25/25/25
f 28/28/28 27/27/27 25/25/25
f 31/31/31 30/30/30 29/29/29
f 32/32/32 31/31/31 29/29/29
f 35/35/35 34/34/34 33/33/33
f 36/36/36 35/35/35 33/33/33
f 39/39/39 38/38/38 37/37/37
f 40/40/40 39/39/39 37/37/37
f 43/43/43 42/42/42 41/41/41
f 44/44/44 43/43/43 41/41/41
f 47/47/47 46/46/46 45/45/45
f 48/48/48 47/47/47 45/45/45
f 51/51/51 50/50/50 49/49/49
f 52/52/52 51/51/51 49/49/49
f 55/55/55 54/54/54 53/53/53
f 56/56/56 55/55/55 53/53/53
f 59/59/59 58/58/58 57/57/57
f 60/60/60 59/59/59 57/57/57
f 63/63/63 62/62/62 61/61/61
f 64/64/64 63/63/63 61/61/61
f 67/67/67 66/66/66 65/65/65
f 68/68/68 67/67/67 65/65/65
f 71/71/71 70/70/70 69/69/69
f 72/72/72 71/71/71 69/69/69
f 75/75/75 74/74/74 73/73/73
f 76/76/76 75/75/75 73/73/73
f 79/79/79 78/78/78 77/77/77
f 80/80/80 79/79/79 77/77/77
f 83/83/83 82/82/82 81/81/81
f 84/84/84 83/83/83 81/81/81
f 87/87/87 86/86/86 85/85/85
f 88/88/88 87/87/87 85/85/85
f 91/91/91 90/90/90 89/89/89
f 92/92/92 91/91/91 89/89/89
f 95/95/95 94/94/94 93/93/93
f 96/96/96 95/95/95 93/93/93
f 99/99/99 98/98/98 97/97/97
f 100/100/100 99/99/99 97/97/97
f 103/103/103 102/102/102 101/101/101
f 104/104/104 103/103/103 101/101/101
f 107/107/107 106/106/106 105/105/105
f 108/108/108 107/107/107 105/105/105
f 111/111/111 110/110/110 109/109/109
f 112/112/112 111/111/111 109/109/109
f 115/115/115 114/114/114 113/113/113
f 116/116/116 115/115/115 113/113/113
f 119/119/119 118/118/118 117/117/117
f 120/120/120 119/119/119 117/117/117
f 123/123/123 122/122/122 121/121/121
f 121/121/121 122/122/122 124/124/124
f 125/125/125 122/122/122 123/123/123
f 124/124/124 122/122/122 126/126/126
f 127/127/127 122/122/122 125/125/125
f 126/126/126 122/122/122 128/128/128
f 129/129/129 122/122/122 127/127/127
f 128/128/128 122/122/122 129/129/129
