g RailPieceMesh
v -2.392621 0.118968 0.7784718
v 2.39262 0.1189685 0.7784696
v 2.392619 6.548331E-07 0.7784696
v -2.392617 2.991275E-07 0.7784718
v -2.392621 0.1189683 0.6005526
v 2.392619 0.1189685 0.6005509
v 2.39262 0.1189685 0.7784696
v -2.392621 0.118968 0.7784718
v -2.392617 5.534724E-07 0.6005526
v 2.392619 6.548331E-07 0.6005509
v 2.392619 0.1189685 0.6005509
v -2.392621 0.1189683 0.6005526
v -2.392621 0.1189684 -0.6006082
v 2.392618 0.1189686 -0.6006099
v 2.392619 7.396148E-07 -0.6006099
v -2.392617 6.382541E-07 -0.600608
v -2.392621 0.1189681 -0.7785265
v 2.392621 0.1189686 -0.7785283
v 2.392618 0.1189686 -0.6006099
v -2.392621 0.1189684 -0.6006082
v -2.392617 3.839092E-07 -0.7785265
v 2.392621 7.396151E-07 -0.7785283
v 2.392621 0.1189686 -0.7785283
v -2.392621 0.1189681 -0.7785265
v -1.415008 -6.397565E-05 -0.99228
v -1.88969 -6.439212E-05 -0.9922799
v -1.889689 -6.345952E-05 0.9922812
v -1.41501 -6.312783E-05 0.9922811
v -1.41501 -6.312783E-05 0.9922811
v -1.889689 -6.345952E-05 0.9922812
v -1.889693 0.04779095 0.9922808
v -1.41501 0.04779128 0.9922811
v -1.889693 0.04778985 -0.99228
v -1.415008 0.04779034 -0.9922802
v -1.41501 0.04779128 0.9922811
v -1.889693 0.04779095 0.9922808
v -1.88969 -6.439212E-05 -0.9922799
v -1.415008 -6.397565E-05 -0.99228
v -1.415008 0.04779034 -0.9922802
v -1.889693 0.04778985 -0.99228
v 0.1981089 -6.396719E-05 -0.9922804
v -0.2765727 -6.429887E-05 -0.9922807
v -0.2765728 -6.336626E-05 0.9922801
v 0.1981068 -6.311937E-05 0.9922805
v 0.1981068 -6.311937E-05 0.9922805
v -0.2765728 -6.336626E-05 0.9922801
v -0.2765768 0.04779113 0.9922801
v 0.1981068 0.04779129 0.9922805
v -0.2765768 0.04779002 -0.9922807
v 0.1981089 0.04779036 -0.9922802
v 0.1981068 0.04779129 0.9922805
v -0.2765768 0.04779113 0.9922801
v -0.2765727 -6.429887E-05 -0.9922807
v 0.1981089 -6.396719E-05 -0.9922804
v 0.1981089 0.04779036 -0.9922802
v -0.2765768 0.04779002 -0.9922807
v 1.822861 -6.387204E-05 -0.9922808
v 1.34818 -6.437329E-05 -0.9922812
v 1.348181 -6.344069E-05 0.9922798
v 1.82286 -6.302423E-05 0.9922797
v 1.82286 -6.302423E-05 0.9922797
v 1.348181 -6.344069E-05 0.9922798
v 1.348177 0.04779105 0.9922798
v 1.82286 0.04779147 0.9922797
v 1.348176 0.04778995 -0.9922812
v 1.822862 0.04779054 -0.9922808
v 1.82286 0.04779147 0.9922797
v 1.348177 0.04779105 0.9922798
v 1.34818 -6.437329E-05 -0.9922812
v 1.822861 -6.387204E-05 -0.9922808
v 1.822862 0.04779054 -0.9922808
v 1.348176 0.04778995 -0.9922812
vt 1 0.8739079
vt 1 0.3386007
vt 0 0.3386007
vt 0 0.873827
vt 1 0.8739079
vt 1 0.3386007
vt 0 0.3386007
vt 0 0.8739079
vt 1 0.8738269
vt 1 0.3386006
vt 0 0.3386007
vt 0 0.8739079
vt 1 0.873908
vt 1 0.3386007
vt 0 0.3386007
vt 0 0.873827
vt 1 0.8739079
vt 1 0.3386007
vt 0 0.3386007
vt 0 0.873908
vt 1 0.8738269
vt 1 0.3386007
vt 0 0.3386007
vt 0 0.8739079
vt 0 0.1404111
vt 0 0.1404111
vt 0.8486355 0
vt 0.8486354 0
vt 0.8486354 0
vt 0.8486355 0
vt 0.8486355 0
vt 0.8486355 0
vt 0 0.1404111
vt 0 0.1404111
vt 0.8486355 0
vt 0.8486355 0
vt 0 0.1404111
vt 0 0.1404111
vt 0 0.1404111
vt 0 0.1404111
vt 0 0.1404111
vt 0 0.1404111
vt 0.8486355 0
vt 0.8486354 0
vt 0.8486354 0
vt 0.8486355 0
vt 0.8486355 0
vt 0.8486355 0
vt 0 0.1404111
vt 0 0.1404111
vt 0.8486355 0
vt 0.8486355 0
vt 0 0.1404111
vt 0 0.1404111
vt 0 0.1404111
vt 0 0.1404111
vt 0 0.1404111
vt 0 0.1404111
vt 0.8486355 0
vt 0.8486354 0
vt 0.8486354 0
vt 0.8486355 0
vt 0.8486355 0
vt 0.8486355 0
vt 0 0.1404111
vt 0 0.1404111
vt 0.8486355 0
vt 0.8486355 0
vt 0 0.1404111
vt 0 0.1404111
vt 0 0.1404111
vt 0 0.1404111
vn 4.339442E-07 0 1
vn 4.339442E-07 0 1
vn 4.339442E-07 0 1
vn 4.339443E-07 0 1
vn 0 1 7.147769E-07
vn 0 1 7.147768E-07
vn 0 1 7.147769E-07
vn 0 1 7.147768E-07
vn -3.520508E-07 0 -1
vn -3.520508E-07 0 -1
vn -3.520508E-07 0 -1
vn -3.520508E-07 0 -1
vn 3.520508E-07 0 1
vn 3.520508E-07 0 1
vn 3.520508E-07 0 1
vn 3.520508E-07 0 1
vn 0 1 -9.530388E-07
vn 0 1 -9.530388E-07
vn 0 1 -9.530388E-07
vn 0 1 -9.530388E-07
vn -3.520507E-07 0 -1
vn -3.520507E-07 0 -1
vn -3.520507E-07 0 -1
vn -3.520507E-07 0 -1
vn 7.880481E-07 -1 4.485665E-07
vn 7.880482E-07 -1 4.485666E-07
vn 7.880479E-07 -1 4.485665E-07
vn 7.880481E-07 -1 4.485665E-07
vn 0 4.094483E-06 1
vn 0 4.094483E-06 1
vn 0 4.094483E-06 1
vn 0 4.094483E-06 1
vn -8.773461E-07 1 -5.126475E-07
vn -8.77346E-07 1 -5.126475E-07
vn -8.77346E-07 1 -5.126475E-07
vn -8.773461E-07 1 -5.126475E-07
vn -6.010396E-07 -4.094526E-06 -1
vn -6.010396E-07 -4.094526E-06 -1
vn -6.010396E-07 -4.094526E-06 -1
vn -6.010396E-07 -4.094526E-06 -1
vn 6.094399E-07 -1 4.485667E-07
vn 6.094399E-07 -1 4.485667E-07
vn 6.094399E-07 -1 4.485667E-07
vn 6.094399E-07 -1 4.485667E-07
vn -6.372993E-07 0 1
vn -6.372994E-07 0 1
vn -6.372993E-07 0 1
vn -6.372993E-07 0 1
vn -5.201327E-07 1 -5.126475E-07
vn -5.201327E-07 1 -5.126475E-07
vn -5.201327E-07 1 -5.126475E-07
vn -5.201327E-07 1 -5.126475E-07
vn 8.436841E-07 2.047297E-06 -1
vn 8.436842E-07 2.047297E-06 -1
vn 8.436841E-07 2.047297E-06 -1
vn 8.436842E-07 2.047297E-06 -1
vn 9.666558E-07 -1 4.485664E-07
vn 9.666558E-07 -1 4.485664E-07
vn 9.666559E-07 -1 4.485664E-07
vn 9.666558E-07 -1 4.485664E-07
vn 0 0 1
vn 0 0 1
vn 0 0 1
vn 0 0 1
vn -1.055952E-06 1 -5.126476E-07
vn -1.055952E-06 1 -5.126477E-07
vn -1.055952E-06 1 -5.126476E-07
vn -1.055952E-06 1 -5.126476E-07
vn 6.372957E-07 0 -1
vn 6.372957E-07 0 -1
vn 6.372958E-07 0 -1
vn 6.372957E-07 0 -1
g RailPieceMesh_0
f 3/3/3 2/2/2 1/1/1
f 4/4/4 3/3/3 1/1/1
f 7/7/7 6/6/6 5/5/5
f 8/8/8 7/7/7 5/5/5
f 11/11/11 10/10/10 9/9/9
f 12/12/12 11/11/11 9/9/9
f 15/15/15 14/14/14 13/13/13
f 16/16/16 15/15/15 13/13/13
f 19/19/19 18/18/18 17/17/17
f 20/20/20 19/19/19 17/17/17
f 23/23/23 22/22/22 21/21/21
f 24/24/24 23/23/23 21/21/21
g RailPieceMesh_1
f 27/27/27 26/26/26 25/25/25
f 28/28/28 27/27/27 25/25/25
f 31/31/31 30/30/30 29/29/29
f 32/32/32 31/31/31 29/29/29
f 35/35/35 34/34/34 33/33/33
f 36/36/36 35/35/35 33/33/33
f 39/39/39 38/38/38 37/37/37
f 40/40/40 39/39/39 37/37/37
f 43/43/43 42/42/42 41/41/41
f 44/44/44 43/43/43 41/41/41
f 47/47/47 46/46/46 45/45/45
f 48/48/48 47/47/47 45/45/45
f 51/51/51 50/50/50 49/49/49
f 52/52/52 51/51/51 49/49/49
f 55/55/55 54/54/54 53/53/53
f 56/56/56 55/55/55 53/53/53
f 59/59/59 58/58/58 57/57/57
f 60/60/60 59/59/59 57/57/57
f 63/63/63 62/62/62 61/61/61
f 64/64/64 63/63/63 61/61/61
f 67/67/67 66/66/66 65/65/65
f 68/68/68 67/67/67 65/65/65
f 71/71/71 70/70/70 69/69/69
f 72/72/72 71/71/71 69/69/69
