g SandMesh
v -4.777983 0.0151931 -1.508533
v 4.777982 0.01519301 -1.508533
v 3.749994 0.9302704 -1.508533
v 2.517988 1.774665 -1.508533
v 0.4457175 2.821243 -1.508532
v -4.777983 3.573564 -1.508533
v 3.749994 0.9302693 1.508533
v 4.777982 0.0151918 1.508532
v -4.777983 0.0151918 1.508532
v 2.517988 1.774663 1.508533
v 0.4457175 2.821242 1.508533
v -4.777983 3.573562 1.508533
v 4.777982 0.01519301 -1.508533
v -4.777983 0.0151931 -1.508533
v -4.777983 0.0151918 1.508532
v 4.777982 0.0151918 1.508532
v -4.777983 0.0151931 -1.508533
v -4.777983 3.573564 -1.508533
v -4.777983 3.573562 1.508533
v -4.777983 0.0151918 1.508532
v -4.777983 3.573564 -1.508533
v 0.4457175 2.821243 -1.508532
v 0.4457175 2.821242 1.508533
v -4.777983 3.573562 1.508533
v 3.749994 0.9302704 -1.508533
v 4.777982 0.01519301 -1.508533
v 4.777982 0.0151918 1.508532
v 3.749994 0.9302693 1.508533
v 2.517988 1.774665 -1.508533
v 2.517988 1.774663 1.508533
v 0.4457175 2.821243 -1.508532
v 0.4457175 2.821242 1.508533
vt 0 0
vt 1 0
vt 1 0.4773203
vt 0.9468718 0.86933
vt 0.7874871 1
vt 0 1
vt 0 0.4773203
vt 0 0
vt 1 0
vt 0.05312822 0.86933
vt 0.2125129 1
vt 1 1
vt 0 0
vt 1 0
vt 1 1
vt 0 1
vt 0 0
vt 1 0
vt 1 1
vt 0 1
vt 0 0
vt 0.7874871 0
vt 0.7874871 1
vt 0 1
vt 0.5226797 0
vt 1 0
vt 1 1
vt 0.5226797 1
vt 0.02090481 -4.750033E-08
vt 0.02090478 0.9999999
vt -0.4808701 -9.500065E-08
vt -0.4808701 0.9999999
vn 0 0 -1
vn 0 0 -1
vn 0 0 -1
vn 0 0 -1
vn 0 0 -1
vn 0 0 -1
vn 0 -3.904957E-07 1
vn 0 -3.904957E-07 1
vn 0 -3.904957E-07 1
vn 0 -3.904957E-07 1
vn 0 -3.904957E-07 1
vn 0 -3.904957E-07 1
vn 0 -1 -4.122689E-07
vn 0 -1 -4.122689E-07
vn 0 -1 -4.122689E-07
vn 0 -1 -4.122689E-07
vn -1 0 0
vn -1 0 0
vn -1 0 0
vn -1 0 0
vn 0.1425499 0.9897877 4.470356E-07
vn 0.3006309 0.9537406 4.120812E-07
vn 0.3006309 0.9537406 4.120812E-07
vn 0.1425499 0.9897877 4.470356E-07
vn 0.6163512 0.7874714 0
vn 0.6648954 0.7469364 0
vn 0.6648954 0.7469365 0
vn 0.6163512 0.7874714 0
vn 0.5092037 0.8606461 0
vn 0.5092037 0.860646 0
vn 0.3006309 0.9537406 4.120812E-07
vn 0.3006309 0.9537406 4.120812E-07
g SandMesh_0
f 3/3/3 2/2/2 1/1/1
f 1/1/1 4/4/4 3/3/3
f 1/1/1 5/5/5 4/4/4
f 1/1/1 6/6/6 5/5/5
f 9/9/9 8/8/8 7/7/7
f 7/7/7 10/10/10 9/9/9
f 10/10/10 11/11/11 9/9/9
f 11/11/11 12/12/12 9/9/9
f 15/15/15 14/14/14 13/13/13
f 16/16/16 15/15/15 13/13/13
f 19/19/19 18/18/18 17/17/17
f 20/20/20 19/19/19 17/17/17
f 23/23/23 22/22/22 21/21/21
f 24/24/24 23/23/23 21/21/21
f 27/27/27 26/26/26 25/25/25
f 28/28/28 27/27/27 25/25/25
f 28/28/28 25/25/25 29/29/29
f 30/30/30 28/28/28 29/29/29
f 30/30/30 29/29/29 31/31/31
f 32/32/32 30/30/30 31/31/31
