g ShieldPartMesh05
v -0.2496324 -0.04277395 0.04454198
v -0.2496324 -0.04266144 0.02607836
v -0.2538916 -0.04002731 0.0432682
v -0.2496324 -0.04266144 0.02607836
v -0.1997654 -0.07481965 0.04099151
v -0.1958132 -0.07725983 0.02437897
v -0.08104543 -0.03193347 0.02462898
v -0.1997654 -0.07481965 0.04099151
v 2.322456E-18 0.001582932 0.03107139
v 0.07580963 0.03003284 0.02504519
v 0.07575737 0.03208564 0.03365874
v 0.04169767 0.1289306 0.08075237
v 0.03706995 0.1289306 0.02812468
v 0.05416142 0.09711213 0.07976162
v 0.05416142 0.09711213 0.07976162
v 0.03706995 0.1289306 0.02812468
v 0.0527095 0.09711213 0.06325006
v 0.0527095 0.09711213 0.06325006
v 0.03706995 0.1289306 0.02812468
v 0.06746817 0.05943508 0.06207681
v 0.07561851 0.03753222 0.05651233
v 0.03706995 0.1289306 0.02812468
v 0.07563254 0.03698153 0.05420187
v -0.2496324 0.1295359 0.04454198
v -0.273584 0.118051 0.03737894
v -0.2496324 0.1308376 0.02607836
v -0.273584 0.118051 0.03737894
v -0.273584 0.1219169 -0.01745327
v -0.2496324 0.1308376 0.02607836
v -0.1915925 -0.03193347 0.007067151
v -0.273584 -0.02013484 -0.01745327
v -0.273584 -0.02699342 -0.01745327
v -0.256056 -0.03829703 -0.01221134
v -0.1915925 -0.03193347 0.007067151
v -0.256056 -0.03829703 -0.01221134
v -0.1916879 -0.07980689 0.007038634
v -0.1915925 -0.07976245 0.007067151
v -0.1159246 -0.03193347 0.0218564
v -0.1915925 -0.03193347 0.007067151
v -0.1915925 -0.07976245 0.007067151
v -0.1159246 -0.0463578 0.0218564
v -0.08104543 -0.03193347 0.02462898
v -0.273584 0.05943508 -0.01745327
v -0.273584 -0.02013484 -0.01745327
v -0.1915925 -0.03193347 0.007067151
v -0.1915925 0.05943508 0.007067151
v -0.1572424 0.1289306 0.01378085
v -0.1159246 0.05943508 0.0218564
v -0.1159246 -0.03193347 0.0218564
v -0.1159246 0.1289306 0.0218564
v -0.08104543 -0.03193347 0.02462898
v -6.542577E-18 0.05943508 0.03107139
v -1.382993E-18 0.1289306 0.03107139
v 0.03706995 0.1289306 0.02812468
v 2.322456E-18 0.001582932 0.03107139
v 0.06429236 0.05943508 0.02596073
v 0.07580963 0.03003284 0.02504519
v -0.2496324 0.05943508 0.02607836
v -0.2496324 0.1308376 0.02607836
v -0.191641 0.1586436 0.04343572
v -0.1916559 0.09711213 0.04343575
v -0.1915925 0.05943508 0.04343575
v -0.1159246 0.09711213 0.05822498
v -0.1159246 0.05943508 0.05822498
v -0.2496324 -0.02013484 0.02607836
v -2.118871E-18 0.09711213 0.06743997
v -0.1915925 -0.02515438 0.04343575
v -0.2496324 -0.04002731 0.02607836
v -0.1159246 -0.02515438 0.05822498
v -0.0858226 -0.02515438 0.0606178
v -0.1915925 -0.05477554 0.04343575
v -2.281147E-17 0.01033769 0.06743997
v -3.138235E-18 0.05943508 0.06743997
v 0.0527095 0.09711213 0.06325006
v 0.06746817 0.05943508 0.06207681
v 0.07558861 0.03870456 0.06143132
v -0.1997654 -0.07481965 0.04099151
v -0.2496324 -0.04266144 0.02607836
v -0.1915925 -0.07100779 0.04343575
v -0.1548235 -0.05477554 0.0506222
v -0.273584 -0.02699342 -0.01745327
v -0.273584 -0.02732789 0.03737894
v -0.256056 -0.03829703 -0.01221134
v -0.2496324 -0.04266144 0.02607836
v -0.2538916 -0.04002731 0.0432682
v -0.1917033 -0.07979741 0.007103473
v -0.1916879 -0.07980689 0.007038634
v -0.1958132 -0.07725983 0.02437897
v -0.1916879 -0.07980689 0.007038634
v -0.1917033 -0.07979741 0.007103473
v -0.1915925 -0.07976245 0.007067151
v -0.1159246 -0.0463578 0.0218564
v -0.1958132 -0.07725983 0.02437897
v -0.0938966 -0.02515438 0.07384694
v -0.0858226 -0.02515438 0.0606178
v -0.1159246 -0.03426407 0.07209587
v -0.1623869 -0.05477554 0.06301486
v -0.1548235 -0.05477554 0.0506222
v 0.07561851 0.03753222 0.05651233
v 0.07560518 0.03805438 0.05870318
v -2.281147E-17 0.01033769 0.06743997
v 0.07558861 0.03870456 0.06143132
v -0.1958132 -0.07725983 0.02437897
v -0.1997654 -0.07481965 0.04099151
v -0.1159246 -0.0463578 0.0218564
v -0.08104543 -0.03193347 0.02462898
v -0.1997654 -0.07481965 0.04099151
v -0.1915925 -0.07100779 0.04343575
v 2.322456E-18 0.001582932 0.03107139
v -0.1548235 -0.05477554 0.0506222
v 0.07563254 0.03698153 0.05420187
v 0.07568946 0.03474886 0.04483408
v 0.07574332 0.03263372 0.03595859
v 0.07575737 0.03208564 0.03365874
v -0.1548235 -0.05477554 0.0506222
v -0.0858226 -0.02515438 0.0606178
v 0.07561851 0.03753222 0.05651233
v 0.07563254 0.03698153 0.05420187
v 0.07580963 0.03003284 0.02504519
v 0.07575737 0.03208564 0.03365874
v 0.06429236 0.05943508 0.02596073
v 0.03706995 0.1289306 0.02812468
v 0.06746817 0.05943508 0.06207681
v 0.03706995 0.1289306 0.02812468
v 0.07558861 0.03870456 0.06143132
v 0.07560518 0.03805438 0.05870318
v 0.07561851 0.03753222 0.05651233
v 0.07563254 0.03698153 0.05420187
v 0.03706995 0.1289306 0.02812468
v 0.07568946 0.03474886 0.04483408
v 0.07574332 0.03263372 0.03595859
v 0.07575737 0.03208564 0.03365874
v -0.273584 0.1219169 -0.01745327
v -0.273584 0.05943508 -0.01745327
v -0.1572424 0.1289306 0.01378085
v -0.1572424 0.1779537 0.01378085
v -0.273584 0.1219169 -0.01745327
v -0.1572424 0.1779537 0.01378085
v -0.2496324 0.1308376 0.02607836
v -0.191641 0.1586436 0.04343572
v -0.1916413 0.1574711 0.06006277
v -0.1572424 0.1742173 0.06677645
v -0.1623869 -0.05477554 0.06301486
v -0.1915925 -0.05477554 0.05730668
v -0.1915925 -0.02515438 0.05730668
v -0.1159246 -0.03426407 0.07209587
v -0.1159246 -0.02515438 0.07209587
v -0.0938966 -0.02515438 0.07384694
v -0.1159246 -0.02515438 0.05822498
v -0.1915925 -0.02515438 0.05730668
v -0.1915925 -0.02515438 0.04343575
v -0.1159246 -0.02515438 0.07209587
v -0.0938966 -0.02515438 0.07384694
v -0.0858226 -0.02515438 0.0606178
v -0.1915925 -0.02515438 0.04343575
v -0.1915925 -0.02515438 0.05730668
v -0.1915925 -0.05477554 0.05730668
v -0.1915925 -0.05477554 0.04343575
v -0.1915925 -0.05477554 0.04343575
v -0.1915925 -0.05477554 0.05730668
v -0.1623869 -0.05477554 0.06301486
v -0.1548235 -0.05477554 0.0506222
v -0.2538916 -0.04002731 0.0432682
v -0.2496324 -0.04002731 0.04454198
v -0.2496324 -0.04277395 0.04454198
v -0.1572424 0.1289306 0.06677645
v -0.1916559 0.09711213 0.06006277
v -0.1916413 0.1574711 0.06006277
v -0.1572424 0.1742173 0.06677645
v -0.1159246 0.1289306 0.07485199
v -0.1916559 0.09711213 0.06006277
v -0.1572424 0.1289306 0.06677645
v -0.1159246 0.09711213 0.07485199
v 3.337921E-18 0.1289306 0.08406699
v 3.714392E-19 0.09711213 0.08406699
v 0.05416142 0.09711213 0.07976162
v 0.04169767 0.1289306 0.08075237
v -0.2496324 0.05943508 0.04454198
v -0.273584 0.05943508 0.03737894
v -0.273584 0.118051 0.03737894
v -0.2496324 0.1295359 0.04454198
v -0.273584 -0.02013484 0.03737894
v -0.2496324 -0.02013484 0.04454198
v -0.2496324 -0.04002731 0.04454198
v -0.2538916 -0.04002731 0.0432682
v -0.273584 -0.02732789 0.03737894
v -0.2496324 -0.02013484 0.04454198
v -0.273584 -0.02013484 0.03737894
v -0.273584 0.05943508 0.03737894
v -0.2496324 0.05943508 0.04454198
v -1.382993E-18 0.1289306 0.03107139
v -0.1159246 0.1289306 0.07485199
v -0.1159246 0.1289306 0.0218564
v 3.337921E-18 0.1289306 0.08406699
v 0.04169767 0.1289306 0.08075237
v 0.03706995 0.1289306 0.02812468
v -0.1572424 0.1289306 0.01378085
v -0.1572424 0.1289306 0.06677645
v -0.1572424 0.1742173 0.06677645
v -0.1572424 0.1779537 0.01378085
v -0.1159246 0.1289306 0.0218564
v -0.1159246 0.1289306 0.07485199
v -0.1572424 0.1289306 0.06677645
v -0.1572424 0.1289306 0.01378085
v -0.273584 -0.02013484 -0.01745327
v -0.273584 -0.02013484 0.03737894
v -0.273584 -0.02732789 0.03737894
v -0.273584 -0.02699342 -0.01745327
v -0.273584 0.05943508 -0.01745327
v -0.273584 0.05943508 0.03737894
v -0.273584 -0.02013484 0.03737894
v -0.273584 -0.02013484 -0.01745327
v -0.1159246 0.09711213 0.05822498
v -0.1159246 0.09711213 0.07485199
v 3.714392E-19 0.09711213 0.08406699
v -2.118871E-18 0.09711213 0.06743997
v 0.05416142 0.09711213 0.07976162
v 0.0527095 0.09711213 0.06325006
v -0.1916559 0.09711213 0.04343575
v -0.1916559 0.09711213 0.06006277
v -0.1159246 0.09711213 0.07485199
v -0.1159246 0.09711213 0.05822498
v -0.2496324 0.05943508 0.02607836
v -0.2496324 0.05943508 0.04454198
v -0.2496324 0.1295359 0.04454198
v -0.2496324 0.1308376 0.02607836
v -0.2496324 -0.04002731 0.02607836
v -0.2496324 -0.04002731 0.04454198
v -0.2496324 -0.02013484 0.04454198
v -0.2496324 -0.02013484 0.02607836
v -0.2496324 -0.02013484 0.02607836
v -0.2496324 -0.02013484 0.04454198
v -0.2496324 0.05943508 0.04454198
v -0.2496324 0.05943508 0.02607836
v -0.2496324 -0.04277395 0.04454198
v -0.2496324 -0.04002731 0.04454198
v -0.2496324 -0.04002731 0.02607836
v -0.2496324 -0.04266144 0.02607836
v -0.273584 0.118051 0.03737894
v -0.273584 0.05943508 0.03737894
v -0.273584 0.05943508 -0.01745327
v -0.273584 0.1219169 -0.01745327
v -0.1916413 0.1574711 0.06006277
v -0.1916559 0.09711213 0.06006277
v -0.1916559 0.09711213 0.04343575
v -0.191641 0.1586436 0.04343572
vt 0.9654811 0
vt 0.0331037 0
vt 0 0.1778249
vt 0.0331037 0
vt 0.3518254 0.0922152
vt 0.1976707 0.03634971
vt 0.4594176 0.1244128
vt 0.3518254 0.0922152
vt 0.5 0.1358223
vt 0.5379606 0.1455071
vt 0.5379264 0.1424635
vt 0.4837114 0.1895016
vt 0.4790769 0.1857298
vt 0.5271206 0.25
vt 0.5271206 0.25
vt 0.4790769 0.1857298
vt 0.5263936 0.155516
vt 0.5263936 0.155516
vt 0.4790769 0.1857298
vt 0.5337838 0.155516
vt 0.5378649 0.1474624
vt 0.4790769 0.1857298
vt 0.537872 0.1478725
vt 0.2336687 0
vt 0.1887482 1
vt 0.375 0.1701358
vt 0.1887482 1
vt 0 0.6005983
vt 0.375 0.1701358
vt 0.4040627 0.1205249
vt 1 1
vt 0.6552134 1
vt 0.0863798 0.8119874
vt 0.4040627 0.1205249
vt 0.8726016 0.8119874
vt 0.404756 0.1052545
vt 0.4040627 0.1042432
vt 0.4419523 0.116637
vt 0.4040627 0.1205249
vt 0.4040627 0.1042432
vt 0.4419523 0.1127088
vt 0.4594176 0.116637
vt 0.6875 0.575493
vt 0 1
vt 0.4040627 0.1205249
vt 0.4040627 0.155516
vt 0.4040627 0.155516
vt 0.4419523 0.155516
vt 0.4419523 0.1244128
vt 0.4419523 0.25
vt 0.4594176 0.1244128
vt 0.5 0.155516
vt 0.4419523 0.155516
vt 0.4790769 0.1857298
vt 0.5 0.1358223
vt 0.5321935 0.155516
vt 0.5379606 0.1455071
vt 0.375 0.1509861
vt 0.375 0.1701358
vt 0.4040627 0.1776534
vt 0.4040627 0.155516
vt 0.4040627 0.155516
vt 0.4419523 0.155516
vt 0.4419523 0.155516
vt 0.375 0.1245
vt 0.5 0.155516
vt 0.4040627 0.1244128
vt 0.375 0.1178785
vt 0.4419523 0.1244128
vt 0.4570255 0.1244128
vt 0.4040627 0.116637
vt 0.5 0.1374631
vt 0.5 0.155516
vt 0.5263936 0.155516
vt 0.5337838 0.155516
vt 0.53785 0.1478935
vt 0.3999701 0.108691
vt 0.375 0.1170017
vt 0.4040627 0.1106685
vt 0.4224743 0.116637
vt 0.6552134 1
vt 0.6384022 1
vt 0.8726016 0.8119874
vt 0.0331037 0
vt 0 0.1778249
vt 0.4033544 0.1040082
vt 0.404756 0.1052545
vt 0.1976707 0.03634971
vt 0.404756 0.1052545
vt 0.4033544 0.1040082
vt 0.4040627 0.1042432
vt 0.4419523 0.1127088
vt 0.1976707 0.03634971
vt 0.4529826 0.1244128
vt 0.4570255 0.1244128
vt 0.4419523 0.1220214
vt 0.418687 0.116637
vt 0.4224743 0.116637
vt 0.5378649 0.1474624
vt 0.5378583 0.1476544
vt 0.5 0.1374631
vt 0.53785 0.1478935
vt 0.1976707 0.03634971
vt 0.3518254 0.0922152
vt 0.4419523 0.1127088
vt 0.4594176 0.1244128
vt 0.3518254 0.0922152
vt 0.4040627 0.1106685
vt 0.5 0.1358223
vt 0.4224743 0.116637
vt 0.537872 0.1478725
vt 0.5379004 0.1471125
vt 0.5379205 0.1436065
vt 0.5379264 0.1424635
vt 0.4224743 0.116637
vt 0.4570255 0.1244128
vt 0.5378649 0.1474624
vt 0.537872 0.1478725
vt 0.5379606 0.1455071
vt 0.5379264 0.1424635
vt 0.5321935 0.155516
vt 0.4790769 0.1857298
vt 0.5337838 0.155516
vt 0.4790769 0.1857298
vt 0.53785 0.1478935
vt 0.5378583 0.1476544
vt 0.5378649 0.1474624
vt 0.537872 0.1478725
vt 0.4790769 0.1857298
vt 0.5379004 0.1471125
vt 0.5379205 0.1436065
vt 0.5379264 0.1424635
vt 0 0.6005983
vt 0 0.5
vt 0.4040627 0.155516
vt 0.4040627 0.1787938
vt 0 0.6005983
vt 0.4040627 0.1787938
vt 0.375 0.1701358
vt 0.4040627 0.1776534
vt 0.5959373 0.1555161
vt 0.4040627 0.2284964
vt 0.418687 0.116637
vt 0.4040627 0.116637
vt 0.4040627 0.1244128
vt 0.4419523 0.1220214
vt 0.4419523 0.1244128
vt 0.4529826 0.1244128
vt 0.4419523 0.1244128
vt 0.4040627 0.1244128
vt 0.4040627 0.1244128
vt 0.4419523 0.1244128
vt 0.4529826 0.1244128
vt 0.4570255 0.1244128
vt 0.4040627 0.1244128
vt 0.4040627 0.1244128
vt 0.4040627 0.116637
vt 0.4040627 0.116637
vt 0.4040627 0.116637
vt 0.4040627 0.116637
vt 0.418687 0.116637
vt 0.4224743 0.116637
vt 1 0.1778249
vt 1 0
vt 0.9654811 0
vt 0.4040627 0.25
vt 0.5959373 0.1555161
vt 0.5959373 0.1555161
vt 0.4040627 0.2284964
vt 0.5 0.155516
vt 0.5959373 0.1555161
vt 0.4040627 0.25
vt 0.4419523 0.25
vt 0.4419523 0.155516
vt 0.5 0.25
vt 0.5271206 0.25
vt 0.4837114 0.1895016
vt 0 0
vt 0 1
vt 0.1887482 1
vt 0.2336687 0
vt 1 1
vt 1 0
vt 0 0
vt 0 0.1778249
vt 0.6384022 1
vt 0 0
vt 0 1
vt 1 1
vt 1 0
vt 0.4419523 0.155516
vt 0.5 0.155516
vt 0.4419523 0.25
vt 0.4419523 0.155516
vt 0.4837114 0.1895016
vt 0.4790769 0.1857298
vt 0.4040627 0.155516
vt 0.4040627 0.25
vt 0.4040627 0.2284964
vt 0.4040627 0.1787938
vt 0.4419523 0.25
vt 0.5 0.155516
vt 0.4040627 0.25
vt 0.4040627 0.155516
vt 1 1
vt 1 1
vt 0.6384022 1
vt 0.6552134 1
vt 0.6875 0.575493
vt 1 1
vt 0 1
vt 0 1
vt 0.4419523 0.155516
vt 0.4419523 0.25
vt 0.5 0.25
vt 0.5 0.155516
vt 0.5271206 0.25
vt 0.5263936 0.155516
vt 0.4040627 0.155516
vt 0.5959373 0.1555161
vt 0.4419523 0.25
vt 0.4419523 0.155516
vt 1 0
vt 0 0
vt 0.2336687 0
vt 0.7619921 0
vt 1 0
vt 0 0
vt 1 0
vt 0 0
vt 1 0
vt 0 0
vt 1 0
vt 0 0
vt 0.9654811 0
vt 1 0
vt 0 0
vt 0.0331037 0
vt 0.1887482 1
vt 0 1
vt 0 0.5
vt 0 0.6005983
vt 0.5959373 0.1555161
vt 0.5959373 0.1555161
vt 0.4040627 0.155516
vt 0.4040627 0.1776534
vn -0.5408629 -0.8410951 -0.005125173
vn -0.5408713 -0.8410897 -0.005132384
vn -0.5408725 -0.841089 -0.005128358
vn -0.5408713 -0.8410897 -0.005132384
vn -0.5408689 -0.8410912 -0.005129744
vn -0.5408691 -0.8410912 -0.005129027
vn 0.3580407 -0.9077749 0.2185214
vn 0.3580404 -0.9077755 0.2185193
vn 0.3580401 -0.9077753 0.218521
vn 0.3580412 -0.9077763 0.2185147
vn 0.358041 -0.907776 0.2185162
vn 0.9271489 0.365716 -0.08152708
vn 0.9271488 0.3657163 -0.08152713
vn 0.9271488 0.3657162 -0.08152713
vn 0.9271488 0.3657162 -0.08152713
vn 0.9271488 0.3657163 -0.08152713
vn 0.9271486 0.365717 -0.08152646
vn 0.9271486 0.365717 -0.08152646
vn 0.9271488 0.3657163 -0.08152713
vn 0.9271488 0.365716 -0.08152889
vn 0.9271489 0.3657159 -0.08152773
vn 0.9271488 0.3657163 -0.08152713
vn 0.9271488 0.3657157 -0.08153021
vn -0.4467485 0.8924442 0.06292091
vn -0.446749 0.892444 0.06292183
vn -0.446746 0.8924456 0.06291987
vn -0.446749 0.892444 0.06292183
vn -0.4467459 0.8924456 0.06292003
vn -0.446746 0.8924456 0.06291987
vn 0.2363977 0 -0.9716564
vn 0.286522 0 -0.9580736
vn 0.286522 0 -0.9580736
vn 0.2865221 0 -0.9580736
vn 0.2363977 0 -0.9716564
vn 0.2865221 0 -0.9580736
vn 0.2865221 0 -0.9580736
vn 0.2427867 0 -0.9700797
vn 0.1355393 0 -0.990772
vn 0.2363977 0 -0.9716564
vn 0.2427867 0 -0.9700797
vn 0.1852476 0 -0.9826919
vn 0.0792413 0 -0.9968555
vn 0.2770047 -0.003807042 -0.960861
vn 0.286522 0 -0.9580736
vn 0.2363977 0 -0.9716564
vn 0.2421624 -0.00895883 -0.9701943
vn 0.2378889 -0.003510207 -0.9712861
vn 0.1235715 0 -0.9923356
vn 0.1355393 0 -0.990772
vn 0.1175583 0 -0.993066
vn 0.0792413 0 -0.9968555
vn 0.03525874 0 -0.9993782
vn 0.03111413 0 -0.9995158
vn -0.07924102 0 -0.9968555
vn 0.05181905 0 -0.9986565
vn -0.07924117 0 -0.9968555
vn -0.07924128 0 -0.9968555
vn -0.2866094 -1.395321E-05 0.9580476
vn -0.2867918 3.229613E-05 0.957993
vn -0.2867918 3.229614E-05 0.957993
vn -0.2566828 -7.141685E-05 0.9664956
vn -0.2293073 -6.566494E-05 0.9733541
vn -0.1242958 -6.448534E-05 0.9922453
vn -0.1274183 -2.129986E-05 0.9918491
vn -0.2865213 0 0.9580739
vn -0.02520858 0 0.9996822
vn -0.2385952 0 0.971119
vn -0.2865216 0 0.9580739
vn -0.1289522 0 0.9916508
vn -0.07924127 0 0.9968555
vn -0.2751725 0 0.9613949
vn -0.05395135 0 0.9985436
vn -0.03561407 0 0.9993656
vn 0.07924138 0 0.9968554
vn 0.07924151 0 0.9968554
vn 0.07924159 0 0.9968554
vn -0.2865221 0 0.9580736
vn -0.2865221 0 0.9580736
vn -0.2696553 0 0.962957
vn -0.1918188 0 0.9814304
vn -0.5408739 -0.841088 -0.005130511
vn -0.5408742 -0.8410878 -0.005130867
vn -0.5408717 -0.8410895 -0.005132405
vn -0.5408713 -0.8410897 -0.005132384
vn -0.5408725 -0.841089 -0.005128358
vn -0.5408697 -0.8410907 -0.005132764
vn -0.54087 -0.8410906 -0.005133572
vn -0.5408691 -0.8410912 -0.005129027
vn 0.3578658 -0.9080431 0.2176922
vn 0.3580403 -0.9077749 0.2185217
vn 0.3580898 -0.9078057 0.2183124
vn 0.3580405 -0.9077747 0.2185227
vn 0.3580403 -0.9077752 0.2185211
vn 0.35804 -0.9077758 0.2185189
vn 0.3580403 -0.9077745 0.2185235
vn 0.3580406 -0.9077751 0.2185208
vn 0.3580408 -0.9077754 0.2185193
vn 0.3580405 -0.9077746 0.2185228
vn 0.3580402 -0.9077741 0.2185254
vn 0.3580403 -0.9077737 0.2185268
vn 0.3580404 -0.9077742 0.2185248
vn 0.3580404 -0.9077742 0.2185249
vn 0.3580403 -0.9077752 0.2185211
vn 0.3580404 -0.9077755 0.2185193
vn 0.3580405 -0.9077747 0.2185227
vn 0.3580407 -0.9077749 0.2185214
vn 0.3580404 -0.9077755 0.2185193
vn 0.3580412 -0.9077774 0.2185105
vn 0.3580401 -0.9077753 0.218521
vn 0.3580405 -0.9077746 0.2185228
vn 0.3580402 -0.907775 0.2185219
vn 0.3580403 -0.9077754 0.21852
vn 0.3580422 -0.9077771 0.21851
vn 0.358041 -0.907776 0.2185162
vn 0.3580405 -0.9077746 0.2185228
vn 0.3580403 -0.9077745 0.2185235
vn 0.3580402 -0.9077741 0.2185254
vn 0.3580402 -0.907775 0.2185219
vn 0.9271486 0.3657157 -0.08153248
vn 0.9271494 0.3657172 -0.08151572
vn 0.9271483 0.3657167 -0.08153069
vn 0.9271488 0.3657163 -0.08152713
vn 0.9271488 0.365716 -0.08152889
vn 0.9271488 0.3657163 -0.08152713
vn 0.9271487 0.3657162 -0.08152845
vn 0.9271487 0.3657166 -0.08152682
vn 0.9271489 0.3657159 -0.08152773
vn 0.9271488 0.3657157 -0.08153021
vn 0.9271488 0.3657163 -0.08152713
vn 0.9271488 0.3657158 -0.08152925
vn 0.9271494 0.3657166 -0.08151906
vn 0.9271494 0.3657172 -0.08151572
vn 0.2592875 0 -0.9658002
vn 0.2770047 -0.003807042 -0.960861
vn 0.2378889 -0.003510207 -0.9712861
vn 0.2592875 0 -0.9658002
vn -0.4467459 0.8924456 0.06292003
vn -0.446745 0.892446 0.06291947
vn -0.446746 0.8924456 0.06291987
vn -0.4467444 0.8924465 0.06291906
vn -0.4467439 0.8924465 0.06292181
vn -0.4467449 0.892446 0.06292085
vn -0.1918193 0 0.9814302
vn -0.1918193 0 0.9814302
vn -0.1918193 0 0.9814302
vn -0.1882234 0 0.9821262
vn -0.1859125 0 0.9825664
vn -0.07924281 0 0.9968554
vn 0 1 0
vn 0 1 0
vn 0 1 0
vn 0 1 0
vn 0 1 0
vn 0 1 0
vn -1 0 0
vn -1 0 0
vn -1 0 0
vn -1 0 0
vn 0 -1 0
vn 0 -1 0
vn 0 -1 0
vn 0 -1 0
vn -0.2865246 0 0.958073
vn -0.2865246 0 0.958073
vn -0.2865269 0 0.9580722
vn -0.1916309 8.257201E-05 0.9814671
vn -0.1916233 7.809888E-05 0.9814686
vn -0.1915359 2.634458E-05 0.9814855
vn -0.1915359 2.634458E-05 0.9814855
vn -0.1175372 4.591468E-05 0.9930685
vn -0.1916233 7.809888E-05 0.9814686
vn -0.1916309 8.257201E-05 0.9814671
vn -0.1175372 4.59147E-05 0.9930685
vn -0.03296877 0 0.9994563
vn -0.03296877 0 0.9994563
vn 0.07924149 0 0.9968554
vn 0.07924149 0 0.9968554
vn -0.2865245 0 0.958073
vn -0.2865245 0 0.958073
vn -0.2865244 0 0.958073
vn -0.2865244 0 0.958073
vn -0.2865246 0 0.9580728
vn -0.2865246 0 0.9580728
vn -0.2865246 0 0.958073
vn -0.2865246 0 0.958073
vn -0.2865245 0 0.958073
vn -0.2865246 0 0.9580728
vn -0.2865246 0 0.9580728
vn -0.2865245 0 0.958073
vn -0.2865245 0 0.958073
vn 0 1 0
vn 0 1 0
vn 0 1 0
vn 0 1 0
vn 0 1 0
vn 0 1 0
vn 1 0 0
vn 1 0 0
vn 1 0 0
vn 1 0 0
vn 0 1 0
vn 0 1 0
vn 0 1 0
vn 0 1 0
vn -1 0 0
vn -1 0 0
vn -1 0 0
vn -1 0 0
vn -1 0 0
vn -1 0 0
vn -1 0 0
vn -1 0 0
vn 0 -1 0
vn 0 -1 0
vn 0 -1 0
vn 0 -1 0
vn 0 -1 0
vn 0 -1 0
vn 0 -1 0
vn 0 -1 0
vn 0 -1 0
vn 0 -1 0
vn 1 0 0
vn 1 0 0
vn 1 0 0
vn 1 0 0
vn 1 0 0
vn 1 0 0
vn 1 0 0
vn 1 0 0
vn 1 0 0
vn 1 0 0
vn 1 0 0
vn 1 0 0
vn 1 0 0
vn 1 0 0
vn 1 0 0
vn 1 0 0
vn -1 0 0
vn -1 0 0
vn -1 0 0
vn -1 0 0
vn -1 0.0002412544 0
vn -1 0.0002412544 0
vn -1 0.0002412544 0
vn -1 0.0002412544 0
g ShieldPartMesh05_0
f 3/3/3 2/2/2 1/1/1
f 6/6/6 5/5/5 4/4/4
f 9/9/9 8/8/8 7/7/7
f 11/11/11 9/9/9 10/10/10
f 14/14/14 13/13/13 12/12/12
f 17/17/17 16/16/16 15/15/15
f 20/20/20 19/19/19 18/18/18
f 23/23/23 22/22/22 21/21/21
f 26/26/26 25/25/25 24/24/24
f 29/29/29 28/28/28 27/27/27
f 32/32/32 31/31/31 30/30/30
f 33/33/33 32/32/32 30/30/30
f 36/36/36 35/35/35 34/34/34
f 37/37/37 36/36/36 34/34/34
f 40/40/40 39/39/39 38/38/38
f 41/41/41 40/40/40 38/38/38
f 41/41/41 38/38/38 42/42/42
f 45/45/45 44/44/44 43/43/43
f 46/46/46 45/45/45 43/43/43
f 43/43/43 47/47/47 46/46/46
f 45/45/45 46/46/46 48/48/48
f 46/46/46 47/47/47 48/48/48
f 49/49/49 45/45/45 48/48/48
f 47/47/47 50/50/50 48/48/48
f 51/51/51 49/49/49 48/48/48
f 48/48/48 50/50/50 52/52/52
f 51/51/51 48/48/48 52/52/52
f 50/50/50 53/53/53 52/52/52
f 52/52/52 53/53/53 54/54/54
f 52/52/52 55/55/55 51/51/51
f 56/56/56 52/52/52 54/54/54
f 55/55/55 52/52/52 56/56/56
f 57/57/57 55/55/55 56/56/56
f 60/60/60 59/59/59 58/58/58
f 61/61/61 60/60/60 58/58/58
f 61/61/61 58/58/58 62/62/62
f 63/63/63 61/61/61 62/62/62
f 64/64/64 63/63/63 62/62/62
f 62/62/62 58/58/58 65/65/65
f 66/66/66 63/63/63 64/64/64
f 67/67/67 62/62/62 65/65/65
f 62/62/62 67/67/67 64/64/64
f 67/67/67 65/65/65 68/68/68
f 67/67/67 69/69/69 64/64/64
f 64/64/64 69/69/69 70/70/70
f 71/71/71 67/67/67 68/68/68
f 64/64/64 70/70/70 72/72/72
f 73/73/73 66/66/66 64/64/64
f 72/72/72 73/73/73 64/64/64
f 74/74/74 66/66/66 73/73/73
f 75/75/75 74/74/74 73/73/73
f 75/75/75 73/73/73 72/72/72
f 76/76/76 75/75/75 72/72/72
f 71/71/71 68/68/68 77/77/77
f 68/68/68 78/78/78 77/77/77
f 77/77/77 79/79/79 71/71/71
f 80/80/80 71/71/71 79/79/79
f 83/83/83 82/82/82 81/81/81
f 83/83/83 84/84/84 82/82/82
f 82/82/82 84/84/84 85/85/85
f 86/86/86 84/84/84 83/83/83
f 87/87/87 86/86/86 83/83/83
f 88/88/88 84/84/84 86/86/86
f 91/91/91 90/90/90 89/89/89
f 92/92/92 90/90/90 91/91/91
f 92/92/92 93/93/93 90/90/90
f 96/96/96 95/95/95 94/94/94
f 97/97/97 95/95/95 96/96/96
f 98/98/98 95/95/95 97/97/97
f 100/100/100 95/95/95 99/99/99
f 101/101/101 95/95/95 100/100/100
f 102/102/102 101/101/101 100/100/100
f 105/105/105 104/104/104 103/103/103
f 106/106/106 104/104/104 105/105/105
f 109/109/109 108/108/108 107/107/107
f 109/109/109 110/110/110 108/108/108
f 111/111/111 110/110/110 109/109/109
f 112/112/112 111/111/111 109/109/109
f 112/112/112 109/109/109 113/113/113
f 113/113/113 109/109/109 114/114/114
f 117/117/117 116/116/116 115/115/115
f 118/118/118 117/117/117 115/115/115
f 121/121/121 120/120/120 119/119/119
f 120/120/120 121/121/121 122/122/122
f 125/125/125 124/124/124 123/123/123
f 126/126/126 124/124/124 125/125/125
f 127/127/127 124/124/124 126/126/126
f 130/130/130 129/129/129 128/128/128
f 131/131/131 129/129/129 130/130/130
f 132/132/132 129/129/129 131/131/131
f 135/135/135 134/134/134 133/133/133
f 136/136/136 135/135/135 133/133/133
f 139/139/139 138/138/138 137/137/137
f 140/140/140 138/138/138 139/139/139
f 138/138/138 140/140/140 141/141/141
f 138/138/138 141/141/141 142/142/142
g ShieldPartMesh05_1
f 145/145/145 144/144/144 143/143/143
f 145/145/145 143/143/143 146/146/146
f 146/146/146 147/147/147 145/145/145
f 148/148/148 147/147/147 146/146/146
f 151/151/151 150/150/150 149/149/149
f 150/150/150 152/152/152 149/149/149
f 149/149/149 152/152/152 153/153/153
f 154/154/154 149/149/149 153/153/153
f 157/157/157 156/156/156 155/155/155
f 158/158/158 157/157/157 155/155/155
f 161/161/161 160/160/160 159/159/159
f 162/162/162 161/161/161 159/159/159
g ShieldPartMesh05_2
f 165/165/165 164/164/164 163/163/163
f 168/168/168 167/167/167 166/166/166
f 169/169/169 168/168/168 166/166/166
f 172/172/172 171/171/171 170/170/170
f 171/171/171 173/173/173 170/170/170
f 170/170/170 173/173/173 174/174/174
f 173/173/173 175/175/175 174/174/174
f 174/174/174 175/175/175 176/176/176
f 177/177/177 174/174/174 176/176/176
f 180/180/180 179/179/179 178/178/178
f 181/181/181 180/180/180 178/178/178
f 184/184/184 183/183/183 182/182/182
f 182/182/182 185/185/185 184/184/184
f 182/182/182 186/186/186 185/185/185
f 189/189/189 188/188/188 187/187/187
f 190/190/190 189/189/189 187/187/187
f 193/193/193 192/192/192 191/191/191
f 192/192/192 194/194/194 191/191/191
f 191/191/191 194/194/194 195/195/195
f 196/196/196 191/191/191 195/195/195
f 199/199/199 198/198/198 197/197/197
f 200/200/200 199/199/199 197/197/197
f 203/203/203 202/202/202 201/201/201
f 204/204/204 203/203/203 201/201/201
f 207/207/207 206/206/206 205/205/205
f 208/208/208 207/207/207 205/205/205
f 211/211/211 210/210/210 209/209/209
f 212/212/212 211/211/211 209/209/209
f 215/215/215 214/214/214 213/213/213
f 216/216/216 215/215/215 213/213/213
f 217/217/217 215/215/215 216/216/216
f 218/218/218 217/217/217 216/216/216
f 221/221/221 220/220/220 219/219/219
f 222/222/222 221/221/221 219/219/219
f 225/225/225 224/224/224 223/223/223
f 226/226/226 225/225/225 223/223/223
f 229/229/229 228/228/228 227/227/227
f 230/230/230 229/229/229 227/227/227
f 233/233/233 232/232/232 231/231/231
f 234/234/234 233/233/233 231/231/231
f 237/237/237 236/236/236 235/235/235
f 238/238/238 237/237/237 235/235/235
f 241/241/241 240/240/240 239/239/239
f 242/242/242 241/241/241 239/239/239
f 245/245/245 244/244/244 243/243/243
f 246/246/246 245/245/245 243/243/243
