g ShieldPartMesh06
v -0.0725499 0.4184291 0.08013648
v -0.08248042 0.4434283 0.07934713
v -0.07418489 0.4184291 0.06154293
v -0.08248042 0.4434283 0.07934713
v -0.08733588 0.4434283 0.02412896
v -0.07418489 0.4184291 0.06154293
v -0.08733588 0.4434283 0.02412896
v -0.04145022 0.3279141 0.02777649
v -0.07418489 0.4184291 0.06154293
v -0.03675737 0.3279141 0.08114511
v -0.04939665 0.3597327 0.08014041
v -0.04145022 0.3279141 0.02777649
v -0.04939665 0.3597327 0.08014041
v -0.05086901 0.3597327 0.06339633
v -0.04145022 0.3279141 0.02777649
v -0.04145022 0.3279141 0.02777649
v -0.05086901 0.3597327 0.06339633
v -0.07418489 0.4184291 0.06154293
v -0.2496324 0.1295359 0.04454198
v -0.2496324 0.1308376 0.02607836
v -0.273584 0.118051 0.03737894
v -0.1572424 0.3279143 0.01378085
v -0.273584 0.1219169 -0.01745327
v -0.1572424 0.1779537 0.01378085
v -0.273584 0.3699859 -0.01745324
v -0.2013279 0.4434283 0.004155669
v -0.1159246 0.3279141 0.0218564
v -0.04145022 0.3279141 0.02777649
v -0.08733588 0.4434283 0.02412896
v -0.1159246 0.4434283 0.0218564
v -0.2013279 0.4434283 0.004155669
v -0.1572424 0.3279143 0.01378085
v -0.1159246 0.3279141 0.0218564
v -0.1159246 0.4434283 0.0218564
v -0.05086901 0.3597327 0.06339633
v -0.1159246 0.4184291 0.05822498
v -0.07418489 0.4184291 0.06154293
v -0.1159246 0.3597327 0.05822498
v -0.1915925 0.3597328 0.04343572
v -0.1915925 0.4184291 0.04343575
v -0.2496324 0.3594359 0.02607836
v -0.2496324 0.1308376 0.02607836
v -0.191641 0.1586436 0.04343572
v -0.273584 0.118051 0.03737894
v -0.2496324 0.1308376 0.02607836
v -0.273584 0.1219169 -0.01745327
v -0.1572424 0.1779537 0.01378085
v -0.191641 0.1586436 0.04343572
v -0.1572424 0.1742173 0.06677645
v -0.1572424 0.1779537 0.01378085
v -0.1916413 0.1574711 0.06006277
v -0.191641 0.1586436 0.04343572
v -0.1159246 0.3279141 0.07485199
v -0.1159246 0.3597327 0.07485199
v -0.04939665 0.3597327 0.08014041
v -0.03675737 0.3279141 0.08114511
v -0.1572424 0.3279143 0.06677645
v -0.1159246 0.3597327 0.07485199
v -0.1159246 0.3279141 0.07485199
v -0.1915925 0.3597328 0.06006274
v -0.1916413 0.1574711 0.06006277
v -0.1572424 0.3279143 0.06677645
v -0.1572424 0.1742173 0.06677645
v -0.1159246 0.4184291 0.07668859
v -0.1159246 0.4434283 0.07668859
v -0.08248042 0.4434283 0.07934713
v -0.0725499 0.4184291 0.08013648
v -0.1915925 0.4184291 0.06189936
v -0.2013279 0.4434283 0.05898786
v -0.1159246 0.4434283 0.07668859
v -0.1159246 0.4184291 0.07668859
v -0.2496324 0.3594359 0.04454198
v -0.273584 0.3699859 0.03737894
v -0.2013279 0.4434283 0.05898786
v -0.1915925 0.4184291 0.06189936
v -0.1159246 0.3279141 0.0218564
v -0.03675737 0.3279141 0.08114511
v -0.04145022 0.3279141 0.02777649
v -0.1159246 0.3279141 0.07485199
v -0.1572424 0.3279143 0.01378085
v -0.1572424 0.3279143 0.06677645
v -0.273584 0.3699859 -0.01745324
v -0.273584 0.3699859 0.03737894
v -0.273584 0.118051 0.03737894
v -0.273584 0.1219169 -0.01745327
v -0.1915925 0.3597328 0.04343572
v -0.1915925 0.3597328 0.06006274
v -0.1916413 0.1574711 0.06006277
v -0.191641 0.1586436 0.04343572
v -0.1159246 0.3597327 0.05822498
v -0.1159246 0.3597327 0.07485199
v -0.1915925 0.3597328 0.06006274
v -0.1915925 0.3597328 0.04343572
v -0.1159246 0.4184291 0.05822498
v -0.1159246 0.4184291 0.07668859
v -0.0725499 0.4184291 0.08013648
v -0.07418489 0.4184291 0.06154293
v -0.1915925 0.4184291 0.04343575
v -0.1159246 0.4184291 0.07668859
v -0.1915925 0.4184291 0.06189936
v -0.1159246 0.4434283 0.0218564
v -0.08733588 0.4434283 0.02412896
v -0.08248042 0.4434283 0.07934713
v -0.1159246 0.4434283 0.07668859
v -0.2013279 0.4434283 0.004155669
v -0.1159246 0.4434283 0.0218564
v -0.1159246 0.4434283 0.07668859
v -0.2013279 0.4434283 0.05898786
v -0.2496324 0.3594359 0.02607836
v -0.2496324 0.3594359 0.04454198
v -0.1915925 0.4184291 0.06189936
v -0.1915925 0.4184291 0.04343575
v -0.273584 0.3699859 -0.01745324
v -0.2013279 0.4434283 0.004155669
v -0.2013279 0.4434283 0.05898786
v -0.273584 0.3699859 0.03737894
v -0.04939665 0.3597327 0.08014041
v -0.1159246 0.3597327 0.07485199
v -0.1159246 0.3597327 0.05822498
v -0.05086901 0.3597327 0.06339633
v -0.273584 0.118051 0.03737894
v -0.273584 0.3699859 0.03737894
v -0.2496324 0.3594359 0.04454198
v -0.2496324 0.1295359 0.04454198
v -0.1572424 0.1742173 0.06677645
v -0.1572424 0.3279143 0.06677645
v -0.1572424 0.3279143 0.01378085
v -0.1572424 0.1779537 0.01378085
v -0.2496324 0.1295359 0.04454198
v -0.2496324 0.3594359 0.04454198
v -0.2496324 0.3594359 0.02607836
v -0.2496324 0.1308376 0.02607836
vt 0.3741631 0
vt 0.2884997 1
vt 0.4628529 0.25
vt 0.2884997 1
vt 0.2466148 1
vt 0.4628529 0.25
vt 0.2466148 1
vt 0.5372921 0.1892999
vt 0.4628529 0.25
vt 0.4603581 0.25
vt 0.5580478 0.155516
vt 0.5372921 0.1892999
vt 0.5580478 0.155516
vt 0.474528 0.25
vt 0.5372921 0.1892999
vt 0.5372921 0.1892999
vt 0.474528 0.25
vt 0.4628529 0.25
vt 0.2336687 0
vt 0.7619921 0
vt 0.1887482 1
vt 0.4040627 0.25
vt 0 0.6005983
vt 0.4040627 0.1787938
vt 0 1
vt 1 1
vt 0.5 0.25
vt 0.5372921 0.1892999
vt 0.2466148 1
vt 0 1
vt 0 1
vt 0.4040627 0.25
vt 0.5 0.25
vt 1 1
vt 0.474528 0.25
vt 0.4419523 0.25
vt 0.4628529 0.25
vt 0.4419523 0.25
vt 0.4040627 0.25
vt 0.4040627 0.25
vt 0.375 0.2314444
vt 0.375 0.1701358
vt 0.4040627 0.1776534
vt 0.1887482 1
vt 0.7619921 0
vt 0 0.6005983
vt 0.4040627 0.1787938
vt 0.4040627 0.1776534
vt 0.4040627 0.2284964
vt 0.4040627 0.1787938
vt 0.5959373 0.1555161
vt 0.4040627 0.1776534
vt 0.5 0.25
vt 0.5580477 0.155516
vt 0.5580478 0.155516
vt 0.4603581 0.25
vt 0.4040627 0.155516
vt 0.5580477 0.155516
vt 0.5 0.25
vt 0.5959373 0.1555161
vt 0.5959373 0.1555161
vt 0.4040627 0.155516
vt 0.4040627 0.2284964
vt 0 0
vt 0 1
vt 0.2884997 1
vt 0.3741631 0
vt 0 0
vt 0 1
vt 1 1
vt 1 0
vt 0 0
vt 0 1
vt 1 1
vt 1 0
vt 0.5 0.25
vt 0.4603581 0.25
vt 0.5372921 0.1892999
vt 0.5 0.25
vt 0.4040627 0.25
vt 0.4040627 0.155516
vt 0 1
vt 1 1
vt 0.1887482 1
vt 0 0.6005983
vt 0.4040627 0.25
vt 0.5959373 0.1555161
vt 0.5959373 0.1555161
vt 0.4040627 0.1776534
vt 0.4419523 0.25
vt 0.5580477 0.155516
vt 0.5959373 0.1555161
vt 0.4040627 0.25
vt 0 0
vt 0 0
vt 0.3741631 0
vt 0 0
vt 1 0
vt 1 0
vt 0 0
vt 0 1
vt 0.2466148 1
vt 0.2884997 1
vt 0 1
vt 0 1
vt 1 1
vt 1 1
vt 0 1
vt 1 0
vt 0 0
vt 1 0
vt 0 0
vt 0 1
vt 1 1
vt 1 1
vt 0 1
vt 0.5580478 0.155516
vt 0.5580477 0.155516
vt 0.4419523 0.25
vt 0.474528 0.25
vt 0.1887482 1
vt 1 1
vt 1 0
vt 0.2336687 0
vt 0.4040627 0.2284964
vt 0.4040627 0.155516
vt 0.4040627 0.25
vt 0.4040627 0.1787938
vt 0.2336687 0
vt 1 0
vt 0 0
vt 0.7619921 0
vn 0.9271477 0.3657192 -0.08152606
vn 0.9271477 0.3657193 -0.08152613
vn 0.9271484 0.3657172 -0.08152792
vn 0.9271477 0.3657193 -0.08152613
vn 0.9271484 0.3657171 -0.08152823
vn 0.9271484 0.3657172 -0.08152792
vn 0.9271484 0.3657171 -0.08152823
vn 0.9271487 0.3657164 -0.08152734
vn 0.9271484 0.3657172 -0.08152792
vn 0.9271487 0.3657165 -0.08152673
vn 0.9271487 0.3657166 -0.0815267
vn 0.9271487 0.3657164 -0.08152734
vn 0.9271487 0.3657166 -0.0815267
vn 0.9271489 0.3657162 -0.0815261
vn 0.9271487 0.3657164 -0.08152734
vn 0.9271487 0.3657164 -0.08152734
vn 0.9271489 0.3657162 -0.0815261
vn 0.9271484 0.3657172 -0.08152792
vn 0.4467486 -0.8924441 -0.06292094
vn 0.446746 -0.8924456 -0.06291965
vn 0.4467488 -0.892444 -0.0629218
vn 0.2466387 0.001077616 -0.9691069
vn 0.2592873 0 -0.9658002
vn 0.2592873 0 -0.9658002
vn 0.2606108 0.003930331 -0.965436
vn 0.2290098 0.007856423 -0.9733924
vn 0.1462401 -0.001553228 -0.9892479
vn 0.07924166 0 -0.9968554
vn 0.07924167 0 -0.9968554
vn 0.1462402 -0.00155323 -0.9892479
vn 0.2290098 0.007856423 -0.9733924
vn 0.2466387 0.001077616 -0.9691069
vn 0.1462401 -0.001553228 -0.9892479
vn 0.1462402 -0.00155323 -0.9892479
vn -0.07924138 0 0.9968554
vn -0.1458966 0 0.9892999
vn -0.07924138 0 0.9968554
vn -0.1458966 0 0.9892999
vn -0.2645936 2.17006E-05 0.96436
vn -0.2077242 0 0.9781874
vn -0.2866308 3.0339E-05 0.9580411
vn -0.2866381 3.239264E-05 0.9580389
vn -0.2866381 3.239263E-05 0.9580389
vn 0.4467488 -0.892444 -0.0629218
vn 0.446746 -0.8924456 -0.06291965
vn 0.4467459 -0.8924456 -0.06291978
vn 0.446745 -0.8924461 -0.06291936
vn 0.4467444 -0.8924465 -0.06291901
vn 0.4467449 -0.892446 -0.06292085
vn 0.446745 -0.8924461 -0.06291936
vn 0.4467439 -0.8924465 -0.06292177
vn 0.4467444 -0.8924465 -0.06291901
vn -0.1300204 0 0.9915113
vn -0.1300206 0 0.9915113
vn -0.07924157 0 0.9968554
vn -0.07924157 0 0.9968554
vn -0.1917161 2.006985E-05 0.9814504
vn -0.1300206 0 0.9915113
vn -0.1300204 0 0.9915113
vn -0.1917122 2.081651E-05 0.9814512
vn -0.191683 2.640754E-05 0.9814569
vn -0.1917161 2.006985E-05 0.9814504
vn -0.191683 2.640754E-05 0.9814569
vn -0.1601376 0.01266752 0.9870134
vn -0.1601376 0.01266752 0.9870134
vn -0.07924139 0 0.9968554
vn -0.07924139 0 0.9968554
vn -0.2455932 0.008626147 0.9693346
vn -0.2455438 0.008636484 0.969347
vn -0.1601376 0.01266752 0.9870134
vn -0.1601376 0.01266752 0.9870134
vn -0.286524 0 0.9580731
vn -0.2865241 0 0.9580731
vn -0.2455438 0.008636484 0.969347
vn -0.2455932 0.008626147 0.9693346
vn 0 -1 0
vn 0 -1 0
vn 0 -1 0
vn 0 -1 0
vn -5.04907E-06 -1 0
vn -5.04907E-06 -1 0
vn -1 0 0
vn -1 0 0
vn -1 0 0
vn -1 0 0
vn -1 0.000241561 0
vn -1 0.000241561 0
vn -1 0.000241561 0
vn -1 0.000241561 0
vn 0 1 0
vn 0 1 0
vn 0 1 0
vn 0 1 0
vn 0 -1 0
vn 0 -1 0
vn 0 -1 0
vn 0 -1 0
vn 0 -1 0
vn 0 -1 0
vn 0 -1 0
vn 0 1 0
vn 0 1 0
vn 0 1 0
vn 0 1 0
vn 0 1 0
vn 0 1 0
vn 0 1 0
vn 0 1 0
vn 0.7128434 -0.7013233 0
vn 0.7128434 -0.7013233 0
vn 0.7128434 -0.7013232 0
vn 0.7128434 -0.7013233 0
vn -0.7128405 0.7013262 0
vn -0.7128405 0.7013261 0
vn -0.7128405 0.7013261 0
vn -0.7128405 0.7013262 0
vn 0 1 0
vn 0 1 0
vn 0 1 0
vn 0 1 0
vn -0.2865245 0 0.958073
vn -0.2865241 0 0.9580731
vn -0.286524 0 0.9580731
vn -0.2865245 0 0.958073
vn 1 0 0
vn 1 0 0
vn 1 0 0
vn 1 0 0
vn 1 0 0
vn 1 0 0
vn 1 0 0
vn 1 0 0
g ShieldPartMesh06_0
f 3/3/3 2/2/2 1/1/1
f 6/6/6 5/5/5 4/4/4
f 9/9/9 8/8/8 7/7/7
f 12/12/12 11/11/11 10/10/10
f 15/15/15 14/14/14 13/13/13
f 18/18/18 17/17/17 16/16/16
f 21/21/21 20/20/20 19/19/19
f 24/24/24 23/23/23 22/22/22
f 23/23/23 25/25/25 22/22/22
f 25/25/25 26/26/26 22/22/22
f 29/29/29 28/28/28 27/27/27
f 30/30/30 29/29/29 27/27/27
f 33/33/33 32/32/32 31/31/31
f 34/34/34 33/33/33 31/31/31
f 37/37/37 36/36/36 35/35/35
f 36/36/36 38/38/38 35/35/35
f 39/39/39 38/38/38 36/36/36
f 40/40/40 39/39/39 36/36/36
f 39/39/39 40/40/40 41/41/41
f 39/39/39 41/41/41 42/42/42
f 43/43/43 39/39/39 42/42/42
f 46/46/46 45/45/45 44/44/44
f 47/47/47 45/45/45 46/46/46
f 48/48/48 45/45/45 47/47/47
f 51/51/51 50/50/50 49/49/49
f 52/52/52 50/50/50 51/51/51
g ShieldPartMesh06_1
f 55/55/55 54/54/54 53/53/53
f 56/56/56 55/55/55 53/53/53
f 59/59/59 58/58/58 57/57/57
f 58/58/58 60/60/60 57/57/57
f 62/62/62 60/60/60 61/61/61
f 63/63/63 62/62/62 61/61/61
f 66/66/66 65/65/65 64/64/64
f 67/67/67 66/66/66 64/64/64
f 70/70/70 69/69/69 68/68/68
f 71/71/71 70/70/70 68/68/68
f 74/74/74 73/73/73 72/72/72
f 75/75/75 74/74/74 72/72/72
f 78/78/78 77/77/77 76/76/76
f 77/77/77 79/79/79 76/76/76
f 76/76/76 79/79/79 80/80/80
f 79/79/79 81/81/81 80/80/80
f 84/84/84 83/83/83 82/82/82
f 85/85/85 84/84/84 82/82/82
f 88/88/88 87/87/87 86/86/86
f 89/89/89 88/88/88 86/86/86
f 92/92/92 91/91/91 90/90/90
f 93/93/93 92/92/92 90/90/90
f 96/96/96 95/95/95 94/94/94
f 97/97/97 96/96/96 94/94/94
f 94/94/94 99/99/99 98/98/98
f 99/99/99 100/100/100 98/98/98
f 103/103/103 102/102/102 101/101/101
f 104/104/104 103/103/103 101/101/101
f 107/107/107 106/106/106 105/105/105
f 108/108/108 107/107/107 105/105/105
f 111/111/111 110/110/110 109/109/109
f 112/112/112 111/111/111 109/109/109
f 115/115/115 114/114/114 113/113/113
f 116/116/116 115/115/115 113/113/113
f 119/119/119 118/118/118 117/117/117
f 120/120/120 119/119/119 117/117/117
f 123/123/123 122/122/122 121/121/121
f 124/124/124 123/123/123 121/121/121
f 127/127/127 126/126/126 125/125/125
f 128/128/128 127/127/127 125/125/125
f 131/131/131 130/130/130 129/129/129
f 132/132/132 131/131/131 129/129/129
