g ShieldPartMesh04
v 0.08891539 -0.2603548 0.0240034
v 0 -0.2603548 0.03107139
v 0 -0.4224076 0.03107139
v -0.0296761 -0.2603548 0.02871242
v -0.05560231 -0.4224076 0.02665152
v 0 -0.4224076 0.03107139
v 0.1957116 -0.3289203 0.005835272
v 0.2013279 -0.4224076 0.004155643
v 0.2555524 -0.3672923 -0.01206073
v -0.02003183 -0.1905168 0.0602923
v 0.07802038 -0.2535758 0.06123802
v -0.02014222 -0.1904604 0.06268996
v -0.05432325 -0.3974077 0.08158535
v -0.0583229 -0.4224076 0.08126742
v -0.05340715 -0.3974077 0.06319457
v -0.03513503 -0.2831969 0.06464708
v -0.01893569 -0.1910764 0.03648269
v -0.03039606 -0.2535758 0.06502378
v -0.01893569 -0.1910764 0.03648269
v -0.01994894 -0.1905591 0.05849177
v -0.03039606 -0.2535758 0.06502378
v -0.03039606 -0.2535758 0.06502378
v -0.01994894 -0.1905591 0.05849177
v -0.02003183 -0.1905168 0.0602923
v 0 -0.2603548 0.03107139
v 0.08891539 -0.2603548 0.0240034
v 0 -0.2032201 0.03107139
v -0.0296761 -0.2603548 0.02871242
v -0.01861843 -0.1912384 0.02959141
v 0 -0.2535758 0.06743997
v 0 -0.203442 0.06743997
v 0.07802038 -0.2535758 0.06123802
v -0.02028666 -0.1903866 0.06582737
v -0.03039606 -0.2535758 0.06502378
v 0 -0.4224076 0.03107139
v 0.1159246 -0.4224076 0.0218564
v 0.1159246 -0.2777103 0.0218564
v 0.08891539 -0.2603548 0.0240034
v 0.1159246 -0.2777103 0.0218564
v 0.1159246 -0.4224076 0.0218564
v 0.2013279 -0.4224076 0.004155643
v 0.1957116 -0.3289203 0.005835272
v 0.2343677 -0.3539297 0.03064339
v 0.1915925 -0.3974077 0.04343575
v 0.1915925 -0.3265007 0.04343575
v 0.124127 -0.2831969 0.05662182
v 0.1159246 -0.3974077 0.05822498
v 0.1159246 -0.2831969 0.05822498
v 0 -0.3974077 0.06743997
v 0 -0.2831969 0.06743997
v -0.03513503 -0.2831969 0.06464708
v -0.05340715 -0.3974077 0.06319457
v 0.2342998 -0.3539988 0.04912734
v 0.2343677 -0.3539297 0.03064339
v 0.2553507 -0.3674974 0.04283181
v 0.2555524 -0.3672923 -0.01206073
v 0.2555524 -0.3672923 -0.01206073
v 0.2343677 -0.3539297 0.03064339
v 0.1957116 -0.3289203 0.005835272
v 0.1159246 -0.2777103 0.0218564
v 0.1915925 -0.3265007 0.04343575
v 0.08891539 -0.2603548 0.0240034
v 0 -0.2032201 0.03107139
v 0.07788876 -0.2535758 0.07511944
v 0.07802038 -0.2535758 0.06123802
v 0.1159246 -0.2780167 0.07209587
v 0.1239953 -0.2831969 0.07051849
v 0.124127 -0.2831969 0.05662182
v -0.02003183 -0.1905168 0.0602923
v -0.01994894 -0.1905591 0.05849177
v 0.1915925 -0.3265007 0.04343575
v 0.124127 -0.2831969 0.05662182
v 0 -0.2032201 0.03107139
v -0.01994894 -0.1905591 0.05849177
v -0.01893569 -0.1910764 0.03648269
v -0.01861843 -0.1912384 0.02959141
v 0 -0.2032201 0.03107139
v -0.01874226 -0.1911752 0.03228095
v -0.01889028 -0.1910996 0.03549615
v -0.01893569 -0.1910764 0.03648269
v -0.02014222 -0.1904604 0.06268996
v 0.07802038 -0.2535758 0.06123802
v 0 -0.203442 0.06743997
v -0.02028666 -0.1903866 0.06582737
v -0.0583229 -0.4224076 0.08126742
v -0.05560231 -0.4224076 0.02665152
v -0.05340715 -0.3974077 0.06319457
v -0.0296761 -0.2603548 0.02871242
v -0.03108429 -0.2535758 0.07883996
v -0.03582326 -0.2831969 0.07846326
v -0.03039606 -0.2535758 0.06502378
v -0.03513503 -0.2831969 0.06464708
v -0.02028666 -0.1903866 0.06582737
v -0.03039606 -0.2535758 0.06502378
v -0.02014222 -0.1904604 0.06268996
v -0.02003183 -0.1905168 0.0602923
v -0.05340715 -0.3974077 0.06319457
v -0.0296761 -0.2603548 0.02871242
v -0.03513503 -0.2831969 0.06464708
v -0.01861843 -0.1912384 0.02959141
v -0.01874226 -0.1911752 0.03228095
v -0.01889028 -0.1910996 0.03549615
v -0.01893569 -0.1910764 0.03648269
v 0 -0.2535758 0.06743997
v -0.03108429 -0.2535758 0.07883996
v -0.03039606 -0.2535758 0.06502378
v 0 -0.2535758 0.08131093
v 0.07788876 -0.2535758 0.07511944
v 0.07802038 -0.2535758 0.06123802
v 0.1159246 -0.2831969 0.05822498
v 0.1239953 -0.2831969 0.07051849
v 0.124127 -0.2831969 0.05662182
v 0.1159246 -0.2831969 0.07209587
v 0 -0.2831969 0.06743997
v 0 -0.2831969 0.08131093
v -0.03582326 -0.2831969 0.07846326
v -0.03513503 -0.2831969 0.06464708
v 0.1239953 -0.2831969 0.07051849
v 0.1159246 -0.2831969 0.07209587
v 0.1159246 -0.2780167 0.07209587
v 0.07788876 -0.2535758 0.07511944
v 0 -0.2831969 0.08131093
v 0 -0.2535758 0.08131093
v -0.03108429 -0.2535758 0.07883996
v -0.03582326 -0.2831969 0.07846326
v 0 -0.3974077 0.08590358
v 0 -0.4224076 0.08590358
v -0.0583229 -0.4224076 0.08126742
v -0.05432325 -0.3974077 0.08158535
v 0.1159246 -0.3974077 0.07668859
v 0.1159246 -0.4224076 0.07668859
v 0 -0.4224076 0.08590358
v 0 -0.3974077 0.08590358
v 0.1915925 -0.3974077 0.06189936
v 0.2013279 -0.4224076 0.05898786
v 0.1159246 -0.4224076 0.07668859
v 0.1159246 -0.3974077 0.07668859
v 0 -0.3974077 0.06743997
v 0 -0.3974077 0.08590358
v -0.05432325 -0.3974077 0.08158535
v -0.05340715 -0.3974077 0.06319457
v 0 -0.4224076 0.03107139
v -0.05560231 -0.4224076 0.02665152
v -0.0583229 -0.4224076 0.08126742
v 0 -0.4224076 0.08590358
v 0.1159246 -0.3974077 0.05822498
v 0.1159246 -0.3974077 0.07668859
v 0 -0.3974077 0.08590358
v 0 -0.3974077 0.06743997
v 0.1159246 -0.4224076 0.0218564
v 0 -0.4224076 0.03107139
v 0 -0.4224076 0.08590358
v 0.1159246 -0.4224076 0.07668859
v 0.1915925 -0.3974077 0.04343575
v 0.1915925 -0.3974077 0.06189936
v 0.1159246 -0.3974077 0.07668859
v 0.1159246 -0.3974077 0.05822498
v 0.2013279 -0.4224076 0.004155643
v 0.1159246 -0.4224076 0.0218564
v 0.1159246 -0.4224076 0.07668859
v 0.2013279 -0.4224076 0.05898786
v 0.2553507 -0.3674974 0.04283181
v 0.2013279 -0.4224076 0.05898786
v 0.1915925 -0.3974077 0.06189936
v 0.2342998 -0.3539988 0.04912734
v 0.2342998 -0.3539988 0.04912734
v 0.1915925 -0.3974077 0.06189936
v 0.1915925 -0.3974077 0.04343575
v 0.2343677 -0.3539297 0.03064339
v 0.2555524 -0.3672923 -0.01206073
v 0.2013279 -0.4224076 0.004155643
v 0.2013279 -0.4224076 0.05898786
v 0.2553507 -0.3674974 0.04283181
vt 0.5445232 0.03887902
vt 0.5 0.038879
vt 1 1
vt 0.4851401 0.03887901
vt 0 1
vt 0 1
vt 0.3521759 0.4503437
vt 0 1
vt 0.7504485 1
vt 0.4899693 0.06812108
vt 0.5390676 0.04665481
vt 0.4899141 0.0698621
vt 0.5313917 1
vt 0 0.4968895
vt 0.4732571 1.37301E-08
vt 0.4824066 0.03887901
vt 0.4905182 0.06664922
vt 0.4847796 0.04665479
vt 0.4905182 0.06664922
vt 0.4900109 0.06892805
vt 0.4847796 0.04665479
vt 0.4847796 0.04665479
vt 0.4900109 0.06892805
vt 0.4899693 0.06812108
vt 0.5 0.04665479
vt 0.5445232 0.04665481
vt 0.5 0.0622144
vt 0.4851401 0.0466548
vt 0.4906771 0.06547742
vt 0.5 0.04665479
vt 0.5 0.06508881
vt 0.5390676 0.04665481
vt 0.4898417 0.06988921
vt 0.4847796 0.04665479
vt 1 1
vt 0 1
vt 0.4982823 0.1418125
vt 0.5445232 0.03887902
vt 0.6053796 0.1418125
vt 1 1
vt 0 1
vt 0.3521759 0.4503437
vt 0.6173564 0.01367548
vt 0.5959373 2.136946E-08
vt 0.5959373 0.02413777
vt 0.5621549 0.03887903
vt 0.5580477 2.980232E-08
vt 0.5580477 0.03887903
vt 0.5 0
vt 0.5 0.038879
vt 0.4824066 0.03887901
vt 0.4732571 1.37301E-08
vt 0.2641729 0
vt 0.7369975 0
vt 0.2523435 1
vt 0.7504485 1
vt 0.7504485 1
vt 0.7369975 0
vt 0.3521759 0.4503437
vt 0.4982823 0.1418125
vt 0.5959373 0.02413777
vt 0.5445232 0.04665481
vt 0.5 0.0622144
vt 0.5390018 0.04665481
vt 0.5390676 0.04665481
vt 0.5580477 0.04023889
vt 0.562089 0.03887903
vt 0.5621549 0.03887903
vt 0.4899693 0.06812108
vt 0.4900109 0.06892805
vt 0.5959373 0.02413777
vt 0.5621549 0.03887903
vt 0.5 0.0622144
vt 0.4900109 0.06892805
vt 0.4905182 0.06664922
vt 0.4906771 0.06710978
vt 0.5 0.0622144
vt 0.4906151 0.06662766
vt 0.490541 0.06664504
vt 0.4905182 0.06664922
vt 0.4899141 0.0698621
vt 0.5390676 0.04665481
vt 0.5 0.06508881
vt 0.4898417 0.06988921
vt 0 0.4968895
vt 0 1
vt 0.4732571 1.37301E-08
vt 0.4851401 0.03887901
vt 0.484435 0.0466548
vt 0.482062 0.03887901
vt 0.4847796 0.04665479
vt 0.4824066 0.03887901
vt 0.4898417 0.06988921
vt 0.4847796 0.04665479
vt 0.4899141 0.0698621
vt 0.4899693 0.06812108
vt 0.4732571 1.37301E-08
vt 0.4851401 0.03887901
vt 0.4824066 0.03887901
vt 0.4906771 0.06547742
vt 0.4906151 0.06662766
vt 0.490541 0.06664504
vt 0.4905182 0.06664922
vt 0.5 0.04665479
vt 0.484435 0.0466548
vt 0.4847796 0.04665479
vt 0.5 0.04665479
vt 0.5390018 0.04665481
vt 0.5390676 0.04665481
vt 0.5580477 0.03887903
vt 0.562089 0.03887903
vt 0.5621549 0.03887903
vt 0.5580477 0.03887903
vt 0.5 0.038879
vt 0.5 0.038879
vt 0.482062 0.03887901
vt 0.4824066 0.03887901
vt 0.562089 0.03887903
vt 0.5580477 0.03887903
vt 0.5580477 0.04023889
vt 0.5390018 0.04665481
vt 0.5 0.038879
vt 0.5 0.04665479
vt 0.484435 0.0466548
vt 0.482062 0.03887901
vt 1 1
vt 0 1
vt 0 0.4968895
vt 0.5313917 1
vt 0 0
vt 0 1
vt 1 1
vt 1 0
vt 0 0
vt 0 1
vt 1 1
vt 1 0
vt 0 0
vt 1 1
vt 0.5313917 1
vt 0.4607058 0
vt 0 1
vt 0 1
vt 0 0.4968895
vt 0 1
vt 1 0
vt 0 0
vt 1 0
vt 0 0
vt 0 1
vt 1 1
vt 1 1
vt 0 1
vt 1 0
vt 0 0
vt 1 0
vt 0 0
vt 0 1
vt 1 1
vt 1 1
vt 0 1
vt 0.2523435 1
vt 1 1
vt 1 0
vt 0.2641729 0
vt 0.2641729 0
vt 1 0
vt 0 0
vt 0.7369975 0
vt 0.7504485 1
vt 0 1
vt 1 1
vt 0.2523435 1
vn -0.07924131 0 -0.9968555
vn -0.03393076 0 -0.9994242
vn -0.03632206 0 -0.9993401
vn 0.07924077 0 -0.9968555
vn 0.07924083 0 -0.9968555
vn -0.03632206 0 -0.9993401
vn -0.2089767 0.001968435 -0.9779186
vn -0.2115366 0.001904193 -0.9773682
vn -0.2865216 0 -0.9580739
vn 0.5408702 0.8410906 0.005121983
vn 0.5408697 0.8410908 0.005125135
vn 0.5408703 0.8410904 0.00512648
vn -0.986153 0.1583957 -0.04912305
vn -0.986153 0.1583957 -0.04912334
vn -0.986153 0.1583956 -0.04912344
vn -0.986153 0.1583954 -0.04912405
vn -0.9861529 0.158396 -0.04912255
vn -0.9861529 0.1583957 -0.04912358
vn -0.9861529 0.158396 -0.04912255
vn -0.9861529 0.1583958 -0.04912364
vn -0.9861529 0.1583957 -0.04912358
vn -0.9861529 0.1583957 -0.04912358
vn -0.9861529 0.1583958 -0.04912364
vn -0.9861526 0.1583963 -0.04912644
vn -0.03393076 0 -0.9994242
vn -0.07924131 0 -0.9968555
vn 0.01070905 0 -0.9999427
vn 0.07924077 0 -0.9968555
vn 0.07924049 0 -0.9968555
vn 0.01130049 0 0.9999362
vn -0.01849085 0 0.9998291
vn 0.07924145 0 0.9968554
vn -0.07924051 0 0.9968555
vn -0.07924052 0 0.9968555
vn -0.03632206 0 -0.9993401
vn -0.121331 0.0007717737 -0.9926118
vn -0.1035736 0.0004458557 -0.9946218
vn -0.07924131 0 -0.9968555
vn -0.1035736 0.0004458557 -0.9946218
vn -0.121331 0.0007717737 -0.9926118
vn -0.2115366 0.001904193 -0.9773682
vn -0.2089767 0.001968435 -0.9779186
vn 0.2865216 0 0.9580739
vn 0.2012894 0 0.9795318
vn 0.2007785 0 0.9796367
vn 0.1918198 0 0.9814302
vn 0.1194087 0 0.9928451
vn 0.1194087 0 0.9928451
vn 0.03553314 0 0.9993685
vn 0.03553314 0 0.9993685
vn -0.07924091 0 0.9968555
vn -0.0792409 0 0.9968555
vn 0.5408716 0.8410895 0.005130851
vn 0.5408708 0.8410901 0.005129403
vn 0.5408719 0.8410892 0.005129417
vn 0.5408706 0.8410901 0.005129298
vn 0.5408706 0.8410901 0.005129298
vn 0.5408708 0.8410901 0.005129403
vn 0.5408701 0.8410904 0.005129215
vn 0.5408707 0.8410901 0.005123257
vn 0.5408702 0.8410904 0.005129729
vn 0.5408707 0.8410902 0.005128436
vn 0.5408701 0.8410904 0.005132409
vn 0.5408695 0.8410909 0.005127209
vn 0.5408697 0.8410908 0.005125135
vn 0.5408692 0.841091 0.005131326
vn 0.5408697 0.8410908 0.005129982
vn 0.5408702 0.8410904 0.005130135
vn 0.5408702 0.8410906 0.005121983
vn 0.5408701 0.8410904 0.005131238
vn 0.5408702 0.8410904 0.005129729
vn 0.5408702 0.8410904 0.005130135
vn 0.5408701 0.8410904 0.005132409
vn 0.5408701 0.8410904 0.005131238
vn 0.5408702 0.8410904 0.005132618
vn 0.54087 0.8410906 0.005127801
vn 0.5408701 0.8410904 0.005132409
vn 0.5408698 0.8410907 0.005125534
vn 0.5408699 0.8410906 0.005129062
vn 0.5408702 0.8410904 0.005132618
vn 0.5408703 0.8410904 0.00512648
vn 0.5408697 0.8410908 0.005125135
vn 0.5408698 0.8410906 0.005130698
vn 0.5408698 0.8410906 0.005130698
vn -0.986153 0.1583957 -0.04912334
vn -0.986153 0.1583956 -0.0491234
vn -0.986153 0.1583956 -0.04912344
vn -0.986153 0.1583955 -0.04912383
vn -0.986153 0.1583957 -0.04912312
vn -0.986153 0.1583956 -0.04912352
vn -0.9861529 0.1583957 -0.04912358
vn -0.986153 0.1583954 -0.04912405
vn -0.986153 0.1583957 -0.04912322
vn -0.9861529 0.1583957 -0.04912358
vn -0.9861529 0.1583959 -0.04912445
vn -0.9861526 0.1583963 -0.04912644
vn -0.986153 0.1583956 -0.04912344
vn -0.986153 0.1583955 -0.04912383
vn -0.986153 0.1583954 -0.04912405
vn -0.9861529 0.1583953 -0.04912494
vn -0.9861529 0.1583952 -0.04912598
vn -0.986153 0.1583961 -0.0491212
vn -0.9861529 0.158396 -0.04912255
vn 0 1 0
vn 0 1 0
vn 0 1 0
vn 0 1 0
vn 0 1 0
vn 0 1 0
vn 0 -1 0
vn 0 -1 0
vn 0 -1 0
vn 0 -1 0
vn 0 -1 0
vn 0 -1 0
vn 0 -1 0
vn 0 -1 0
vn 0.1918156 0 0.9814309
vn 0.08004466 0 0.9967912
vn 0.0796215 0 0.9968252
vn 0.07924168 0 0.9968554
vn 0.03967614 0 0.9992126
vn 0.03967614 0 0.9992126
vn -0.07924239 0 0.9968554
vn -0.07924239 0 0.9968554
vn 0.02749529 0 0.9996219
vn 0.02749529 0 0.9996219
vn -0.07924137 0 0.9968554
vn -0.07924137 0 0.9968554
vn 0.128515 -0.007705607 0.9916776
vn 0.128515 -0.007705607 0.9916776
vn 0.02749529 0 0.9996219
vn 0.02749529 0 0.9996219
vn 0.2389829 -0.01000798 0.9709722
vn 0.2389327 -0.01001846 0.9709844
vn 0.128515 -0.007705607 0.9916776
vn 0.128515 -0.007705607 0.9916776
vn 0 1 0
vn 0 1 0
vn 0 1 0
vn 0 1 0
vn 0 -1 0
vn 0 -1 0
vn 0 -1 0
vn 0 -1 0
vn 0 1 0
vn 0 1 0
vn 0 1 0
vn 0 1 0
vn 0 -1 0
vn 0 -1 0
vn 0 -1 0
vn 0 -1 0
vn 0 1 0
vn 0 1 0
vn 0 1 0
vn 0 1 0
vn 0 -1 0
vn 0 -1 0
vn 0 -1 0
vn 0 -1 0
vn 0.2865225 0 0.9580735
vn 0.2389327 -0.01001846 0.9709844
vn 0.2389829 -0.01000798 0.9709722
vn 0.2865226 0 0.9580735
vn -0.712844 0.7013227 0
vn -0.712844 0.7013227 0
vn -0.7128439 0.7013227 0
vn -0.7128438 0.7013227 0
vn 0.7128441 -0.7013225 0
vn 0.7128441 -0.7013225 0
vn 0.7128441 -0.7013225 0
vn 0.7128441 -0.7013225 0
g ShieldPartMesh04_0
f 3/3/3 2/2/2 1/1/1
f 5/5/5 4/4/4 2/2/2
f 6/6/6 5/5/5 2/2/2
f 9/9/9 8/8/8 7/7/7
f 12/12/12 11/11/11 10/10/10
f 15/15/15 14/14/14 13/13/13
f 18/18/18 17/17/17 16/16/16
f 21/21/21 20/20/20 19/19/19
f 24/24/24 23/23/23 22/22/22
f 27/27/27 26/26/26 25/25/25
f 27/27/27 25/25/25 28/28/28
f 29/29/29 27/27/27 28/28/28
f 32/32/32 31/31/31 30/30/30
f 30/30/30 31/31/31 33/33/33
f 34/34/34 30/30/30 33/33/33
f 37/37/37 36/36/36 35/35/35
f 35/35/35 38/38/38 37/37/37
f 41/41/41 40/40/40 39/39/39
f 42/42/42 41/41/41 39/39/39
f 45/45/45 44/44/44 43/43/43
f 44/44/44 45/45/45 46/46/46
f 46/46/46 47/47/47 44/44/44
f 46/46/46 48/48/48 47/47/47
f 47/47/47 48/48/48 49/49/49
f 48/48/48 50/50/50 49/49/49
f 49/49/49 50/50/50 51/51/51
f 52/52/52 49/49/49 51/51/51
f 55/55/55 54/54/54 53/53/53
f 56/56/56 54/54/54 55/55/55
f 59/59/59 58/58/58 57/57/57
f 60/60/60 58/58/58 59/59/59
f 60/60/60 61/61/61 58/58/58
f 62/62/62 61/61/61 60/60/60
f 63/63/63 61/61/61 62/62/62
f 66/66/66 65/65/65 64/64/64
f 67/67/67 65/65/65 66/66/66
f 68/68/68 65/65/65 67/67/67
f 69/69/69 65/65/65 68/68/68
f 70/70/70 69/69/69 68/68/68
f 73/73/73 72/72/72 71/71/71
f 74/74/74 72/72/72 73/73/73
f 75/75/75 74/74/74 73/73/73
f 78/78/78 77/77/77 76/76/76
f 79/79/79 77/77/77 78/78/78
f 80/80/80 77/77/77 79/79/79
f 83/83/83 82/82/82 81/81/81
f 84/84/84 83/83/83 81/81/81
f 87/87/87 86/86/86 85/85/85
f 87/87/87 88/88/88 86/86/86
f 91/91/91 90/90/90 89/89/89
f 91/91/91 92/92/92 90/90/90
f 95/95/95 94/94/94 93/93/93
f 96/96/96 94/94/94 95/95/95
f 99/99/99 98/98/98 97/97/97
f 99/99/99 100/100/100 98/98/98
f 99/99/99 101/101/101 100/100/100
f 99/99/99 102/102/102 101/101/101
f 99/99/99 103/103/103 102/102/102
g ShieldPartMesh04_1
f 106/106/106 105/105/105 104/104/104
f 105/105/105 107/107/107 104/104/104
f 104/104/104 107/107/107 108/108/108
f 109/109/109 104/104/104 108/108/108
f 112/112/112 111/111/111 110/110/110
f 111/111/111 113/113/113 110/110/110
f 110/110/110 113/113/113 114/114/114
f 113/113/113 115/115/115 114/114/114
f 114/114/114 115/115/115 116/116/116
f 117/117/117 114/114/114 116/116/116
f 120/120/120 119/119/119 118/118/118
f 119/119/119 120/120/120 121/121/121
f 121/121/121 122/122/122 119/119/119
f 121/121/121 123/123/123 122/122/122
f 122/122/122 123/123/123 124/124/124
f 125/125/125 122/122/122 124/124/124
g ShieldPartMesh04_2
f 128/128/128 127/127/127 126/126/126
f 129/129/129 128/128/128 126/126/126
f 132/132/132 131/131/131 130/130/130
f 133/133/133 132/132/132 130/130/130
f 136/136/136 135/135/135 134/134/134
f 137/137/137 136/136/136 134/134/134
f 140/140/140 139/139/139 138/138/138
f 141/141/141 140/140/140 138/138/138
f 144/144/144 143/143/143 142/142/142
f 145/145/145 144/144/144 142/142/142
f 148/148/148 147/147/147 146/146/146
f 149/149/149 148/148/148 146/146/146
f 152/152/152 151/151/151 150/150/150
f 153/153/153 152/152/152 150/150/150
f 156/156/156 155/155/155 154/154/154
f 157/157/157 156/156/156 154/154/154
f 160/160/160 159/159/159 158/158/158
f 161/161/161 160/160/160 158/158/158
f 164/164/164 163/163/163 162/162/162
f 165/165/165 164/164/164 162/162/162
f 168/168/168 167/167/167 166/166/166
f 169/169/169 168/168/168 166/166/166
f 172/172/172 171/171/171 170/170/170
f 173/173/173 172/172/172 170/170/170
