g TrainBridgeTunnelHalfMesh
v 1.848271 1.972036 -3.034703
v 2.337199 0.03662843 -3.034704
v 2.337199 0.03662843 -1.652423
v 1.848271 1.972035 -1.652423
v -4.618234E-07 4.149843 -3.034704
v 1.414366 4.149843 -3.034703
v 1.414366 4.149842 -0.5338113
v -1.947947E-07 4.149842 -0.5338113
v 1.414366 4.149842 -0.05057704
v -1.947947E-07 4.149842 -0.05057731
v 1.414366 4.149842 0.4326567
v -1.947947E-07 4.149842 0.4326565
v -1.947947E-07 4.149842 3.034739
v 1.414366 4.149842 3.034739
v 1.613185 4.146159 -3.034703
v 1.548892 3.704362 -3.034703
v 1.548892 3.704363 -0.5338113
v 1.613185 4.146159 -0.5338113
v 1.548892 3.704363 -0.05057704
v 1.613185 4.146159 -0.05057757
v 1.548892 3.704363 0.432657
v 1.613184 4.146159 0.4326565
v 1.613185 4.146159 3.034739
v 1.548892 3.704362 3.034739
v 1.414366 4.149842 -0.5338113
v 1.414366 4.149843 -3.034703
v 1.613185 4.146159 -3.034703
v 1.613185 4.146159 -0.5338113
v 1.613185 4.146159 -0.05057757
v 1.414366 4.149842 -0.05057704
v 1.613184 4.146159 0.4326565
v 1.414366 4.149842 0.4326567
v 1.414366 4.149842 3.034739
v 1.613185 4.146159 3.034739
v 1.409715 3.708047 0.4326567
v 1.409715 3.708046 3.034739
v 1.548892 3.704362 3.034739
v 1.548892 3.704363 0.432657
v 1.409715 3.708047 -3.034703
v 1.548892 3.704363 -0.5338113
v 1.548892 3.704362 -3.034703
v 1.409715 3.708047 -0.5338113
v 1.409715 3.708047 -0.05057731
v 1.548892 3.704363 -0.05057704
v 1.409715 3.708047 0.4326567
v 1.548892 3.704363 0.432657
v 1.409715 3.708047 -0.05057731
v 1.519354 3.274044 -0.4789177
v 1.542204 3.277446 -0.05057731
v 1.409715 3.708047 -0.5338113
v 1.519354 3.274044 -0.4789177
v 1.409715 3.708047 -3.034703
v 1.848271 1.972036 -3.034703
v 1.848271 1.972035 -1.652423
v 1.409715 3.708047 0.4326567
v 1.409715 3.708047 -0.05057731
v 1.542204 3.277446 -0.05057731
v 1.519354 3.274044 0.432657
v 1.409715 3.708046 3.034739
v 1.519354 3.274044 0.432657
v 1.848271 1.972036 1.674386
v 1.848271 1.972036 3.034739
v 2.337199 0.03662883 3.034738
v 1.848271 1.972036 1.674386
v 2.337199 0.0366283 1.674385
v 2.087459 1.972036 1.674386
v 2.576387 0.0366283 1.260475
v 2.576387 0.0366283 1.674385
v 2.087458 1.972036 1.260476
v 1.758541 3.274044 0.432657
v 1.86818 2.840041 0.432657
v 1.781391 3.277446 -0.05057731
v 1.913572 2.847842 0.004316343
v 1.86818 2.840041 0.432657
v 1.758541 3.274044 0.432657
v 1.758541 3.274044 -0.4789177
v 1.868181 2.840041 -0.4789177
v 1.913572 2.847842 0.004316343
v 1.781391 3.277446 -0.05057731
v 2.087458 1.972035 -1.652423
v 1.868181 2.840041 -0.4789177
v 1.758541 3.274044 -0.4789177
v 2.087458 1.972036 -1.261254
v 2.576386 0.03662843 -1.652423
v 2.576387 0.03662843 -1.261255
v 1.848271 1.972036 1.674386
v 2.087459 1.972036 1.674386
v 2.576387 0.0366283 1.674385
v 2.337199 0.0366283 1.674385
v 2.337199 0.0366283 1.674385
v 2.576387 0.0366283 1.674385
v 2.576387 0.0366283 1.260475
v 0.0009438855 0.0366283 1.260475
v 0.0009438855 0.0366283 1.260475
v 2.576387 0.0366283 1.260475
v 2.087458 1.972036 1.260476
v 0.0009444196 1.972036 1.260476
v 1.519354 3.274044 0.432657
v 1.758541 3.274044 0.432657
v 2.087459 1.972036 1.674386
v 1.848271 1.972036 1.674386
v 0.0009444196 1.972036 1.260476
v 2.087458 1.972036 1.260476
v 1.86818 2.840041 0.432657
v 0.0009442861 2.840041 0.4326567
v 1.542204 3.277446 -0.05057731
v 1.758541 3.274044 0.432657
v 1.519354 3.274044 0.432657
v 1.781391 3.277446 -0.05057731
v 1.519354 3.274044 -0.4789177
v 1.758541 3.274044 -0.4789177
v 0.0009442861 2.840041 0.4326567
v 1.86818 2.840041 0.432657
v 1.913572 2.847842 0.004316343
v 0.0009444196 2.847842 0.004316076
v 1.868181 2.840041 -0.4789177
v 0.0009444196 2.840041 -0.4789177
v 1.848271 1.972035 -1.652423
v 2.087458 1.972035 -1.652423
v 1.758541 3.274044 -0.4789177
v 1.519354 3.274044 -0.4789177
v 0.0009444196 2.840041 -0.4789177
v 1.868181 2.840041 -0.4789177
v 2.087458 1.972036 -1.261254
v 0.0009444196 1.972036 -1.261255
v 2.337199 0.03662843 -1.652423
v 2.576386 0.03662843 -1.652423
v 2.087458 1.972035 -1.652423
v 1.848271 1.972035 -1.652423
v 0.0009444196 1.972036 -1.261255
v 2.087458 1.972036 -1.261254
v 2.576387 0.03662843 -1.261255
v 0.0009438855 0.03662843 -1.261255
v 0.0009438855 0.03662843 -1.261255
v 2.576387 0.03662843 -1.261255
v 2.576386 0.03662843 -1.652423
v 2.337199 0.03662843 -1.652423
v 0.0009444196 1.972036 1.260476
v -12.93119 1.972036 1.260474
v -12.93119 0.0366283 1.260473
v 0.0009438855 0.0366283 1.260475
v 0.0009442861 2.840041 0.4326567
v -12.93119 2.840041 0.4326549
v -12.93119 1.972036 1.260474
v 0.0009444196 1.972036 1.260476
v 0.0009444196 2.847842 0.004316076
v -12.93119 2.847842 0.004314474
v -12.93119 2.840041 0.4326549
v 0.0009442861 2.840041 0.4326567
v 0.0009444196 2.840041 -0.4789177
v -12.93119 2.840041 -0.4789195
v -12.93119 2.847842 0.004314474
v 0.0009444196 2.847842 0.004316076
v 0.0009444196 1.972036 -1.261255
v -12.93119 1.972036 -1.261257
v -12.93119 2.840041 -0.4789195
v 0.0009444196 2.840041 -0.4789177
v 0.0009438855 0.03662843 -1.261255
v -12.93119 0.03662843 -1.261257
v -12.93119 1.972036 -1.261257
v 0.0009444196 1.972036 -1.261255
v -12.93119 2.840041 0.4326549
v -12.93119 1.972036 -0.02783846
v -12.93119 1.972036 1.260474
v -12.93119 2.847842 0.004314474
v -12.93119 1.972036 -1.261257
v -12.93119 2.840041 -0.4789195
v -12.93119 1.972036 -1.261257
v -12.93119 0.03662843 -1.261257
v -12.93119 0.03662843 -0.02783846
v -12.93119 1.972036 1.260474
v -12.93119 0.0366283 1.260473
v -12.93119 0.07614242 -1.135387
v -12.93119 0.07614202 -3.034751
v 2.895542 0.07614202 -3.034749
v 2.895542 0.07614215 -1.135385
v 2.895542 0.07614215 -1.135385
v 2.895542 0.07614202 -3.034749
v 2.895542 -4.42608E-07 -3.034749
v 2.895542 -3.090936E-07 -1.135385
v -12.93119 -4.42608E-07 -3.034751
v -12.93119 0.07614202 -3.034751
v -12.93119 0.07614242 -1.135387
v -12.93119 -1.755792E-07 -1.135387
v -12.93119 0.07614229 1.135374
v -12.93119 0.07614229 3.03474
v -12.93119 -1.755792E-07 3.03474
v -12.93119 -4.42608E-07 1.135374
v 2.895542 0.07614229 3.034743
v -12.93119 0.07614229 3.03474
v -12.93119 0.07614229 1.135374
v 2.895542 0.07614229 1.135377
v 2.895542 -1.755792E-07 3.034743
v 2.895542 0.07614229 3.034743
v 2.895542 0.07614229 1.135377
v 2.895542 -4.42608E-07 1.135377
v 2.895542 0.07614215 -1.135385
v 2.895542 -3.090936E-07 -1.135385
v -12.93119 -1.755792E-07 -1.135387
v -12.93119 0.07614242 -1.135387
v -12.93119 0.07614229 1.135374
v -12.93119 -4.42608E-07 1.135374
v 2.895542 -4.42608E-07 1.135377
v 2.895542 0.07614229 1.135377
vt 0.470534 0
vt 0 0
vt 0 0.09342943
vt 0.470534 0.09342943
vt 1 0
vt 0 0
vt 0 0.3737177
vt 1 0.3737177
vt 0 0.4891367
vt 1 0.4891367
vt 0 0.6045557
vt 1 0.6045557
vt 1 1
vt 0 1
vt 1 0
vt 0.892591 0
vt 0.892591 0.3737178
vt 1 0.3737177
vt 0.892591 0.4891368
vt 1 0.4891367
vt 0.892591 0.6045557
vt 1 0.6045557
vt 1 1
vt 0.8925911 1
vt 1 0.3737177
vt 1 0
vt 1 0
vt 1 0.3737177
vt 1 0.4891367
vt 1 0.4891367
vt 1 0.6045557
vt 1 0.6045557
vt 1 1
vt 1 1
vt 0.892591 0.6045557
vt 0.8925911 1
vt 0.8925911 1
vt 0.892591 0.6045557
vt 0.892591 0
vt 0.892591 0.3737178
vt 0.892591 0
vt 0.892591 0.3737177
vt 0.892591 0.4891367
vt 0.892591 0.4891368
vt 0.892591 0.6045557
vt 0.892591 0.6045557
vt 0.892591 0.4891367
vt 0.7870767 0.3737177
vt 0.7650867 0.4891367
vt 0.892591 0.3737177
vt 0.7870767 0.3737177
vt 0.892591 0
vt 0.470534 0
vt 0.470534 0.09342943
vt 0.892591 0.6045557
vt 0.892591 0.4891367
vt 0.7650867 0.4891367
vt 0.7870768 0.6045557
vt 0.8925911 1
vt 0.7870768 0.6045557
vt 0.470534 0.9011389
vt 0.470534 1
vt 0 1
vt 0.470534 0.9011389
vt 0 0.9011389
vt 0.470534 0.9011389
vt 0 0.8022779
vt 0 0.9011389
vt 0.470534 0.8022779
vt 0.7870768 0.6045557
vt 0.6815625 0.6045557
vt 0.7650867 0.4891367
vt 0.6378779 0.4891367
vt 0.6815625 0.6045557
vt 0.7870768 0.6045557
vt 0.7870767 0.3737177
vt 0.6815625 0.3737177
vt 0.6378779 0.4891367
vt 0.7650867 0.4891367
vt 0.470534 0.09342943
vt 0.6815625 0.3737177
vt 0.7870767 0.3737177
vt 0.470534 0.1868589
vt 0 0.09342943
vt 0 0.1868589
vt 0.470534 0.9011389
vt 0.470534 0.9011389
vt 0 0.9011389
vt 0 0.9011389
vt 0 0.9011389
vt 0 0.9011389
vt 0 0.8022779
vt 0 0.8022779
vt 0 0.8022779
vt 0 0.8022779
vt 0.470534 0.8022779
vt 0.470534 0.8022779
vt 0.7870768 0.6045557
vt 0.7870768 0.6045557
vt 0.470534 0.9011389
vt 0.470534 0.9011389
vt 0.470534 0.8022779
vt 0.470534 0.8022779
vt 0.6815625 0.6045557
vt 0.6815625 0.6045557
vt 0.7650867 0.4891367
vt 0.7870768 0.6045557
vt 0.7870768 0.6045557
vt 0.7650867 0.4891367
vt 0.7870767 0.3737177
vt 0.7870767 0.3737177
vt 0.6815625 0.6045557
vt 0.6815625 0.6045557
vt 0.6378779 0.4891367
vt 0.6378779 0.4891367
vt 0.6815625 0.3737177
vt 0.6815625 0.3737177
vt 0.470534 0.09342943
vt 0.470534 0.09342943
vt 0.7870767 0.3737177
vt 0.7870767 0.3737177
vt 0.6815625 0.3737177
vt 0.6815625 0.3737177
vt 0.470534 0.1868589
vt 0.470534 0.1868589
vt 0 0.09342943
vt 0 0.09342943
vt 0.470534 0.09342943
vt 0.470534 0.09342943
vt 0.470534 0.1868589
vt 0.470534 0.1868589
vt 0 0.1868589
vt 0 0.1868589
vt 0 0.1868589
vt 0 0.1868589
vt 0 0.09342943
vt 0 0.09342943
vt 0 0
vt 0 1
vt 1 1
vt 1 0
vt 0 0
vt 0 1
vt 1 1
vt 1 0
vt 0 0
vt 0 1
vt 1 1
vt 1 0
vt 0 0
vt 0 1
vt 1 1
vt 1 0
vt 0 0
vt 0 1
vt 1 1
vt 1 0
vt 0 0
vt 0 1
vt 1 1
vt 1 0
vt 0 1
vt 0.5 1
vt 1 1
vt 0.5 1
vt 0 1
vt 1 1
vt 1 1
vt 0 1
vt 0.5 1
vt 0 1
vt 1 1
vt 0.666667 1
vt 1 1
vt 1 0
vt 0.666667 0
vt 0.666667 1
vt 1 1
vt 1 0
vt 0.666667 0
vt 0 0
vt 0 1
vt 0.333333 1
vt 0.333333 0
vt 0.6666665 1
vt 1 1
vt 1 0
vt 0.6666665 0
vt 0 0
vt 0 1
vt 0.3333335 1
vt 0.3333335 0
vt 0 0
vt 0 1
vt 0.3333335 1
vt 0.3333335 0
vt 0 0
vt 0 1
vt 1 1
vt 1 0
vt 0 0
vt 0 1
vt 1 1
vt 1 0
vn 0.9695412 0.2449283 0
vn 0.9695412 0.2449283 0
vn 0.9695412 0.2449283 0
vn 0.9695412 0.2449283 0
vn 0 1 4.227556E-07
vn 0 1 4.227556E-07
vn 0 1 4.227556E-07
vn 0 1 4.227556E-07
vn 0 1 0
vn 0 1 0
vn 0 1 0
vn 0 1 0
vn 0 1 0
vn 0 1 0
vn 0.9895765 -0.1440087 0
vn 0.9895765 -0.1440087 0
vn 0.9895765 -0.1440087 0
vn 0.9895765 -0.1440087 0
vn 0.9895765 -0.1440087 0
vn 0.9895765 -0.1440087 0
vn 0.9895765 -0.1440085 0
vn 0.9895765 -0.1440085 0
vn 0.9895765 -0.1440085 0
vn 0.9895765 -0.1440085 0
vn 0.01852319 0.9998285 0
vn 0.01852319 0.9998285 0
vn 0.01852319 0.9998285 0
vn 0.0185232 0.9998285 0
vn 0.01852049 0.9998285 0
vn 0.01852049 0.9998285 0
vn 0.01852054 0.9998285 0
vn 0.01852054 0.9998285 0
vn 0.01852054 0.9998285 0
vn 0.01852054 0.9998285 0
vn -0.02646106 -0.9996499 -4.092214E-07
vn -0.02646106 -0.9996499 -4.092214E-07
vn -0.02646106 -0.9996499 -4.092214E-07
vn -0.02646106 -0.9996499 -4.092214E-07
vn -0.02646296 -0.9996498 0
vn -0.02646296 -0.9996498 0
vn -0.02646296 -0.9996498 0
vn -0.02646296 -0.9996498 0
vn -0.02646104 -0.9996499 0
vn -0.02646104 -0.9996499 0
vn -0.02646104 -0.9996499 0
vn -0.02646104 -0.9996499 0
vn 0.9630619 0.268104 -0.02514056
vn 0.9630619 0.268104 -0.02514056
vn 0.9630619 0.268104 -0.02514055
vn 0.9630619 0.268104 -0.02514056
vn 0.9695413 0.244928 0
vn 0.9695413 0.244928 0
vn 0.9695413 0.244928 0
vn 0.9695413 0.244928 0
vn 0.9695412 0.2449284 0
vn 0.9626821 0.2695939 0.0237098
vn 0.9626821 0.2695939 0.0237098
vn 0.9626821 0.2695939 0.0237098
vn 0.9695412 0.2449284 0
vn 0.9695412 0.2449284 0
vn 0.9695412 0.2449284 0
vn 0.9695412 0.2449284 0
vn 0.9695412 0.2449283 0
vn 0.9695412 0.2449283 0
vn 0.9695412 0.2449283 0
vn 0.9695412 0.2449285 -8.974752E-07
vn 0.9695412 0.2449285 -8.974752E-07
vn 0.9695412 0.2449285 -8.974752E-07
vn 0.9695412 0.2449285 -8.974752E-07
vn 0.9695414 0.2449272 -1.23079E-06
vn 0.9695414 0.2449271 -1.23079E-06
vn 0.9589874 0.2733047 0.07515061
vn 0.9589874 0.2733048 0.07515062
vn 0.9589874 0.2733048 0.07515061
vn 0.9589874 0.2733047 0.07515061
vn 0.9614637 0.2644398 -0.07522605
vn 0.9614637 0.2644398 -0.07522606
vn 0.9614637 0.2644398 -0.07522605
vn 0.9614637 0.2644398 -0.07522604
vn 0.9695412 0.2449284 -5.649798E-07
vn 0.9695412 0.2449285 -5.649799E-07
vn 0.9695412 0.2449284 -5.649798E-07
vn 0.9695412 0.2449285 -5.649799E-07
vn 0.9695412 0.2449283 -7.511734E-07
vn 0.9695412 0.2449283 -7.511734E-07
vn 0 -5.518812E-07 1
vn 0 -5.518812E-07 1
vn 0 -5.518812E-07 1
vn 0 -5.518812E-07 1
vn 0 -1 0
vn 0 -1 0
vn 0 -1 0
vn 0 -1 0
vn 0 7.805416E-07 -1
vn 0 7.805415E-07 -1
vn 0 7.805415E-07 -1
vn 0 7.805416E-07 -1
vn 0 0.6901566 0.72366
vn 0 0.6901566 0.7236599
vn 0 0.6901566 0.72366
vn 0 0.6901566 0.7236599
vn 0 -0.6901566 -0.7236601
vn 0 -0.6901566 -0.7236601
vn 0 -0.6901565 -0.7236601
vn 0 -0.6901565 -0.7236601
vn 0 0.9999752 0.00703927
vn 0 0.9999752 0.00703927
vn 0 0.9999752 0.00703927
vn 0 0.9999752 0.00703927
vn 0 0.9999685 -0.007941153
vn 0 0.9999685 -0.007941153
vn 0 -0.9998342 -0.01820913
vn 0 -0.9998342 -0.01820913
vn 0 -0.9998342 -0.01820913
vn 0 -0.9998342 -0.01820913
vn 0 -0.9998697 0.01614106
vn 0 -0.9998697 0.01614106
vn 0 0.6694996 -0.7428125
vn 0 0.6694996 -0.7428124
vn 0 0.6694996 -0.7428125
vn 0 0.6694996 -0.7428125
vn 0 -0.6694995 0.7428126
vn 0 -0.6694995 0.7428125
vn 0 -0.6694995 0.7428125
vn 0 -0.6694995 0.7428126
vn 0 0 -1
vn 0 0 -1
vn 0 0 -1
vn 0 0 -1
vn 0 0 1
vn 0 0 1
vn 0 0 1
vn 0 0 1
vn 0 -1 0
vn 0 -1 0
vn 0 -1 0
vn 0 -1 0
vn 0 0 -1
vn 0 0 -1
vn 0 0 -1
vn 0 0 -1
vn 0 -0.6901563 -0.7236603
vn 0 -0.6901563 -0.7236603
vn 0 -0.6901563 -0.7236603
vn 0 -0.6901562 -0.7236604
vn 0 -0.9998342 -0.01820914
vn 0 -0.9998342 -0.01820914
vn 0 -0.9998342 -0.01820914
vn 0 -0.9998342 -0.01820914
vn 0 -0.9998697 0.01614123
vn 0 -0.9998697 0.01614123
vn 0 -0.9998697 0.01614123
vn 0 -0.9998697 0.01614123
vn 0 -0.6694998 0.7428123
vn 0 -0.6694998 0.7428122
vn 0 -0.6694998 0.7428122
vn 0 -0.6694998 0.7428122
vn 0 0 1
vn 0 0 1
vn 0 0 1
vn 0 0 1
vn 1 -1.601826E-06 -1.247002E-06
vn 1 -1.601826E-06 -1.247002E-06
vn 1 -1.601826E-06 -1.247002E-06
vn 1 -1.601826E-06 -1.247002E-06
vn 1 0 0
vn 1 0 0
vn 1 0 -4.329898E-07
vn 1 0 -4.329898E-07
vn 1 4.797807E-07 -4.145407E-07
vn 1 4.797807E-07 -4.145407E-07
vn 1 4.797807E-07 -4.145408E-07
vn 0 1 0
vn 0 1 0
vn 0 1 0
vn 0 1 0
vn 1 0 0
vn 1 0 0
vn 1 0 0
vn 1 0 0
vn -1 0 0
vn -1 0 0
vn -1 0 0
vn -1 0 0
vn -1 0 0
vn -1 0 0
vn -1 0 0
vn -1 0 0
vn 0 1 0
vn 0 1 0
vn 0 1 0
vn 0 1 0
vn 1 0 0
vn 1 0 0
vn 1 0 0
vn 1 0 0
vn 0 0 1
vn 0 0 1
vn 0 0 1
vn 0 0 1
vn 0 0 -1
vn 0 0 -1
vn 0 0 -1
vn 0 0 -1
g TrainBridgeTunnelHalfMesh_0
f 3/3/3 2/2/2 1/1/1
f 4/4/4 3/3/3 1/1/1
f 7/7/7 6/6/6 5/5/5
f 8/8/8 7/7/7 5/5/5
f 9/9/9 7/7/7 8/8/8
f 10/10/10 9/9/9 8/8/8
f 11/11/11 9/9/9 10/10/10
f 12/12/12 11/11/11 10/10/10
f 11/11/11 12/12/12 13/13/13
f 14/14/14 11/11/11 13/13/13
f 17/17/17 16/16/16 15/15/15
f 18/18/18 17/17/17 15/15/15
f 19/19/19 17/17/17 18/18/18
f 20/20/20 19/19/19 18/18/18
f 21/21/21 19/19/19 20/20/20
f 22/22/22 21/21/21 20/20/20
f 21/21/21 22/22/22 23/23/23
f 24/24/24 21/21/21 23/23/23
f 27/27/27 26/26/26 25/25/25
f 28/28/28 27/27/27 25/25/25
f 29/29/29 28/28/28 25/25/25
f 30/30/30 29/29/29 25/25/25
f 31/31/31 29/29/29 30/30/30
f 32/32/32 31/31/31 30/30/30
f 31/31/31 32/32/32 33/33/33
f 34/34/34 31/31/31 33/33/33
f 37/37/37 36/36/36 35/35/35
f 38/38/38 37/37/37 35/35/35
f 41/41/41 40/40/40 39/39/39
f 40/40/40 42/42/42 39/39/39
f 42/42/42 40/40/40 43/43/43
f 40/40/40 44/44/44 43/43/43
f 43/43/43 44/44/44 45/45/45
f 44/44/44 46/46/46 45/45/45
f 49/49/49 48/48/48 47/47/47
f 48/48/48 50/50/50 47/47/47
f 52/52/52 50/50/50 51/51/51
f 53/53/53 52/52/52 51/51/51
f 51/51/51 54/54/54 53/53/53
f 57/57/57 56/56/56 55/55/55
f 58/58/58 57/57/57 55/55/55
f 60/60/60 55/55/55 59/59/59
f 61/61/61 60/60/60 59/59/59
f 59/59/59 62/62/62 61/61/61
f 64/64/64 62/62/62 63/63/63
f 65/65/65 64/64/64 63/63/63
f 68/68/68 67/67/67 66/66/66
f 67/67/67 69/69/69 66/66/66
f 66/66/66 69/69/69 70/70/70
f 69/69/69 71/71/71 70/70/70
f 74/74/74 73/73/73 72/72/72
f 75/75/75 74/74/74 72/72/72
f 78/78/78 77/77/77 76/76/76
f 79/79/79 78/78/78 76/76/76
f 82/82/82 81/81/81 80/80/80
f 81/81/81 83/83/83 80/80/80
f 80/80/80 83/83/83 84/84/84
f 83/83/83 85/85/85 84/84/84
f 88/88/88 87/87/87 86/86/86
f 89/89/89 88/88/88 86/86/86
f 92/92/92 91/91/91 90/90/90
f 93/93/93 92/92/92 90/90/90
f 96/96/96 95/95/95 94/94/94
f 97/97/97 96/96/96 94/94/94
f 100/100/100 99/99/99 98/98/98
f 101/101/101 100/100/100 98/98/98
f 104/104/104 103/103/103 102/102/102
f 105/105/105 104/104/104 102/102/102
f 108/108/108 107/107/107 106/106/106
f 107/107/107 109/109/109 106/106/106
f 106/106/106 109/109/109 110/110/110
f 109/109/109 111/111/111 110/110/110
f 114/114/114 113/113/113 112/112/112
f 115/115/115 114/114/114 112/112/112
f 116/116/116 114/114/114 115/115/115
f 117/117/117 116/116/116 115/115/115
f 120/120/120 119/119/119 118/118/118
f 121/121/121 120/120/120 118/118/118
f 124/124/124 123/123/123 122/122/122
f 125/125/125 124/124/124 122/122/122
f 128/128/128 127/127/127 126/126/126
f 129/129/129 128/128/128 126/126/126
f 132/132/132 131/131/131 130/130/130
f 133/133/133 132/132/132 130/130/130
f 136/136/136 135/135/135 134/134/134
f 137/137/137 136/136/136 134/134/134
f 140/140/140 139/139/139 138/138/138
f 141/141/141 140/140/140 138/138/138
f 144/144/144 143/143/143 142/142/142
f 145/145/145 144/144/144 142/142/142
f 148/148/148 147/147/147 146/146/146
f 149/149/149 148/148/148 146/146/146
f 152/152/152 151/151/151 150/150/150
f 153/153/153 152/152/152 150/150/150
f 156/156/156 155/155/155 154/154/154
f 157/157/157 156/156/156 154/154/154
f 160/160/160 159/159/159 158/158/158
f 161/161/161 160/160/160 158/158/158
f 164/164/164 163/163/163 162/162/162
f 163/163/163 165/165/165 162/162/162
f 163/163/163 166/166/166 165/165/165
f 166/166/166 167/167/167 165/165/165
f 169/169/169 168/168/168 163/163/163
f 170/170/170 169/169/169 163/163/163
f 170/170/170 163/163/163 171/171/171
f 172/172/172 170/170/170 171/171/171
g TrainBridgeTunnelHalfMesh_1
f 175/175/175 174/174/174 173/173/173
f 176/176/176 175/175/175 173/173/173
f 179/179/179 178/178/178 177/177/177
f 180/180/180 179/179/179 177/177/177
f 183/183/183 182/182/182 181/181/181
f 184/184/184 183/183/183 181/181/181
f 187/187/187 186/186/186 185/185/185
f 188/188/188 187/187/187 185/185/185
f 191/191/191 190/190/190 189/189/189
f 192/192/192 191/191/191 189/189/189
f 195/195/195 194/194/194 193/193/193
f 196/196/196 195/195/195 193/193/193
f 199/199/199 198/198/198 197/197/197
f 200/200/200 199/199/199 197/197/197
f 203/203/203 202/202/202 201/201/201
f 204/204/204 203/203/203 201/201/201
