g TrainDoor01Mesh
v 0.02889278 0.959677 0.4718633
v 0.02889225 -0.9596772 0.4718364
v -0.02889278 -0.9596772 0.4718364
v -0.02889278 -0.9596772 0.4718364
v -0.02889198 0.9596772 0.4718633
v 0.02889278 0.959677 0.4718633
v 0.02889225 -0.9596772 0.4718364
v 0.02889225 -1.128942 0.3025689
v -0.02889278 -1.128942 0.3025689
v -0.02889278 -1.128942 0.3025689
v -0.02889278 -0.9596772 0.4718364
v 0.02889225 -0.9596772 0.4718364
v -0.02889225 0.6218818 -0.1786295
v -0.02889225 0.5453361 -0.2551766
v -0.02889225 0.9596772 -0.4718364
v -0.02889305 -0.1406863 -0.2551885
v -0.02889305 -0.2172334 -0.1786427
v -0.02889305 -0.9596772 -0.4718633
v 0.02889198 -0.2172334 -0.1786427
v 0.02889198 -0.1406863 -0.2551885
v 0.02889198 -0.9596772 -0.4718633
v -0.02889198 0.9596772 0.4718633
v -0.02889225 0.9596772 -0.4718364
v -0.02889198 1.128942 -0.3025688
v -0.02889225 1.128942 0.3026013
v -0.02889305 -0.9596772 -0.4718633
v -0.02889278 -0.9596772 0.4718364
v -0.02889278 -1.128942 0.3025689
v -0.02889278 -1.128942 -0.3026012
v 0.02889305 1.128942 -0.3025689
v 0.02889278 0.9596772 -0.4718364
v 0.02889278 0.959677 0.4718633
v 0.02889252 1.128942 0.3026012
v 0.02889225 -1.128942 0.3025689
v 0.02889225 -0.9596772 0.4718364
v 0.02889198 -0.9596772 -0.4718633
v 0.02889198 -1.128942 -0.3026013
v 0.02889305 1.128942 -0.3025689
v 0.02889252 1.128942 0.3026012
v -0.02889225 1.128942 0.3026013
v -0.02889198 1.128942 -0.3025688
v 0.02889252 1.128942 0.3026012
v 0.02889278 0.959677 0.4718633
v -0.02889198 0.9596772 0.4718633
v -0.02889225 1.128942 0.3026013
v 0.02889278 0.9596772 -0.4718364
v 0.02889305 1.128942 -0.3025689
v -0.02889198 1.128942 -0.3025688
v -0.02889225 0.9596772 -0.4718364
v 0.02889198 -0.9596772 -0.4718633
v 0.02889278 0.9596772 -0.4718364
v -0.02889225 0.9596772 -0.4718364
v -0.02889305 -0.9596772 -0.4718633
v 0.02889225 -1.128942 0.3025689
v 0.02889198 -1.128942 -0.3026013
v -0.02889278 -1.128942 -0.3026012
v -0.02889278 -1.128942 0.3025689
v 0.02889198 -1.128942 -0.3026013
v 0.02889198 -0.9596772 -0.4718633
v -0.02889305 -0.9596772 -0.4718633
v -0.02889278 -1.128942 -0.3026012
v -0.02889198 0.9596772 0.4718633
v -0.02889198 0.6218818 0.1786427
v -0.02889225 0.6218818 -0.1786295
v -0.02889225 0.9596772 -0.4718364
v -0.02889225 0.9596772 -0.4718364
v -0.02889225 0.5453361 -0.2551766
v -0.02889305 -0.1406863 -0.2551885
v -0.02889305 -0.9596772 -0.4718633
v -0.02889305 -0.9596772 -0.4718633
v -0.02889305 -0.2172334 -0.1786427
v -0.02889278 -0.2172334 0.1786295
v -0.02889278 -0.9596772 0.4718364
v 0.02889225 -0.9596772 0.4718364
v 0.02889225 -0.2172334 0.1786295
v 0.02889198 -0.2172334 -0.1786427
v 0.02889198 -0.9596772 -0.4718633
v 0.02889198 -0.9596772 -0.4718633
v 0.02889198 -0.1406863 -0.2551885
v 0.02889278 0.5453361 -0.2551766
v 0.02889278 0.9596772 -0.4718364
v 0.02889225 -0.1406876 0.2551766
v 0.02889278 0.5453345 0.2551885
v -0.02889198 0.5453348 0.2551885
v -0.02889278 -0.1406876 0.2551766
v 0.02889278 0.6218815 0.1786427
v 0.02889278 0.6218818 -0.1786295
v -0.02889225 0.6218818 -0.1786295
v -0.02889198 0.6218818 0.1786427
v 0.02889278 0.5453361 -0.2551766
v 0.02889198 -0.1406863 -0.2551885
v -0.02889305 -0.1406863 -0.2551885
v -0.02889225 0.5453361 -0.2551766
v 0.02889198 -0.2172334 -0.1786427
v 0.02889225 -0.2172334 0.1786295
v -0.02889278 -0.2172334 0.1786295
v -0.02889305 -0.2172334 -0.1786427
v -0.02889278 -0.2172334 0.1786295
v 0.02889225 -0.2172334 0.1786295
v 0.02889225 -0.1406876 0.2551766
v -0.02889278 -0.1406876 0.2551766
v -0.02889198 0.5453348 0.2551885
v 0.02889278 0.5453345 0.2551885
v 0.02889278 0.6218815 0.1786427
v -0.02889198 0.6218818 0.1786427
v -0.02889225 0.6218818 -0.1786295
v 0.02889278 0.6218818 -0.1786295
v 0.02889278 0.5453361 -0.2551766
v -0.02889225 0.5453361 -0.2551766
v -0.02889305 -0.1406863 -0.2551885
v 0.02889198 -0.1406863 -0.2551885
v 0.02889198 -0.2172334 -0.1786427
v -0.02889305 -0.2172334 -0.1786427
v -0.02889278 -0.2172334 0.1786295
v -0.02889278 -0.1406876 0.2551766
v -0.02889278 -0.9596772 0.4718364
v -0.02889198 0.5453348 0.2551885
v -0.02889198 0.9596772 0.4718633
v -0.02889198 0.6218818 0.1786427
v 0.02889225 -0.1406876 0.2551766
v 0.02889225 -0.2172334 0.1786295
v 0.02889225 -0.9596772 0.4718364
v 0.02889278 0.959677 0.4718633
v 0.02889278 0.5453345 0.2551885
v 0.02889278 0.6218815 0.1786427
v 0.02889278 0.9596772 -0.4718364
v 0.02889278 0.6218818 -0.1786295
v 0.02889278 0.5453361 -0.2551766
vt 0.6434394 0.6789796
vt 0.5949534 0.2915101
vt 0.5949534 0.2915101
vt 0.5949534 0.2915101
vt 0.6434394 0.6789796
vt 0.6434394 0.6789796
vt 0.5949534 0.2915101
vt 0.5395312 0.2580787
vt 0.5395312 0.2580787
vt 0.5395312 0.2580787
vt 0.5949534 0.2915101
vt 0.5949534 0.2915101
vt 0.3827027 0.6873994
vt 0.3343635 0.6554781
vt 0.3366965 0.688885
vt 0.3134551 0.3560761
vt 0.3536925 0.3179949
vt 0.3111221 0.3226681
vt 0.3536925 0.3179949
vt 0.3134551 0.3560758
vt 0.3111221 0.3226681
vt 0.6434394 0.6789796
vt 0.3366965 0.688885
vt 0.3947338 0.7247422
vt 0.5929344 0.7197762
vt 0.3111221 0.3226681
vt 0.5949534 0.2915101
vt 0.5395312 0.2580787
vt 0.3590119 0.2794457
vt 0.3947338 0.7247422
vt 0.3366965 0.688885
vt 0.6434394 0.6789796
vt 0.5929344 0.7197762
vt 0.5395312 0.2580787
vt 0.5949534 0.2915101
vt 0.3111221 0.3226681
vt 0.3590119 0.2794457
vt 0.3947338 0.7247422
vt 0.5929344 0.7197762
vt 0.5929344 0.7197762
vt 0.3947338 0.7247422
vt 0.5929344 0.7197762
vt 0.6434394 0.6789796
vt 0.6434394 0.6789796
vt 0.5929344 0.7197762
vt 0.3366965 0.688885
vt 0.3947338 0.7247422
vt 0.3947338 0.7247422
vt 0.3366965 0.688885
vt 0.3111221 0.3226681
vt 0.3366965 0.688885
vt 0.3366965 0.688885
vt 0.3111221 0.3226681
vt 0.5395312 0.2580787
vt 0.3590119 0.2794457
vt 0.3590119 0.2794457
vt 0.5395312 0.2580787
vt 0.3590119 0.2794457
vt 0.3111221 0.3226681
vt 0.3111221 0.3226681
vt 0.3590119 0.2794457
vt 0.6434394 0.6789796
vt 0.5974326 0.6804653
vt 0.3827027 0.6873994
vt 0.3366965 0.688885
vt 0.3366965 0.688885
vt 0.3343635 0.6554781
vt 0.3134551 0.3560761
vt 0.3111221 0.3226681
vt 0.3111221 0.3226681
vt 0.3536925 0.3179949
vt 0.5523837 0.2961832
vt 0.5949534 0.2915101
vt 0.5949534 0.2915101
vt 0.5523837 0.2961832
vt 0.3536925 0.3179949
vt 0.3111221 0.3226681
vt 0.3111221 0.3226681
vt 0.3134551 0.3560758
vt 0.3343635 0.6554776
vt 0.3366965 0.688885
vt 0.5993764 0.3268558
vt 0.6390163 0.6436333
vt 0.6390163 0.6436333
vt 0.5993763 0.3268558
vt 0.5974326 0.6804653
vt 0.3827025 0.6873994
vt 0.3827027 0.6873994
vt 0.5974326 0.6804653
vt 0.3343635 0.6554776
vt 0.3134551 0.3560758
vt 0.3134551 0.3560761
vt 0.3343635 0.6554781
vt 0.3536925 0.3179949
vt 0.5523837 0.2961832
vt 0.5523837 0.2961832
vt 0.3536925 0.3179949
vt 0.5523837 0.2961832
vt 0.5523837 0.2961832
vt 0.5993764 0.3268558
vt 0.5993763 0.3268558
vt 0.6390163 0.6436333
vt 0.6390163 0.6436333
vt 0.5974326 0.6804653
vt 0.5974326 0.6804653
vt 0.3827027 0.6873994
vt 0.3827025 0.6873994
vt 0.3343635 0.6554776
vt 0.3343635 0.6554781
vt 0.3134551 0.3560761
vt 0.3134551 0.3560758
vt 0.3536925 0.3179949
vt 0.3536925 0.3179949
vt 0.5523837 0.2961832
vt 0.5993763 0.3268558
vt 0.5949534 0.2915101
vt 0.6390163 0.6436333
vt 0.6434394 0.6789796
vt 0.5974326 0.6804653
vt 0.5993764 0.3268558
vt 0.5523837 0.2961832
vt 0.5949534 0.2915101
vt 0.6434394 0.6789796
vt 0.6390163 0.6436333
vt 0.5974326 0.6804653
vt 0.3366965 0.688885
vt 0.3827025 0.6873994
vt 0.3343635 0.6554776
vn 1.348266E-06 -1.403418E-05 1
vn 1.348266E-06 -1.403418E-05 1
vn 1.348266E-06 -1.403418E-05 1
vn -1.348272E-06 -1.399952E-05 1
vn -1.348272E-06 -1.399952E-05 1
vn -1.348272E-06 -1.399952E-05 1
vn 6.756554E-07 -0.7071139 0.7070997
vn 6.756554E-07 -0.7071139 0.7070997
vn 6.756554E-07 -0.7071139 0.7070997
vn 0 -0.7071108 0.7071027
vn 0 -0.7071108 0.7071027
vn 0 -0.7071108 0.7071027
vn -1 3.719976E-07 3.80477E-07
vn -1 5.393719E-07 -5.517567E-07
vn -1 4.258532E-07 0
vn -1 5.04167E-07 -5.464582E-07
vn -1 0 3.788808E-07
vn -1 0 0
vn 1 0 -3.788808E-07
vn 1 -5.845645E-07 5.464582E-07
vn 1 0 0
vn -1 1.872301E-06 0
vn -1 1.872302E-06 0
vn -1 1.872302E-06 0
vn -1 -2.919665E-06 -4.412454E-07
vn -1 0 0
vn -1 0 0
vn -1 0 0
vn -1 -2.919659E-06 0
vn 1 -9.361505E-07 0
vn 1 -9.361505E-07 0
vn 1 -9.361505E-07 0
vn 1 5.839321E-06 8.824908E-07
vn 1 0 0
vn 1 0 0
vn 1 0 0
vn 1 0 -4.412459E-07
vn 0 1 0
vn 0 1 0
vn 0 1 0
vn 0 1 1.122244E-06
vn 3.37836E-06 0.7070988 0.7071146
vn 3.37836E-06 0.7070989 0.7071146
vn 3.37836E-06 0.7070988 0.7071147
vn 0 0.7071025 0.7071111
vn -6.756574E-07 0.7071106 -0.7071029
vn -6.756573E-07 0.7071106 -0.7071029
vn -6.756575E-07 0.7071106 -0.707103
vn -6.756552E-07 0.7071137 -0.7070998
vn -1.348266E-06 1.401673E-05 -1
vn -1.348266E-06 1.401673E-05 -1
vn -1.348266E-06 1.401673E-05 -1
vn 0 1.403418E-05 -1
vn 0 -1 0
vn 0 -1 0
vn 0 -1 0
vn 0 -1 0
vn 0 -0.7071027 -0.7071109
vn 0 -0.7071027 -0.7071108
vn 0 -0.7071027 -0.7071108
vn 0 -0.7071016 -0.7071119
vn -1 4.276316E-07 4.710322E-07
vn -1 0 3.804768E-07
vn -1 3.719976E-07 3.80477E-07
vn -1 4.258532E-07 0
vn -1 4.258532E-07 0
vn -1 5.393719E-07 -5.517567E-07
vn -1 5.04167E-07 -5.464582E-07
vn -1 0 0
vn -1 0 0
vn -1 0 3.788808E-07
vn -1 0 3.788807E-07
vn -1 0 4.258437E-07
vn 1 0 -4.044986E-07
vn 1 0 -3.788807E-07
vn 1 0 -3.788808E-07
vn 1 0 0
vn 1 0 0
vn 1 -5.845645E-07 5.464582E-07
vn 1 -7.272686E-07 5.517566E-07
vn 1 -7.010212E-07 0
vn 0 1.733345E-05 -1
vn 0 1.733345E-05 -1
vn 0 1.733345E-05 -1
vn 0 1.733345E-05 -1
vn -2.310547E-06 -1 0
vn -2.310547E-06 -1 0
vn -2.310547E-06 -1 0
vn -2.310547E-06 -1 0
vn 0 -1.732126E-05 1
vn 0 -1.732126E-05 1
vn 0 -1.732126E-05 1
vn 0 -1.732126E-05 1
vn 0 1 0
vn 0 1 0
vn 0 1 0
vn 0 1 0
vn 3.735171E-07 0.7071127 -0.7071007
vn 3.735171E-07 0.7071127 -0.7071007
vn 3.735171E-07 0.7071128 -0.7071007
vn 3.735171E-07 0.7071127 -0.7071007
vn -2.818557E-06 -0.7071 -0.7071136
vn -2.818558E-06 -0.7071 -0.7071136
vn -2.818558E-06 -0.7071 -0.7071134
vn -2.818557E-06 -0.7071 -0.7071134
vn 0 -0.7071128 0.7071006
vn 0 -0.7071129 0.7071006
vn 0 -0.7071129 0.7071006
vn 0 -0.7071129 0.7071006
vn 0 0.7071007 0.7071127
vn 0 0.7071007 0.7071127
vn 0 0.7071007 0.7071127
vn 0 0.7071007 0.7071127
vn -1 0 3.788807E-07
vn -1 5.845487E-07 5.464402E-07
vn -1 0 4.258437E-07
vn -1 5.453543E-07 5.517379E-07
vn -1 4.276316E-07 4.710322E-07
vn -1 0 3.804768E-07
vn 1 0 -3.642936E-07
vn 1 0 -3.788807E-07
vn 1 0 -4.044986E-07
vn 1 -5.256843E-07 0
vn 1 0 -3.678253E-07
vn 1 -5.175218E-07 0
vn 1 -7.010212E-07 0
vn 1 -8.006139E-07 0
vn 1 -7.272686E-07 5.517566E-07
g TrainDoor01Mesh_0
f 3/3/3 2/2/2 1/1/1
f 6/6/6 5/5/5 4/4/4
f 9/9/9 8/8/8 7/7/7
f 12/12/12 11/11/11 10/10/10
f 15/15/15 14/14/14 13/13/13
f 18/18/18 17/17/17 16/16/16
f 21/21/21 20/20/20 19/19/19
f 24/24/24 23/23/23 22/22/22
f 22/22/22 25/25/25 24/24/24
f 28/28/28 27/27/27 26/26/26
f 26/26/26 29/29/29 28/28/28
f 32/32/32 31/31/31 30/30/30
f 30/30/30 33/33/33 32/32/32
f 36/36/36 35/35/35 34/34/34
f 34/34/34 37/37/37 36/36/36
f 40/40/40 39/39/39 38/38/38
f 38/38/38 41/41/41 40/40/40
f 44/44/44 43/43/43 42/42/42
f 42/42/42 45/45/45 44/44/44
f 48/48/48 47/47/47 46/46/46
f 46/46/46 49/49/49 48/48/48
f 52/52/52 51/51/51 50/50/50
f 50/50/50 53/53/53 52/52/52
f 56/56/56 55/55/55 54/54/54
f 54/54/54 57/57/57 56/56/56
f 60/60/60 59/59/59 58/58/58
f 58/58/58 61/61/61 60/60/60
f 64/64/64 63/63/63 62/62/62
f 65/65/65 64/64/64 62/62/62
f 68/68/68 67/67/67 66/66/66
f 69/69/69 68/68/68 66/66/66
f 72/72/72 71/71/71 70/70/70
f 73/73/73 72/72/72 70/70/70
f 76/76/76 75/75/75 74/74/74
f 77/77/77 76/76/76 74/74/74
f 80/80/80 79/79/79 78/78/78
f 81/81/81 80/80/80 78/78/78
f 84/84/84 83/83/83 82/82/82
f 85/85/85 84/84/84 82/82/82
f 88/88/88 87/87/87 86/86/86
f 89/89/89 88/88/88 86/86/86
f 92/92/92 91/91/91 90/90/90
f 93/93/93 92/92/92 90/90/90
f 96/96/96 95/95/95 94/94/94
f 97/97/97 96/96/96 94/94/94
f 100/100/100 99/99/99 98/98/98
f 101/101/101 100/100/100 98/98/98
f 104/104/104 103/103/103 102/102/102
f 105/105/105 104/104/104 102/102/102
f 108/108/108 107/107/107 106/106/106
f 109/109/109 108/108/108 106/106/106
f 112/112/112 111/111/111 110/110/110
f 113/113/113 112/112/112 110/110/110
f 116/116/116 115/115/115 114/114/114
f 117/117/117 115/115/115 116/116/116
f 118/118/118 117/117/117 116/116/116
f 118/118/118 119/119/119 117/117/117
f 122/122/122 121/121/121 120/120/120
f 122/122/122 120/120/120 123/123/123
f 120/120/120 124/124/124 123/123/123
f 123/123/123 124/124/124 125/125/125
f 123/123/123 125/125/125 126/126/126
f 125/125/125 127/127/127 126/126/126
f 126/126/126 127/127/127 128/128/128
