g TrainCargoPieceMesh
v -6.942749E-05 0.5628877 1.548999
v -4.282378 0.5628877 1.549
v -4.28237 0.8530703 1.549
v -9.346008E-07 0.853496 1.548999
v -4.282378 0.5628863 -1.513143
v -7.129669E-05 0.5628863 -1.513144
v -2.13623E-06 0.8534963 -1.513144
v -4.282371 0.8530704 -1.513142
v -1.001358E-06 0.853496 1.504549
v -4.28237 0.8530703 1.50455
v -4.282378 0.5628877 1.50455
v -6.942749E-05 0.5628877 1.504549
v -4.282371 0.8530704 -1.468692
v -2.13623E-06 0.8534963 -1.468694
v -7.129669E-05 0.5628863 -1.468694
v -4.282378 0.5628863 -1.468693
v -4.282379 0.5628863 -1.646493
v -4.282378 -8.010865E-07 -1.646492
v -6.782532E-05 -1.468658E-06 -1.646494
v -6.929398E-05 0.5628863 -1.646495
v -6.869316E-05 0.5628883 1.682348
v -6.929398E-05 -1.335144E-07 1.682349
v -4.282378 -1.335144E-07 1.68235
v -4.282378 0.5628879 1.68235
v -6.775856E-05 -1.068115E-06 -1.468693
v -4.282378 -1.335144E-07 -1.468692
v -4.282379 0.5628863 -1.468693
v -6.922722E-05 0.5628863 -1.468694
v -4.282378 -1.335144E-07 1.50455
v -6.936074E-05 -4.005432E-07 1.504549
v -6.875992E-05 0.562888 1.504548
v -4.282378 0.5628877 1.50455
v -6.929398E-05 0.5628863 -1.646495
v -6.922722E-05 0.5628863 -1.468694
v -4.282379 0.5628863 -1.468693
v -4.282379 0.5628863 -1.646493
v -4.282378 -8.010865E-07 -1.646492
v -4.282378 -1.335144E-07 -1.468692
v -6.775856E-05 -1.068115E-06 -1.468693
v -6.782532E-05 -1.468658E-06 -1.646494
v -4.282378 0.5628879 1.68235
v -4.282378 0.5628877 1.50455
v -6.875992E-05 0.562888 1.504548
v -6.869316E-05 0.5628883 1.682348
v -6.929398E-05 -1.335144E-07 1.682349
v -6.936074E-05 -4.005432E-07 1.504549
v -4.282378 -1.335144E-07 1.50455
v -4.282378 -1.335144E-07 1.68235
v -4.28237 3.71356 1.637901
v -4.28237 4.286205 1.6379
v -8.010865E-07 4.286632 1.637899
v -1.401901E-06 3.713985 1.6379
v -2.603531E-06 3.713986 -1.602043
v -2.737045E-06 4.286633 -1.602044
v -4.282372 4.286207 -1.602043
v -4.282371 3.71356 -1.602042
v -4.28237 3.71356 -1.468692
v -4.282371 4.286207 -1.468693
v -2.670288E-06 4.286633 -1.468694
v -2.603531E-06 3.713986 -1.468693
v -1.468658E-06 3.713985 1.50455
v -8.678437E-07 4.286632 1.504549
v -4.282371 4.286205 1.50455
v -4.282371 3.71356 1.504551
v -4.282371 4.286205 1.50455
v -8.678437E-07 4.286632 1.504549
v -8.678437E-07 4.286632 1.548999
v -4.282371 4.286205 1.549
v -2.670288E-06 4.286633 -1.468694
v -4.282371 4.286207 -1.468693
v -4.282371 4.286207 -1.513142
v -2.670288E-06 4.286633 -1.513144
v -4.282371 3.71356 1.549001
v -4.28237 3.71356 1.637901
v -1.401901E-06 3.713985 1.6379
v -1.401901E-06 3.713985 1.549
v -1.401901E-06 3.713985 1.549
v -1.401901E-06 3.713985 1.6379
v -8.010865E-07 4.286632 1.637899
v -8.678437E-07 4.286632 1.548999
v -8.678437E-07 4.286632 1.548999
v -8.010865E-07 4.286632 1.637899
v -4.28237 4.286205 1.6379
v -4.282371 4.286205 1.549
v -4.282371 4.286205 1.549
v -4.28237 4.286205 1.6379
v -4.28237 3.71356 1.637901
v -4.282371 3.71356 1.549001
v -2.603531E-06 3.713986 -1.513143
v -2.603531E-06 3.713986 -1.602043
v -4.282371 3.71356 -1.602042
v -4.28237 3.71356 -1.513142
v -4.28237 3.71356 -1.513142
v -4.282371 3.71356 -1.602042
v -4.282372 4.286207 -1.602043
v -4.282371 4.286207 -1.513142
v -4.282371 4.286207 -1.513142
v -4.282372 4.286207 -1.602043
v -2.737045E-06 4.286633 -1.602044
v -2.670288E-06 4.286633 -1.513144
v -2.670288E-06 4.286633 -1.513144
v -2.737045E-06 4.286633 -1.602044
v -2.603531E-06 3.713986 -1.602043
v -2.603531E-06 3.713986 -1.513143
v -3.27201 0.5421698 1.599604
v -3.272009 3.734353 1.599605
v -2.891587 3.734465 1.599604
v -2.891588 0.5422832 1.599604
v -2.891588 0.5422832 1.549
v -2.891588 0.5422832 1.599604
v -2.891587 3.734465 1.599604
v -2.891587 3.734465 1.549001
v -3.272009 3.734353 1.549001
v -3.272009 3.734353 1.599605
v -3.27201 0.5421698 1.599604
v -3.27201 0.5421698 1.549
v -1.418872 0.5421698 1.599603
v -1.418873 3.734352 1.599603
v -1.038451 3.734466 1.599604
v -1.03845 0.5422836 1.599603
v -1.038449 0.5422836 1.549
v -1.03845 0.5422836 1.599603
v -1.038451 3.734466 1.599604
v -1.038451 3.734466 1.549
v -1.418873 3.734352 1.548999
v -1.418873 3.734352 1.599603
v -1.418872 0.5421698 1.599603
v -1.418872 0.5421698 1.549
v -3.272011 0.5421698 -1.55736
v -2.891589 0.5422832 -1.557361
v -2.891588 3.734466 -1.55736
v -3.27201 3.734353 -1.55736
v -2.891588 0.5422832 -1.506757
v -2.891588 3.734466 -1.506757
v -2.891588 3.734466 -1.55736
v -2.891589 0.5422832 -1.557361
v -3.27201 3.734353 -1.506757
v -3.272011 0.5421698 -1.506757
v -3.272011 0.5421698 -1.55736
v -3.27201 3.734353 -1.55736
v -1.418872 0.5421698 -1.55736
v -1.03845 0.5422836 -1.55736
v -1.038451 3.734466 -1.55736
v -1.418873 3.734353 -1.557361
v -1.038449 0.5422836 -1.506757
v -1.038451 3.734466 -1.506757
v -1.038451 3.734466 -1.55736
v -1.03845 0.5422836 -1.55736
v -1.418873 3.734353 -1.506757
v -1.418872 0.5421698 -1.506757
v -1.418872 0.5421698 -1.55736
v -1.418873 3.734353 -1.557361
v -6.855965E-05 0.562887 -1.468694
v -4.282379 0.5628866 -1.468692
v -4.282378 0.5628877 1.50455
v -6.942749E-05 0.5628877 1.504549
v -6.942749E-05 0.5628877 1.504549
v -4.282378 0.5628877 1.50455
v -4.282382 0.3699229 1.50455
v -6.942749E-05 0.3699229 1.504549
v -4.282379 0.5628866 -1.468692
v -6.855965E-05 0.562887 -1.468694
v -6.855965E-05 0.369922 -1.468694
v -4.282382 0.369922 -1.468693
v -4.282382 0.5836801 1.504191
v -6.942749E-05 0.5836803 1.50419
v -6.942749E-05 0.5629514 1.50419
v -4.282378 0.5629513 1.504191
v -4.282382 0.5836801 0.5376379
v -6.959438E-05 0.5836803 0.5376365
v -6.942749E-05 0.5836803 1.50419
v -4.282382 0.5836801 1.504191
v -4.282379 0.5629513 0.5376378
v -6.957769E-05 0.5629514 0.5376365
v -6.959438E-05 0.5836803 0.5376365
v -4.282382 0.5836801 0.5376379
v -4.282382 0.5836801 -0.5018284
v -6.976128E-05 0.5836803 -0.5018298
v -6.976128E-05 0.5629514 -0.5018298
v -4.282379 0.5629513 -0.5018284
v -4.282382 0.5836801 -1.468382
v -6.855965E-05 0.5836803 -1.468383
v -6.976128E-05 0.5836803 -0.5018298
v -4.282382 0.5836801 -0.5018284
v -4.282379 0.5629513 -1.468382
v -6.855965E-05 0.5629514 -1.468383
v -6.855965E-05 0.5836803 -1.468383
v -4.282382 0.5836801 -1.468382
v -4.28237 0.8530703 1.549
v -4.282371 3.71356 1.549001
v -1.401901E-06 3.713985 1.549
v -9.346008E-07 0.853496 1.548999
v -2.603531E-06 3.713986 -1.513143
v -4.28237 3.71356 -1.513142
vt 0.8486355 0
vt 0.8486355 0
vt 0.8650588 0.09326677
vt 0.8658807 0.09793472
vt 0 0.1404111
vt 0 0.1404111
vt 0 0.2223488
vt 0 0.2184433
vt 0.8658807 0.09793472
vt 0.8650588 0.09326677
vt 0.8486355 0
vt 0.8486355 0
vt 0 0.2184433
vt 0 0.2223488
vt 0 0.1404111
vt 0 0.1404111
vt 0 0.1404111
vt 0 0.1404111
vt 0 0.1404111
vt 0 0.1404111
vt 0.8486355 0
vt 0.8486355 0
vt 0.8486355 0
vt 0.8486355 0
vt 0 0.1404111
vt 0 0.1404111
vt 0 0.1404111
vt 0 0.1404111
vt 0.8486355 0
vt 0.8486355 0
vt 0.8486355 0
vt 0.8486355 0
vt 0 0.1404111
vt 0 0.1404111
vt 0 0.1404111
vt 0 0.1404111
vt 0 0.1404111
vt 0 0.1404111
vt 0 0.1404111
vt 0 0.1404111
vt 0.8486355 0
vt 0.8486355 0
vt 0.8486355 0
vt 0.8486355 0
vt 0.8486355 0
vt 0.8486355 0
vt 0.8486355 0
vt 0.8486355 0
vt 0.8650588 0.09326677
vt 0.8650588 0.09326677
vt 0.8658807 0.09793472
vt 0.8658807 0.09793472
vt 0 0.2223488
vt 0 0.2223488
vt 0 0.2184433
vt 0 0.2184433
vt 0 0.2184433
vt 0 0.2184433
vt 0 0.2223488
vt 0 0.2223488
vt 0.8658807 0.09793472
vt 0.8658807 0.09793472
vt 0.8650588 0.09326677
vt 0.8650588 0.09326677
vt 0.8650588 0.09326677
vt 0 0.2173978
vt 0 0.2223488
vt 0.8650588 0.09326677
vt 0 0.2184433
vt 0.8648387 0.09201724
vt 0.8658807 0.09793472
vt 0 0.2184433
vt 0.8650588 0.09326677
vt 0.8650588 0.09326677
vt 0.8658807 0.09793472
vt 0.8658807 0.09793472
vt 0.8658807 0.09793472
vt 0.8658807 0.09793472
vt 0.8658807 0.09793472
vt 0.8658807 0.09793472
vt 0.8658807 0.09793472
vt 0.8658807 0.09793472
vt 0.8650588 0.09326677
vt 0.8650588 0.09326677
vt 0.8650588 0.09326677
vt 0.8650588 0.09326677
vt 0.8650588 0.09326677
vt 0.8650588 0.09326677
vt 0 0.2223488
vt 0 0.2223488
vt 0 0.2184433
vt 0 0.2184433
vt 0 0.2184433
vt 0 0.2184433
vt 0 0.2184433
vt 0 0.2184433
vt 0 0.2184433
vt 0 0.2184433
vt 0 0.2223488
vt 0 0.2223488
vt 0 0.2223488
vt 0 0.2223488
vt 0 0.2223488
vt 0 0.2223488
vt 0.8648387 0.09201724
vt 0.8648387 0.09201724
vt 0.8650588 0.09326677
vt 0.8650588 0.09326677
vt 0.8650588 0.09326677
vt 0.8650588 0.09326677
vt 0.8650588 0.09326677
vt 0.8650588 0.09326677
vt 0.8648387 0.09201724
vt 0.8648387 0.09201724
vt 0.8648387 0.09201724
vt 0.8648387 0.09201724
vt 0.8648387 0.09201724
vt 0.8648387 0.09201724
vt 0.8650588 0.09326677
vt 0.8650588 0.09326677
vt 0.8650588 0.09326677
vt 0.8650588 0.09326677
vt 0.8650588 0.09326677
vt 0.8650588 0.09326677
vt 0.8648387 0.09201724
vt 0.8648387 0.09201724
vt 0.8648387 0.09201724
vt 0.8648387 0.09201724
vt 0.8648387 0.09201724
vt 0.8650588 0.09326677
vt 0.8650588 0.09326677
vt 0.8648387 0.09201724
vt 0.8650588 0.09326677
vt 0.8650588 0.09326677
vt 0.8650588 0.09326677
vt 0.8650588 0.09326677
vt 0.8648387 0.09201724
vt 0.8648387 0.09201724
vt 0.8648387 0.09201724
vt 0.8648387 0.09201724
vt 0.8648387 0.09201724
vt 0.8650588 0.09326677
vt 0.8650588 0.09326677
vt 0.8648387 0.09201724
vt 0.8650588 0.09326677
vt 0.8650588 0.09326677
vt 0.8650588 0.09326677
vt 0.8650588 0.09326677
vt 0.8648387 0.09201724
vt 0.8648387 0.09201724
vt 0.8648387 0.09201724
vt 0.8648387 0.09201724
vt 0 0.1404111
vt 0 0.1404111
vt 0.8486355 0
vt 0.8486354 0
vt 0.8486354 0
vt 0.8486355 0
vt 0.8486355 0
vt 0.8486355 0
vt 0 0.1404111
vt 0 0.1404111
vt 0 0.1404111
vt 0 0.1404111
vt 1 0.8739079
vt 1 0.3386007
vt 0 0.3386007
vt 0 0.873827
vt 1 0.8739079
vt 1 0.3386007
vt 0 0.3386007
vt 0 0.8739079
vt 1 0.8738269
vt 1 0.3386006
vt 0 0.3386007
vt 0 0.8739079
vt 1 0.873908
vt 1 0.3386007
vt 0 0.3386007
vt 0 0.873827
vt 1 0.8739079
vt 1 0.3386007
vt 0 0.3386007
vt 0 0.873908
vt 1 0.8738269
vt 1 0.3386007
vt 0 0.3386007
vt 0 0.8739079
vt 0.8650588 0.09326677
vt 0.8650588 0.09326677
vt 0.8658807 0.09793472
vt 0.8658807 0.09793472
vt 0 0.2223488
vt 0 0.2184433
vn 0 0 1
vn 0 0 1
vn 0 0 1
vn 0 0 1
vn 0 0 -1
vn 0 0 -1
vn 0 0 -1
vn 0 0 -1
vn 0 0 -1
vn 0 0 -1
vn 0 0 -1
vn 0 0 -1
vn 0 0 1
vn 0 0 1
vn 0 0 1
vn 0 0 1
vn 0 -1.506193E-06 -1
vn 0 -1.506193E-06 -1
vn 0 -1.506193E-06 -1
vn 0 -1.506193E-06 -1
vn 0 1.50619E-06 1
vn 0 1.50619E-06 1
vn 0 1.50619E-06 1
vn 0 1.50619E-06 1
vn 0 1.506193E-06 1
vn 0 1.506193E-06 1
vn 0 1.506193E-06 1
vn 0 1.506193E-06 1
vn 0 -1.506189E-06 -1
vn 0 -1.50619E-06 -1
vn 0 -1.50619E-06 -1
vn 0 -1.50619E-06 -1
vn 0 1 -1.66893E-06
vn 0 1 -1.66893E-06
vn 0 1 -1.66893E-06
vn 0 1 -1.66893E-06
vn 0 -1 1.907349E-06
vn 0 -1 1.907349E-06
vn 0 -1 1.907349E-06
vn 0 -1 1.907349E-06
vn 0 1 -1.430512E-06
vn 0 1 -1.430511E-06
vn 0 1 -1.430512E-06
vn 0 1 -1.430511E-06
vn 0 -1 1.907349E-06
vn 0 -1 1.907349E-06
vn 0 -1 1.907349E-06
vn 0 -1 1.907349E-06
vn 0 1.18442E-06 1
vn 0 1.18442E-06 1
vn 0 1.18442E-06 1
vn 0 1.18442E-06 1
vn 0 -1.184418E-06 -1
vn 0 -1.184418E-06 -1
vn 0 -1.184418E-06 -1
vn 0 -1.184418E-06 -1
vn 0 0 1
vn 0 1.184418E-06 1
vn 0 1.184418E-06 1
vn 0 0 1
vn 0 0 -1
vn 0 -1.18442E-06 -1
vn 0 -1.18442E-06 -1
vn 0 0 -1
vn -9.946885E-05 1 0
vn -9.946885E-05 1 0
vn -9.946885E-05 1 0
vn -9.946885E-05 1 0
vn -9.946889E-05 1 0
vn -9.94689E-05 1 0
vn -9.946889E-05 1 0
vn -9.94689E-05 1 0
vn 9.942929E-05 -1 0
vn 9.94293E-05 -1 0
vn 9.942929E-05 -1 0
vn 9.94293E-05 -1 0
vn 1 -1.021499E-06 0
vn 1 -1.021499E-06 0
vn 1 -1.021499E-06 0
vn 1 -1.021499E-06 0
vn -9.946887E-05 1 0
vn -9.946887E-05 1 0
vn -9.946887E-05 1 0
vn -9.946887E-05 1 0
vn -1 -1.199278E-06 8.745989E-06
vn -1 -1.199278E-06 8.745989E-06
vn -1 -1.199278E-06 8.745989E-06
vn -1 -1.199278E-06 8.745989E-06
vn 9.950851E-05 -1 0
vn 9.950851E-05 -1 0
vn 9.950851E-05 -1 0
vn 9.950851E-05 -1 0
vn -1 -1.939537E-06 9.699665E-06
vn -1 -1.939537E-06 9.699665E-06
vn -1 -1.939537E-06 9.699665E-06
vn -1 -1.939537E-06 9.699665E-06
vn -9.946888E-05 1 0
vn -9.946888E-05 1 0
vn -9.94689E-05 1 0
vn -9.946889E-05 1 0
vn 1 0 0
vn 1 0 0
vn 1 0 0
vn 1 0 0
vn 0 0 1
vn 0 0 1
vn 0 0 1
vn 0 0 1
vn 1 -3.682635E-07 6.538685E-06
vn 1 -3.682635E-07 6.538684E-06
vn 1 -3.682635E-07 6.538685E-06
vn 1 -3.682635E-07 6.538684E-06
vn -1 3.682622E-07 0
vn -1 3.682622E-07 0
vn -1 3.682622E-07 0
vn -1 3.682622E-07 0
vn -9.513819E-07 0 1
vn -9.513819E-07 0 1
vn -9.513819E-07 0 1
vn -9.513819E-07 0 1
vn 1 4.816294E-07 6.538686E-06
vn 1 4.816294E-07 6.538686E-06
vn 1 4.816294E-07 6.538686E-06
vn 1 4.816294E-07 6.538686E-06
vn -1 -3.753939E-07 0
vn -1 -3.753939E-07 0
vn -1 -3.753939E-07 0
vn -1 -3.753939E-07 0
vn 0 0 -1
vn 0 0 -1
vn 0 0 -1
vn 0 0 -1
vn 1 0 -6.864526E-06
vn 1 0 -6.864526E-06
vn 1 0 -6.864526E-06
vn 1 0 -6.864526E-06
vn -1 3.682622E-07 0
vn -1 3.682622E-07 0
vn -1 3.682622E-07 0
vn -1 3.682622E-07 0
vn 9.514294E-07 0 -1
vn 9.514294E-07 0 -1
vn 9.514294E-07 0 -1
vn 9.514294E-07 0 -1
vn 1 4.816304E-07 -6.864524E-06
vn 1 4.816304E-07 -6.864524E-06
vn 1 4.816304E-07 -6.864524E-06
vn 1 4.816304E-07 -6.864524E-06
vn -1 -3.753938E-07 0
vn -1 -3.753938E-07 0
vn -1 -3.753938E-07 0
vn -1 -3.753938E-07 0
vn 0 -1 0
vn 0 -1 0
vn 0 -1 0
vn 0 -1 0
vn 3.609018E-07 0 1
vn 3.609018E-07 0 1
vn 3.609018E-07 0 1
vn 3.609017E-07 0 1
vn 0 0 -1
vn 0 0 -1
vn 0 0 -1
vn 0 0 -1
vn 0 0 1
vn 0 0 1
vn 0 0 1
vn 0 0 1
vn 0 1 0
vn 0 1 0
vn 0 1 0
vn 0 1 0
vn 0 1.022499E-06 -1
vn 0 1.0225E-06 -1
vn 0 1.022499E-06 -1
vn 0 1.0225E-06 -1
vn 0 1.02253E-06 1
vn 0 1.02253E-06 1
vn 0 1.02253E-06 1
vn 0 1.02253E-06 1
vn 0 1 0
vn 0 1 0
vn 0 1 0
vn 0 1 0
vn 0 0 -1
vn 0 0 -1
vn 0 0 -1
vn 0 0 -1
vn 0 0 1
vn 0 0 1
vn 0 0 1
vn 0 0 1
vn 0 0 -1
vn 0 0 -1
g TrainCargoPieceMesh_0
f 3/3/3 2/2/2 1/1/1
f 4/4/4 3/3/3 1/1/1
f 7/7/7 6/6/6 5/5/5
f 8/8/8 7/7/7 5/5/5
f 11/11/11 10/10/10 9/9/9
f 12/12/12 11/11/11 9/9/9
f 15/15/15 14/14/14 13/13/13
f 16/16/16 15/15/15 13/13/13
f 19/19/19 18/18/18 17/17/17
f 20/20/20 19/19/19 17/17/17
f 23/23/23 22/22/22 21/21/21
f 24/24/24 23/23/23 21/21/21
f 27/27/27 26/26/26 25/25/25
f 28/28/28 27/27/27 25/25/25
f 31/31/31 30/30/30 29/29/29
f 32/32/32 31/31/31 29/29/29
f 35/35/35 34/34/34 33/33/33
f 36/36/36 35/35/35 33/33/33
f 39/39/39 38/38/38 37/37/37
f 40/40/40 39/39/39 37/37/37
f 43/43/43 42/42/42 41/41/41
f 44/44/44 43/43/43 41/41/41
f 47/47/47 46/46/46 45/45/45
f 48/48/48 47/47/47 45/45/45
f 51/51/51 50/50/50 49/49/49
f 52/52/52 51/51/51 49/49/49
f 55/55/55 54/54/54 53/53/53
f 56/56/56 55/55/55 53/53/53
f 59/59/59 58/58/58 57/57/57
f 60/60/60 59/59/59 57/57/57
f 63/63/63 62/62/62 61/61/61
f 64/64/64 63/63/63 61/61/61
f 67/67/67 66/66/66 65/65/65
f 68/68/68 67/67/67 65/65/65
f 71/71/71 70/70/70 69/69/69
f 72/72/72 71/71/71 69/69/69
f 75/75/75 74/74/74 73/73/73
f 76/76/76 75/75/75 73/73/73
f 79/79/79 78/78/78 77/77/77
f 80/80/80 79/79/79 77/77/77
f 83/83/83 82/82/82 81/81/81
f 84/84/84 83/83/83 81/81/81
f 87/87/87 86/86/86 85/85/85
f 88/88/88 87/87/87 85/85/85
f 91/91/91 90/90/90 89/89/89
f 92/92/92 91/91/91 89/89/89
f 95/95/95 94/94/94 93/93/93
f 96/96/96 95/95/95 93/93/93
f 99/99/99 98/98/98 97/97/97
f 100/100/100 99/99/99 97/97/97
f 103/103/103 102/102/102 101/101/101
f 104/104/104 103/103/103 101/101/101
f 107/107/107 106/106/106 105/105/105
f 108/108/108 107/107/107 105/105/105
f 111/111/111 110/110/110 109/109/109
f 112/112/112 111/111/111 109/109/109
f 115/115/115 114/114/114 113/113/113
f 116/116/116 115/115/115 113/113/113
f 119/119/119 118/118/118 117/117/117
f 120/120/120 119/119/119 117/117/117
f 123/123/123 122/122/122 121/121/121
f 124/124/124 123/123/123 121/121/121
f 127/127/127 126/126/126 125/125/125
f 128/128/128 127/127/127 125/125/125
f 131/131/131 130/130/130 129/129/129
f 132/132/132 131/131/131 129/129/129
f 135/135/135 134/134/134 133/133/133
f 136/136/136 135/135/135 133/133/133
f 139/139/139 138/138/138 137/137/137
f 140/140/140 139/139/139 137/137/137
f 143/143/143 142/142/142 141/141/141
f 144/144/144 143/143/143 141/141/141
f 147/147/147 146/146/146 145/145/145
f 148/148/148 147/147/147 145/145/145
f 151/151/151 150/150/150 149/149/149
f 152/152/152 151/151/151 149/149/149
g TrainCargoPieceMesh_1
f 155/155/155 154/154/154 153/153/153
f 156/156/156 155/155/155 153/153/153
f 159/159/159 158/158/158 157/157/157
f 160/160/160 159/159/159 157/157/157
f 163/163/163 162/162/162 161/161/161
f 164/164/164 163/163/163 161/161/161
g TrainCargoPieceMesh_2
f 167/167/167 166/166/166 165/165/165
f 168/168/168 167/167/167 165/165/165
f 171/171/171 170/170/170 169/169/169
f 172/172/172 171/171/171 169/169/169
f 175/175/175 174/174/174 173/173/173
f 176/176/176 175/175/175 173/173/173
f 179/179/179 178/178/178 177/177/177
f 180/180/180 179/179/179 177/177/177
f 183/183/183 182/182/182 181/181/181
f 184/184/184 183/183/183 181/181/181
f 187/187/187 186/186/186 185/185/185
f 188/188/188 187/187/187 185/185/185
f 191/191/191 190/190/190 189/189/189
f 192/192/192 191/191/191 189/189/189
f 194/194/194 193/193/193 7/7/7
f 8/8/8 194/194/194 7/7/7
f 60/60/60 57/57/57 13/13/13
f 14/14/14 60/60/60 13/13/13
f 64/64/64 61/61/61 9/9/9
f 10/10/10 64/64/64 9/9/9
