g TrainContainerDoor01Mesh
v 0.07218377 1.487666 0.6359383
v 0.07218377 1.487666 0.2635
v 0.07218377 -1.487666 0.2635
v 0.07218377 -1.487666 0.6359383
v -0.03602432 -1.54973 0.7237869
v -0.03602432 -1.54973 0.1769871
v 0.07930008 -1.636953 0.1165892
v 0.07930008 -1.636953 0.723787
v 0.07930008 -1.636953 0.1165892
v -0.03602432 -1.54973 0.1769871
v -0.03602432 1.54973 0.1769871
v 0.07930008 1.636953 0.1165892
v 0.07930008 1.636953 0.1165892
v -0.03602432 1.54973 0.1769871
v -0.03602432 1.54973 0.7237869
v 0.07930008 1.636953 0.723787
v 0.07929955 1.636953 1.330985
v -0.03602432 1.54973 1.270587
v -0.03602432 -1.54973 1.270587
v 0.07929955 -1.636953 1.330985
v -0.03602432 1.54973 0.7237869
v -0.03602432 1.54973 1.270587
v 0.07929955 1.636953 1.330985
v 0.07930008 1.636953 0.723787
v 0.07218429 -1.487666 1.184074
v 0.07218429 1.487666 1.184074
v 0.07218429 1.487666 0.8116354
v 0.07218429 -1.487666 0.8116354
v 0.07929955 -1.636953 1.330985
v -0.03602432 -1.54973 1.270587
v -0.03602432 -1.54973 0.7237869
v 0.07930008 -1.636953 0.723787
v -0.03602432 1.54973 0.7237869
v 0.07218377 1.487666 0.6359383
v 0.07218377 -1.487666 0.6359383
v -0.03602432 -1.54973 0.7237869
v -0.03602432 -1.54973 0.7237869
v 0.07218377 -1.487666 0.6359383
v 0.07218377 -1.487666 0.2635
v -0.03602432 -1.54973 0.1769871
v -0.03602432 -1.54973 0.1769871
v 0.07218377 -1.487666 0.2635
v 0.07218377 1.487666 0.2635
v -0.03602432 1.54973 0.1769871
v -0.03602432 1.54973 0.1769871
v 0.07218377 1.487666 0.2635
v 0.07218377 1.487666 0.6359383
v -0.03602432 1.54973 0.7237869
v -0.03602432 -1.54973 1.270587
v 0.07218429 -1.487666 1.184074
v 0.07218429 -1.487666 0.8116354
v -0.03602432 -1.54973 0.7237869
v -0.03602432 -1.54973 0.7237869
v 0.07218429 -1.487666 0.8116354
v 0.07218429 1.487666 0.8116354
v -0.03602432 1.54973 0.7237869
v -0.03602432 1.54973 0.7237869
v 0.07218429 1.487666 0.8116354
v 0.07218429 1.487666 1.184074
v -0.03602432 1.54973 1.270587
v -0.03602432 1.54973 1.270587
v 0.07218429 1.487666 1.184074
v 0.07218429 -1.487666 1.184074
v -0.03602432 -1.54973 1.270587
v 0.04332008 -1.724866 1.447574
v 0.04332008 1.724866 1.447574
v 0.07930008 1.703289 1.426932
v 0.07930008 -1.703289 1.426932
v 0.07930008 -1.703289 0.02064186
v 0.07930008 1.703289 0.02064186
v 0.04332008 1.724866 1.49214E-15
v 0.04332008 -1.724866 1.49214E-15
v 0.04332008 -1.754343 0.7237869
v 0.04332008 -1.754343 1.426932
v 0.07929955 -1.716294 1.395833
v 0.07930008 -1.721317 0.7237869
v 0.07930008 1.721317 0.7237869
v 0.07929955 1.716294 1.395833
v 0.04332008 1.754343 1.426932
v 0.04332008 1.754343 0.7237869
v 0.07930008 -1.721317 0.7237869
v 0.07930008 -1.716294 0.0517407
v 0.04332008 -1.754343 0.02064186
v 0.04332008 -1.754343 0.7237869
v 0.04332008 1.754343 0.7237869
v 0.07930008 1.716294 0.0517407
v 0.07930008 1.721317 0.7237869
v 0.04332008 1.754343 0.02064186
v 0.04332008 1.724866 1.49214E-15
v 0.07930008 1.703289 0.02064186
v 0.07930008 -1.636953 0.723787
v 0.07930008 -1.716294 0.0517407
v 0.07930008 -1.721317 0.7237869
v 0.07930008 -1.636953 0.1165892
v 0.07930008 -1.703289 0.02064186
v 0.07930008 1.703289 0.02064186
v 0.07930008 1.636953 0.1165892
v 0.07930008 1.716294 0.0517407
v 0.07930008 1.636953 0.723787
v 0.07930008 1.721317 0.7237869
v 0.07930008 1.636953 0.723787
v 0.07929955 1.716294 1.395833
v 0.07930008 1.721317 0.7237869
v 0.07929955 1.636953 1.330985
v 0.07930008 1.703289 1.426932
v 0.07929955 -1.636953 1.330985
v 0.07930008 -1.703289 1.426932
v 0.07929955 -1.716294 1.395833
v 0.07930008 -1.636953 0.723787
v 0.07930008 -1.721317 0.7237869
v 0.07930008 -1.716294 0.0517407
v 0.07930008 -1.703289 0.02064186
v 0.04332008 -1.724866 1.49214E-15
v 0.04332008 -1.754343 0.02064186
v 0.04332008 1.754343 1.426932
v 0.07929955 1.716294 1.395833
v 0.07930008 1.703289 1.426932
v 0.04332008 1.724866 1.447574
v 0.07929955 -1.716294 1.395833
v 0.04332008 -1.754343 1.426932
v 0.04332008 -1.724866 1.447574
v 0.07930008 -1.703289 1.426932
v 0.04332008 -1.724866 1.447574
v -0.07930008 -1.724866 1.447574
v -0.07930008 1.724866 1.447574
v 0.04332008 1.724866 1.447574
v 0.04332008 1.724866 1.49214E-15
v -0.07930008 1.724866 1.49214E-15
v -0.07930008 -1.724866 1.49214E-15
v 0.04332008 -1.724866 1.49214E-15
v 0.04332008 -1.724866 1.49214E-15
v -0.07930008 -1.724866 1.49214E-15
v -0.07930008 -1.754343 0.02064186
v 0.04332008 -1.754343 0.02064186
v 0.04332008 1.754343 0.02064186
v -0.07930008 1.754343 0.02064186
v -0.07930008 1.724866 1.49214E-15
v 0.04332008 1.724866 1.49214E-15
v 0.04332008 1.724866 1.447574
v -0.07930008 1.724866 1.447574
v -0.07930008 1.754343 1.426932
v 0.04332008 1.754343 1.426932
v 0.04332008 -1.754343 1.426932
v -0.07930008 -1.754343 1.426932
v -0.07930008 -1.724866 1.447574
v 0.04332008 -1.724866 1.447574
v 0.04332008 -1.754343 0.7237869
v -0.07930008 -1.754343 0.7237869
v -0.07930008 -1.754343 1.426932
v 0.04332008 -1.754343 1.426932
v 0.04332008 1.754343 1.426932
v -0.07930008 1.754343 1.426932
v -0.07930008 1.754343 0.7237869
v 0.04332008 1.754343 0.7237869
v 0.04332008 -1.754343 0.02064186
v -0.07930008 -1.754343 0.02064186
v -0.07930008 -1.754343 0.7237869
v 0.04332008 -1.754343 0.7237869
v 0.04332008 1.754343 0.7237869
v -0.07930008 1.754343 0.7237869
v -0.07930008 1.754343 0.02064186
v 0.04332008 1.754343 0.02064186
v -0.07930008 -1.724866 1.447574
v -0.07930008 -1.754343 1.426932
v -0.07930008 -1.754343 0.7237869
v -0.07930008 -1.754343 0.02064186
v -0.07930008 -1.724866 1.49214E-15
v -0.07930008 1.724866 1.447574
v -0.07930008 1.724866 1.49214E-15
v -0.07930008 1.754343 1.426932
v -0.07930008 1.754343 0.02064186
v -0.07930008 1.754343 0.7237869
vt 0.6022727 0.25
vt 0.625 0.25
vt 0.625 0
vt 0.6022727 0
vt 0.6022727 0
vt 0.625 0
vt 0.625 0
vt 0.6022727 0
vt 0.625 0
vt 0.625 0
vt 0.625 0.25
vt 0.625 0.25
vt 0.625 0.25
vt 0.625 0.25
vt 0.6022727 0.25
vt 0.6022727 0.25
vt 0.375 0.25
vt 0.375 0.25
vt 0.375 0
vt 0.375 0
vt 0.3977273 0.25
vt 0.375 0.25
vt 0.375 0.25
vt 0.3977273 0.25
vt 0.375 0
vt 0.375 0.25
vt 0.3977273 0.25
vt 0.3977273 0
vt 0.375 0
vt 0.375 0
vt 0.3977273 0
vt 0.3977273 0
vt 0.6022727 0.25
vt 0.6022727 0.25
vt 0.6022727 0
vt 0.6022727 0
vt 0.6022727 0
vt 0.6022727 0
vt 0.625 0
vt 0.625 0
vt 0.625 0
vt 0.625 0
vt 0.625 0.25
vt 0.625 0.25
vt 0.625 0.25
vt 0.625 0.25
vt 0.6022727 0.25
vt 0.6022727 0.25
vt 0.375 0
vt 0.375 0
vt 0.3977273 0
vt 0.3977273 0
vt 0.3977273 0
vt 0.3977273 0
vt 0.3977273 0.25
vt 0.3977273 0.25
vt 0.3977273 0.25
vt 0.3977273 0.25
vt 0.375 0.25
vt 0.375 0.25
vt 0.375 0.25
vt 0.375 0.25
vt 0.375 0
vt 0.375 0
vt 0.3750002 0.000804884
vt 0.3750001 0.2491009
vt 0.3757735 0.2456708
vt 0.3757735 0.004329547
vt 0.6242265 0.004329256
vt 0.6242265 0.2456705
vt 0.625 0.2491949
vt 0.625 0.0008991007
vt 0.3977273 0.9963976
vt 0.3757735 0.9967735
vt 0.3769388 1
vt 0.3977273 1
vt 0.3977273 0.25
vt 0.3755228 0.25
vt 0.3757735 0.2532265
vt 0.3977273 0.2536024
vt 0.6022727 0
vt 0.6244772 0
vt 0.6242265 0
vt 0.6022727 0
vt 0.6022727 0.2536024
vt 0.6244772 0.25
vt 0.6022727 0.25
vt 0.6242265 0.2532265
vt 0.625 0.2524998
vt 0.625 0.2524998
vt 0.6022727 0
vt 0.6244772 0
vt 0.6022727 0
vt 0.625 0
vt 0.6242265 0.004329256
vt 0.6242265 0.2456705
vt 0.625 0.25
vt 0.6244772 0.25
vt 0.6022727 0.25
vt 0.6022727 0.25
vt 0.3977273 0.25
vt 0.3755228 0.25
vt 0.3977273 0.25
vt 0.375 0.25
vt 0.3757735 0.2456708
vt 0.375 0
vt 0.3757735 0.004329547
vt 0.3755228 0
vt 0.3977273 0
vt 0.3977273 0
vt 0.6244772 0
vt 0.6242265 0.004329256
vt 0.625 0.0008991007
vt 0.625 0.0008991007
vt 0.375 0.2491009
vt 0.3755228 0.25
vt 0.3757735 0.2456708
vt 0.3750001 0.2491009
vt 0.375 0.9975002
vt 0.3757735 0.9967735
vt 0.375 0.9975002
vt 0.375 0.9975002
vt 0 0
vt 0 1
vt 1 1
vt 1 0
vt 0 0
vt 0 1
vt 1 1
vt 1 0
vt 0 0
vt 0 1
vt 1 1
vt 1 0
vt 0 0
vt 0 1
vt 1 1
vt 1 0
vt 0 0
vt 0 1
vt 1 1
vt 1 0
vt 0 0
vt 0 1
vt 1 1
vt 1 0
vt 0 0
vt 0 1
vt 1 1
vt 1 0
vt 0 0
vt 0 1
vt 1 1
vt 1 0
vt 0 0
vt 0 1
vt 1 1
vt 1 0
vt 0 0
vt 0 1
vt 1 1
vt 1 0
vt 0 1
vt 0 1
vt 0 1
vt 0 1
vt 0 1
vt 0 1
vt 0 1
vt 0 1
vt 0 1
vt 0 1
vn 1 0 0
vn 1 0 0
vn 1 0 0
vn 1 0 0
vn 0.6032248 0.7975712 0
vn 0.6032248 0.7975712 0
vn 0.6032248 0.7975712 0
vn 0.6032248 0.7975712 0
vn 0.4639458 0 0.8858635
vn 0.4639458 0 0.8858635
vn 0.4639458 0 0.8858635
vn 0.4639458 0 0.8858635
vn 0.6032251 -0.7975709 0
vn 0.6032251 -0.7975709 0
vn 0.6032252 -0.7975709 0
vn 0.6032251 -0.7975709 0
vn 0.4639469 0 -0.8858629
vn 0.4639469 0 -0.8858629
vn 0.463947 0 -0.8858629
vn 0.4639469 0 -0.885863
vn 0.6032284 -0.7975685 0
vn 0.6032283 -0.7975685 0
vn 0.6032284 -0.7975685 0
vn 0.6032283 -0.7975685 0
vn 1 0 0
vn 1 0 0
vn 1 0 0
vn 1 0 0
vn 0.6032279 0.7975689 0
vn 0.6032279 0.7975689 0
vn 0.6032279 0.7975689 0
vn 0.6032279 0.7975689 0
vn 0.6302877 0 0.7763616
vn 0.6302877 0 0.7763616
vn 0.6302876 0 0.7763616
vn 0.6302877 0 0.7763616
vn 0.4975355 -0.8674436 0
vn 0.4975355 -0.8674436 0
vn 0.4975355 -0.8674436 0
vn 0.4975355 -0.8674436 0
vn 0.6244599 0 -0.7810569
vn 0.6244599 0 -0.7810569
vn 0.6244599 0 -0.7810569
vn 0.6244599 0 -0.7810569
vn 0.497535 0.8674439 0
vn 0.497535 0.8674439 0
vn 0.4975351 0.8674439 0
vn 0.497535 0.8674439 0
vn 0.4975324 -0.8674454 0
vn 0.4975325 -0.8674454 0
vn 0.4975324 -0.8674454 0
vn 0.4975325 -0.8674454 0
vn 0.6302862 0 -0.7763629
vn 0.6302862 0 -0.7763628
vn 0.6302862 0 -0.7763629
vn 0.6302862 0 -0.7763629
vn 0.4975317 0.8674458 0
vn 0.4975317 0.8674458 0
vn 0.4975317 0.8674458 0
vn 0.4975317 0.8674458 0
vn 0.624458 0 0.7810584
vn 0.6244581 0 0.7810584
vn 0.6244581 0 0.7810584
vn 0.6244581 0 0.7810584
vn 0.4976251 0 0.8673923
vn 0.4976251 0 0.8673923
vn 0.4976251 0 0.8673923
vn 0.4976251 0 0.8673923
vn 0.4976259 0 -0.8673918
vn 0.4976259 0 -0.8673918
vn 0.4976259 0 -0.8673918
vn 0.497626 0 -0.8673918
vn 0.7032876 -0.7109007 0.002596936
vn 0.7100969 -0.7034868 0.02947547
vn 0.7067849 -0.7072449 0.01611635
vn 0.7032875 -0.7109007 0.002596936
vn 0.7032885 0.7108998 0.002597173
vn 0.7067857 0.7072442 0.01611631
vn 0.7100976 0.7034861 0.0294752
vn 0.7032885 0.7108998 0.002597174
vn 0.7032832 -0.7109051 -0.002596669
vn 0.7067804 -0.7072494 -0.01611618
vn 0.7100924 -0.7034913 -0.02947533
vn 0.7032832 -0.7109051 -0.002596669
vn 0.7032841 0.7109042 -0.002596967
vn 0.7067815 0.7072483 -0.01611625
vn 0.7032841 0.7109042 -0.002596967
vn 0.7100935 0.7034901 -0.02947523
vn 0.7389283 0.5207438 -0.4275638
vn 0.7389282 0.5207438 -0.4275638
vn 1 0 0
vn 1 0 0
vn 1 0 0
vn 1 0 0
vn 1 0 0
vn 1 0 0
vn 1 0 0
vn 1 0 0
vn 1 7.12946E-07 0
vn 1 7.129461E-07 0
vn 1 -5.703572E-06 8.336619E-07
vn 1 -4.114872E-07 -5.173044E-06
vn 1 -5.703571E-06 8.336618E-07
vn 1 -7.384692E-07 -4.801907E-06
vn 1 0 -5.640096E-06
vn 1 6.461597E-07 -4.801905E-06
vn 1 0 -5.640096E-06
vn 1 3.600518E-07 -5.173042E-06
vn 1 4.990609E-06 8.336618E-07
vn 1 4.990608E-06 8.336617E-07
vn 0.7067804 -0.7072494 -0.01611618
vn 0.7389226 -0.5207469 -0.4275698
vn 0.7389227 -0.5207469 -0.4275699
vn 0.7100924 -0.7034913 -0.02947533
vn 0.7100976 0.7034861 0.0294752
vn 0.7067857 0.7072442 0.01611631
vn 0.7389284 0.5207464 0.4275607
vn 0.7389284 0.5207464 0.4275607
vn 0.7067849 -0.7072449 0.01611635
vn 0.7100969 -0.7034868 0.02947547
vn 0.7389287 -0.5207413 0.4275661
vn 0.7389287 -0.5207413 0.4275661
vn 0 0 1
vn 0 0 1
vn 0 0 1
vn 0 0 1
vn 0 0 -1
vn 0 0 -1
vn 0 0 -1
vn 0 0 -1
vn 0 -0.5736027 -0.8191337
vn 0 -0.5736027 -0.8191337
vn 0 -0.5736027 -0.8191337
vn 0 -0.5736027 -0.8191337
vn 0 0.5736037 -0.819133
vn 0 0.5736037 -0.819133
vn 0 0.5736037 -0.819133
vn 0 0.5736037 -0.819133
vn 0 0.5736022 0.819134
vn 0 0.5736022 0.819134
vn 0 0.5736022 0.819134
vn 0 0.5736022 0.819134
vn 0 -0.5736014 0.8191346
vn 0 -0.5736014 0.8191346
vn 0 -0.5736014 0.8191346
vn 0 -0.5736014 0.8191346
vn 0 -1 0
vn 0 -1 0
vn 0 -1 0
vn 0 -1 0
vn 0 1 0
vn 0 1 0
vn 0 1 0
vn 0 1 0
vn 0 -1 0
vn 0 -1 0
vn 0 -1 0
vn 0 -1 0
vn 0 1 0
vn 0 1 0
vn 0 1 0
vn 0 1 0
vn -1 0 0
vn -1 0 0
vn -1 0 0
vn -1 0 0
vn -1 0 0
vn -1 0 0
vn -1 0 0
vn -1 0 0
vn -1 0 0
vn -1 0 0
g TrainContainerDoor01Mesh_0
f 3/3/3 2/2/2 1/1/1
f 4/4/4 3/3/3 1/1/1
f 7/7/7 6/6/6 5/5/5
f 8/8/8 7/7/7 5/5/5
f 11/11/11 10/10/10 9/9/9
f 12/12/12 11/11/11 9/9/9
f 15/15/15 14/14/14 13/13/13
f 16/16/16 15/15/15 13/13/13
f 19/19/19 18/18/18 17/17/17
f 20/20/20 19/19/19 17/17/17
f 23/23/23 22/22/22 21/21/21
f 24/24/24 23/23/23 21/21/21
f 27/27/27 26/26/26 25/25/25
f 28/28/28 27/27/27 25/25/25
f 31/31/31 30/30/30 29/29/29
f 32/32/32 31/31/31 29/29/29
f 35/35/35 34/34/34 33/33/33
f 36/36/36 35/35/35 33/33/33
f 39/39/39 38/38/38 37/37/37
f 40/40/40 39/39/39 37/37/37
f 43/43/43 42/42/42 41/41/41
f 44/44/44 43/43/43 41/41/41
f 47/47/47 46/46/46 45/45/45
f 48/48/48 47/47/47 45/45/45
f 51/51/51 50/50/50 49/49/49
f 52/52/52 51/51/51 49/49/49
f 55/55/55 54/54/54 53/53/53
f 56/56/56 55/55/55 53/53/53
f 59/59/59 58/58/58 57/57/57
f 60/60/60 59/59/59 57/57/57
f 63/63/63 62/62/62 61/61/61
f 64/64/64 63/63/63 61/61/61
f 67/67/67 66/66/66 65/65/65
f 68/68/68 67/67/67 65/65/65
f 71/71/71 70/70/70 69/69/69
f 72/72/72 71/71/71 69/69/69
f 75/75/75 74/74/74 73/73/73
f 76/76/76 75/75/75 73/73/73
f 79/79/79 78/78/78 77/77/77
f 80/80/80 79/79/79 77/77/77
f 83/83/83 82/82/82 81/81/81
f 84/84/84 83/83/83 81/81/81
f 87/87/87 86/86/86 85/85/85
f 86/86/86 88/88/88 85/85/85
f 89/89/89 88/88/88 86/86/86
f 90/90/90 89/89/89 86/86/86
f 93/93/93 92/92/92 91/91/91
f 92/92/92 94/94/94 91/91/91
f 94/94/94 92/92/92 95/95/95
f 95/95/95 96/96/96 94/94/94
f 96/96/96 97/97/97 94/94/94
f 96/96/96 98/98/98 97/97/97
f 99/99/99 97/97/97 98/98/98
f 100/100/100 99/99/99 98/98/98
f 103/103/103 102/102/102 101/101/101
f 102/102/102 104/104/104 101/101/101
f 104/104/104 102/102/102 105/105/105
f 106/106/106 104/104/104 105/105/105
f 106/106/106 105/105/105 107/107/107
f 107/107/107 108/108/108 106/106/106
f 109/109/109 106/106/106 108/108/108
f 110/110/110 109/109/109 108/108/108
f 113/113/113 112/112/112 111/111/111
f 114/114/114 113/113/113 111/111/111
f 117/117/117 116/116/116 115/115/115
f 118/118/118 117/117/117 115/115/115
f 121/121/121 120/120/120 119/119/119
f 122/122/122 121/121/121 119/119/119
f 125/125/125 124/124/124 123/123/123
f 126/126/126 125/125/125 123/123/123
f 129/129/129 128/128/128 127/127/127
f 130/130/130 129/129/129 127/127/127
f 133/133/133 132/132/132 131/131/131
f 134/134/134 133/133/133 131/131/131
f 137/137/137 136/136/136 135/135/135
f 138/138/138 137/137/137 135/135/135
f 141/141/141 140/140/140 139/139/139
f 142/142/142 141/141/141 139/139/139
f 145/145/145 144/144/144 143/143/143
f 146/146/146 145/145/145 143/143/143
f 149/149/149 148/148/148 147/147/147
f 150/150/150 149/149/149 147/147/147
f 153/153/153 152/152/152 151/151/151
f 154/154/154 153/153/153 151/151/151
f 157/157/157 156/156/156 155/155/155
f 158/158/158 157/157/157 155/155/155
f 161/161/161 160/160/160 159/159/159
f 162/162/162 161/161/161 159/159/159
f 165/165/165 164/164/164 163/163/163
f 163/163/163 166/166/166 165/165/165
f 163/163/163 167/167/167 166/166/166
f 163/163/163 168/168/168 167/167/167
f 168/168/168 169/169/169 167/167/167
f 168/168/168 170/170/170 169/169/169
f 170/170/170 171/171/171 169/169/169
f 170/170/170 172/172/172 171/171/171
