g TrainBridgeHalfMesh
v 1.848271 1.972036 -3.034703
v 2.337199 0.03662843 -3.034704
v 2.337198 0.03662843 -0.766445
v 1.848271 1.972036 -0.766445
v 1.409715 3.708047 -3.034703
v 1.409715 3.708047 -0.766445
v 1.409715 3.708047 -0.06591597
v 1.848271 2.282696 -0.06591624
v 1.409715 3.708046 0.6346124
v 1.848271 1.972036 0.634613
v 1.409715 3.708046 3.034739
v 1.848271 1.972036 3.034739
v 2.337199 0.03662883 3.034738
v 2.337199 0.0366283 0.6346124
v -4.618234E-07 4.149843 -3.034704
v 1.414366 4.149843 -3.034703
v 1.414366 4.149843 -0.766445
v -1.947947E-07 4.149843 -0.766445
v 1.414366 4.149842 -0.0659157
v -1.947947E-07 4.149842 -0.06591624
v 1.414366 4.149842 0.6346124
v -1.947947E-07 4.149842 0.6346124
v -1.947947E-07 4.149842 3.034739
v 1.414366 4.149842 3.034739
v -4.618234E-07 3.708047 -3.034704
v -4.618234E-07 4.149843 -3.034704
v -1.947947E-07 4.149843 -0.766445
v -1.947947E-07 3.708047 -0.766445
v 1.613185 4.146159 -3.034703
v 1.548892 3.704362 -3.034703
v 1.548892 3.704363 -0.766445
v 1.613185 4.146159 -0.7664452
v 1.548892 3.704363 -0.06591597
v 1.613185 4.146159 -0.06591651
v 1.548892 3.704362 0.634613
v 1.613184 4.146159 0.6346124
v 1.613185 4.146159 3.034739
v 1.548892 3.704362 3.034739
v -4.618234E-07 1.972036 -3.034703
v -4.618234E-07 3.708047 -3.034704
v -1.947947E-07 3.708047 -0.766445
v -1.947947E-07 1.972036 -0.7664452
v -4.618234E-07 0.03662843 -3.034703
v -1.947947E-07 0.03662843 -0.766445
v -1.947947E-07 0.0366283 -0.06591597
v -1.947947E-07 2.282697 -0.06591624
v -1.947947E-07 0.0366283 0.6346124
v -1.947947E-07 3.708047 -0.06591624
v -1.947947E-07 1.972036 0.634613
v -1.947947E-07 0.03662883 3.034739
v -1.947947E-07 1.972036 3.034739
v -1.947947E-07 3.708046 3.034739
v -1.947947E-07 3.708046 0.6346124
v -1.947947E-07 4.149842 0.6346124
v -1.947947E-07 4.149842 -0.06591624
v -1.947947E-07 4.149843 -0.766445
v 1.414366 4.149843 -0.766445
v 1.414366 4.149843 -3.034703
v 1.613185 4.146159 -3.034703
v 1.613185 4.146159 -0.7664452
v 1.414366 4.149843 -0.766445
v 1.613185 4.146159 -0.06591651
v 1.414366 4.149842 -0.0659157
v 1.613184 4.146159 0.6346124
v 1.414366 4.149842 0.6346124
v 1.414366 4.149842 3.034739
v 1.414366 4.149842 0.6346124
v 1.613185 4.146159 3.034739
v 1.409715 3.708046 0.6346124
v 1.409715 3.708046 3.034739
v 1.548892 3.704362 3.034739
v 1.548892 3.704362 0.634613
v -1.947947E-07 3.708046 3.034739
v -1.947947E-07 3.708046 0.6346124
v -1.947947E-07 4.149842 0.6346124
v -1.947947E-07 4.149842 3.034739
v 1.409715 3.708047 -3.034703
v 1.548892 3.704363 -0.766445
v 1.548892 3.704362 -3.034703
v 1.409715 3.708047 -0.766445
v 1.409715 3.708047 -0.06591597
v 1.548892 3.704363 -0.06591597
v 1.409715 3.708046 0.6346124
v 1.548892 3.704362 0.634613
v 0.898406 0.03180015 -0.0659157
v 0.8968809 1.967208 -0.766445
v 0.8984059 0.03180069 -0.7664447
v 0.8968809 2.277868 -0.0659157
v 0.8984056 0.03180015 0.6346133
v 0.8968808 1.967207 0.6346133
v 2.337198 0.03662843 -0.766445
v 0.8984059 0.03180069 -0.7664447
v 0.8968809 1.967208 -0.766445
v 1.848271 1.972036 -0.766445
v 1.848271 1.972036 -0.766445
v 0.8968809 1.967208 -0.766445
v 0.8968809 2.277868 -0.0659157
v 1.848271 2.282696 -0.06591624
v 1.848271 2.282696 -0.06591624
v 0.8968809 2.277868 -0.0659157
v 0.8968808 1.967207 0.6346133
v 1.848271 1.972036 0.634613
v 1.848271 1.972036 0.634613
v 0.8968808 1.967207 0.6346133
v 0.8984056 0.03180015 0.6346133
v 2.337199 0.0366283 0.6346124
v 1.414366 4.149843 -3.034703
v 1.548892 3.704362 -3.034703
v 1.613185 4.146159 -3.034703
v 1.409715 3.708047 -3.034703
v -4.618234E-07 3.708047 -3.034704
v -4.618234E-07 4.149843 -3.034704
v -4.618234E-07 1.972036 -3.034703
v 1.848271 1.972036 -3.034703
v -4.618234E-07 0.03662843 -3.034703
v 2.337199 0.03662843 -3.034704
v 1.409715 3.708046 3.034739
v 1.613185 4.146159 3.034739
v 1.548892 3.704362 3.034739
v 1.414366 4.149842 3.034739
v -1.947947E-07 4.149842 3.034739
v -1.947947E-07 3.708046 3.034739
v 1.848271 1.972036 3.034739
v -1.947947E-07 1.972036 3.034739
v 2.337199 0.03662883 3.034738
v -1.947947E-07 0.03662883 3.034739
v 2.895542 0.07614229 3.034743
v 0.0009437521 0.07614229 3.034743
v 0.000942684 0.07614202 -3.034749
v 2.895542 0.07614202 -3.034749
v 2.895542 -1.755792E-07 3.034743
v 2.895542 0.07614229 3.034743
v 2.895542 0.07614202 -3.034749
v 2.895542 -4.42608E-07 -3.034749
v 0.000942684 -4.42608E-07 -3.034749
v 0.000942684 0.07614202 -3.034749
v 0.0009437521 0.07614229 3.034743
v 0.0009437521 -1.755792E-07 3.034743
vt 0.470534 0
vt 0 0
vt 0 0.3737177
vt 0.470534 0.3737177
vt 0.892591 0
vt 0.892591 0.3737177
vt 0.892591 0.4891367
vt 0.470534 0.4891367
vt 0.892591 0.6045557
vt 0.4705341 0.6045557
vt 0.8925911 1
vt 0.470534 1
vt 0 1
vt 0 0.6045557
vt 0.5 0
vt 0.5 0
vt 0 0.3737177
vt 1 0.3737177
vt 0 0.4891367
vt 1 0.4891367
vt 0 0.6045557
vt 1 0.6045557
vt 0.5 1
vt 0.5 1
vt 0.1074089 0
vt 0.5 0
vt 0 0.3737177
vt 0.1074089 0.3737177
vt 1 0
vt 0.892591 0
vt 0.892591 0.3737178
vt 1 0.3737177
vt 0.892591 0.4891368
vt 1 0.4891367
vt 0.892591 0.6045557
vt 1 0.6045557
vt 1 1
vt 0.8925911 1
vt 0.529466 0
vt 0.1074089 0
vt 0.1074089 0.3737177
vt 0.529466 0.3737177
vt 1 0
vt 1 0.3737178
vt 1 0.4891368
vt 0.529466 0.4891368
vt 1 0.6045557
vt 0.1074089 0.4891367
vt 0.5294659 0.6045557
vt 1 1
vt 0.5294659 1
vt 0.1074089 1
vt 0.1074089 0.6045557
vt 0 0.6045557
vt 0 0.4891367
vt 0 0.3737177
vt 1 0.3737177
vt 0.5 0
vt 1 0
vt 1 0.3737177
vt 1 0.3737177
vt 1 0.4891367
vt 1 0.4891367
vt 1 0.6045557
vt 1 0.6045557
vt 0.5 1
vt 1 0.6045557
vt 1 1
vt 0.892591 0.6045557
vt 0.8925911 1
vt 0.8925911 1
vt 0.892591 0.6045557
vt 0.1074089 1
vt 0.1074089 0.6045557
vt 0 0.6045557
vt 0.5 1
vt 0.892591 0
vt 0.892591 0.3737178
vt 0.892591 0
vt 0.892591 0.3737177
vt 0.892591 0.4891367
vt 0.892591 0.4891368
vt 0.892591 0.6045557
vt 0.892591 0.6045557
vt 0 0.4891367
vt 0.470534 0.3737177
vt 0 0.3737177
vt 0.470534 0.4891367
vt 0 0.6045557
vt 0.4705341 0.6045557
vt 0 0.3737177
vt 0 0.3737177
vt 0.470534 0.3737177
vt 0.470534 0.3737177
vt 0.470534 0.3737177
vt 0.470534 0.3737177
vt 0.470534 0.4891367
vt 0.470534 0.4891367
vt 0.470534 0.4891367
vt 0.470534 0.4891367
vt 0.4705341 0.6045557
vt 0.4705341 0.6045557
vt 0.4705341 0.6045557
vt 0.4705341 0.6045557
vt 0 0.6045557
vt 0 0.6045557
vt 0.5 0
vt 0.892591 0
vt 1 0
vt 0.892591 0
vt 0.1074089 0
vt 0.5 0
vt 0.529466 0
vt 0.470534 0
vt 1 0
vt 0 0
vt 0.8925911 1
vt 1 1
vt 0.8925911 1
vt 0.5 1
vt 0.5 1
vt 0.1074089 1
vt 0.470534 1
vt 0.5294659 1
vt 0 1
vt 1 1
vt 0 0
vt 0 1
vt 1 1
vt 1 0
vt 0 0
vt 0 1
vt 1 1
vt 1 0
vt 0 0
vt 0 1
vt 1 1
vt 1 0
vn 0.9695413 0.2449281 0
vn 0.9695413 0.2449281 0
vn 0.9695413 0.2449281 0
vn 0.9695413 0.2449281 0
vn 0.9695413 0.2449282 0
vn 0.968193 0.2498629 -0.01307314
vn 0.9636 0.2673485 0
vn 0.9636 0.2673485 0
vn 0.9682553 0.2496502 0.01250658
vn 0.9685459 0.2486409 0.009823618
vn 0.9695412 0.2449283 0
vn 0.9695412 0.2449283 0
vn 0.9695412 0.2449284 0
vn 0.9695412 0.2449284 0
vn 0 1 0
vn 0 1 0
vn 0 1 0
vn 0 1 0
vn 0 1 1.50924E-06
vn 0 1 1.50924E-06
vn 0 1 0
vn 0 1 0
vn 0 1 0
vn 0 1 0
vn -1 0 0
vn -1 0 0
vn -1 0 0
vn -1 0 0
vn 0.9895763 -0.1440089 0
vn 0.9895763 -0.1440089 0
vn 0.9895763 -0.1440089 0
vn 0.9895763 -0.1440089 0
vn 0.9895763 -0.144009 0
vn 0.9895763 -0.144009 0
vn 0.9895765 -0.144008 0
vn 0.9895765 -0.144008 0
vn 0.9895765 -0.144008 0
vn 0.9895765 -0.144008 0
vn -1 0 0
vn -1 0 0
vn -1 0 0
vn -1 0 0
vn -1 0 0
vn -1 0 0
vn -1 0 0
vn -1 0 0
vn -1 0 0
vn -1 0 0
vn -1 0 0
vn -1 0 0
vn -1 0 0
vn -1 0 0
vn -1 0 0
vn -1 0 0
vn -1 0 0
vn -1 0 0
vn 0.01852588 0.9998283 0
vn 0.01852588 0.9998283 0
vn 0.01852588 0.9998283 0
vn 0.01852588 0.9998283 0
vn 0.01852317 0.9998285 5.367318E-07
vn 0.01852317 0.9998285 5.367317E-07
vn 0.01852317 0.9998285 5.367317E-07
vn 0.01852054 0.9998285 0
vn 0.01852051 0.9998285 0
vn 0.01852054 0.9998285 0
vn 0.01852054 0.9998285 0
vn 0.01852054 0.9998285 0
vn -0.02646104 -0.9996499 0
vn -0.02646104 -0.9996499 0
vn -0.02646104 -0.9996499 0
vn -0.02646103 -0.9996499 0
vn -1 0 0
vn -1 0 0
vn -1 0 0
vn -1 0 0
vn -0.02646299 -0.9996498 0
vn -0.02646299 -0.9996498 0
vn -0.02646299 -0.9996498 0
vn -0.02646299 -0.9996498 0
vn -0.02646101 -0.9996499 -1.341552E-06
vn -0.02646101 -0.9996499 -1.341552E-06
vn -0.02646102 -0.9996499 -1.341552E-06
vn -0.02646101 -0.9996499 -1.341552E-06
vn 0.9999998 0.0007293935 -0.0001618288
vn 0.9999998 0.0007293936 -0.0001618288
vn 0.9999998 0.0007293937 -0.0001618288
vn 0.9999998 0.0007293937 -0.0001618289
vn 0.9999998 0.0007293933 0.0001620569
vn 0.9999998 0.0007293933 0.0001620569
vn 0 0 1
vn 0 0 1
vn 0 0 1
vn 0 0 1
vn 0.004639231 -0.9141334 0.405387
vn 0.004639231 -0.9141334 0.405387
vn 0.004639231 -0.9141334 0.405387
vn 0.004639231 -0.9141334 0.405387
vn 0.004639065 -0.9141334 -0.4053872
vn 0.004639065 -0.9141334 -0.4053872
vn 0.004639065 -0.9141334 -0.4053872
vn 0.004639064 -0.9141334 -0.4053872
vn -4.916989E-07 0 -1
vn -4.916989E-07 0 -1
vn -4.916989E-07 0 -1
vn -4.91699E-07 0 -1
vn 0 0 -1
vn 0 0 -1
vn 0 0 -1
vn 0 0 -1
vn 0 0 -1
vn 0 0 -1
vn 0 0 -1
vn 0 0 -1
vn 0 0 -1
vn 0 0 -1
vn 0 0 1
vn 0 0 1
vn 0 0 1
vn 0 0 1
vn 0 0 1
vn -4.094111E-07 0 1
vn 0 0 1
vn 0 0 1
vn 0 0 1
vn 0 0 1
vn 0 1 0
vn 0 1 0
vn 0 1 0
vn 0 1 0
vn 1 0 0
vn 1 0 0
vn 1 0 0
vn 1 0 0
vn -1 0 0
vn -1 0 0
vn -1 0 0
vn -1 0 0
g TrainBridgeHalfMesh_0
f 3/3/3 2/2/2 1/1/1
f 4/4/4 3/3/3 1/1/1
f 4/4/4 1/1/1 5/5/5
f 6/6/6 4/4/4 5/5/5
f 4/4/4 6/6/6 7/7/7
f 8/8/8 4/4/4 7/7/7
f 8/8/8 7/7/7 9/9/9
f 10/10/10 8/8/8 9/9/9
f 10/10/10 9/9/9 11/11/11
f 12/12/12 10/10/10 11/11/11
f 10/10/10 12/12/12 13/13/13
f 14/14/14 10/10/10 13/13/13
f 17/17/17 16/16/16 15/15/15
f 18/18/18 17/17/17 15/15/15
f 19/19/19 17/17/17 18/18/18
f 20/20/20 19/19/19 18/18/18
f 21/21/21 19/19/19 20/20/20
f 22/22/22 21/21/21 20/20/20
f 21/21/21 22/22/22 23/23/23
f 24/24/24 21/21/21 23/23/23
f 27/27/27 26/26/26 25/25/25
f 28/28/28 27/27/27 25/25/25
f 31/31/31 30/30/30 29/29/29
f 32/32/32 31/31/31 29/29/29
f 33/33/33 31/31/31 32/32/32
f 34/34/34 33/33/33 32/32/32
f 35/35/35 33/33/33 34/34/34
f 36/36/36 35/35/35 34/34/34
f 35/35/35 36/36/36 37/37/37
f 38/38/38 35/35/35 37/37/37
f 41/41/41 40/40/40 39/39/39
f 42/42/42 41/41/41 39/39/39
f 42/42/42 39/39/39 43/43/43
f 44/44/44 42/42/42 43/43/43
f 42/42/42 44/44/44 45/45/45
f 46/46/46 42/42/42 45/45/45
f 46/46/46 45/45/45 47/47/47
f 41/41/41 42/42/42 48/48/48
f 42/42/42 46/46/46 48/48/48
f 49/49/49 46/46/46 47/47/47
f 49/49/49 47/47/47 50/50/50
f 51/51/51 49/49/49 50/50/50
f 49/49/49 51/51/51 52/52/52
f 53/53/53 49/49/49 52/52/52
f 46/46/46 49/49/49 53/53/53
f 48/48/48 46/46/46 53/53/53
f 53/53/53 54/54/54 48/48/48
f 54/54/54 55/55/55 48/48/48
f 48/48/48 55/55/55 41/41/41
f 55/55/55 56/56/56 41/41/41
f 59/59/59 58/58/58 57/57/57
f 60/60/60 59/59/59 57/57/57
f 62/62/62 60/60/60 61/61/61
f 63/63/63 62/62/62 61/61/61
f 64/64/64 62/62/62 63/63/63
f 65/65/65 64/64/64 63/63/63
f 64/64/64 67/67/67 66/66/66
f 68/68/68 64/64/64 66/66/66
f 71/71/71 70/70/70 69/69/69
f 72/72/72 71/71/71 69/69/69
f 75/75/75 74/74/74 73/73/73
f 76/76/76 75/75/75 73/73/73
f 79/79/79 78/78/78 77/77/77
f 78/78/78 80/80/80 77/77/77
f 80/80/80 78/78/78 81/81/81
f 78/78/78 82/82/82 81/81/81
f 81/81/81 82/82/82 83/83/83
f 82/82/82 84/84/84 83/83/83
f 87/87/87 86/86/86 85/85/85
f 86/86/86 88/88/88 85/85/85
f 85/85/85 88/88/88 89/89/89
f 88/88/88 90/90/90 89/89/89
f 93/93/93 92/92/92 91/91/91
f 94/94/94 93/93/93 91/91/91
f 97/97/97 96/96/96 95/95/95
f 98/98/98 97/97/97 95/95/95
f 101/101/101 100/100/100 99/99/99
f 102/102/102 101/101/101 99/99/99
f 105/105/105 104/104/104 103/103/103
f 106/106/106 105/105/105 103/103/103
f 109/109/109 108/108/108 107/107/107
f 108/108/108 110/110/110 107/107/107
f 110/110/110 111/111/111 107/107/107
f 111/111/111 112/112/112 107/107/107
f 113/113/113 111/111/111 110/110/110
f 114/114/114 113/113/113 110/110/110
f 115/115/115 113/113/113 114/114/114
f 116/116/116 115/115/115 114/114/114
f 119/119/119 118/118/118 117/117/117
f 118/118/118 120/120/120 117/117/117
f 120/120/120 121/121/121 117/117/117
f 121/121/121 122/122/122 117/117/117
f 117/117/117 122/122/122 123/123/123
f 122/122/122 124/124/124 123/123/123
f 123/123/123 124/124/124 125/125/125
f 124/124/124 126/126/126 125/125/125
g TrainBridgeHalfMesh_1
f 129/129/129 128/128/128 127/127/127
f 130/130/130 129/129/129 127/127/127
f 133/133/133 132/132/132 131/131/131
f 134/134/134 133/133/133 131/131/131
f 137/137/137 136/136/136 135/135/135
f 138/138/138 137/137/137 135/135/135
