g TurretPart02Mesh
v 0.04324089 0.03302492 -0.05223039
v 0.04324089 0.04725903 -0.05266094
v 0.02923376 0.0412687 -0.06666808
v 0.02967796 0.02807581 -0.06666808
v 0.02967796 0.02807581 -0.06666808
v 0.04324089 0.01724632 -0.05266094
v 0.04324089 0.03302492 -0.05223039
v 0.02923376 0.01724632 -0.06666808
v 0.04324089 0.001467724 -0.05223039
v 0.02967796 0.006416836 -0.06666808
v 0.04324089 -0.01276635 -0.05266094
v 0.02967796 0.006416836 -0.06666808
v 0.02923376 -0.006776039 -0.06666808
v 0.04324089 0.04725903 -0.05266094
v 0.03141635 0.05855525 -0.05266094
v 0.0233209 0.0469174 -0.06666808
v 0.02923376 0.0412687 -0.06666808
v 0.03141635 0.05855525 -0.05266094
v 0.01651655 0.06580788 -0.05266094
v 0.0123078 0.05227813 -0.06666808
v 0.0233209 0.0469174 -0.06666808
v 0.01651655 0.06580788 -0.05266094
v 0 0.06830697 -0.05266094
v 0 0.05414039 -0.06666808
v 0.0123078 0.05227813 -0.06666808
v 0 0.06830697 -0.05266094
v -0.01651655 0.06580788 -0.05266094
v -0.0123078 0.05227813 -0.06666808
v 0 0.05414039 -0.06666808
v -0.01651655 0.06580788 -0.05266094
v -0.03141634 0.05855525 -0.05266094
v -0.02332088 0.0469174 -0.06666808
v -0.0123078 0.05227813 -0.06666808
v -0.03141634 0.05855525 -0.05266094
v -0.04324088 0.04725899 -0.05266094
v -0.02923374 0.0412687 -0.06666808
v -0.02332088 0.0469174 -0.06666808
v -0.04324088 0.04725899 -0.05266094
v -0.02967795 0.02807581 -0.06666808
v -0.02923374 0.0412687 -0.06666808
v -0.04324088 0.03302492 -0.05223039
v -0.02923374 0.01724632 -0.06666808
v -0.02967795 0.02807581 -0.06666808
v -0.04324088 0.01724632 -0.05266094
v -0.02967795 0.006416836 -0.06666808
v -0.04324088 0.001467724 -0.05223039
v -0.04324088 -0.01276636 -0.05266094
v -0.02923374 -0.006776056 -0.06666808
v -0.02967795 0.006416836 -0.06666808
v -0.04324088 -0.01276636 -0.05266094
v -0.03141633 -0.02406258 -0.05266094
v -0.02332089 -0.01242472 -0.06666808
v -0.02923374 -0.006776056 -0.06666808
v -0.03141633 -0.02406258 -0.05266094
v -0.01651654 -0.0313152 -0.05266094
v -0.0123078 -0.01778545 -0.06666808
v -0.02332089 -0.01242472 -0.06666808
v -0.01651654 -0.0313152 -0.05266094
v -1.592894E-09 -0.03381429 -0.05266094
v -1.655478E-09 -0.01964773 -0.06666808
v -0.0123078 -0.01778545 -0.06666808
v -1.592894E-09 -0.03381429 -0.05266094
v 0.01651654 -0.0313152 -0.05266094
v 0.0123078 -0.01778545 -0.06666808
v -1.655478E-09 -0.01964773 -0.06666808
v 0.01651654 -0.0313152 -0.05266094
v 0.03141633 -0.02406258 -0.05266094
v 0.02332088 -0.01242472 -0.06666808
v 0.0123078 -0.01778545 -0.06666808
v 0.03141633 -0.02406258 -0.05266094
v 0.04324089 -0.01276635 -0.05266094
v 0.02923376 -0.006776039 -0.06666808
v 0.02332088 -0.01242472 -0.06666808
v 0.04324089 0.03302492 -0.05223039
v 0.04324089 0.03302492 0.05344865
v 0.04324089 0.04725903 0.05344865
v 0.04324089 0.04725903 -0.05266094
v 0.04324089 0.04725903 -0.05266094
v 0.04324089 0.04725903 0.05344865
v 0.03141635 0.05855525 0.05344865
v 0.03141635 0.05855525 -0.05266094
v 0.01651655 0.06580788 0.05344865
v 0.01651655 0.06580788 -0.05266094
v 0 0.06830697 0.05344865
v 0 0.06830697 -0.05266094
v -0.01651655 0.06580788 0.05344865
v -0.01651655 0.06580788 -0.05266094
v -0.03141634 0.05855525 0.05344865
v -0.03141634 0.05855525 -0.05266094
v -0.04324088 0.04725899 0.05344865
v -0.04324088 0.04725899 -0.05266094
v -0.04324088 0.04725899 -0.05266094
v -0.04324088 0.04725899 0.05344865
v -0.04324088 0.03302492 0.05344865
v -0.04324088 0.03302492 -0.05223039
v -0.04324088 0.01724632 0.05344865
v -0.04324088 0.01724632 -0.05266094
v -0.04324088 0.001467724 0.05344865
v -0.04324088 0.001467724 -0.05223039
v -0.04324088 -0.01276636 0.05344865
v -0.04324088 -0.01276636 -0.05266094
v -0.04324088 -0.01276636 -0.05266094
v -0.04324088 -0.01276636 0.05344865
v -0.03141633 -0.02406258 0.05344865
v -0.03141633 -0.02406258 -0.05266094
v -0.01651654 -0.0313152 0.05344865
v -0.01651654 -0.0313152 -0.05266094
v -1.592894E-09 -0.03381429 0.05344865
v -1.592894E-09 -0.03381429 -0.05266094
v 0.01651654 -0.0313152 0.05344865
v 0.01651654 -0.0313152 -0.05266094
v 0.03141633 -0.02406258 0.05344865
v 0.03141633 -0.02406258 -0.05266094
v 0.04324089 -0.01276635 0.05344865
v 0.04324089 -0.01276635 -0.05266094
v 0.04324089 -0.01276635 -0.05266094
v 0.04324089 -0.01276635 0.05344865
v 0.04324089 0.001467724 0.05344865
v 0.04324089 0.001467724 -0.05223039
v 0.04324089 0.01724632 0.05344865
v 0.04324089 0.01724632 -0.05266094
v 0.04324089 0.03302492 0.05344865
v 0.04324089 0.03302492 -0.05223039
v 0.04324089 0.03302492 0.05344865
v 0 0.01724632 0.05344865
v 0.04324089 0.04725903 0.05344865
v 0.04324089 0.01724632 0.05344865
v 0.03141635 0.05855525 0.05344865
v 0.04324089 0.001467724 0.05344865
v 0.01651655 0.06580788 0.05344865
v 0.04324089 -0.01276635 0.05344865
v 0 0.06830697 0.05344865
v 0.03141633 -0.02406258 0.05344865
v -0.01651655 0.06580788 0.05344865
v 0.01651654 -0.0313152 0.05344865
v -0.03141634 0.05855525 0.05344865
v -1.592894E-09 -0.03381429 0.05344865
v -0.04324088 0.04725899 0.05344865
v -0.01651654 -0.0313152 0.05344865
v -0.04324088 0.03302492 0.05344865
v -0.03141633 -0.02406258 0.05344865
v -0.04324088 0.01724632 0.05344865
v -0.04324088 -0.01276636 0.05344865
v -0.04324088 0.001467724 0.05344865
v 0.02923376 0.0412687 -0.06666808
v 0 0.01724632 -0.06666808
v 0.02967796 0.02807581 -0.06666808
v 0.0233209 0.0469174 -0.06666808
v 0.02923376 0.01724632 -0.06666808
v 0.0123078 0.05227813 -0.06666808
v 0.02967796 0.006416836 -0.06666808
v 0 0.05414039 -0.06666808
v 0.02923376 -0.006776039 -0.06666808
v -0.0123078 0.05227813 -0.06666808
v 0.02332088 -0.01242472 -0.06666808
v -0.02332088 0.0469174 -0.06666808
v 0.0123078 -0.01778545 -0.06666808
v -0.02923374 0.0412687 -0.06666808
v -1.655478E-09 -0.01964773 -0.06666808
v -0.02967795 0.02807581 -0.06666808
v -0.0123078 -0.01778545 -0.06666808
v -0.02923374 0.01724632 -0.06666808
v -0.02332089 -0.01242472 -0.06666808
v -0.02967795 0.006416836 -0.06666808
v -0.02923374 -0.006776056 -0.06666808
vt 0.375 0.363274
vt 0.3875 0.3617598
vt 0.3822395 0.3125
vt 0.375 0.3125
vt 0.621079 0.3125
vt 0.6124998 0.3617601
vt 0.6249998 0.3632749
vt 0.6124998 0.3125
vt 0.5999998 0.3632745
vt 0.6039205 0.3125
vt 0.5874998 0.3617591
vt 0.5999998 0.3125
vt 0.5927603 0.3125
vt 0.3875 0.3617598
vt 0.4 0.3617607
vt 0.3983295 0.3125
vt 0.3920788 0.3125
vt 0.4 0.3617607
vt 0.4125 0.3617607
vt 0.4108878 0.3125
vt 0.4016485 0.3125
vt 0.4125 0.3617607
vt 0.425 0.3617607
vt 0.4234141 0.3125
vt 0.4140992 0.3125
vt 0.425 0.3617607
vt 0.4374999 0.3617598
vt 0.4359006 0.3125
vt 0.4265859 0.3125
vt 0.4374999 0.3617598
vt 0.4499999 0.3617596
vt 0.4483514 0.3125
vt 0.4391121 0.3125
vt 0.4499999 0.3617596
vt 0.4624999 0.3617591
vt 0.4579211 0.3125
vt 0.4516704 0.3125
vt 0.4624999 0.3617591
vt 0.4749999 0.3125
vt 0.4677604 0.3125
vt 0.4749999 0.3632745
vt 0.4874999 0.3125
vt 0.4789206 0.3125
vt 0.4874999 0.3617601
vt 0.4960791 0.3125
vt 0.4999999 0.363274
vt 0.5124999 0.3617598
vt 0.5072393 0.3125
vt 0.4999999 0.3125
vt 0.5124999 0.3617598
vt 0.5249999 0.3617607
vt 0.5233293 0.3125
vt 0.5170787 0.3125
vt 0.5249999 0.3617607
vt 0.5374998 0.3617607
vt 0.5358877 0.3125
vt 0.5266483 0.3125
vt 0.5374998 0.3617607
vt 0.5499998 0.3617608
vt 0.5484139 0.3125
vt 0.5390991 0.3125
vt 0.5499998 0.3617608
vt 0.5624998 0.3617598
vt 0.5609005 0.3125
vt 0.5515858 0.3125
vt 0.5624998 0.3617598
vt 0.5749998 0.3617596
vt 0.5733513 0.3125
vt 0.564112 0.3125
vt 0.5749998 0.3617596
vt 0.5874998 0.3617591
vt 0.582921 0.3125
vt 0.5766703 0.3125
vt 0.375 0.363274
vt 0.375 0.6884398
vt 0.3875 0.6884398
vt 0.3875 0.3617598
vt 0.3875 0.3617598
vt 0.3875 0.6884398
vt 0.4 0.6884398
vt 0.4 0.3617607
vt 0.4125 0.6884398
vt 0.4125 0.3617607
vt 0.425 0.6884398
vt 0.425 0.3617607
vt 0.4374999 0.6884398
vt 0.4374999 0.3617598
vt 0.4499999 0.6884398
vt 0.4499999 0.3617596
vt 0.4624999 0.6884398
vt 0.4624999 0.3617591
vt 0.4624999 0.3617591
vt 0.4624999 0.6884398
vt 0.4749999 0.6884398
vt 0.4749999 0.3632745
vt 0.4874999 0.6884398
vt 0.4874999 0.3617601
vt 0.4999999 0.6884398
vt 0.4999999 0.363274
vt 0.5124999 0.6884398
vt 0.5124999 0.3617598
vt 0.5124999 0.3617598
vt 0.5124999 0.6884398
vt 0.5249999 0.6884398
vt 0.5249999 0.3617607
vt 0.5374998 0.6884398
vt 0.5374998 0.3617607
vt 0.5499998 0.6884398
vt 0.5499998 0.3617608
vt 0.5624998 0.6884398
vt 0.5624998 0.3617598
vt 0.5749998 0.6884398
vt 0.5749998 0.3617596
vt 0.5874998 0.6884398
vt 0.5874998 0.3617591
vt 0.5874998 0.3617591
vt 0.5874998 0.6884398
vt 0.5999998 0.6884398
vt 0.5999998 0.3632745
vt 0.6124998 0.6884398
vt 0.6124998 0.3617601
vt 0.6249998 0.6884398
vt 0.6249998 0.3632749
vt 0.6486026 0.8920339
vt 0.5 0.8375
vt 0.6264089 0.9355915
vt 0.65625 0.84375
vt 0.5918415 0.9701589
vt 0.6486027 0.7954661
vt 0.5482839 0.9923526
vt 0.626409 0.7519085
vt 0.5 1
vt 0.5918415 0.717341
vt 0.4517161 0.9923526
vt 0.5482839 0.6951473
vt 0.4081585 0.9701589
vt 0.5 0.6874999
vt 0.3735911 0.9355915
vt 0.4517161 0.6951473
vt 0.3513974 0.8920339
vt 0.4081585 0.7173411
vt 0.34375 0.84375
vt 0.3735911 0.7519085
vt 0.3513974 0.7954661
vt 0.585461 0.08104189
vt 0.5 0.15
vt 0.601992 0.1211504
vt 0.5681756 0.06375633
vt 0.6056355 0.1542254
vt 0.5359803 0.04732939
vt 0.6019918 0.1874288
vt 0.5 0.04161683
vt 0.585461 0.228063
vt 0.4640198 0.04732939
vt 0.5681756 0.2453485
vt 0.4318246 0.06375638
vt 0.5359803 0.2617303
vt 0.4145391 0.08104184
vt 0.5 0.267415
vt 0.3980082 0.1211504
vt 0.4640198 0.2617302
vt 0.3943644 0.1542254
vt 0.4318244 0.2453484
vt 0.398008 0.1874289
vt 0.4145391 0.2280629
vn 0.7180087 0.0001119084 -0.6960341
vn 0.7179272 0.0007000801 -0.6961179
vn 0.7179272 0.0007000801 -0.6961179
vn 0.7180395 -0.0001109046 -0.6960024
vn 0.7180395 -0.0001109046 -0.6960024
vn 0.7181249 0 -0.6959143
vn 0.7180087 0.0001119084 -0.6960341
vn 0.7181249 0 -0.6959143
vn 0.7180087 -0.0001119067 -0.6960343
vn 0.7180395 0.0001109072 -0.6960024
vn 0.717927 -0.0007000813 -0.6961179
vn 0.7180395 0.0001109072 -0.6960024
vn 0.7179271 -0.0007000813 -0.6961179
vn 0.4884478 0.5112917 -0.7071065
vn 0.3941007 0.5819892 -0.711318
vn 0.3941007 0.5819892 -0.7113179
vn 0.4884478 0.5112917 -0.7071065
vn 0.3941007 0.5819892 -0.711318
vn 0.2082344 0.6714792 -0.7111639
vn 0.2082344 0.6714793 -0.7111639
vn 0.3941007 0.5819892 -0.7113179
vn 0.2082344 0.6714792 -0.7111639
vn 0 0.7030931 -0.7110979
vn 0 0.703093 -0.7110979
vn 0.2082344 0.6714793 -0.7111639
vn 0 0.7030931 -0.7110979
vn -0.2082345 0.671479 -0.7111641
vn -0.2082345 0.6714791 -0.7111641
vn 0 0.703093 -0.7110979
vn -0.2082345 0.671479 -0.7111641
vn -0.394101 0.5819889 -0.711318
vn -0.394101 0.5819889 -0.711318
vn -0.2082345 0.6714791 -0.7111641
vn -0.394101 0.5819889 -0.711318
vn -0.4884484 0.5112915 -0.7071062
vn -0.4884484 0.5112914 -0.7071062
vn -0.394101 0.5819889 -0.711318
vn -0.7179268 0.0007001014 -0.6961182
vn -0.7180394 -0.0001109105 -0.6960025
vn -0.7179268 0.0007001014 -0.6961182
vn -0.7180085 0.0001119099 -0.6960343
vn -0.7181249 0 -0.6959142
vn -0.7180394 -0.0001109105 -0.6960025
vn -0.7181249 0 -0.6959143
vn -0.7180394 0.0001109104 -0.6960024
vn -0.7180086 -0.0001119099 -0.6960343
vn -0.7179269 -0.0007001013 -0.6961181
vn -0.7179269 -0.0007001013 -0.6961182
vn -0.7180394 0.0001109104 -0.6960024
vn -0.488447 -0.5112918 -0.7071069
vn -0.3941002 -0.5819895 -0.711318
vn -0.3941003 -0.5819895 -0.711318
vn -0.488447 -0.5112918 -0.7071068
vn -0.3941002 -0.5819895 -0.711318
vn -0.2082346 -0.6714799 -0.7111632
vn -0.2082346 -0.6714798 -0.7111633
vn -0.3941003 -0.5819895 -0.711318
vn -0.2082346 -0.6714799 -0.7111632
vn 0 -0.7030939 -0.7110971
vn 0 -0.7030939 -0.7110971
vn -0.2082346 -0.6714798 -0.7111633
vn 0 -0.7030939 -0.7110971
vn 0.2082347 -0.6714798 -0.7111633
vn 0.2082347 -0.6714798 -0.7111633
vn 0 -0.7030939 -0.7110971
vn 0.2082347 -0.6714798 -0.7111633
vn 0.3941004 -0.5819895 -0.7113179
vn 0.3941004 -0.5819894 -0.711318
vn 0.2082347 -0.6714798 -0.7111633
vn 0.3941004 -0.5819895 -0.7113179
vn 0.488447 -0.511292 -0.7071067
vn 0.488447 -0.511292 -0.7071068
vn 0.3941004 -0.5819894 -0.711318
vn 1 0 0
vn 1 0 0
vn 1 0 0
vn 1 0 0
vn 0.6907685 0.7230759 0
vn 0.6907685 0.7230759 0
vn 0.5701942 0.8215098 0
vn 0.5701942 0.8215098 0
vn 0.2964498 0.9550484 0
vn 0.2964498 0.9550484 0
vn 0 1 0
vn 0 1 0
vn -0.2964498 0.9550484 0
vn -0.2964498 0.9550484 0
vn -0.5701951 0.8215093 0
vn -0.5701951 0.8215093 0
vn -0.6907699 0.7230748 0
vn -0.6907699 0.7230748 0
vn -1 0 0
vn -1 0 0
vn -1 0 0
vn -1 0 0
vn -1 0 0
vn -1 0 0
vn -1 0 0
vn -1 0 0
vn -1 0 0
vn -1 0 0
vn -0.6907685 -0.7230759 0
vn -0.6907685 -0.7230759 0
vn -0.5701941 -0.82151 0
vn -0.5701941 -0.82151 0
vn -0.2964494 -0.9550486 0
vn -0.2964494 -0.9550486 0
vn 0 -1 0
vn 0 -1 0
vn 0.2964495 -0.9550486 0
vn 0.2964495 -0.9550486 0
vn 0.5701942 -0.82151 0
vn 0.5701942 -0.82151 0
vn 0.6907685 -0.7230759 0
vn 0.6907685 -0.7230759 0
vn 1 0 0
vn 1 0 0
vn 1 0 0
vn 1 0 0
vn 1 0 0
vn 1 0 0
vn 1 0 0
vn 1 0 0
vn 0 0 1
vn 0 0 1
vn 0 0 1
vn 0 0 1
vn 0 0 1
vn 0 0 1
vn 0 0 1
vn 0 0 1
vn 0 0 1
vn 0 0 1
vn 0 0 1
vn 0 0 1
vn 0 0 1
vn 0 0 1
vn 0 0 1
vn 0 0 1
vn 0 0 1
vn 0 0 1
vn 0 0 1
vn 0 0 1
vn 0 0 1
vn -5.237368E-07 0 -1
vn 0 0 -1
vn 0 0 -1
vn -4.038496E-07 0 -1
vn 0 0 -1
vn 6.283815E-07 0 -1
vn 0 0 -1
vn 0 0 -1
vn 0 0 -1
vn 0 0 -1
vn 0 0 -1
vn 4.038494E-07 0 -1
vn 0 0 -1
vn 3.58246E-07 0 -1
vn 0 0 -1
vn 0 0 -1
vn 0 0 -1
vn 0 0 -1
vn 4.038514E-07 0 -1
vn 0 0 -1
vn 5.2374E-07 0 -1
g TurretPart02Mesh_0
f 3/3/3 2/2/2 1/1/1
f 4/4/4 3/3/3 1/1/1
f 7/7/7 6/6/6 5/5/5
f 6/6/6 8/8/8 5/5/5
f 8/8/8 6/6/6 9/9/9
f 10/10/10 8/8/8 9/9/9
f 12/12/12 9/9/9 11/11/11
f 13/13/13 12/12/12 11/11/11
f 16/16/16 15/15/15 14/14/14
f 17/17/17 16/16/16 14/14/14
f 20/20/20 19/19/19 18/18/18
f 21/21/21 20/20/20 18/18/18
f 24/24/24 23/23/23 22/22/22
f 25/25/25 24/24/24 22/22/22
f 28/28/28 27/27/27 26/26/26
f 29/29/29 28/28/28 26/26/26
f 32/32/32 31/31/31 30/30/30
f 33/33/33 32/32/32 30/30/30
f 36/36/36 35/35/35 34/34/34
f 37/37/37 36/36/36 34/34/34
f 40/40/40 39/39/39 38/38/38
f 39/39/39 41/41/41 38/38/38
f 43/43/43 42/42/42 41/41/41
f 42/42/42 44/44/44 41/41/41
f 42/42/42 45/45/45 44/44/44
f 45/45/45 46/46/46 44/44/44
f 48/48/48 47/47/47 46/46/46
f 49/49/49 48/48/48 46/46/46
f 52/52/52 51/51/51 50/50/50
f 53/53/53 52/52/52 50/50/50
f 56/56/56 55/55/55 54/54/54
f 57/57/57 56/56/56 54/54/54
f 60/60/60 59/59/59 58/58/58
f 61/61/61 60/60/60 58/58/58
f 64/64/64 63/63/63 62/62/62
f 65/65/65 64/64/64 62/62/62
f 68/68/68 67/67/67 66/66/66
f 69/69/69 68/68/68 66/66/66
f 72/72/72 71/71/71 70/70/70
f 73/73/73 72/72/72 70/70/70
f 76/76/76 75/75/75 74/74/74
f 77/77/77 76/76/76 74/74/74
f 80/80/80 79/79/79 78/78/78
f 81/81/81 80/80/80 78/78/78
f 82/82/82 80/80/80 81/81/81
f 83/83/83 82/82/82 81/81/81
f 84/84/84 82/82/82 83/83/83
f 85/85/85 84/84/84 83/83/83
f 86/86/86 84/84/84 85/85/85
f 87/87/87 86/86/86 85/85/85
f 88/88/88 86/86/86 87/87/87
f 89/89/89 88/88/88 87/87/87
f 90/90/90 88/88/88 89/89/89
f 91/91/91 90/90/90 89/89/89
f 94/94/94 93/93/93 92/92/92
f 95/95/95 94/94/94 92/92/92
f 96/96/96 94/94/94 95/95/95
f 97/97/97 96/96/96 95/95/95
f 98/98/98 96/96/96 97/97/97
f 99/99/99 98/98/98 97/97/97
f 100/100/100 98/98/98 99/99/99
f 101/101/101 100/100/100 99/99/99
f 104/104/104 103/103/103 102/102/102
f 105/105/105 104/104/104 102/102/102
f 106/106/106 104/104/104 105/105/105
f 107/107/107 106/106/106 105/105/105
f 108/108/108 106/106/106 107/107/107
f 109/109/109 108/108/108 107/107/107
f 110/110/110 108/108/108 109/109/109
f 111/111/111 110/110/110 109/109/109
f 112/112/112 110/110/110 111/111/111
f 113/113/113 112/112/112 111/111/111
f 114/114/114 112/112/112 113/113/113
f 115/115/115 114/114/114 113/113/113
f 118/118/118 117/117/117 116/116/116
f 119/119/119 118/118/118 116/116/116
f 120/120/120 118/118/118 119/119/119
f 121/121/121 120/120/120 119/119/119
f 122/122/122 120/120/120 121/121/121
f 123/123/123 122/122/122 121/121/121
f 126/126/126 125/125/125 124/124/124
f 124/124/124 125/125/125 127/127/127
f 128/128/128 125/125/125 126/126/126
f 127/127/127 125/125/125 129/129/129
f 130/130/130 125/125/125 128/128/128
f 129/129/129 125/125/125 131/131/131
f 132/132/132 125/125/125 130/130/130
f 131/131/131 125/125/125 133/133/133
f 134/134/134 125/125/125 132/132/132
f 133/133/133 125/125/125 135/135/135
f 136/136/136 125/125/125 134/134/134
f 135/135/135 125/125/125 137/137/137
f 138/138/138 125/125/125 136/136/136
f 137/137/137 125/125/125 139/139/139
f 140/140/140 125/125/125 138/138/138
f 139/139/139 125/125/125 141/141/141
f 142/142/142 125/125/125 140/140/140
f 141/141/141 125/125/125 143/143/143
f 144/144/144 125/125/125 142/142/142
f 143/143/143 125/125/125 144/144/144
f 147/147/147 146/146/146 145/145/145
f 145/145/145 146/146/146 148/148/148
f 149/149/149 146/146/146 147/147/147
f 148/148/148 146/146/146 150/150/150
f 151/151/151 146/146/146 149/149/149
f 150/150/150 146/146/146 152/152/152
f 153/153/153 146/146/146 151/151/151
f 152/152/152 146/146/146 154/154/154
f 155/155/155 146/146/146 153/153/153
f 154/154/154 146/146/146 156/156/156
f 157/157/157 146/146/146 155/155/155
f 156/156/156 146/146/146 158/158/158
f 159/159/159 146/146/146 157/157/157
f 158/158/158 146/146/146 160/160/160
f 161/161/161 146/146/146 159/159/159
f 160/160/160 146/146/146 162/162/162
f 163/163/163 146/146/146 161/161/161
f 162/162/162 146/146/146 164/164/164
f 165/165/165 146/146/146 163/163/163
f 164/164/164 146/146/146 165/165/165
